<?xml version="1.0" encoding="UTF-8"?>
<svg id="Layer_2" data-name="Layer 2" xmlns="http://www.w3.org/2000/svg" xmlns:xlink="http://www.w3.org/1999/xlink" viewBox="0 0 142.915 142.915">
  <defs>
    <style>
      .cls-1, .cls-2 {
        fill: #6cb0f0;
      }

      .cls-3, .cls-4 {
        fill: #fff;
      }

      .cls-5, .cls-6 {
        fill: none;
      }

      .cls-7 {
        clip-path: url(#clippath-1);
      }

      .cls-8 {
        fill: #c2325b;
      }

      .cls-8, .cls-6, .cls-2, .cls-9, .cls-4 {
        stroke: #42272f;
        stroke-linecap: round;
        stroke-linejoin: round;
      }

      .cls-10 {
        fill: #fac95f;
      }

      .cls-11 {
        clip-path: url(#clippath);
      }

      .cls-9 {
        fill: #ff75a8;
      }

      .cls-12 {
        fill: #42272f;
      }
    </style>
    <clipPath id="clippath">
      <rect class="cls-5" width="142.915" height="142.915"/>
    </clipPath>
    <clipPath id="clippath-1">
      <path class="cls-2" d="M123.1125,103.1799c6.9501-13.038-3.9551-41.1643-19.5903-53.5649-15.6351-12.4006-38.1402-15.4765-56.5295-7.7262-18.3892,7.7503-31.9036,26.0069-33.946,45.8579-1.1299,10.9812,2.4749,24.0419,12.7885,27.9782,32.1198,12.259,86.5959,7.4926,97.2773-12.545Z"/>
    </clipPath>
  </defs>
  <g id="Layer_1-2" data-name="Layer 1">
    <g class="cls-11">
      <g>
        <g>
          <path class="cls-2" d="M46.7225,146.9328c7.0648-7.6294,11.7717-17.4128,13.8284-28.6886,6.7573-.1877,13.5146-.3754,21.1461-.5728,3.5434,10.8472,4.3337,22.5817,2.2769,33.8061"/>
          <path class="cls-3" d="M61.2193,150.4701c5.2093-9.5308,7.8439-20.4532,7.4144-30.4952,3.5684.0685,7.142-.1366,11.3916.3588,2.7529,10.1634,3.2839,20.9224,1.5448,31.3075-6.8298-.0599-13.6596-.1197-20.3508-1.1711Z"/>
        </g>
        <g>
          <g>
            <path class="cls-2" d="M62.5084,48.1793c.5977-12.9356,8.9037-27.3971,20.1157-37.5182,18.5641,9.8041,30.0094,34.2946,31.7616,51.0666"/>
            <path class="cls-9" d="M108.1305,55.5217c-2.709-1.3833-11.6347-5.1501-14.5912-4.1222.8855-1.4814.7924-3.5569-.4786-4.6112-1.2709-1.0542-3.5101-.9133-4.7692.3001,1.371-1.1691,2.0476-2.9491,1.5088-4.3477-.5387-1.3986-2.2353-2.2665-3.8498-1.9694-1.6144.2972-3.492,1.9033-3.6036,3.4216.4975-5.0206-1.1009-8.1844-1.7529-13.1068-.7943-5.9971.6112-11.9075,4.135-15.4394,10.2451,7.3886,24.0675,26.5763,23.4015,39.875Z"/>
          </g>
          <g>
            <path class="cls-1" d="M123.1125,103.1799c6.9501-13.038-3.9551-41.1643-19.5903-53.5649-15.6351-12.4006-38.1402-15.4765-56.5295-7.7262-18.3892,7.7503-31.9036,26.0069-33.946,45.8579-1.1299,10.9812,2.4749,24.0419,12.7885,27.9782,32.1198,12.259,86.5959,7.4926,97.2773-12.545Z"/>
            <g class="cls-7">
              <path class="cls-3" d="M43.917,124.4627c-4.8216-4.3777-7.008-11.4586-5.494-17.7925,1.5141-6.334,6.6664-11.6606,12.9465-13.3846,3.4489-.9467,7.0824-.8627,10.6455-1.1719,3.563-.3092,7.2696-1.1031,9.9681-3.4503-1.2248-6.707,1.5394-12.9344,6.4423-16.273,4.9028-3.3386,11.7099-3.6288,16.8791-.7197,5.1692,2.9092,8.4535,8.8786,7.9625,15.2032,2.0831,1.1611,4.1662,2.3221,6.451,4.3798,2.2465-2.3778,6.2628-2.5078,9.0178-.744,2.7549,1.7638,4.2919,5.0408,4.5556,8.3014.2636,3.2605-.6031,6.5159-1.8083,9.5569-1.916,4.8346-4.7902,9.4052-8.9163,12.5706-4.9625,3.807-11.2986,5.2917-17.4825,6.2291-17.2877,2.6205-38.8366,8.4905-51.1673-2.705Z"/>
            </g>
            <path class="cls-6" d="M123.1125,103.1799c6.9501-13.038-3.9551-41.1643-19.5903-53.5649-15.6351-12.4006-38.1402-15.4765-56.5295-7.7262-18.3892,7.7503-31.9036,26.0069-33.946,45.8579-1.1299,10.9812,2.4749,24.0419,12.7885,27.9782,32.1198,12.259,86.5959,7.4926,97.2773-12.545Z"/>
          </g>
          <g>
            <path class="cls-12" d="M19.732,103.9832c-3.3815-.1137-6.6827.3276-9.8008,1.3979-3.1242,1.0524-6.0101,2.7127-8.6245,4.8608,2.0506-2.7152,5.0551-4.6961,8.303-5.8071,3.2535-1.0951,6.8417-1.3536,10.1223-.4516Z"/>
            <path class="cls-12" d="M23.2555,110.9635c-2.9795,1.2018-5.661,2.8657-7.9287,5.0124-2.2801,2.1336-4.1041,4.7073-5.4884,7.6069.6313-3.1707,2.4316-6.0943,4.8037-8.3349,2.3832-2.229,5.4106-3.846,8.6134-4.2844Z"/>
            <path class="cls-12" d="M122.7958,91.8062c1.9259-1.9645,4.6909-3.0671,7.4635-3.2903,2.7733-.2126,5.6776.4469,7.8843,2.0903-2.5653-.9243-5.1929-1.3044-7.8064-1.094-2.6145.1962-5.1525.9803-7.5414,2.294Z"/>
            <path class="cls-12" d="M122.5095,100.8376c2.3719-1.2145,5.2659-1.3393,7.8672-.6344,2.5987.7139,5.0285,2.2937,6.4512,4.5474-2.0129-1.707-4.2716-2.9215-6.7147-3.5833-2.4394-.6747-5.0033-.7781-7.6037-.3297Z"/>
          </g>
          <g>
            <path class="cls-2" d="M52.0084,40.6629c-13.645-8.8468-35.9525-9.6315-50.3189-6.6835-2.0687,16.8984,3.2553,33.6752,13.5224,47.0527"/>
            <path class="cls-9" d="M17.4293,76.9026c1.0258-2.8937,3.2289-5.5623,6.0944-6.869-1.6657-.4648-3.0257-2.0439-2.8233-3.6972.2025-1.6533,1.9341-3.1082,3.6882-3.0988-1.8053.1007-3.5239-.7273-4.0929-2.1224-.569-1.3952.0724-3.2087,1.4555-4.115,1.383-.9063,3.8588-1.0407,4.9849-.0105-3.8176-3.3169-4.8275-6.7371-7.7384-10.782-3.5463-4.928-8.639-8.2625-13.6416-8.388-1.5846,12.0701,2.4369,29.8435,12.0732,39.0829Z"/>
          </g>
          <g>
            <path class="cls-8" d="M79.1819,93.0196c-.1791,3.4766-1.8535,6.6725-2.8796,9.9991-1.0262,3.3265-1.2802,7.3087.9949,9.9436,2.2455,2.6008,6.3087,2.9491,9.5184,1.7226,3.8614-1.4755,6.7778-4.8144,8.6105-8.5196s2.7129-7.7959,3.5767-11.8383c-5.883-1.6211-12.113-1.9709-19.8209-1.3074Z"/>
            <path class="cls-9" d="M85.7489,86.8432c2.5644-1.2173,5.9716-1.4744,8.5653-.3797.4392.1854.5911.6733.3122,1.0394-.6922.9086-1.7116,1.6489-2.9923,2.141-.8381.322-1.7767.384-2.6538.2093-1.1577-.2305-2.3062-.641-3.3782-1.2238-.75-.4078-.6471-1.4094.1468-1.7862Z"/>
            <path class="cls-4" d="M78.967,92.0966c-.3936,1.7476.7086,3.6058,2.2924,4.4429,1.5838.8372,3.5175.789,5.2303.264,1.7128-.5249,3.254-1.4847,5.1532-2.6252,1.2844.8136,2.6063,1.633,4.0906,1.9625,1.4842.3295,3.186.0821,4.2498-1.0041,1.0639-1.0862,1.1672-3.1043-.0305-4.0408"/>
            <g>
              <path class="cls-12" d="M46.7169,92.7926c4.1531,2.9383,10.7632,3.7288,16.4137,3.5377,2.8362-.096,5.8557-.6362,7.9019-2.6025,2.4366-2.3414,2.8622-6.109,2.4235-9.4596-.8713-6.6556-4.6816-12.8722-10.2168-16.6692-2.3243-1.5944-5.1492-2.8038-7.9142-2.2567-2.0765.4108-3.8472,1.7628-5.3206,3.2825-4.5833,4.7276-6.95,11.52-6.2969,18.0721.2469,2.477,1.3452,4.9182,3.0094,6.0957Z"/>
              <path class="cls-10" d="M75.76,80.3619c-4.0843-.5117-8.397-1.1163-11.6131-3.6854-2.2325-1.7834-3.7133-4.3698-4.6249-7.0779-.9116-2.7082-1.298-5.5602-1.6798-8.392-1.0531,5.326-1.8086,11.0707-5.3273,15.2071-2.7294,3.2085-6.8681,5.0215-11.1913,5.4415,4.6926.3146,9.2449,2.404,12.5428,5.7571,3.2979,3.3531,5.3116,7.9394,6.118,12.023.6256-5.188,1.4689-10.8256,5.274-14.4074,2.8879-2.7185,6.9471-3.713,10.5016-4.866Z"/>
            </g>
            <g>
              <path class="cls-12" d="M100.993,60.4803c-5.6621.0928-3.4085,27.7022,1.9409,31.1153,6.5572,4.1836,17.8719-2.6742,16.0201-11.3436-1.7716-8.2937-8.8901-19.9204-17.961-19.7717Z"/>
              <path class="cls-10" d="M110.8866,95.509c-1.1345-4.5647-2.4199-9.3951-5.8458-12.6179-2.368-2.2276-5.6453-3.4586-8.8942-3.3406,2.7467-.9113,4.8639-3.093,5.8744-5.6329,1.0105-2.5399,1.0187-5.3903.4976-8.0737-.5211-2.6834-1.5457-5.2388-2.3605-7.811,4.7118,3.8512,5.4659,11.3109,10.5267,14.6902,2.4972,1.6675,5.826,2.0134,8.9426,1.2227-2.597.7278-4.6126,2.8823-5.7637,5.3214-1.151,2.4392-1.549,5.1584-1.8326,7.8405-.2835,2.6821-.4706,5.3979-1.1445,8.4013Z"/>
            </g>
          </g>
        </g>
      </g>
    </g>
  </g>
</svg>