<?xml version="1.0" encoding="UTF-8"?>
<svg id="Layer_1" data-name="Layer 1" xmlns="http://www.w3.org/2000/svg" viewBox="0 0 186.6731 186.1904">
  <defs>
    <style>
      .cls-1 {
        fill: #1d1a36;
      }

      .cls-2 {
        fill: #ffebd0;
      }

      .cls-3 {
        fill: #1c1c1b;
        opacity: .1;
      }

      .cls-4 {
        fill: #ff8a8a;
      }

      .cls-5 {
        fill: #ff9f00;
      }
    </style>
  </defs>
  <g>
    <path class="cls-5" d="M135.6028,180.1922H29.957c0-15.7984,12.1611-40.6083,12.1611-40.6083h81.311s12.1737,24.8099,12.1737,40.6083Z"/>
    <path class="cls-1" d="M121.8797,139.9991c2.2546,4.6033,4.2156,9.3717,6.0088,14.1705,3.0949,8.2821,6.0963,17.2458,6.1546,26.178.0095,1.4652,3.1273.8936,3.1194-.3107-.0586-8.9964-2.9215-17.9204-6.0191-26.2783-1.8318-4.9428-3.8448-9.8531-6.1648-14.5899-.5911-1.2067-3.6348-.2638-3.0989.8304h0Z"/>
    <path class="cls-1" d="M31.5064,179.7771c.0584-8.9599,3.0484-17.9366,6.1505-26.2465,1.7913-4.7986,3.7502-9.567,6.0025-14.1705.3649-.7456-2.6367-.4639-3.0827.4476-2.3177,4.737-4.3286,9.6472-6.1585,14.5899-3.0848,8.332-5.9522,17.2416-6.0106,26.2098-.0051.7803,3.0917.2602,3.0988-.8303h0Z"/>
    <path class="cls-2" d="M116.0934,180.1895H49.4663s-.947-8.5123,4.3147-21.8013c.5562-1.4258-3.5177-3.308-3.5177-18.807h65.0333c0,15.499-4.0739,17.3812-3.5177,18.807,5.2616,13.289,4.3145,21.8013,4.3145,21.8013Z"/>
  </g>
  <g>
    <g>
      <path class="cls-5" d="M81.1223,80.4098S110.2096,1.9217,93.6898.7953c-20.6147-1.4055-61.2601,39.5348-62.5643,50.6539-.8532,7.2737,4.8853,17.4223,4.8853,17.4223l45.1115,11.5383Z"/>
      <path class="cls-1" d="M82.654,80.1497c4.4182-11.9286,8.3088-24.0987,11.6672-36.3654,2.3819-8.6999,4.5767-17.5512,5.5855-26.5305.3768-3.3534.6325-6.8025.1964-10.1635-.2713-2.0906-.8443-4.5349-2.5745-5.9274-2.1845-1.7582-5.8011-1.1236-8.3066-.6578-4.6209.8589-9.0261,2.7289-13.1531,4.9361-10.1166,5.4107-19.1956,12.8569-27.4157,20.8052-3.8855,3.7569-7.6085,7.6998-11.0241,11.8912-2.5035,3.072-4.9872,6.3089-6.7577,9.872-1.9636,3.9515-1.4764,8.0539-.2292,12.2205.796,2.6595,1.8697,5.2431,3.1172,7.7217.3511.6976.5233,1.2851,1.2041,1.6005.724.3354,1.6812.43,2.4513.627l4.6389,1.1865c4.3925,1.1234,8.785,2.2469,13.1775,3.3704,7.7489,1.982,15.4978,3.9639,23.2466,5.9459.4593.1175.9187.2349,1.378.3524.6694.1713,1.5789-.0442,2.1706-.3788.264-.1493,1.0687-.6899.3625-.8705-13.8367-3.5391-27.6733-7.0781-41.51-10.6172-.9744-.2492-1.9556-.5656-2.9439-.7529-.183-.0347-.4326-.0729-.602-.154.3668.1757.1281.1102-.0763-.3657-2.1958-5.113-4.9364-10.2094-4.6533-15.9756.1449-2.9525,1.8971-5.6911,3.4764-8.0905,2.512-3.8166,5.4772-7.3397,8.5453-10.7173,7.5128-8.2711,15.9517-15.8688,25.1677-22.2004,4.2476-2.9183,8.7262-5.6447,13.5316-7.5468,2.8545-1.1299,6.9207-2.6627,10.0284-1.7878,4.6116,1.2984,3.9822,9.507,3.7672,12.9984-.5207,8.4564-2.509,16.8498-4.6134,25.0303-3.5086,13.6388-7.8282,27.1058-12.6494,40.3368-.0884.2426-.1768.4853-.2665.7275-.2351.6345,2.7547.3127,3.0633-.5203Z"/>
    </g>
    <path class="cls-3" d="M96.4208,29.1849c-4.7909,22.8707-15.2995,51.2309-15.2995,51.2309l-45.1139-11.5495s-2.866-5.0759-4.2491-10.6225c7.2719-8.3555,28.6312-28.7024,64.6625-29.0589Z"/>
  </g>
  <g>
    <g>
      <path class="cls-5" d="M144.8044,94.3259S191.1461,11.9117,172.2075,6.6614C148.5744.1096,94.9185,36.9802,91.6132,49.3318c-2.1622,8.08,2.8409,21.0176,2.8409,21.0176l50.3503,23.9765Z"/>
      <path class="cls-1" d="M146.336,94.0658c7.2296-12.8621,13.8583-26.1313,19.8226-39.6232,4.1628-9.4167,8.1597-19.0805,10.6146-29.1043.8937-3.6489,1.6442-7.4615,1.52-11.2369-.0806-2.4493-.5828-5.2245-2.551-6.8979-2.7232-2.3153-7.6624-2.1114-10.9747-1.9278-5.6974.3159-11.3112,1.7987-16.6851,3.6486-12.5224,4.3108-24.3485,10.9345-35.2104,18.4551-4.8298,3.3441-9.5253,6.9295-13.8607,10.8992-2.9657,2.7155-6.0601,5.6906-8.0395,9.237-2.8044,5.0247-1.2875,12.002.0595,17.2345.3287,1.2769.6969,2.5439,1.1032,3.7982.1978.6107.3441,1.5919.7329,2.1183.28.3789.723.5057,1.1622.7148,15.9886,7.6137,31.9772,15.2273,47.9658,22.841.4508.2147.9016.4294,1.3525.644.6008.2861,1.4113.0862,2.0047-.1423.1331-.0512,1.4292-.6907.9083-.9388-14.8987-7.0946-29.7973-14.1892-44.696-21.2839-1.3139-.6256-2.6278-1.2513-3.9417-1.877-.4795-.2283-1.3039-.4411-1.7017-.8103.1828.1696-.2124-.6856-.2899-.9082-.3959-1.1371-.7549-2.2874-1.0841-3.4456-.9453-3.3259-1.6743-6.7507-1.8763-10.209-.1482-2.538-.0969-5.294,1.0328-7.6267.7203-1.4873,1.742-2.8232,2.8017-4.0815,3.132-3.7189,6.8558-6.9602,10.6449-9.9882,9.9993-7.991,21.1041-14.8292,32.7583-20.122,5.431-2.4665,11.0827-4.6192,16.9231-5.8901,4.5013-.9794,9.7663-1.6896,14.2504-.2157,5.6477,1.8564,4.234,10.5415,3.4237,14.8734-1.7613,9.415-5.362,18.5188-9.0599,27.3147-6.367,15.1448-13.7659,29.9093-21.7307,44.2759-.1471.2653-.2942.5305-.4428.7949-.2656.4727,2.6082.2896,3.0633-.5202Z"/>
    </g>
    <path class="cls-4" d="M132.3829,87.7323s36.5237-63.2784,27.8343-66.4636c-8.365-3.0664-51.5315,22.5329-53.8898,31.3455-1.5426,5.7648.486,23.1066.486,23.1066l25.5695,12.0115Z"/>
    <path class="cls-3" d="M151.5157,81.8132c-3.9211,7.557-6.7157,12.519-6.7157,12.519l-50.3469-23.9829s-5.0048-12.9325-2.8375-21.0171c1.0266-3.8213,6.9012-10.0239,15.2139-16.5399,15.2851,4.4629,36.8298,26.5494,44.6862,49.0209Z"/>
  </g>
  <g>
    <path class="cls-5" d="M164.0108,128.1893c-1.5829,2.5382-12.3194,1.1124-12.3194,1.1124,0,0,5.4894,6.0882,3.9496,7.5855-2.3384,2.267-8.384,4.5768-8.384,4.5768-16.8252,12.3194-39.5674,19.7483-64.4773,19.7483s-47.6518-7.4289-64.4769-19.7483c0,0-6.0456-2.3098-8.384-4.5768-1.54-1.4973,3.9494-7.5855,3.9494-7.5855,0,0-10.7365,1.4258-12.3192-1.1124-.4705-.7555,3.4791-7.9846,8.9258-12.4904,0,0,8.6691-33.2508,20.7746-45.9838-.7698-1.0835-2.3099-3.4506-1.8392-4.2491.5987-1.055,5.0474-.6273,5.0474-.6273,0,0-3.9495-3.8782-2.7946-5.2043,1.3687-1.6112,7.4572-1.7539,8.7977-1.7682.8127-.9266,1.5825-1.768,2.3241-2.5522,13.1178-13.7453,33.3506-14.5295,39.9949-14.5295s26.8775.7842,39.9953,14.5295c.7415.7842,1.5114,1.6256,2.3241,2.5522,1.3403.0143,7.4288.157,8.7977,1.7682,1.1549,1.3261-2.7947,5.2043-2.7947,5.2043,0,0,4.4486-.4277,5.0474.6273.4706.7985-1.0694,3.1656-1.8392,4.2491,12.1053,12.733,20.7746,45.9838,20.7746,45.9838,5.4468,4.5058,9.3963,11.7349,8.9259,12.4904Z"/>
    <path class="cls-2" d="M164.0108,128.1893c-1.5829,2.5382-12.3194,1.1124-12.3194,1.1124,0,0,5.4894,6.0882,3.9496,7.5855-2.3384,2.267-8.384,4.5768-8.384,4.5768-16.8252,12.3194-39.5674,19.7483-64.4773,19.7483s-47.6518-7.4289-64.4769-19.7483c0,0-6.0456-2.3098-8.384-4.5768-1.54-1.4973,3.9494-7.5855,3.9494-7.5855,0,0-10.7365,1.4258-12.3192-1.1124-.4705-.7555,3.4791-7.9846,8.9258-12.4904,0,0,.0571-.2138.1711-.6274,3.3364-1.3402,5.4323-3.0528,9.6663-2.8088,6.3457.3654,11.8949,16.8249,21.8059,16.8249,12.0911,0,21.3407-9.71,21.3407-9.71h14.4579s13.5401,14.4158,32.9437,9.71c9.6316-2.3357,9.7165-13.1543,21.5843-16.8249,8.0605-2.4932,20.1735,2.1957,22.5973,3.2509.0287.1282.0429.1853.0429.1853,5.4468,4.5058,9.3963,11.7349,8.9259,12.4904Z"/>
    <g>
      <g>
        <path class="cls-1" d="M42.1071,108.3817c-5.0239,0-8.8217,4.0669-8.6722,9.4495.1479,5.3209,4.0372,8.4927,8.6722,8.4927,5.0538,0,8.6422-4.2763,8.6422-8.971s-3.439-8.9712-8.6422-8.9712Z"/>
        <path class="cls-1" d="M100.1978,108.3817c5.0237,0,8.8215,4.0669,8.6721,9.4495-.1477,5.3209-4.037,8.4927-8.6721,8.4927-5.0538,0-8.6422-4.2763-8.6422-8.971s3.4389-8.9712,8.6422-8.9712Z"/>
      </g>
      <path class="cls-4" d="M25.2846,124.0169c5.77-.3528,9.994,1.7171,10.545,3.8341s-5.8,3.358-9.6689,3.358-9.855-.73-10.074-2.993,3.7959-3.8689,9.1979-4.1991Z"/>
      <path class="cls-4" d="M116.5893,124.0169c5.77-.3528,9.9938,1.7171,10.5449,3.8341.551,2.117-5.7999,3.358-9.669,3.358s-9.8548-.73-10.0738-2.993,3.7959-3.8689,9.1979-4.1991Z"/>
      <path class="cls-2" d="M36.1894,95.7054c1.549-3.5368,11.1377-4.1221,16.5009,1.421,3.4732,3.5897.3832,10.6386-4.3569,10.1063-3.5439-.3979-13.889-7.5437-12.144-11.5273Z"/>
      <path class="cls-2" d="M103.7486,95.7054c-1.5491-3.5368-11.1377-4.1221-16.5011,1.421-3.4732,3.5897-.383,10.6386,4.3571,10.1063,3.5437-.3979,13.8889-7.5437,12.144-11.5273Z"/>
      <path class="cls-1" d="M78.8947,118.3942c0,1.2547-6.8013,5.6036-10.3516,5.6036-3.5647,0-10.3517-4.3489-10.3517-5.6036,0-1.2691,3.5931-3.6401,10.3517-3.6401s10.3516,2.371,10.3516,3.6401Z"/>
      <g>
        <path class="cls-1" d="M61.8228,133.4542c4.8451-7.6064,16.0091-9.7344,23.8183-5.7075-8.3449.1239-16.488,1.4405-23.8183,5.7075h0Z"/>
        <path class="cls-1" d="M83.4995,119.1523c.0331,4.3266,1.9944,8.2573,5.3625,10.9196.4716.4006.9824.7562,1.4625,1.2025-.617-.1607-1.2349-.36-1.8342-.609-4.2563-1.7969-6.9175-7.1498-4.9908-11.5131h0Z"/>
      </g>
    </g>
    <path class="cls-1" d="M121.3526,55.9819c.4809.5101.9574,1.0243,1.4273,1.5447.5059.5602.9569,1.3302,1.7701,1.4184.559.0607,1.144.0249,1.7066.0536,1.696.0866,3.4689.1984,5.0937.726.3581.1163.5807.1897.8819.3854.0308.02.2945.2308.1658.1089.1776.1682.1031.0724.1331.1947.0792.3221-.3014,1.013-.5932,1.476-.5817.9228-1.3463,1.7657-2.1222,2.5308-.8687.8567.313,1.5767,1.1346,1.4993,1.1709-.1101,2.3893-.184,3.3239.0245.0602.0135.5334.0961.31.0714.2437.027.079.1899.0937.0455.0224-.22-.0221.1348-.026.1521-.0454.1989-.0921.3689-.1675.5584-.3561.895-.9076,1.7414-1.4605,2.5252-.2136.3028-.4579.744-.136,1.0862.7001.7444,1.3621,1.5192,1.9976,2.3193.8315,1.0469,3.7921-.1431,2.8447-1.3359-.6354-.8001-1.2974-1.5749-1.9976-2.3193-.0453.3621-.0907.7242-.136,1.0862,1.0339-1.4658,3.7234-4.9311.9896-6.0396-1.6008-.6491-3.6447-.4949-5.3323-.3361.3782.4998.7563.9995,1.1345,1.4993,1.3721-1.353,4.7742-4.8155,2.549-6.6533-1.2741-1.0522-3.2241-1.309-4.8031-1.5182-1.4857-.1967-2.9881-.2804-4.4861-.2979.2911.1369.5822.2738.8733.4108-.7603-.8641-1.5346-1.7149-2.3242-2.5523-.9177-.9734-3.8625.2565-2.8447,1.3359h0Z"/>
    <path class="cls-3" d="M164.0108,128.1893c-1.5827,2.5382-12.3194,1.1124-12.3194,1.1124,0,0,5.4895,6.0882,3.9496,7.5855-2.3384,2.267-8.384,4.5768-8.384,4.5768-16.8251,12.3194-39.5674,19.7483-64.4771,19.7483s-47.652-7.4289-64.4771-19.7483c0,0-6.0456-2.3098-8.384-4.5768-1.54-1.4973,3.9496-7.5855,3.9496-7.5855,0,0-10.7367,1.4258-12.3194-1.1124-.4705-.7555,3.4791-7.9846,8.9258-12.4904,0,0,2.8945-11.1074,7.6854-22.9563-1.0694,4.0922-12.7899,55.865,64.6054,55.865,79.249,0,65.076-54.1967,64.5484-56.0789,4.8337,11.9203,7.7709,23.1702,7.7709,23.1702,5.4468,4.5058,9.3964,11.7349,8.9259,12.4904Z"/>
    <path class="cls-1" d="M142.5234,85.5446c4.338,9.1894,7.7198,18.8572,10.4799,28.6313.1672.5922.2446,1.3851.5311,1.9338.4679.8962,1.624,1.5733,2.3341,2.3008.9949,1.0193,1.9224,2.1031,2.7896,3.2327,1.2531,1.6322,2.4793,3.3821,3.3426,5.2583.1087.2362.4723,1.3726.5463,1.1404.0699-.219-.001.0188-.2206.0766-.3161.0831-.6213.201-.9459.264-2.9379.57-6.1923.2264-9.14-.1596-.6946-.091-2.8577.7588-1.9715,1.7467.8757.9762,1.7005,2.01,2.4507,3.0853.5157.7392,1.0552,1.516,1.3782,2.3633.4125,1.082.2382,1.1367-.6725,1.7766-1.8256,1.2827-3.9265,2.2123-5.9814,3.0632-1.893.7839-3.4746,2.1844-5.188,3.3013-10.8077,7.0449-23.0798,11.7098-35.6976,14.264-26.4893,5.3622-55.63,1.669-79.1193-12.0349-1.4919-.8705-2.9601-1.7815-4.4015-2.7333-1.2624-.8336-2.4834-1.9205-3.8299-2.5965-1.7816-.8943-3.6612-1.5373-5.4024-2.5392-.6941-.3994-2.3985-1.1655-2.5864-1.9917-.1695-.7448.7192-1.9264,1.0818-2.5051.8245-1.3156,1.8175-2.5474,2.8539-3.7027.7778-.8671-.2426-1.6162-1.1346-1.4993-1.7215.2254-3.4647.3504-5.1998.3886-1.0349.0227-5.4458.1437-5.7254-.9085-.1666-.6274.879-2.0537,1.1806-2.5832.9548-1.676,2.0747-3.2557,3.2999-4.7442,1.2015-1.4597,2.6539-2.634,3.9145-4.0147.3732-.4088.4887-.6683.6446-1.1446,1.0715-3.2742,1.9055-6.6307,2.9813-9.9081,1.9258-5.8669,4.0773-11.6708,6.5949-17.3111,2.8179-6.3133,6.0528-12.7781,10.8251-17.8615.2866-.3052.3858-.7289.1361-1.0862-.5297-.7577-1.0796-1.5385-1.4544-2.3875-.0538-.131-.1075-.262-.1612-.393.0226-.3525-.1004-.4578-.3687-.3158-.3483.0752-.3371.0682.0337-.0212.1325-.0183.2654-.0327.3987-.0432.929-.0773,1.8607-.0542,2.7885.031.6336.0582,2.9342-.7929,1.9716-1.7467-.7952-.7879-2.8886-2.6496-2.8066-3.8485.0511-.7464,1.1007-.7923,1.8414-.9351,1.1694-.2254,2.3713-.3151,3.5591-.3794.7885-.0428,1.7094.07,2.4576-.2079,1.3875-.5156,2.504-2.4246,3.5237-3.4643,2.2724-2.3167,4.8652-4.3119,7.6392-5.9919,8.5357-5.1692,18.7423-7.2141,28.6218-7.455,6.444-.1572,12.9203.5254,19.1664,2.1246.7156.1833,1.7072.034,2.1912-.5871.4032-.5175.3558-1.2349-.3815-1.4237-15.8254-4.0519-34.4524-3.2123-49.0662,4.5591-5.2144,2.7729-9.5568,6.4743-13.4518,10.8865.4794-.221.9588-.4419,1.4381-.6629-3.0275.0393-7.5472-.0447-9.929,2.1373-2.1876,2.0041.8647,5.1107,2.3518,6.5842.6572-.5822,1.3143-1.1645,1.9715-1.7467-1.8565-.1705-4.1578-.3365-5.8745.5183-2.7434,1.366-.504,4.3899.6948,6.1048.0454-.362.0907-.7241.136-1.0862-5.6258,5.9926-9.3024,13.7937-12.4535,21.2935-2.8496,6.7823-5.251,13.7587-7.345,20.8092-.4371,1.4716-.8673,2.9467-1.2554,4.4321.1836-.2642.3672-.5283.5508-.7924-3.0519,2.5812-5.6484,5.6673-7.7228,9.0842-.831,1.3688-2.7564,3.9402-1.0598,5.3035,1.8754,1.507,5.0343,1.3731,7.2888,1.3536,1.9184-.0166,3.8475-.1486,5.7503-.3978-.3781-.4997-.7563-.9995-1.1345-1.4993-.9887,1.1022-1.9052,2.2775-2.7394,3.5004-.8158,1.1959-2.387,3.3487-1.5436,4.8717,1.0073,1.8189,4.0895,2.9801,5.8686,3.8168.8896.4184,1.8286.7537,2.7076,1.1896.9399.466,1.7545,1.1704,2.6379,1.7731,11.4287,7.7982,24.5609,12.9643,38.0792,15.7526,28.2674,5.8303,59.3167,1.7652,84.1584-13.314,2.3746-1.4414,4.6148-3.4841,7.1596-4.5455,2.5351-1.0574,5.2052-2.2548,7.3365-4.0169,3.1687-2.62-1.1925-7.1144-3.1329-9.2775-.6572.5822-1.3143,1.1645-1.9715,1.7467,2.9645.3883,6.0729.5994,9.0507.2841,1.6416-.1738,3.6532-.4981,4.8539-1.754.9378-.981.4356-2.0388-.0779-3.1142-1.0427-2.1837-2.437-4.2147-3.9443-6.1006-.8982-1.1238-1.8605-2.1989-2.8919-3.2024-.4674-.4547-1.3275-1.0108-1.5448-1.3847-.5111-.8796-.6364-2.3026-.9193-3.2724-.637-2.1847-1.3099-4.359-2.0143-6.5229-2.282-7.0105-4.8835-13.9291-8.0322-20.5991-.6129-1.2983-3.6723-.3844-3.0988.8304h0Z"/>
    <g>
      <path class="cls-1" d="M114.6821,65.9716c-.0921-.1552-.3418-.224-.4916-.1096-.4184.3194-.7007.9287-.9233,1.3969-.2608.549-.5166,1.1028-.7905,1.6452-.2756.5453-.5675,1.0823-.8472,1.6253-.3355.651-.5023.8789-.9194,1.3882-.8075.9858-1.6094,1.592-2.7,2.2433-1.055.6298-2.2655.9202-3.3398,1.4894-.1474.0782-.1476.3464.0153.4097,1.2955.504,2.8541.3773,4.1881.1364,1.5027-.2712,2.8743-1.0239,3.9313-2.1253,1.004-1.0462,1.7281-2.553,1.9686-3.9729.1198-.7062.1962-1.4251.2009-2.1413.0039-.6087.0263-1.448-.2924-1.9853Z"/>
      <path class="cls-1" d="M115.0434,82.3258c-.2594-1.3975-1.0118-2.6296-2.0865-3.5551-1.1496-.99-2.5842-1.4993-4.0993-1.4598-.7503.0197-1.5188.1277-2.2319.3592-.3463.1125-.6927.2294-1.0293.3687-.2475.1025-.4738.1597-.5646.4259-.0324.0948.0311.2318.1226.2722.1035.0455.1732.0442.2742-.0083.0194-.0101.0341-.0312.0482-.0515-.0312.1726.6201.2172.7467.2394.3026.0535.601.1288.9026.1838.6169.1124,1.2329.1868,1.8265.4048.4638.1704.9144.3782,1.3361.6365.3073.1881.6742.4555,1.0692.8327.0789.0756.1562.1529.2314.2323.0177.0187.1484.1631.1652.1795.1043.1202.2071.2424.3072.3662.0151.0225.131.1742.1494.1996.3295.4517.6497.9362.8998,1.4367.5176,1.0364.7431,2.1197.9441,3.2478.0435.2431.4255.2564.523.0486.6291-1.3406.7325-2.9207.4654-4.3592Z"/>
      <path class="cls-1" d="M126.3155,76.6888c-.5863-.2167-1.3617-.1355-1.9794-.0799-.6908.0621-1.356.2168-2.0109.4342-1.4774.4904-2.7138,1.2734-3.8141,2.3159-1.0607,1.0051-1.7478,2.2528-2.2005,3.583-.2155.6328-.3204,1.3145-.3113,1.977.0085.6188.0241,1.2707.4191,1.783.1073.1393.3373.1561.4598.0188.3825-.4286.5089-.9476.7533-1.4494.2495-.5124.4972-1.0246.7537-1.5343.5113-1.0164,1.1973-1.9502,1.96-2.8164.7562-.8592,1.7056-1.6219,2.6894-2.2453.5049-.3201,1.044-.6028,1.5816-.8715.5505-.2749,1.2201-.4241,1.7275-.7577.1301-.0854.1301-.299-.0282-.3574Z"/>
      <path class="cls-1" d="M126.2212,74.343c-1.0832-.2759-2.204-.5065-3.2251-.9171-1.0955-.4409-2.0186-1.0315-2.8741-1.7826-.8561-.7516-1.4176-1.6684-1.8796-2.7-.2298-.5132-.4039-1.065-.5605-1.6047-.0787-.2705-.119-.5455-.1843-.818-.031-.1296-.0586-.2969-.1343-.4105-.0475-.0713-.114-.138-.1257-.1895-.0305-.1326-.2334-.145-.2905-.027-.0271.0562-.1312.1262-.1897.1982-.0895.1101-.1438.2741-.1805.4085-.0843.3095-.128.635-.1628.9529-.0819.7456-.0146,1.442.1317,2.1762.2726,1.3661,1.0738,2.6891,1.9811,3.7319,1.7847,2.0515,5.3497,3.1955,7.8228,1.7441.3193-.1874.2102-.6762-.1285-.7624Z"/>
    </g>
  </g>
  <g>
    <g>
      <path class="cls-5" d="M82.9042,173.1907s-31.3461-29.049-51.2463-27.4805c-15.381,1.2124-22.0956,20.4436-9.6556,29.2282,17.0924,12.0698,60.9019-1.7477,60.9019-1.7477Z"/>
      <path class="cls-1" d="M84.3566,172.6346c-6.3629-5.889-13.3656-11.2267-20.6122-15.9702-5.6129-3.6741-11.5362-7.0518-17.8565-9.3528-5.6605-2.0607-11.8519-3.2183-17.7779-1.6007-6.0453,1.6501-11.2176,6.005-13.2486,12.0184-1.9148,5.6696-.62,11.9554,3.7247,16.146,4.1751,4.0268,10.1929,5.5951,15.7934,6.2834,6.5313.8026,13.1824.4494,19.7005-.296,9.7603-1.1161,19.6001-3.1336,28.9813-6.0859.3103-.0977,1.5784-.4685,1.3924-1.0012-.1821-.5214-1.3776-.2744-1.7065-.1709-6.9157,2.1764-14.0755,3.7529-21.2215,4.9334-6.1683,1.019-12.4215,1.6969-18.6806,1.6264-5.6439-.0637-11.6035-.7078-16.7377-3.2148-5.2776-2.577-8.9657-7.5016-9.032-13.4872-.0641-5.7905,3.2686-11.5613,8.347-14.3546,5.2234-2.873,11.4428-1.6991,16.8125.1135,6.082,2.0531,11.7698,5.1922,17.1692,8.6285,7.7808,4.9517,15.2722,10.6259,22.0478,16.8969.6639.6145,3.5193-.5433,2.9047-1.1122Z"/>
    </g>
    <g>
      <path class="cls-5" d="M56.8073,153.7389s40.668-13.1356,58.0542-3.3278c13.4378,7.5807,11.4238,27.8505-3.5595,30.5752-20.5867,3.7437-54.4947-27.2474-54.4947-27.2474Z"/>
      <path class="cls-1" d="M56.9643,154.325c7.454-2.4024,15.1911-4.1446,22.9156-5.3878,6.3424-1.0207,12.8181-1.6961,19.2484-1.3754,5.6691.2827,11.7637,1.2709,16.3961,4.7951,4.7059,3.5802,7.3119,9.5113,6.6785,15.4072-.6,5.5843-4.1891,10.932-9.8283,12.3663-5.2831,1.3436-11.1176-.2715-16.0754-2.1178-5.9136-2.2022-11.4746-5.2941-16.7837-8.6813-7.4731-4.7678-14.7017-10.1656-21.2559-16.1485-.6696-.6113-3.5194.5511-2.9046,1.1123,6.1519,5.6156,12.9087,10.6951,19.8699,15.2525,5.5105,3.6078,11.2942,6.9152,17.4308,9.341,5.4903,2.1703,11.4863,3.6895,17.4213,2.9222,5.8942-.7621,11.3556-4.0527,13.8553-9.577,2.4522-5.4195,1.7402-11.9695-1.5895-16.8544-7.3779-10.8237-23.749-9.9427-35.1668-8.7093-10.29,1.1115-20.6653,3.3049-30.5257,6.4828-.3097.0998-1.5789.467-1.3924,1.0012.1815.5198,1.3785.2766,1.7064.1709Z"/>
    </g>
  </g>
</svg>