<?xml version="1.0" encoding="UTF-8"?>
<svg id="Layer_2" data-name="Layer 2" xmlns="http://www.w3.org/2000/svg" xmlns:xlink="http://www.w3.org/1999/xlink" viewBox="0 0 150.7386 150.7386">
  <defs>
    <clipPath id="clippath">
      <rect width="150.7386" height="150.7386" fill="none"/>
    </clipPath>
    <clipPath id="clippath-1">
      <path d="M109.0274,161.4325c-1.6157-6.1452-4.902-17.2016-6.692-24.0101,12.738-4.2351,24.1956-8.2099,35.3919-17.3867,5.6976-4.6699,5.7963-14.3062-5.5528-12.8345-21.5645,2.7964-40.7554,11.829-80.8977,5.9674-13.9751-2.0406-26.8427-3.3683-39.7444-4.0421-11.7601-.6142-11.82,9.0592-4.8973,12.8404,11.4661,6.2628,23.5522,11.0422,35.6799,17.1264-1.7565,7.6244-3.5129,16.4749-5.2694,24.0993,23.8876.2635,45.4625.9932,71.9818-1.7601Z" fill="#658ee0" stroke="#42272f" stroke-linecap="round" stroke-linejoin="round"/>
    </clipPath>
    <clipPath id="clippath-2">
      <path d="M121.9421,81.577c.776-7.3564.2559-14.8476-1.5294-22.0261,6.109-11.4957,7.0218-25.613,2.3775-37.7221-12.9495-.0616-25.3068,3.6293-35.5072,10.5496-9.8904-2.472-20.7235-2.5856-31.0578-.3552-9.2345-6.8747-20.0626-11.018-31.1609-11.8556-7.2621,11.8027-7.94,26.6968-2.5825,39.1526-1.3801,7.9263-1.4827,16.4946.2035,25.6112-3.8422,4.2641-4.1009,11.0069-1.5108,16.1289,2.5901,5.1221,7.5741,8.7222,12.9455,10.7452,5.3713,2.023,11.1583,2.635,16.8811,3.0761,14.9794,1.1546,30.0708,1.2532,45.0038-.3961,6.0061-.6633,12.0784-1.6377,17.5419-4.2191,5.4634-2.5814,10.3123-6.9788,12.2297-12.7091,1.9174-5.7303.3182-12.7924-3.8344-15.9803Z" fill="#658ee0" stroke="#42272f" stroke-linecap="round" stroke-linejoin="round"/>
    </clipPath>
  </defs>
  <g id="Layer_1-2" data-name="Layer 1">
    <g clip-path="url(#clippath)">
      <g>
        <g>
          <g>
            <path d="M109.0274,161.4325c-1.6157-6.1452-4.902-17.2016-6.692-24.0101,12.738-4.2351,24.1956-8.2099,35.3919-17.3867,5.6976-4.6699,5.7963-14.3062-5.5528-12.8345-21.5645,2.7964-40.7554,11.829-80.8977,5.9674-13.9751-2.0406-26.8427-3.3683-39.7444-4.0421-11.7601-.6142-11.82,9.0592-4.8973,12.8404,11.4661,6.2628,23.5522,11.0422,35.6799,17.1264-1.7565,7.6244-3.5129,16.4749-5.2694,24.0993,23.8876.2635,45.4625.9932,71.9818-1.7601Z" fill="#658ee0"/>
            <g clip-path="url(#clippath-1)">
              <path d="M12.3718,107.1863c-1.8896.6302-3.7336,1.5408-5.112,2.9787-1.3784,1.438-2.2368,3.468-1.9235,5.4351.5127,3.2192,3.7557,5.1758,6.726,6.519,9.9721,4.5098,20.6673,7.1546,31.9753,10.1823,1.1171-3.6809,2.8238-7.1821,5.0352-10.3297-3.0583,14.5914-4.3099,29.5605-3.7172,44.4571-6.5406.2125-13.0684.8187-19.5363,1.8142.1586-5.3755.3171-10.7511.4757-16.1266.0526-1.7837.0546-3.7302-1.0482-5.1331-1.0468-1.3316-2.8117-1.8177-4.4446-2.2676-4.9188-1.3553-9.7832-3.0985-14.0856-5.8407-4.3025-2.7423-8.0367-6.5546-10.0437-11.2453-2.0071-4.6908-2.1278-10.3024.2968-14.7916,2.4246-4.4892,7.5688-7.5544,15.4021-5.6518Z" fill="#87bfff"/>
            </g>
            <path d="M109.0274,161.4325c-1.6157-6.1452-4.902-17.2016-6.692-24.0101,12.738-4.2351,24.1956-8.2099,35.3919-17.3867,5.6976-4.6699,5.7963-14.3062-5.5528-12.8345-21.5645,2.7964-40.7554,11.829-80.8977,5.9674-13.9751-2.0406-26.8427-3.3683-39.7444-4.0421-11.7601-.6142-11.82,9.0592-4.8973,12.8404,11.4661,6.2628,23.5522,11.0422,35.6799,17.1264-1.7565,7.6244-3.5129,16.4749-5.2694,24.0993,23.8876.2635,45.4625.9932,71.9818-1.7601Z" fill="none" stroke="#42272f" stroke-linecap="round" stroke-linejoin="round"/>
          </g>
          <g>
            <path d="M44.772,112.2991c8.0967,5.6919,17.9767,8.8069,27.8739,8.7883,9.8972-.0187,19.7653-3.171,27.8405-8.8934-19.001-1.4926-38.1082-1.6318-55.7144.1051Z" fill="#ff8090" stroke="#42272f" stroke-linecap="round" stroke-linejoin="round"/>
            <g>
              <ellipse cx="72.6574" cy="127.7649" rx="7.509" ry="7.5" fill="#fab050" stroke="#42272f" stroke-linecap="round" stroke-linejoin="round"/>
              <path d="M67.198,123.8075c-.8319.1095-1.5209.2391-2.3098.5575-.7459.3011-1.2514,1.0305-1.2416,1.8339,0,.0079.0002.0157.0003.0236.007.3817.2769.7142.6554.7676,4.7628.6711,12.3821.7423,16.8187-.4395.528-.1407.8867-.6696.7439-1.1965-.0018-.0068-.0037-.0137-.0056-.0205-.1802-.6496-.6684-1.1504-1.3198-1.3267-1.0686-.2891-2.1849-.4024-3.2898-.3313" fill="#fab050" stroke="#42272f" stroke-linecap="round" stroke-linejoin="round"/>
              <g>
                <path d="M70.4639,130.8918c0-1.2729,1.0331-2.3048,2.3075-2.3048s2.3076,1.0319,2.3076,2.3048-1.0331,2.3048-2.3076,2.3048-2.3075-1.0319-2.3075-2.3048Z" fill="#42272f"/>
                <path d="M71.9538,129.891l-.087-2.4189c.6329.0248,1.2659.0496,1.8988.0744-.0562.8524-.1124,1.7049-.1687,2.5574-.5101-.0207-1.0177-.1215-1.6431-.2129Z" fill="#42272f"/>
              </g>
            </g>
          </g>
          <g>
            <path d="M127.151,115.6835c-.4376-2.1505.7313-4.2038,2.6107-4.5863,1.8794-.3825,3.7578,1.0508,4.1954,3.2012.4376,2.1505-.7312,4.2038-2.6107,4.5863-1.8794.3824-3.7578-1.0508-4.1954-3.2012Z" fill="#ff75a8" stroke="#42272f" stroke-linecap="round" stroke-linejoin="round"/>
            <path d="M134.212,109.6134c1.4976-.968,3.3684-1.3416,5.1229-1.023" fill="none" stroke="#42272f" stroke-linecap="round" stroke-linejoin="round"/>
            <path d="M136.7988,114.0628c1.2963-.7498,2.788-1.1583,4.2855-1.1736" fill="none" stroke="#42272f" stroke-linecap="round" stroke-linejoin="round"/>
          </g>
          <g>
            <path d="M17.2985,117.6532c.7042-2.0785-.1975-4.2624-2.014-4.8778-1.8165-.6155-3.86.5705-4.5642,2.6489-.7042,2.0785.1974,4.2624,2.014,4.8778,1.8165.6155,3.8599-.5705,4.5642-2.6489Z" fill="#ff75a8" stroke="#42272f" stroke-linecap="round" stroke-linejoin="round"/>
            <path d="M9.6014,111.6386c-1.4976-.968-3.3683-1.3416-5.1229-1.023" fill="none" stroke="#42272f" stroke-linecap="round" stroke-linejoin="round"/>
            <path d="M7.0147,116.088c-1.2963-.7498-2.7881-1.1583-4.2855-1.1736" fill="none" stroke="#42272f" stroke-linecap="round" stroke-linejoin="round"/>
          </g>
          <g>
            <path d="M45.7897,126.8997c-1.2299,4.335-2.4598,8.67-3.6897,13.0049" fill="none" stroke="#42272f" stroke-linecap="round" stroke-linejoin="round"/>
            <path d="M98.4599,126.8902c1.6704,3.4484,2.9964,7.0636,3.9517,10.7743" fill="none" stroke="#42272f" stroke-linecap="round" stroke-linejoin="round"/>
          </g>
        </g>
        <g>
          <g>
            <path d="M121.9421,81.577c.776-7.3564.2559-14.8476-1.5294-22.0261,6.109-11.4957,7.0218-25.613,2.3775-37.7221-12.9495-.0616-25.3068,3.6293-35.5072,10.5496-9.8904-2.472-20.7235-2.5856-31.0578-.3552-9.2345-6.8747-20.0626-11.018-31.1609-11.8556-7.2621,11.8027-7.94,26.6968-2.5825,39.1526-1.3801,7.9263-1.4827,16.4946.2035,25.6112-3.8422,4.2641-4.1009,11.0069-1.5108,16.1289,2.5901,5.1221,7.5741,8.7222,12.9455,10.7452,5.3713,2.023,11.1583,2.635,16.8811,3.0761,14.9794,1.1546,30.0708,1.2532,45.0038-.3961,6.0061-.6633,12.0784-1.6377,17.5419-4.2191,5.4634-2.5814,10.3123-6.9788,12.2297-12.7091,1.9174-5.7303.3182-12.7924-3.8344-15.9803Z" fill="#658ee0"/>
            <g clip-path="url(#clippath-2)">
              <path d="M124.4491,19.6707c-11.3117,1.8183-22.0176,7.2336-30.185,15.2682,3.0095,1.6753,5.6306,4.0435,7.6017,6.8681-9.545-3.4752-19.5761-5.8827-29.7338-5.9562-10.1576-.0736-20.475,2.2868-29.0366,7.7533,1.4515-3.6511,4.0019-6.8571,7.28-9.8678-7.8402-4.5099-16.6777-7.2752-24.5913-8.7237-2.7523,9.5742-2.2253,20.059,2.0272,30.2665-3.2366,9.9337-3.2714,20.8835.3488,31.1103-3.7386,2.8483-4.9991,8.2031-3.7811,12.7425,1.218,4.5395,4.5444,8.2835,8.4248,10.9355s8.3205,4.3456,12.714,6.0151c-10.1046,2.1064-20.7746-2.8364-27.5601-10.6143-6.7855-7.7779-10.1887-17.9735-11.96-28.1421-3.4784-19.9691-1.1611-40.9133,6.5987-59.639,36.2008-4.4732,73.0603-8.9331,111.8527,1.9836Z" fill="#87bfff"/>
            </g>
            <path d="M121.9421,81.577c.776-7.3564.2559-14.8476-1.5294-22.0261,6.109-11.4957,7.0218-25.613,2.3775-37.7221-12.9495-.0616-25.3068,3.6293-35.5072,10.5496-9.8904-2.472-20.7235-2.5856-31.0578-.3552-9.2345-6.8747-20.0626-11.018-31.1609-11.8556-7.2621,11.8027-7.94,26.6968-2.5825,39.1526-1.3801,7.9263-1.4827,16.4946.2035,25.6112-3.8422,4.2641-4.1009,11.0069-1.5108,16.1289,2.5901,5.1221,7.5741,8.7222,12.9455,10.7452,5.3713,2.023,11.1583,2.635,16.8811,3.0761,14.9794,1.1546,30.0708,1.2532,45.0038-.3961,6.0061-.6633,12.0784-1.6377,17.5419-4.2191,5.4634-2.5814,10.3123-6.9788,12.2297-12.7091,1.9174-5.7303.3182-12.7924-3.8344-15.9803Z" fill="none" stroke="#42272f" stroke-linecap="round" stroke-linejoin="round"/>
          </g>
          <g>
            <path d="M36.0495,80.4053c4.6054-3.0887,9.7689-5.3425,15.1652-6.6194-5.3374-1.8444-10.9585-2.7848-16.6631-2.8182.5491-1.5481,1.5146-2.9463,2.9119-4.2109,7.3222.2319,14.5846,2.1814,20.8734,6.1045-7.0661,3.5184-13.6693,7.9653-19.5861,13.1903-.7687-1.5036-1.5373-3.0071-2.7013-5.6463Z" fill="#42272f"/>
            <path d="M108.8546,80.9709c-4.6054-3.0887-9.7689-5.3425-15.1651-6.6194,5.3373-1.8444,10.9584-2.7848,16.6631-2.8182-.5492-1.5481-1.5147-2.9463-2.9119-4.2109-7.3222.2319-14.5846,2.1814-20.8735,6.1045,7.0662,3.5184,13.6693,7.9653,19.5862,13.1903.7686-1.5036,1.5373-3.0072,2.7012-5.6463Z" fill="#42272f"/>
            <path d="M64.9816,73.5354c0-1.349,3.022-1.8305,6.75-1.8305s6.75.4815,6.75,1.8305c0,.6722-1.6764,1.4331-3.3583,2.0273-2.198.7766-4.5855.7766-6.7835,0-1.6819-.5942-3.3583-1.3551-3.3582-2.0273Z" fill="#ff75a8" stroke="#42272f" stroke-linecap="round" stroke-linejoin="round"/>
            <g>
              <path d="M83.2091,100.4297c-.09.25-.2.5-.32.74-1.59,3.34-4.65,6.1-8.29,6.76-4.1.74-8.38-1.3-11.01-4.52-.63-.77-1.17-1.6-1.63-2.48-1.49-2.77-2.17-5.98-2.28-9.14-.15-4.15.62-8.28,1.42-12.36,6.87-.49,13.71-.44,20.51.11,1.13,3.52,2.27,7.08,2.72,10.76.41,3.4.2,6.96-1.12,10.13Z" fill="#c2325b" stroke="#42272f" stroke-linecap="round" stroke-linejoin="round"/>
              <path d="M61.0179,76.9042c-.7388.4945-1.2207,1.353-1.258,2.2412-.0374.8883.3709,1.7842,1.0657,2.3388.711.5676,1.6487.7609,2.5553.837,2.9114.2447,5.9006-.5741,8.2652-2.2464,1.7416,1.3994,3.8674,2.3157,6.0806,2.6208,1.0792.1488,2.1984.1517,3.2357-.1812,1.0374-.3329,1.988-1.0332,2.4561-2.0169.4682-.9837.3764-2.2552-.3585-3.0593" fill="#658ee0" stroke="#42272f" stroke-linecap="round" stroke-linejoin="round"/>
              <path d="M83.2091,100.4297c-.09.25-.2.5-.32.74-1.59,3.34-4.65,6.1-8.29,6.76-4.1.74-8.38-1.3-11.01-4.52-.63-.77-1.17-1.6-1.63-2.48.74-2.17,2.3-4.01,4.23-5.07,3.04-1.67,6.79-1.66,10.13-.7,2.34.67,4.64,1.85,6.08,3.81.33.45.6.94.81,1.46Z" fill="#ff75a8" stroke="#42272f" stroke-linecap="round" stroke-linejoin="round"/>
            </g>
          </g>
          <g>
            <path d="M117.8035,56.6009c3.94-6.1516,5.2668-13.9192,3.5641-21.2312-5.3748,2.223-10.2106,5.7366-14.2345,10.3898,2.3434,4.4754,5.9996,8.2535,10.6704,10.8414Z" fill="#ff75a8" stroke="#42272f" stroke-linecap="round" stroke-linejoin="round"/>
            <path d="M24.7452,55.9742c-2.9123-7.1122-3.2524-15.2464-.3854-22.7165,4.8186,3.4066,8.7721,8.0268,11.7805,14.1775-2.2959,4.0991-6.0473,7.3633-11.3951,8.539Z" fill="#ff75a8" stroke="#42272f" stroke-linecap="round" stroke-linejoin="round"/>
          </g>
          <g>
            <path d="M49.161,35.604c2.6375-1.8089,5.6115-3.1256,8.7238-3.8622" fill="none" stroke="#42272f" stroke-linecap="round" stroke-linejoin="round"/>
            <path d="M94.9971,36.067c-2.7623-1.888-5.8748-3.2619-9.1311-4.0307" fill="none" stroke="#42272f" stroke-linecap="round" stroke-linejoin="round"/>
          </g>
          <g>
            <path d="M11.387,95.7051c3.6437-1.7523,7.6308-2.7869,11.6668-3.0272" fill="none" stroke="#42272f" stroke-linecap="round" stroke-linejoin="round"/>
            <path d="M15.8922,106.731c2.7332-2.1899,5.8225-3.9344,9.1093-5.1441" fill="none" stroke="#42272f" stroke-linecap="round" stroke-linejoin="round"/>
            <path d="M135.7581,89.9731c-4.2191-.6336-8.5981-.1702-12.5911,1.3325" fill="none" stroke="#42272f" stroke-linecap="round" stroke-linejoin="round"/>
            <path d="M133.5268,104.0169c-3.4866-1.8895-7.4123-2.9625-11.3752-3.1091" fill="none" stroke="#42272f" stroke-linecap="round" stroke-linejoin="round"/>
          </g>
        </g>
      </g>
    </g>
  </g>
</svg>