<?xml version="1.0" encoding="UTF-8"?>
<svg id="Layer_1" data-name="Layer 1" xmlns="http://www.w3.org/2000/svg" viewBox="0 0 512 460.2">
  <defs>
    <style>
      .cls-1 {
        fill: #1d1a36;
      }

      .cls-2 {
        fill: #ffebd0;
      }

      .cls-3 {
        fill: #1c1c1b;
        opacity: 0;
      }

      .cls-4 {
        fill: #aaade7;
      }

      .cls-5 {
        fill: #ff8a8a;
      }
    </style>
  </defs>
  <g>
    <g>
      <g>
        <g>
          <path class="cls-4" d="M95.5,189.6c-27.8-42.7-41.5-141-33-150.2,11.8-12.9,149.6,1.3,178.5,84.8l-145.4,65.4Z"/>
          <path class="cls-1" d="M91.8,191c-17.3-26.9-25.5-60.1-31.2-91.2-2.5-13.8-4.5-27.7-5-41.7-.2-6.1-1.4-16.9,3.6-21.5,4-3.7,11.1-4.2,16.2-4.5,9.8-.7,19.7,0,29.4,1.3,26.3,3.4,52.4,11,76,23.1,28.2,14.4,53.4,36.5,64.2,67.1.6,1.7-.2,3-1.7,3.7-42.4,19.1-84.8,38.1-127.2,57.2-6.1,2.7-12.2,5.5-18.3,8.2-3.9,1.8-10.1-3.9-4.9-6.2,42.4-19.1,84.8-38.1,127.2-57.2,6.1-2.7,12.2-5.5,18.3-8.2-.6,1.2-1.2,2.5-1.7,3.7-17.7-50.3-73.8-74.8-122.7-83.3-9.7-1.7-19.7-2.8-29.6-2.8-5.7,0-12.6,0-17.2,2.2-1,.5-1.3.5-1.8,2.6-1,3.5-1,7.2-1,10.8,0,12.2,1.5,24.5,3.4,36.6,2.8,17.6,6.7,35.1,11.9,52.2,4.8,15.6,10.5,31.4,19.4,45.1,3,4.7-5,6.5-7.4,2.9Z"/>
        </g>
        <path class="cls-5" d="M126.7,175.6c-16.1-24.8-44.3-105.9-36.1-112.6,7.8-6.4,111,22.2,123.2,73.5l-87.1,39.2Z"/>
      </g>
      <path class="cls-3" d="M240.9,124.2l-145.4,65.4s-8.8-16-10.7-20.6c0,0,33-68.1,118.7-94.3,0,0,30.3,21.8,37.5,49.6Z"/>
    </g>
    <g>
      <path class="cls-4" d="M276.9,142.3c-2.2-50.3,1.3-131,12.7-136,16-7,154.6,83.3,119.2,177.1l-131.9-41.1Z"/>
      <path class="cls-1" d="M272.5,142c-1.4-34.2-1-68.9,2.9-102.9,1.2-10.2,2-22.6,7.3-31.7,3.3-5.6,8.9-5.5,14.6-4,7.5,2,14.7,5.8,21.4,9.7,10,5.8,19.6,12.5,28.6,19.8,21.4,17.1,40.6,37.6,54.4,61.4,16,27.5,22.7,59.8,11.4,90.3-.8,2-3.3,2.7-5.2,2.1-38.4-12-76.8-23.9-115.2-35.9-5.5-1.7-11.1-3.5-16.6-5.2-5.3-1.7-3.7-8.1,1.7-6.4,38.4,12,76.8,23.9,115.2,35.9,5.5,1.7,11.1,3.5,16.6,5.2-1.7.7-3.5,1.4-5.2,2.1,19.4-52.4-15.9-103.8-53.9-137.2-14.8-13.1-31.5-25.8-49.9-33.4-2.1-.9-4.5-1.7-7.1-2.2,1,.2-2.4,0-1.2,0-.3,0-.2-.2-.5.2-4.7,7.6-5.8,17-7,25.7-4.9,35.3-5.1,71.8-3.6,107.3.2,4.8-8.7,3.7-8.9-.5Z"/>
    </g>
    <path class="cls-3" d="M408.8,183.4l-131.9-41.1s-.3-48.5,0-77.4c0,0,104.4,22.7,137.6,94.1,0,0-1.2,14.4-5.8,24.4Z"/>
  </g>
  <g>
    <path class="cls-4" d="M107.5,461.4h296.9c0-44.4-46.2-114.1-46.2-114.1h-204.5s-46.2,69.7-46.2,114.1Z"/>
    <path class="cls-2" d="M155.4,461.4h201.2c0-44.4-43.3-114.1-43.3-114.1h-114.5s-43.3,69.7-43.3,114.1Z"/>
    <path class="cls-1" d="M157.8,348.9c-8.6,12.6-16.2,25.9-23.1,39.5-11.3,22-22.6,47-22.8,72.2,0,2.7-8.7,1-8.7-2.3.2-25.6,11.9-50.9,23.4-73.3,7-13.5,14.6-26.8,23.1-39.4,1.6-2.4,10.1.5,8.1,3.4h0Z"/>
    <path class="cls-1" d="M400.1,458.9c-.2-25.4-11.7-50.5-23.1-72.6-6.9-13.3-14.4-26.5-22.8-38.9-2.3-3.4,6.5-2.8,8.1-.3,8.7,12.7,16.4,26.3,23.4,40,11.4,22.3,22.9,47.4,23.1,72.9,0,3.8-8.7,2-8.7-1h0Z"/>
  </g>
  <g>
    <g>
      <path class="cls-1" d="M509.3,320.9c-20.8-1.8-41.7-3.7-62.5-5.5-3-.3-6-.5-9-.8-5.1-.4-5.1-8.5,0-8,20.8,1.8,41.7,3.7,62.5,5.5,3,.3,6,.5,9,.8,5.1.4,5.1,8.5,0,8h0Z"/>
      <path class="cls-1" d="M501.3,353.3c-19.9-4.2-39.7-8.4-59.6-12.6-2.8-.6-5.7-1.2-8.5-1.8-5-1.1-2.9-8.8,2.1-7.7,19.9,4.2,39.7,8.4,59.6,12.6,2.8.6,5.7,1.2,8.5,1.8,5,1.1,2.9,8.8-2.1,7.7h0Z"/>
    </g>
    <g>
      <path class="cls-4" d="M51.2,316c0,39.1,101.8,100.4,204.8,100.4,103.1,0,204.8-61.3,204.8-100.4,0-17.2-20-97.8-64.6-164.2,4.1-5.5,9.5-15.6,7.5-27.3-1.8-10.7-28-11.4-44.8-8.7-34.7-19.4-82-24.6-103-24.6-21,0-68.4,5.2-103,24.6-16.8-2.7-42.9-2-44.8,8.7-2,11.7,3.4,21.8,7.5,27.3-44.5,66.4-64.6,147-64.6,164.2Z"/>
      <path class="cls-2" d="M65.2,344.4c31.3,34.9,110.7,71.9,190.8,71.9,80.2,0,159.5-37.1,190.8-71.9,0-33.8-79.3-19-109.3-50.8-21.1-22.3-31.7-104-44.7-104-13,0-23.1,82.3-44.7,104-21.9,22-99,24.4-128.4,28.7-21.4,3.2-40.8,9.9-54.5,22Z"/>
      <path class="cls-3" d="M51.2,316c0,39.1,101.8,100.4,204.8,100.4,103.1,0,204.8-61.3,204.8-100.4,0-6.3-2.7-21-8.3-40.4h0c0,7.9,3.8,33-8.2,46.2-26.3,29-89.8,61.4-188.3,61.4s-162-32.4-188.4-61.4c-11.9-13.2-8.3-38.2-8.2-46.3-5.6,19.4-8.3,34.2-8.3,40.4Z"/>
      <g>
        <path class="cls-1" d="M169.5,111.1c-2.6,1.2-5.2,2.4-7.7,3.6-1.8.9-3.9,2.6-6,2.8-1.9.2-4-.5-5.8-.7-1.7-.2-3.5-.3-5.2-.4-7.2-.4-14.8-.3-21.8,1.5-2.7.7-5.4,1.6-7.6,3.4-2.4,1.9-2.9,4.4-3.1,7.4-.6,8.6,2.8,17,7.8,23.9.9,1.3-3.2.9-3.5.8-1.7-.3-4-.9-5.1-2.4-4.6-6.3-7.8-13.8-8-21.7,0-3,0-6.6,1.8-9.1,1.4-1.9,3.5-3.2,5.7-4.1,5.9-2.6,12.7-3.2,19.1-3.4,7.4-.2,14.9.3,22.2,1.4-1.1,0-2.2,0-3.3.1,4-2.2,8.2-4.3,12.4-6.1,1.7-.7,4-.1,5.6.5.3.1,4,1.9,2.6,2.5h0Z"/>
        <path class="cls-1" d="M106.5,175c-16.5,29-29.7,59.9-39.7,91.7-3.5,11.1-6.6,22.4-8.9,33.8-1.3,6.3-3,13.3-2.1,19.8,2.5,18.4,20.9,33.3,34.9,43.4,23.3,16.9,50.2,29,77.6,37.5,32.1,9.9,65.9,14.8,99.5,13,32.7-1.8,65.2-9.3,95.7-21.3,24.8-9.7,49.3-22.5,69.4-40.2,11.4-10,24.7-24,23.5-40.4-1.4-18.7-7.7-37.7-13.6-55.4-9.7-29.3-22.1-57.8-37.5-84.5-4.2-7.2-8.6-14.3-13.2-21.3,0-.1,0-.3,0-.4,3.9-5.4,6.8-11.5,7.7-18.1.8-6,.7-12.3-5.7-14.6-5.9-2.1-13.1-1.9-19.3-1.7-5.7.2-12.2,2.4-17.6.2-3.5-1.4-6.9-3.6-10.4-5.2-4.1-1.9-8.3-3.6-12.6-5.1-8-2.9-16.3-5.2-24.6-7.1-16.2-3.7-32.9-6-49.5-6.2-17.6-.2-35.4,2.4-52.6,6.1-1.9.4-4.4-.2-6.1-1.1-.7-.4-3-1.8-1.1-2.3,26.5-5.7,53.1-7.8,80-4.5,28.4,3.5,56.9,10.6,82.1,24.4-2.3-.5-4.6-1-6.9-1.6,13.4-2.1,28.5-2.7,41.5,1.9,4.3,1.5,9.5,3.9,11,8.5,2.5,7.5-.5,16.9-4.1,23.5-.6,1.1-2.3,2.9-2.6,4.1-.4,2.1,2.1,4.6,3.1,6.3,2.8,4.4,5.5,8.8,8.1,13.3,4.9,8.3,9.4,16.8,13.7,25.4,7.9,16,14.9,32.5,21,49.3,7.8,21.4,15.8,44.5,17.9,67.4,1.7,19.4-16,35.7-29.8,46.7-25.2,20-55.4,33.7-85.9,43.3-36.1,11.3-74.2,16.4-112,13.6-36.5-2.8-72.6-12.2-106.1-26.9-25.7-11.2-52.4-26-71-47.5-6-6.9-11.6-14.9-13.1-24.1-1.2-7.7.9-16.1,2.6-23.6,7.1-32.6,19-64.6,33.4-94.7,4.5-9.5,9.4-18.8,14.6-28,1.2-2.1,9.4,1.1,8.7,2.3h0Z"/>
      </g>
    </g>
    <g>
      <path class="cls-5" d="M421,315.3c-16.2-1-28.1,4.8-29.6,10.8-1.5,6,16.3,9.4,27.2,9.4,10.9,0,27.7-2.1,28.3-8.4.6-6.4-10.7-10.9-25.9-11.8Z"/>
      <path class="cls-5" d="M157.8,315.3c-16.2-1-28.1,4.8-29.6,10.8-1.5,6,16.3,9.4,27.2,9.4s27.7-2.1,28.3-8.4-10.7-10.9-25.9-11.8Z"/>
      <path class="cls-2" d="M395.4,240.1c5.3-9.5-9.8-31.9-31.3-34.5-13.9-1.6-24.4,17.3-15.2,27,6.9,7.2,40.5,18.2,46.5,7.5Z"/>
      <path class="cls-2" d="M180.2,255c1.1-10.8,26.3-20.6,45.4-10.3,12.4,6.6,10.1,28.2-3,30.8-9.8,2-43.6-8.3-42.4-20.5Z"/>
      <path class="cls-5" d="M275.3,303.3c0,2.4,13,10.7,19.8,10.7s19.8-8.3,19.8-10.7c0-2.4-6.9-7-19.8-7-12.9,0-19.8,4.5-19.8,7Z"/>
      <path class="cls-1" d="M343,304.2c5.2-2.7,12.1-2.9,17.8-3.2,6-.4,12.1-.5,18.2-.5,6.1,0,12.2-.2,18.4.2,2.9.2,5.9.4,8.8.8,2.5.3,5.6.1,7.7,2.1.2.2.2.6,0,.8-1.8,2.1-5,2.1-7.4,2.6-2.9.6-5.8,1.1-8.7,1.4-6,.8-12.2,1.1-18.3,1.4-6,.3-12.1.7-18.2.7-5.8,0-12.5.4-18.2-2-1.6-.7-1.8-3.6-.3-4.4Z"/>
      <path class="cls-1" d="M341.3,294.2c5-3.9,12.1-5.6,18-7.2,6.2-1.7,12.5-3.2,18.8-4.6,6.3-1.4,12.7-2.9,19.1-3.9,3.1-.5,6.2-.9,9.3-1.1,2.6-.2,5.8-1.1,8.3.4.3.2.3.5.2.8-1.6,2.5-4.8,3.2-7.3,4.3-2.9,1.2-5.8,2.4-8.8,3.4-6.2,2.1-12.5,3.8-18.7,5.5-6.2,1.7-12.5,3.4-18.8,4.7-6,1.3-12.9,3.2-19.1,2.1-1.8-.3-2.3-3.2-.9-4.3Z"/>
      <path class="cls-1" d="M235.9,304.2c-5.2-2.7-12.1-2.9-17.8-3.2-6-.4-12.1-.5-18.2-.5-6.1,0-12.2-.2-18.4.2-2.9.2-5.9.4-8.8.8-2.5.3-5.6.1-7.7,2.1-.2.2-.2.6,0,.8,1.8,2.1,5,2.1,7.4,2.6,2.9.6,5.8,1.1,8.7,1.4,6,.8,12.2,1.1,18.3,1.4,6,.3,12.1.7,18.2.7,5.8,0,12.5.4,18.2-2,1.6-.7,1.8-3.6.3-4.4Z"/>
      <path class="cls-1" d="M237.6,294.2c-5-3.9-12.1-5.6-18-7.2-6.2-1.7-12.5-3.2-18.8-4.6-6.3-1.4-12.7-2.9-19.1-3.9-3.1-.5-6.2-.9-9.3-1.1-2.6-.2-5.8-1.1-8.3.4-.3.2-.3.5-.2.8,1.6,2.5,4.8,3.2,7.3,4.3,2.9,1.2,5.8,2.4,8.8,3.4,6.2,2.1,12.5,3.8,18.7,5.5,6.2,1.7,12.5,3.4,18.8,4.7,6,1.3,12.9,3.2,19.1,2.1,1.8-.3,2.3-3.2.9-4.3Z"/>
      <path class="cls-1" d="M321.5,316.5c.7-5-2-10.3-7.2-11.4-4.6-1-9,1.4-12,4.8-1.6,1.8-2.9,3.8-4.8,5.3-1.7,1.4-5.6,2.2-7.3.3-.5-.6-1.3.2-.7.7,1.5,1.4,2.6,2.7,4.6,3.3,1.9.6,4,.2,5.7-.6,3.8-1.8,5.6-6.2,9.5-7.8,2.9-1.1,6.2-.4,6.2,3.2,0,4.4-3.6,7.2-6.9,9.5-2.5,1.7-.3,5.9,2.6,4.7,2.7-1.1,6.1,0,7.6,2.5,1.5,2.8.5,6.3-2,8-3.2,2.2-6.6,1.4-10.1.5-3.4-.8-7.5-1.2-10.1,1.7-.4.5.1,1.3.7,1,5-2.6,9.5,3.1,14.4,3.4,4.9.3,9.6-2.3,11.8-6.7,2-4,1.6-9.3-1.4-12.8-1.2-1.3-2.6-2.4-4.2-3,1.8-1.9,3.2-4.2,3.6-6.9Z"/>
    </g>
    <g>
      <path class="cls-1" d="M2.7,312.9c29.1-1.8,58.2-3.7,87.3-5.5,4.2-.3,8.4-.5,12.6-.8,5.2-.3,5.1,7.7,0,8-29.1,1.8-58.2,3.7-87.3,5.5-4.2.3-8.4.5-12.6.8-5.2.3-5.1-7.7,0-8h0Z"/>
      <path class="cls-1" d="M11.3,345.6c27.8-4.2,55.6-8.4,83.3-12.6,3.9-.6,7.9-1.2,11.8-1.8,5-.8,7.2,7,2.1,7.7-27.8,4.2-55.6,8.4-83.3,12.6-3.9.6-7.9,1.2-11.8,1.8-5,.8-7.2-7-2.1-7.7h0Z"/>
    </g>
    <path class="cls-2" d="M206.9,108.6c0,5.5,22,10,49.1,10s49.1-4.5,49.1-10-22-10-49.1-10c-27.1,0-49.1,4.5-49.1,10Z"/>
    <path class="cls-2" d="M220.2,137.7c0,5.2,16,9.4,35.8,9.4,19.8,0,35.8-4.2,35.8-9.4,0-5.2-16-9.4-35.8-9.4s-35.8,4.2-35.8,9.4Z"/>
  </g>
  <g>
    <g>
      <path class="cls-4" d="M408.4,461.4s5.3-77.9-31.3-115.3c-25.3-25.8-44.6-1.1-42.6,29.4,2.9,44.7-26.6,86-26.6,86"/>
      <path class="cls-1" d="M404,460.2c1.9-28.7-1.8-60.1-13.1-86.7-4.1-9.6-9.4-18.9-16.6-26.6-3.8-4.1-9.7-10.4-15.8-10-4.6.3-8.7,3.4-11.6,6.8-6.9,8.5-8.6,20.6-8.2,31.2.5,13.4-.7,26.4-4.3,39.4-4.6,16.8-12.1,33.8-22.3,48.1-1.5,2.1-9.3-1.5-8.7-2.3,9.6-13.5,16.7-29.4,21.4-45.2,4.2-14.2,5.5-28.2,5.1-43-.3-11.2,1.9-24,9.9-32.4,17-17.8,41.8,5,51.3,19.6,12,18.5,17.3,40.8,20,62.4,1.6,13.5,2.5,27.3,1.6,40.9,0,1.4-8.9,0-8.7-2.3h0Z"/>
    </g>
    <path class="cls-1" d="M354.8,336.1c4.6.5,9.1,2.6,12.4,5.8,3.7,3.5,5.7,8.2,6.2,13.2,0,1.2-1.6,1.1-2.4,1-.8-.1-1.5-.3-2.2-.7-.4-.2-1.1-.6-1.1-1.1-.4-4.4-1.9-8.6-5-11.8,0,0-.5-.5-.3-.3-.2-.2-.4-.3-.5-.5-.4-.3-.7-.6-1.1-.9-.2-.1-.4-.3-.6-.4.5.3,0,0-.2-.1-.4-.2-.8-.4-1.2-.6-.6-.3.4.2,0,0-.2,0-.4-.2-.6-.2-.2,0-.4-.1-.6-.2-.6-.2.7.2,0,0-.2,0-.4-.1-.6-.2-.1,0-.8-.2-.3,0,.6.1-.2,0-.3,0-.2,0-.4,0-.7,0-1-.1-3-.7-3.3-1.8-.3-1.2,1.9-1,2.4-1h0Z"/>
    <path class="cls-1" d="M350.9,335.9c3.2,2,5.7,4.8,7.2,8.3,1.6,3.9,1.5,8.2,0,12.1-.4,1.1-2.4.7-3.2.5-.6-.2-3-1-2.6-2,1.3-3.6,1.5-7.3.2-10.9-.6-1.5-1.3-2.8-2.3-4-.4-.5-.9-1.1-1.3-1.4-.3-.3-.6-.5-.9-.7-.1,0-.2-.2-.4-.3-.6-.4.4.2-.2-.1-.7-.4-1.8-1.4-.6-2,1.2-.5,3.1,0,4.1.6h0Z"/>
  </g>
</svg>