<?xml version="1.0" encoding="UTF-8"?>
<!DOCTYPE svg PUBLIC "-//W3C//DTD SVG 1.1//EN" "http://www.w3.org/Graphics/SVG/1.1/DTD/svg11.dtd">
<svg xmlns="http://www.w3.org/2000/svg" version="1.1" width="3000px" height="2134px" style="shape-rendering:geometricPrecision; text-rendering:geometricPrecision; image-rendering:optimizeQuality; fill-rule:evenodd; clip-rule:evenodd" xmlns:xlink="http://www.w3.org/1999/xlink">
<g><path style="opacity:0.963" fill="#1860ab" d="M 644.5,684.5 C 759.526,684.311 868.526,709.145 971.5,759C 1019.6,857.241 1044.6,961.408 1046.5,1071.5C 1044.41,1170.16 1023.91,1264.49 985,1354.5C 981.373,1363.46 976.873,1371.96 971.5,1380C 827.71,1445.53 678.043,1462.87 522.5,1432C 505.817,1427.66 489.151,1423.33 472.5,1419C 437.085,1407.75 402.418,1394.75 368.5,1380C 363.404,1377.68 358.57,1374.84 354,1371.5C 265.605,1181.95 259.272,989.615 335,794.5C 341.016,780.966 347.183,767.466 353.5,754C 445.156,709.993 542.156,686.826 644.5,684.5 Z M 638.5,701.5 C 751.508,699.7 858.508,723.533 959.5,773C 1018.11,897.117 1038.94,1027.62 1022,1164.5C 1012.64,1223.55 996.642,1280.55 974,1335.5C 969.091,1345.66 964.257,1355.82 959.5,1366C 762.094,1453.64 565.427,1451.97 369.5,1361C 368.333,1359.83 367.167,1358.67 366,1357.5C 323.174,1263.49 301.007,1164.49 299.5,1060.5C 300.735,957.656 323.069,859.989 366.5,767.5C 452.22,726.741 542.886,704.741 638.5,701.5 Z M 837.5,1319.5 C 840.224,1325.41 843.224,1331.25 846.5,1337C 843.962,1339.44 841.128,1339.94 838,1338.5C 837.088,1333.54 836.588,1328.54 836.5,1323.5C 836.232,1321.9 836.566,1320.57 837.5,1319.5 Z M 531.5,1324.5 C 536.196,1324.76 540.529,1326.09 544.5,1328.5C 546.343,1335.32 544.01,1339.99 537.5,1342.5C 534.499,1341.46 531.832,1339.96 529.5,1338C 531.026,1333.63 531.692,1329.13 531.5,1324.5 Z M 731.5,1333.5 C 739.121,1333.95 741.621,1337.95 739,1345.5C 736.454,1348.19 733.287,1349.19 729.5,1348.5C 728.617,1343.87 727.95,1339.2 727.5,1334.5C 729.099,1334.77 730.432,1334.43 731.5,1333.5 Z M 647.5,1338.5 C 651.687,1338.39 655.687,1339.23 659.5,1341C 662.703,1352.52 658.37,1357.36 646.5,1355.5C 646.907,1349.84 647.24,1344.17 647.5,1338.5 Z M 732.5,1359.5 C 740.733,1358.24 744.733,1361.74 744.5,1370C 744.456,1371.76 744.122,1373.43 743.5,1375C 740.487,1376.66 737.32,1377.83 734,1378.5C 731.764,1372.23 731.264,1365.9 732.5,1359.5 Z"/></g>
<g><path style="opacity:0.996" fill="#1760ad" d="M 2084.5,1374.5 C 2083,1374.99 2081.67,1375.66 2080.5,1376.5C 2060.58,1380.98 2040.58,1385.14 2020.5,1389C 1977.24,1393.49 1934.24,1391.83 1891.5,1384C 1779.13,1358.63 1713.96,1289.13 1696,1175.5C 1691.96,1134.59 1694.96,1094.25 1705,1054.5C 1742.34,928.773 1820.5,839.273 1939.5,786C 1995.74,763.224 2054.41,752.891 2115.5,755C 2128.5,757.431 2141.17,760.931 2153.5,765.5C 2159.32,758.55 2165.15,751.55 2171,744.5C 2208.69,764.761 2246.52,784.594 2284.5,804C 2290.17,806.831 2295.5,810.165 2300.5,814C 2271.37,867.767 2241.87,921.267 2212,974.5C 2210.87,978.31 2208.87,981.643 2206,984.5C 2135.05,928.8 2058.22,919.633 1975.5,957C 1917.51,991.785 1888.68,1043.29 1889,1111.5C 1896.26,1165.09 1925.43,1200.59 1976.5,1218C 2013.84,1229.22 2051.18,1229.22 2088.5,1218C 2107.69,1211.73 2126.35,1204.4 2144.5,1196C 2155.57,1190.39 2166.07,1183.89 2176,1176.5C 2176.67,1177.83 2176.67,1179.17 2176,1180.5C 2145.26,1244.98 2114.76,1309.65 2084.5,1374.5 Z"/></g>
<g><path style="opacity:0.997" fill="#1760ad" d="M 1307.5,750.5 C 1402.83,750.333 1498.17,750.5 1593.5,751C 1621.7,753.776 1647.7,762.443 1671.5,777C 1706,802.674 1723.34,837.34 1723.5,881C 1722.19,914.765 1711.69,945.265 1692,972.5C 1667.85,1004.01 1638.35,1028.84 1603.5,1047C 1609.49,1050.89 1615.83,1054.23 1622.5,1057C 1647.58,1073.93 1663.08,1097.43 1669,1127.5C 1677.79,1171.61 1672.13,1213.61 1652,1253.5C 1621.75,1304.06 1578.58,1338.89 1522.5,1358C 1511.22,1361.12 1499.89,1364.12 1488.5,1367C 1477.86,1368.5 1467.19,1369.83 1456.5,1371C 1353.17,1371.5 1249.83,1371.67 1146.5,1371.5C 1183.45,1227.83 1220.62,1084.17 1258,940.5C 1258.5,938.527 1258.66,936.527 1258.5,934.5C 1243.5,934.5 1228.5,934.5 1213.5,934.5C 1221.22,916.61 1230.05,899.277 1240,882.5C 1262.59,838.686 1285.09,794.686 1307.5,750.5 Z M 1441.5,913.5 C 1464.83,913.963 1488.17,914.463 1511.5,915C 1529.16,916.496 1538.5,925.996 1539.5,943.5C 1536.89,978.273 1518.23,997.44 1483.5,1001C 1462.84,1001.5 1442.17,1001.67 1421.5,1001.5C 1427.54,972.004 1434.21,942.671 1441.5,913.5 Z M 1391.5,1112.5 C 1417.17,1112.33 1442.84,1112.5 1468.5,1113C 1496.3,1119.1 1508.46,1136.26 1505,1164.5C 1501.28,1179.26 1493.12,1190.93 1480.5,1199.5C 1456.52,1212.44 1430.85,1217.11 1403.5,1213.5C 1390.83,1213.17 1378.17,1212.83 1365.5,1212.5C 1374.48,1179.26 1383.14,1145.93 1391.5,1112.5 Z"/></g>
<g><path style="opacity:0.997" fill="#1760ad" d="M 2715.5,1370.5 C 2649.17,1370.5 2582.83,1370.5 2516.5,1370.5C 2516.83,1335.33 2516.5,1300.33 2515.5,1265.5C 2470.83,1265.5 2426.17,1265.5 2381.5,1265.5C 2368.12,1297.73 2354.95,1330.06 2342,1362.5C 2340.25,1365 2338.75,1367.67 2337.5,1370.5C 2265.5,1371.67 2193.5,1371.83 2121.5,1371C 2195.79,1223.59 2270.46,1076.42 2345.5,929.5C 2328.83,928.833 2312.17,928.167 2295.5,927.5C 2327.61,868.935 2359.45,810.268 2391,751.5C 2490.1,750.501 2589.26,750.168 2688.5,750.5C 2697.64,957.151 2706.64,1163.82 2715.5,1370.5 Z M 2514.5,943.5 C 2515.22,1002.24 2516.22,1061.07 2517.5,1120C 2491.5,1120.67 2465.5,1120.67 2439.5,1120C 2465.02,1061.46 2490.02,1002.63 2514.5,943.5 Z"/></g>
<g><path style="opacity:0.993" fill="#1760ad" d="M 655.5,753.5 C 699.553,752.617 735.053,769.283 762,803.5C 779.646,832.801 785.313,864.468 779,898.5C 772.889,921.07 761.889,940.737 746,957.5C 738.15,967.359 729.483,976.692 720,985.5C 687.486,1024.67 670.486,1070.01 669,1121.5C 667.183,1168.83 667.016,1216.16 668.5,1263.5C 663.167,1263.5 657.833,1263.5 652.5,1263.5C 652.858,1217.82 652.358,1172.15 651,1126.5C 650.02,1086.57 640.02,1049.23 621,1014.5C 614.387,1004.55 607.387,994.887 600,985.5C 578.768,967.234 561.434,945.567 548,920.5C 536.452,890.561 535.452,860.227 545,829.5C 558.45,795.048 582.617,771.881 617.5,760C 624.529,758.493 631.529,756.826 638.5,755C 644.348,754.827 650.015,754.327 655.5,753.5 Z"/></g>
<g><path style="opacity:0.994" fill="#1760ad" d="M 499.5,941.5 C 518.366,941.78 535.699,946.947 551.5,957C 582.93,979.647 606.43,1008.81 622,1044.5C 630.631,1065.4 636.631,1087.07 640,1109.5C 641.406,1160.82 641.906,1212.15 641.5,1263.5C 637.833,1263.5 634.167,1263.5 630.5,1263.5C 625.705,1204.28 596.039,1163.78 541.5,1142C 515.106,1131.98 488.106,1123.98 460.5,1118C 427.647,1107.86 408.813,1085.69 404,1051.5C 401.785,1018.14 412.285,989.635 435.5,966C 454.172,950.829 475.505,942.662 499.5,941.5 Z"/></g>
<g><path style="opacity:0.994" fill="#1760ad" d="M 810.5,941.5 C 867.842,941.384 902.676,969.051 915,1024.5C 918.906,1051.04 912.906,1074.71 897,1095.5C 886.629,1106.32 874.129,1113.82 859.5,1118C 825.212,1125.15 792.212,1135.81 760.5,1150C 723.49,1170.04 700.99,1200.88 693,1242.5C 692.5,1249.51 692,1256.51 691.5,1263.5C 687.167,1263.5 682.833,1263.5 678.5,1263.5C 678.333,1214.83 678.5,1166.17 679,1117.5C 684.864,1061.45 707.364,1013.61 746.5,974C 760.993,960.418 777.66,950.418 796.5,944C 801.294,943.098 805.961,942.265 810.5,941.5 Z"/></g>
<g><path style="opacity:0.988" fill="#1760ad" d="M 413.5,1103.5 C 419.859,1113.35 428.526,1120.52 439.5,1125C 443.789,1126.65 448.122,1128.32 452.5,1130C 490.139,1137.66 526.139,1149.66 560.5,1166C 596.832,1188.13 616.165,1220.63 618.5,1263.5C 614.116,1263.83 609.783,1263.49 605.5,1262.5C 599.919,1246.41 589.252,1234.91 573.5,1228C 562.889,1223.8 551.889,1222.13 540.5,1223C 518.002,1227.27 495.336,1230.43 472.5,1232.5C 436.647,1229.5 412.48,1211.16 400,1177.5C 397.216,1157.84 398.549,1138.51 404,1119.5C 406.711,1113.83 409.878,1108.49 413.5,1103.5 Z"/></g>
<g><path style="opacity:0.988" fill="#1760ad" d="M 905.5,1103.5 C 912.599,1111.03 917.099,1120.03 919,1130.5C 928.946,1174.1 914.446,1206.27 875.5,1227C 860.208,1232.47 844.542,1233.8 828.5,1231C 811.75,1228.77 795.083,1226.1 778.5,1223C 754.364,1221.99 734.698,1230.82 719.5,1249.5C 717.023,1253.94 715.356,1258.6 714.5,1263.5C 710.167,1263.5 705.833,1263.5 701.5,1263.5C 704.141,1216.1 726.475,1181.93 768.5,1161C 801.544,1147.57 835.544,1136.9 870.5,1129C 878.964,1125.85 886.964,1121.85 894.5,1117C 899.106,1113.23 902.773,1108.73 905.5,1103.5 Z"/></g>
<g><path style="opacity:0.945" fill="#195ea9" d="M 474.5,1299.5 C 482.374,1299.23 489.54,1301.23 496,1305.5C 500.565,1312.21 501.731,1319.54 499.5,1327.5C 495.103,1326.7 490.769,1325.7 486.5,1324.5C 487.376,1321.2 487.543,1317.87 487,1314.5C 483.595,1310.22 479.595,1309.55 475,1312.5C 473.392,1315.38 472.059,1318.38 471,1321.5C 469.918,1327.66 468.251,1333.66 466,1339.5C 465.333,1343.83 465.333,1348.17 466,1352.5C 469.659,1354.73 473.493,1355.06 477.5,1353.5C 478.888,1349.59 480.555,1345.76 482.5,1342C 479.937,1340.92 477.271,1340.42 474.5,1340.5C 474.46,1336.26 475.793,1332.6 478.5,1329.5C 485.137,1330.66 491.137,1333.16 496.5,1337C 493.242,1347.49 490.075,1357.99 487,1368.5C 484.204,1367.79 481.37,1367.12 478.5,1366.5C 478.167,1365.17 477.833,1363.83 477.5,1362.5C 468.143,1366.51 460.309,1364.51 454,1356.5C 452.35,1353.55 451.517,1350.38 451.5,1347C 454.261,1334.72 457.428,1322.55 461,1310.5C 463.651,1304.33 468.151,1300.66 474.5,1299.5 Z"/></g>
<g><path style="opacity:0.946" fill="#185faa" d="M 838.5,1301.5 C 839.5,1301.5 840.5,1301.5 841.5,1301.5C 850.194,1319.22 859.694,1336.55 870,1353.5C 871.009,1355.02 871.509,1356.69 871.5,1358.5C 867.461,1359.62 863.461,1360.96 859.5,1362.5C 857.294,1357.92 854.961,1353.42 852.5,1349C 847.828,1348.84 843.494,1350 839.5,1352.5C 840.917,1357.48 841.25,1362.48 840.5,1367.5C 837.055,1368.97 833.555,1370.31 830,1371.5C 829.228,1371.36 828.561,1371.02 828,1370.5C 826.778,1349.16 825.778,1327.82 825,1306.5C 829.711,1305.2 834.211,1303.53 838.5,1301.5 Z M 837.5,1319.5 C 840.224,1325.41 843.224,1331.25 846.5,1337C 843.962,1339.44 841.128,1339.94 838,1338.5C 837.088,1333.54 836.588,1328.54 836.5,1323.5C 836.232,1321.9 836.566,1320.57 837.5,1319.5 Z"/></g>
<g><path style="opacity:0.95" fill="#195faa" d="M 521.5,1311.5 C 531.704,1313.05 541.704,1315.55 551.5,1319C 553.333,1320.83 555.167,1322.67 557,1324.5C 557.667,1329.83 557.667,1335.17 557,1340.5C 555.533,1344.96 552.7,1348.13 548.5,1350C 550.871,1351.74 552.205,1354.08 552.5,1357C 549.741,1365.7 548.575,1374.54 549,1383.5C 544.815,1381.16 540.315,1380.16 535.5,1380.5C 535.9,1375.44 536.733,1370.44 538,1365.5C 538.667,1361.83 538.667,1358.17 538,1354.5C 534.544,1352.07 530.71,1350.74 526.5,1350.5C 524.673,1358.81 523.007,1367.14 521.5,1375.5C 520.667,1375.83 519.833,1376.17 519,1376.5C 515.534,1375.59 512.034,1374.92 508.5,1374.5C 511.719,1353.29 516.053,1332.29 521.5,1311.5 Z M 531.5,1324.5 C 531.692,1329.13 531.026,1333.63 529.5,1338C 531.832,1339.96 534.499,1341.46 537.5,1342.5C 544.01,1339.99 546.343,1335.32 544.5,1328.5C 540.529,1326.09 536.196,1324.76 531.5,1324.5 Z"/></g>
<g><path style="opacity:0.944" fill="#195fa9" d="M 784.5,1313.5 C 798.29,1312.39 805.624,1318.72 806.5,1332.5C 803.115,1332.85 799.782,1333.51 796.5,1334.5C 795.833,1334.17 795.167,1333.83 794.5,1333.5C 793.695,1331.08 792.695,1328.75 791.5,1326.5C 787.698,1323.57 784.532,1324.24 782,1328.5C 781.833,1329.83 781.667,1331.17 781.5,1332.5C 783.028,1344.07 785.528,1355.4 789,1366.5C 794.945,1371.24 798.779,1369.91 800.5,1362.5C 800.146,1359.56 799.48,1356.73 798.5,1354C 802.616,1353.67 806.616,1352.84 810.5,1351.5C 815.888,1371.61 808.221,1381.11 787.5,1380C 784.853,1378.7 782.186,1377.37 779.5,1376C 771.826,1360.45 768.659,1343.95 770,1326.5C 770.272,1323.57 771.438,1321.07 773.5,1319C 777.017,1316.67 780.683,1314.84 784.5,1313.5 Z"/></g>
<g><path style="opacity:0.272" fill="#263c5a" d="M 837.5,1319.5 C 836.566,1320.57 836.232,1321.9 836.5,1323.5C 835.378,1321.71 835.211,1319.71 836,1317.5C 836.717,1318.04 837.217,1318.71 837.5,1319.5 Z"/></g>
<g><path style="opacity:0.951" fill="#195faa" d="M 577.5,1322.5 C 581.833,1322.5 586.167,1322.5 590.5,1322.5C 588.602,1338.17 586.602,1353.84 584.5,1369.5C 586.164,1377.16 590.497,1379.16 597.5,1375.5C 598.806,1374.09 599.64,1372.42 600,1370.5C 601.948,1355.87 603.614,1341.2 605,1326.5C 609.402,1326.02 613.902,1326.02 618.5,1326.5C 616.831,1342.52 614.998,1358.52 613,1374.5C 608.431,1387.87 599.264,1392.37 585.5,1388C 578.057,1386.88 573.557,1382.72 572,1375.5C 572.283,1357.65 574.116,1339.98 577.5,1322.5 Z"/></g>
<g><path style="opacity:0.948" fill="#185fab" d="M 714.5,1333.5 C 714.185,1330.79 714.852,1328.46 716.5,1326.5C 723.51,1325.63 730.51,1324.63 737.5,1323.5C 748.03,1323.84 753.03,1329.34 752.5,1340C 752.761,1344.81 751.095,1348.81 747.5,1352C 752.314,1353.41 755.48,1356.58 757,1361.5C 759.867,1369.57 758.7,1376.9 753.5,1383.5C 743.506,1387.5 733.173,1389.17 722.5,1388.5C 718.9,1370.31 716.234,1351.97 714.5,1333.5 Z M 731.5,1333.5 C 730.432,1334.43 729.099,1334.77 727.5,1334.5C 727.95,1339.2 728.617,1343.87 729.5,1348.5C 733.287,1349.19 736.454,1348.19 739,1345.5C 741.621,1337.95 739.121,1333.95 731.5,1333.5 Z M 732.5,1359.5 C 731.264,1365.9 731.764,1372.23 734,1378.5C 737.32,1377.83 740.487,1376.66 743.5,1375C 744.122,1373.43 744.456,1371.76 744.5,1370C 744.733,1361.74 740.733,1358.24 732.5,1359.5 Z"/></g>
<g><path style="opacity:0.3" fill="#253852" d="M 716.5,1326.5 C 714.852,1328.46 714.185,1330.79 714.5,1333.5C 713.532,1331.39 713.198,1329.06 713.5,1326.5C 714.5,1326.5 715.5,1326.5 716.5,1326.5 Z"/></g>
<g><path style="opacity:0.939" fill="#1760ac" d="M 634.5,1328.5 C 644.2,1328.35 653.866,1328.85 663.5,1330C 669.062,1331.27 672.228,1334.77 673,1340.5C 675.316,1360.97 666.149,1369.63 645.5,1366.5C 645.024,1374.83 644.691,1383.16 644.5,1391.5C 640.119,1391.63 635.785,1391.29 631.5,1390.5C 632.975,1369.86 633.975,1349.19 634.5,1328.5 Z M 647.5,1338.5 C 647.24,1344.17 646.907,1349.84 646.5,1355.5C 658.37,1357.36 662.703,1352.52 659.5,1341C 655.687,1339.23 651.687,1338.39 647.5,1338.5 Z"/></g>
<g><path style="opacity:0.497" fill="#253954" d="M 2515.5,1265.5 C 2516.5,1300.33 2516.83,1335.33 2516.5,1370.5C 2582.83,1370.5 2649.17,1370.5 2715.5,1370.5C 2649,1371.5 2582.34,1371.83 2515.5,1371.5C 2515.5,1336.17 2515.5,1300.83 2515.5,1265.5 Z"/></g>
<g><path style="opacity:0.063" fill="#223045" d="M 2084.5,1374.5 C 2083.82,1376.18 2082.48,1376.84 2080.5,1376.5C 2081.67,1375.66 2083,1374.99 2084.5,1374.5 Z"/></g>
</svg>
