<?xml version="1.0" encoding="UTF-8"?>
<!DOCTYPE svg PUBLIC "-//W3C//DTD SVG 1.1//EN" "http://www.w3.org/Graphics/SVG/1.1/DTD/svg11.dtd">
<svg xmlns="http://www.w3.org/2000/svg" version="1.1" width="3000px" height="2134px" style="shape-rendering:geometricPrecision; text-rendering:geometricPrecision; image-rendering:optimizeQuality; fill-rule:evenodd; clip-rule:evenodd" xmlns:xlink="http://www.w3.org/1999/xlink">
<g><path style="opacity:0.997" fill="#06519b" d="M 485.5,632.5 C 688.51,632.021 891.51,632.521 1094.5,634C 1150.06,647.25 1189.56,679.75 1213,731.5C 1218.18,746.047 1220.51,761.047 1220,776.5C 1220.94,976.173 1220.27,1175.84 1218,1375.5C 1216.68,1384.45 1214.34,1393.12 1211,1401.5C 1193.47,1441.03 1165.63,1470.86 1127.5,1491C 1118.5,1494 1109.5,1497 1100.5,1500C 894.833,1500.67 689.167,1500.67 483.5,1500C 464.74,1496.54 447.073,1490.2 430.5,1481C 422.201,1475.69 414.201,1470.03 406.5,1464C 399.333,1458.17 392.833,1451.67 387,1444.5C 376.843,1431.54 368.176,1417.54 361,1402.5C 359.585,1395.67 357.585,1389 355,1382.5C 354.042,1377.88 353.375,1373.21 353,1368.5C 352.01,1168.48 352.344,968.48 354,768.5C 361.162,716.917 386.662,677.75 430.5,651C 448.101,642.519 466.435,636.352 485.5,632.5 Z M 784.5,715.5 C 806.524,715.734 828.524,716.567 850.5,718C 868.734,722.125 885.401,729.458 900.5,740C 909.708,749.041 918.708,758.208 927.5,767.5C 930.933,773.585 934.099,779.918 937,786.5C 941.286,806.41 941.619,826.41 938,846.5C 931.324,864.24 920.991,879.24 907,891.5C 902.798,896.287 898.798,901.287 895,906.5C 877.502,924.998 859.668,943.165 841.5,961C 813.091,986.07 785.258,1011.9 758,1038.5C 752.114,1045.24 746.447,1052.24 741,1059.5C 739.85,1061.75 739.516,1064.09 740,1066.5C 771.667,1100.17 803.333,1133.83 835,1167.5C 854.054,1187.04 873.387,1206.38 893,1225.5C 894,1227.17 895,1228.83 896,1230.5C 899.833,1233 903,1236.17 905.5,1240C 906.5,1240.33 907.5,1240.67 908.5,1241C 917.667,1251.5 927.5,1261.33 938,1270.5C 938.667,1271.83 939.333,1273.17 940,1274.5C 979.838,1314.01 1019.5,1354.01 1059,1394.5C 1063.88,1399.71 1068.38,1405.21 1072.5,1411C 971.178,1413.23 869.845,1413.9 768.5,1413C 781.838,1394.97 792.671,1375.47 801,1354.5C 808.557,1322.42 808.224,1290.42 800,1258.5C 792.429,1239.64 782.429,1222.3 770,1206.5C 726.4,1159.57 682.9,1112.74 639.5,1066C 643.732,1059.72 648.565,1053.89 654,1048.5C 654.333,1047.5 654.667,1046.5 655,1045.5C 665.167,1036.67 674.667,1027.17 683.5,1017C 684.5,1016.67 685.5,1016.33 686.5,1016C 688.598,1013.15 690.931,1010.48 693.5,1008C 715.026,990.31 735.192,971.143 754,950.5C 805.346,891.092 815.346,825.092 784,752.5C 776.445,741.219 769.278,729.719 762.5,718C 769.951,716.983 777.285,716.15 784.5,715.5 Z M 521.5,716.5 C 544.502,716.333 567.502,716.5 590.5,717C 616.2,719.19 638.866,728.523 658.5,745C 686.654,771.269 698.821,803.769 695,842.5C 693.291,852.001 690.958,861.334 688,870.5C 677.429,892.717 663.429,912.384 646,929.5C 645.667,930.5 645.333,931.5 645,932.5C 634.833,941.333 625.333,950.833 616.5,961C 582.68,991.154 549.847,1022.32 518,1054.5C 515.468,1058.69 512.968,1062.85 510.5,1067C 512.722,1069.94 514.555,1073.11 516,1076.5C 549.231,1113.4 583.565,1149.4 619,1184.5C 632.61,1199.45 646.277,1214.45 660,1229.5C 662.64,1234.13 665.973,1238.13 670,1241.5C 687.438,1271.66 691.771,1303.66 683,1337.5C 677.963,1350.66 671.13,1362.66 662.5,1373.5C 650.258,1387.54 635.925,1399.04 619.5,1408C 615.608,1409.64 611.608,1410.97 607.5,1412C 574.172,1413.16 540.839,1413.5 507.5,1413C 487.124,1413.22 470.29,1405.72 457,1390.5C 454.705,1387.2 452.038,1384.2 449,1381.5C 448.222,1378.82 446.889,1376.48 445,1374.5C 443.257,1371.04 442.257,1367.38 442,1363.5C 440.938,1317.61 440.105,1271.77 439.5,1226C 439.078,1074.37 439.578,922.536 441,770.5C 444.28,759.622 449.613,749.955 457,741.5C 466.437,733.346 476.937,726.846 488.5,722C 499.428,718.845 510.428,717.012 521.5,716.5 Z M 1000.5,716.5 C 1020.18,716.426 1039.85,716.926 1059.5,718C 1096.29,720.632 1119.12,739.798 1128,775.5C 1128.74,781.211 1129.74,786.878 1131,792.5C 1134.63,974.484 1135.96,1156.48 1135,1338.5C 1116.33,1318.83 1097.33,1299.5 1078,1280.5C 1077.33,1279.17 1076.67,1277.83 1076,1276.5C 1064.17,1264.67 1052.33,1252.83 1040.5,1241C 1039.5,1240.67 1038.5,1240.33 1037.5,1240C 1034.33,1235.5 1030.5,1231.67 1026,1228.5C 1025.33,1227.17 1024.67,1225.83 1024,1224.5C 984.695,1184.19 945.028,1144.19 905,1104.5C 900.971,1099.81 896.971,1095.14 893,1090.5C 885.679,1083.01 878.179,1075.68 870.5,1068.5C 869.112,1066.89 868.112,1065.06 867.5,1063C 870.967,1056.88 875.134,1051.38 880,1046.5C 889.07,1038.55 897.57,1030.05 905.5,1021C 937.782,992.712 968.615,963.212 998,932.5C 1004.33,924.167 1010.67,915.833 1017,907.5C 1022.45,898.94 1027.11,889.94 1031,880.5C 1038.26,847.717 1039.26,814.717 1034,781.5C 1031.22,773.271 1027.89,765.271 1024,757.5C 1013.92,745.096 1004.25,732.429 995,719.5C 994.833,719.167 994.667,718.833 994.5,718.5C 996.631,717.831 998.631,717.165 1000.5,716.5 Z"/></g>
<g><path style="opacity:0.997" fill="#06519b" d="M 1304.5,700.5 C 1399.5,700.333 1494.5,700.5 1589.5,701C 1632.91,700.811 1673.91,710.478 1712.5,730C 1768.66,761.535 1801.16,809.368 1810,873.5C 1811.8,891.172 1811.8,908.839 1810,926.5C 1804.29,952.238 1793.96,975.905 1779,997.5C 1771.34,1006.75 1763.51,1015.91 1755.5,1025C 1821.67,1076.41 1852.17,1144.24 1847,1228.5C 1839.76,1316.37 1795.59,1377.2 1714.5,1411C 1706.11,1413.46 1697.78,1416.13 1689.5,1419C 1670.95,1422.64 1652.28,1425.64 1633.5,1428C 1523.83,1428.5 1414.17,1428.67 1304.5,1428.5C 1304.5,1185.83 1304.5,943.167 1304.5,700.5 Z M 1440.5,825.5 C 1484.83,825.333 1529.17,825.5 1573.5,826C 1590.53,826.623 1607.2,829.29 1623.5,834C 1646.34,843.17 1662.17,859.337 1671,882.5C 1674.84,903.099 1673.84,923.432 1668,943.5C 1662.01,958.304 1653.85,971.804 1643.5,984C 1575.83,984.5 1508.17,984.667 1440.5,984.5C 1440.5,931.5 1440.5,878.5 1440.5,825.5 Z M 1440.5,1112.5 C 1499.83,1112.33 1559.17,1112.5 1618.5,1113C 1660.85,1115.09 1689.69,1135.59 1705,1174.5C 1717.82,1219.71 1705.65,1256.21 1668.5,1284C 1648.39,1293.92 1627.06,1299.59 1604.5,1301C 1549.83,1301.5 1495.17,1301.67 1440.5,1301.5C 1440.5,1238.5 1440.5,1175.5 1440.5,1112.5 Z"/></g>
<g><path style="opacity:0.998" fill="#06519b" d="M 1894.5,700.5 C 1997.17,700.333 2099.83,700.5 2202.5,701C 2264.89,700.797 2320.56,719.464 2369.5,757C 2407.24,791.034 2429.74,833.534 2437,884.5C 2444.84,939.939 2436.18,992.605 2411,1042.5C 2377.51,1097.61 2329.34,1133.44 2266.5,1150C 2314.99,1219.48 2363.82,1288.64 2413,1357.5C 2422.36,1371.52 2431.7,1385.52 2441,1399.5C 2448.06,1409.14 2455.23,1418.64 2462.5,1428C 2407.83,1428.83 2353.16,1428.67 2298.5,1427.5C 2254.41,1366.56 2211.25,1304.9 2169,1242.5C 2167.85,1241.26 2166.51,1240.26 2165,1239.5C 2159.42,1230.01 2153.08,1221.01 2146,1212.5C 2134.35,1195.2 2122.68,1177.87 2111,1160.5C 2085.24,1159.51 2059.41,1159.17 2033.5,1159.5C 2033.5,1249.17 2033.5,1338.83 2033.5,1428.5C 1987.17,1428.5 1940.83,1428.5 1894.5,1428.5C 1894.5,1185.83 1894.5,943.167 1894.5,700.5 Z M 2033.5,825.5 C 2085.17,825.333 2136.83,825.5 2188.5,826C 2216.27,825.814 2241.27,833.814 2263.5,850C 2269.98,856.049 2276.14,862.549 2282,869.5C 2296.28,890.298 2301.61,913.298 2298,938.5C 2292.26,978.22 2271.09,1006.05 2234.5,1022C 2221.89,1026.64 2208.89,1029.64 2195.5,1031C 2141.5,1031.5 2087.5,1031.67 2033.5,1031.5C 2033.5,962.833 2033.5,894.167 2033.5,825.5 Z"/></g>
<g><path style="opacity:1" fill="#05529c" d="M 2505.5,700.5 C 2552.5,700.5 2599.5,700.5 2646.5,700.5C 2646.5,943.167 2646.5,1185.83 2646.5,1428.5C 2599.5,1428.5 2552.5,1428.5 2505.5,1428.5C 2505.5,1185.83 2505.5,943.167 2505.5,700.5 Z"/></g>
</svg>
