<?xml version="1.0" encoding="UTF-8"?>
<svg version="1.1" xmlns="http://www.w3.org/2000/svg" width="3000" height="2134">
<path d="M0 0 C25.74 0 51.48 0 78 0 C78 0.66 78 1.32 78 2 C83.28 2 88.56 2 94 2 C94 2.66 94 3.32 94 4 C97.96 4 101.92 4 106 4 C106 4.66 106 5.32 106 6 C109.3 6 112.6 6 116 6 C116 6.99 116 7.98 116 9 C119.63 9 123.26 9 127 9 C127 9.66 127 10.32 127 11 C129.64 11 132.28 11 135 11 C135 11.66 135 12.32 135 13 C136.98 13 138.96 13 141 13 C141 13.66 141 14.32 141 15 C143.64 15 146.28 15 149 15 C149 15.66 149 16.32 149 17 C150.98 17 152.96 17 155 17 C155 17.66 155 18.32 155 19 C156.98 19 158.96 19 161 19 C161 19.66 161 20.32 161 21 C163.31 21 165.62 21 168 21 C168 21.66 168 22.32 168 23 C169.32 23 170.64 23 172 23 C172 23.66 172 24.32 172 25 C173.98 25 175.96 25 178 25 C178 25.66 178 26.32 178 27 C179.98 27 181.96 27 184 27 C184 27.66 184 28.32 184 29 C185.32 29 186.64 29 188 29 C188 29.66 188 30.32 188 31 C189.32 31 190.64 31 192 31 C192 31.66 192 32.32 192 33 C193.32 33 194.64 33 196 33 C196 33.66 196 34.32 196 35 C197.98 35 199.96 35 202 35 C202 35.66 202 36.32 202 37 C202.66 37 203.32 37 204 37 C204 37.66 204 38.32 204 39 C205.32 39 206.64 39 208 39 C208 39.66 208 40.32 208 41 C209.32 41 210.64 41 212 41 C212 41.66 212 42.32 212 43 C213.65 43 215.3 43 217 43 C217 43.66 217 44.32 217 45 C218.32 45 219.64 45 221 45 C221 45.66 221 46.32 221 47 C222.32 47 223.64 47 225 47 C225 47.66 225 48.32 225 49 C226.32 49 227.64 49 229 49 C229 49.66 229 50.32 229 51 C229.66 51 230.32 51 231 51 C231 51.66 231 52.32 231 53 C232.32 53 233.64 53 235 53 C235 53.66 235 54.32 235 55 C236.32 55 237.64 55 239 55 C239 55.99 239 56.98 239 58 C239.66 58 240.32 58 241 58 C241 58.66 241 59.32 241 60 C242.32 60 243.64 60 245 60 C245 60.66 245 61.32 245 62 C245.66 62 246.32 62 247 62 C247 62.66 247 63.32 247 64 C248.32 64 249.64 64 251 64 C251 64.66 251 65.32 251 66 C251.66 66 252.32 66 253 66 C253 66.66 253 67.32 253 68 C253.66 68 254.32 68 255 68 C255 68.66 255 69.32 255 70 C256.32 70 257.64 70 259 70 C259 70.66 259 71.32 259 72 C259.66 72 260.32 72 261 72 C261 72.66 261 73.32 261 74 C262.65 74 264.3 74 266 74 C266 74.66 266 75.32 266 76 C266.66 76 267.32 76 268 76 C268 76.66 268 77.32 268 78 C268.66 78 269.32 78 270 78 C270 78.66 270 79.32 270 80 C270.66 80 271.32 80 272 80 C272 80.66 272 81.32 272 82 C273.32 82 274.64 82 276 82 C276 82.66 276 83.32 276 84 C276.66 84 277.32 84 278 84 C278 84.66 278 85.32 278 86 C278.66 86 279.32 86 280 86 C280 86.66 280 87.32 280 88 C280.66 88 281.32 88 282 88 C282 88.66 282 89.32 282 90 C282.66 90 283.32 90 284 90 C284 90.66 284 91.32 284 92 C285.32 92 286.64 92 288 92 C288 92.66 288 93.32 288 94 C288.66 94 289.32 94 290 94 C290 94.66 290 95.32 290 96 C290.66 96 291.32 96 292 96 C292 96.66 292 97.32 292 98 C292.66 98 293.32 98 294 98 C294 98.66 294 99.32 294 100 C294.66 100 295.32 100 296 100 C296 100.66 296 101.32 296 102 C296.66 102 297.32 102 298 102 C298 102.66 298 103.32 298 104 C298.66 104 299.32 104 300 104 C300 104.99 300 105.98 300 107 C300.66 107 301.32 107 302 107 C302 107.66 302 108.32 302 109 C302.66 109 303.32 109 304 109 C304 109.66 304 110.32 304 111 C304.66 111 305.32 111 306 111 C306 111.66 306 112.32 306 113 C306.66 113 307.32 113 308 113 C308 113.66 308 114.32 308 115 C308.66 115 309.32 115 310 115 C310 115.66 310 116.32 310 117 C310.99 117 311.98 117 313 117 C313 117.66 313 118.32 313 119 C313.66 119 314.32 119 315 119 C315 119.66 315 120.32 315 121 C315.66 121 316.32 121 317 121 C317 121.66 317 122.32 317 123 C317.66 123 318.32 123 319 123 C319 124.32 319 125.64 319 127 C319.66 127 320.32 127 321 127 C321 127.66 321 128.32 321 129 C321.66 129 322.32 129 323 129 C323 129.66 323 130.32 323 131 C323.66 131 324.32 131 325 131 C325 131.66 325 132.32 325 133 C325.66 133 326.32 133 327 133 C327 133.66 327 134.32 327 135 C327.66 135 328.32 135 329 135 C329 135.66 329 136.32 329 137 C329.66 137 330.32 137 331 137 C331 138.32 331 139.64 331 141 C331.66 141 332.32 141 333 141 C333 141.66 333 142.32 333 143 C333.66 143 334.32 143 335 143 C335 143.66 335 144.32 335 145 C335.66 145 336.32 145 337 145 C337 146.32 337 147.64 337 149 C337.66 149 338.32 149 339 149 C339 149.66 339 150.32 339 151 C339.66 151 340.32 151 341 151 C341 151.66 341 152.32 341 153 C341.66 153 342.32 153 343 153 C343 154.65 343 156.3 343 158 C343.66 158 344.32 158 345 158 C345 158.66 345 159.32 345 160 C345.66 160 346.32 160 347 160 C347 161.32 347 162.64 347 164 C347.66 164 348.32 164 349 164 C349 164.66 349 165.32 349 166 C349.66 166 350.32 166 351 166 C351 167.32 351 168.64 351 170 C351.66 170 352.32 170 353 170 C353 170.66 353 171.32 353 172 C353.66 172 354.32 172 355 172 C355 173.32 355 174.64 355 176 C355.66 176 356.32 176 357 176 C357 176.66 357 177.32 357 178 C357.66 178 358.32 178 359 178 C359 179.32 359 180.64 359 182 C359.99 182 360.98 182 362 182 C362 183.32 362 184.64 362 186 C362.66 186 363.32 186 364 186 C364 187.32 364 188.64 364 190 C364.66 190 365.32 190 366 190 C366 190.66 366 191.32 366 192 C366.66 192 367.32 192 368 192 C368 193.32 368 194.64 368 196 C368.66 196 369.32 196 370 196 C370 197.32 370 198.64 370 200 C370.66 200 371.32 200 372 200 C372 201.65 372 203.3 372 205 C372.66 205 373.32 205 374 205 C374 206.32 374 207.64 374 209 C374.66 209 375.32 209 376 209 C376 210.32 376 211.64 376 213 C376.66 213 377.32 213 378 213 C378 214.32 378 215.64 378 217 C378.66 217 379.32 217 380 217 C380 218.32 380 219.64 380 221 C380.66 221 381.32 221 382 221 C382 222.98 382 224.96 382 227 C382.66 227 383.32 227 384 227 C384 228.32 384 229.64 384 231 C384.66 231 385.32 231 386 231 C386 232.98 386 234.96 386 237 C386.66 237 387.32 237 388 237 C388 238.32 388 239.64 388 241 C388.66 241 389.32 241 390 241 C390 242.98 390 244.96 390 247 C390.66 247 391.32 247 392 247 C392 249.31 392 251.62 392 254 C392.66 254 393.32 254 394 254 C394 255.98 394 257.96 394 260 C394.66 260 395.32 260 396 260 C396 261.98 396 263.96 396 266 C396.66 266 397.32 266 398 266 C398 268.64 398 271.28 398 274 C398.66 274 399.32 274 400 274 C400 276.64 400 279.28 400 282 C400.66 282 401.32 282 402 282 C402 284.64 402 287.28 402 290 C402.66 290 403.32 290 404 290 C404 292.64 404 295.28 404 298 C404.66 298 405.32 298 406 298 C406 302.29 406 306.58 406 311 C406.66 311 407.32 311 408 311 C408 315.62 408 320.24 408 325 C408.99 325 409.98 325 411 325 C411 331.6 411 338.2 411 345 C411.66 345 412.32 345 413 345 C413 363.48 413 381.96 413 401 C412.34 401 411.68 401 411 401 C411 407.6 411 414.2 411 421 C410.01 421 409.02 421 408 421 C408 425.62 408 430.24 408 435 C407.34 435 406.68 435 406 435 C406 439.29 406 443.58 406 448 C405.34 448 404.68 448 404 448 C404 450.64 404 453.28 404 456 C403.34 456 402.68 456 402 456 C402 458.64 402 461.28 402 464 C401.34 464 400.68 464 400 464 C400 466.64 400 469.28 400 472 C399.34 472 398.68 472 398 472 C398 474.64 398 477.28 398 480 C397.34 480 396.68 480 396 480 C396 481.98 396 483.96 396 486 C395.34 486 394.68 486 394 486 C394 487.98 394 489.96 394 492 C393.34 492 392.68 492 392 492 C392 494.31 392 496.62 392 499 C391.34 499 390.68 499 390 499 C390 500.98 390 502.96 390 505 C389.34 505 388.68 505 388 505 C388 506.32 388 507.64 388 509 C387.34 509 386.68 509 386 509 C386 510.98 386 512.96 386 515 C385.34 515 384.68 515 384 515 C384 516.32 384 517.64 384 519 C383.34 519 382.68 519 382 519 C382 520.98 382 522.96 382 525 C381.34 525 380.68 525 380 525 C380 526.32 380 527.64 380 529 C379.34 529 378.68 529 378 529 C378 530.32 378 531.64 378 533 C377.34 533 376.68 533 376 533 C376 534.32 376 535.64 376 537 C375.34 537 374.68 537 374 537 C374 538.32 374 539.64 374 541 C373.34 541 372.68 541 372 541 C372 542.65 372 544.3 372 546 C371.34 546 370.68 546 370 546 C370 547.32 370 548.64 370 550 C369.34 550 368.68 550 368 550 C368 551.32 368 552.64 368 554 C367.34 554 366.68 554 366 554 C366 554.66 366 555.32 366 556 C365.34 556 364.68 556 364 556 C364 557.32 364 558.64 364 560 C363.34 560 362.68 560 362 560 C362 561.32 362 562.64 362 564 C361.01 564 360.02 564 359 564 C359 565.32 359 566.64 359 568 C358.34 568 357.68 568 357 568 C357 568.66 357 569.32 357 570 C356.34 570 355.68 570 355 570 C355 571.32 355 572.64 355 574 C354.34 574 353.68 574 353 574 C353 574.66 353 575.32 353 576 C352.34 576 351.68 576 351 576 C351 577.32 351 578.64 351 580 C350.34 580 349.68 580 349 580 C349 580.66 349 581.32 349 582 C348.34 582 347.68 582 347 582 C347 583.32 347 584.64 347 586 C346.34 586 345.68 586 345 586 C345 586.66 345 587.32 345 588 C344.34 588 343.68 588 343 588 C343 589.65 343 591.3 343 593 C342.34 593 341.68 593 341 593 C341 593.66 341 594.32 341 595 C340.34 595 339.68 595 339 595 C339 595.66 339 596.32 339 597 C338.34 597 337.68 597 337 597 C337 598.32 337 599.64 337 601 C336.34 601 335.68 601 335 601 C335 601.66 335 602.32 335 603 C334.34 603 333.68 603 333 603 C333 603.66 333 604.32 333 605 C332.34 605 331.68 605 331 605 C331 606.32 331 607.64 331 609 C330.34 609 329.68 609 329 609 C329 609.66 329 610.32 329 611 C328.34 611 327.68 611 327 611 C327 611.66 327 612.32 327 613 C326.34 613 325.68 613 325 613 C325 613.66 325 614.32 325 615 C324.34 615 323.68 615 323 615 C323 615.66 323 616.32 323 617 C322.34 617 321.68 617 321 617 C321 617.66 321 618.32 321 619 C320.34 619 319.68 619 319 619 C319 620.32 319 621.64 319 623 C318.34 623 317.68 623 317 623 C317 623.66 317 624.32 317 625 C316.34 625 315.68 625 315 625 C315 625.66 315 626.32 315 627 C314.34 627 313.68 627 313 627 C313 627.66 313 628.32 313 629 C312.01 629 311.02 629 310 629 C310 629.66 310 630.32 310 631 C309.34 631 308.68 631 308 631 C308 631.66 308 632.32 308 633 C307.34 633 306.68 633 306 633 C306 633.66 306 634.32 306 635 C305.34 635 304.68 635 304 635 C304 635.66 304 636.32 304 637 C303.34 637 302.68 637 302 637 C302 637.66 302 638.32 302 639 C301.34 639 300.68 639 300 639 C300 639.99 300 640.98 300 642 C299.34 642 298.68 642 298 642 C298 642.66 298 643.32 298 644 C297.34 644 296.68 644 296 644 C296 644.66 296 645.32 296 646 C295.34 646 294.68 646 294 646 C294 646.66 294 647.32 294 648 C293.34 648 292.68 648 292 648 C292 648.66 292 649.32 292 650 C291.34 650 290.68 650 290 650 C290 650.66 290 651.32 290 652 C288.68 652 287.36 652 286 652 C286 652.66 286 653.32 286 654 C285.34 654 284.68 654 284 654 C284 654.66 284 655.32 284 656 C283.34 656 282.68 656 282 656 C282 656.66 282 657.32 282 658 C281.34 658 280.68 658 280 658 C280 658.66 280 659.32 280 660 C279.34 660 278.68 660 278 660 C278 660.66 278 661.32 278 662 C277.34 662 276.68 662 276 662 C276 662.66 276 663.32 276 664 C274.68 664 273.36 664 272 664 C272 664.66 272 665.32 272 666 C271.34 666 270.68 666 270 666 C270 666.66 270 667.32 270 668 C269.34 668 268.68 668 268 668 C268 668.66 268 669.32 268 670 C267.34 670 266.68 670 266 670 C266 670.66 266 671.32 266 672 C264.35 672 262.7 672 261 672 C261 672.66 261 673.32 261 674 C260.34 674 259.68 674 259 674 C259 674.66 259 675.32 259 676 C257.68 676 256.36 676 255 676 C255 676.66 255 677.32 255 678 C254.34 678 253.68 678 253 678 C253 678.66 253 679.32 253 680 C252.34 680 251.68 680 251 680 C251 680.66 251 681.32 251 682 C249.68 682 248.36 682 247 682 C247 682.66 247 683.32 247 684 C246.34 684 245.68 684 245 684 C245 684.66 245 685.32 245 686 C243.68 686 242.36 686 241 686 C241 686.66 241 687.32 241 688 C239.68 688 238.36 688 237 688 C237 688.99 237 689.98 237 691 C236.34 691 235.68 691 235 691 C235 691.66 235 692.32 235 693 C233.68 693 232.36 693 231 693 C231 693.66 231 694.32 231 695 C230.34 695 229.68 695 229 695 C229 695.66 229 696.32 229 697 C227.68 697 226.36 697 225 697 C225 697.66 225 698.32 225 699 C223.68 699 222.36 699 221 699 C221 699.66 221 700.32 221 701 C219.68 701 218.36 701 217 701 C217 701.66 217 702.32 217 703 C215.35 703 213.7 703 212 703 C212 703.66 212 704.32 212 705 C210.68 705 209.36 705 208 705 C208 705.66 208 706.32 208 707 C206.68 707 205.36 707 204 707 C204 707.66 204 708.32 204 709 C202.68 709 201.36 709 200 709 C200 709.66 200 710.32 200 711 C198.68 711 197.36 711 196 711 C196 711.66 196 712.32 196 713 C194.68 713 193.36 713 192 713 C192 713.66 192 714.32 192 715 C190.68 715 189.36 715 188 715 C188 715.66 188 716.32 188 717 C186.68 717 185.36 717 184 717 C184 717.66 184 718.32 184 719 C182.02 719 180.04 719 178 719 C178 719.66 178 720.32 178 721 C176.02 721 174.04 721 172 721 C172 721.66 172 722.32 172 723 C170.68 723 169.36 723 168 723 C168 723.66 168 724.32 168 725 C165.69 725 163.38 725 161 725 C161 725.66 161 726.32 161 727 C159.02 727 157.04 727 155 727 C155 727.66 155 728.32 155 729 C153.02 729 151.04 729 149 729 C149 729.66 149 730.32 149 731 C146.36 731 143.72 731 141 731 C141 731.66 141 732.32 141 733 C139.02 733 137.04 733 135 733 C135 733.66 135 734.32 135 735 C132.36 735 129.72 735 127 735 C127 735.66 127 736.32 127 737 C123.37 737 119.74 737 116 737 C116 737.99 116 738.98 116 740 C112.7 740 109.4 740 106 740 C106 740.66 106 741.32 106 742 C102.04 742 98.08 742 94 742 C94 742.66 94 743.32 94 744 C88.72 744 83.44 744 78 744 C78 744.66 78 745.32 78 746 C52.26 746 26.52 746 0 746 C0 745.34 0 744.68 0 744 C-5.28 744 -10.56 744 -16 744 C-16 743.34 -16 742.68 -16 742 C-19.96 742 -23.92 742 -28 742 C-28 741.34 -28 740.68 -28 740 C-31.63 740 -35.26 740 -39 740 C-39 739.01 -39 738.02 -39 737 C-42.3 737 -45.6 737 -49 737 C-49 736.34 -49 735.68 -49 735 C-51.64 735 -54.28 735 -57 735 C-57 734.34 -57 733.68 -57 733 C-58.98 733 -60.96 733 -63 733 C-63 732.34 -63 731.68 -63 731 C-65.64 731 -68.28 731 -71 731 C-71 730.34 -71 729.68 -71 729 C-72.98 729 -74.96 729 -77 729 C-77 728.34 -77 727.68 -77 727 C-79.31 727 -81.62 727 -84 727 C-84 726.34 -84 725.68 -84 725 C-85.98 725 -87.96 725 -90 725 C-90 724.34 -90 723.68 -90 723 C-91.98 723 -93.96 723 -96 723 C-96 722.34 -96 721.68 -96 721 C-97.32 721 -98.64 721 -100 721 C-100 720.34 -100 719.68 -100 719 C-101.98 719 -103.96 719 -106 719 C-106 718.34 -106 717.68 -106 717 C-107.32 717 -108.64 717 -110 717 C-110 716.34 -110 715.68 -110 715 C-111.32 715 -112.64 715 -114 715 C-114 714.34 -114 713.68 -114 713 C-115.32 713 -116.64 713 -118 713 C-118 712.34 -118 711.68 -118 711 C-119.98 711 -121.96 711 -124 711 C-124 710.34 -124 709.68 -124 709 C-125.65 709 -127.3 709 -129 709 C-129 708.34 -129 707.68 -129 707 C-130.32 707 -131.64 707 -133 707 C-133 706.34 -133 705.68 -133 705 C-133.66 705 -134.32 705 -135 705 C-135 704.34 -135 703.68 -135 703 C-136.32 703 -137.64 703 -139 703 C-139 702.34 -139 701.68 -139 701 C-140.32 701 -141.64 701 -143 701 C-143 700.34 -143 699.68 -143 699 C-144.32 699 -145.64 699 -147 699 C-147 698.34 -147 697.68 -147 697 C-148.32 697 -149.64 697 -151 697 C-151 696.34 -151 695.68 -151 695 C-151.66 695 -152.32 695 -153 695 C-153 694.34 -153 693.68 -153 693 C-154.32 693 -155.64 693 -157 693 C-157 692.34 -157 691.68 -157 691 C-158.32 691 -159.64 691 -161 691 C-161 690.01 -161 689.02 -161 688 C-161.66 688 -162.32 688 -163 688 C-163 687.34 -163 686.68 -163 686 C-164.32 686 -165.64 686 -167 686 C-167 685.34 -167 684.68 -167 684 C-167.66 684 -168.32 684 -169 684 C-169 683.34 -169 682.68 -169 682 C-170.32 682 -171.64 682 -173 682 C-173 681.34 -173 680.68 -173 680 C-173.66 680 -174.32 680 -175 680 C-175 679.34 -175 678.68 -175 678 C-176.65 678 -178.3 678 -180 678 C-180 677.34 -180 676.68 -180 676 C-180.66 676 -181.32 676 -182 676 C-182 675.34 -182 674.68 -182 674 C-182.66 674 -183.32 674 -184 674 C-184 673.34 -184 672.68 -184 672 C-185.32 672 -186.64 672 -188 672 C-188 671.34 -188 670.68 -188 670 C-188.66 670 -189.32 670 -190 670 C-190 669.34 -190 668.68 -190 668 C-190.66 668 -191.32 668 -192 668 C-192 667.34 -192 666.68 -192 666 C-193.32 666 -194.64 666 -196 666 C-196 665.34 -196 664.68 -196 664 C-196.66 664 -197.32 664 -198 664 C-198 663.34 -198 662.68 -198 662 C-198.66 662 -199.32 662 -200 662 C-200 661.34 -200 660.68 -200 660 C-200.66 660 -201.32 660 -202 660 C-202 659.34 -202 658.68 -202 658 C-202.66 658 -203.32 658 -204 658 C-204 657.34 -204 656.68 -204 656 C-205.32 656 -206.64 656 -208 656 C-208 655.34 -208 654.68 -208 654 C-208.66 654 -209.32 654 -210 654 C-210 653.34 -210 652.68 -210 652 C-210.66 652 -211.32 652 -212 652 C-212 651.34 -212 650.68 -212 650 C-212.66 650 -213.32 650 -214 650 C-214 649.34 -214 648.68 -214 648 C-214.66 648 -215.32 648 -216 648 C-216 647.34 -216 646.68 -216 646 C-216.66 646 -217.32 646 -218 646 C-218 645.34 -218 644.68 -218 644 C-218.66 644 -219.32 644 -220 644 C-220 643.34 -220 642.68 -220 642 C-220.66 642 -221.32 642 -222 642 C-222 641.01 -222 640.02 -222 639 C-222.66 639 -223.32 639 -224 639 C-224 638.34 -224 637.68 -224 637 C-224.99 637 -225.98 637 -227 637 C-227 636.34 -227 635.68 -227 635 C-227.66 635 -228.32 635 -229 635 C-229 634.34 -229 633.68 -229 633 C-229.66 633 -230.32 633 -231 633 C-231 632.34 -231 631.68 -231 631 C-231.66 631 -232.32 631 -233 631 C-233 630.34 -233 629.68 -233 629 C-233.66 629 -234.32 629 -235 629 C-235 628.34 -235 627.68 -235 627 C-235.66 627 -236.32 627 -237 627 C-237 626.34 -237 625.68 -237 625 C-237.66 625 -238.32 625 -239 625 C-239 624.34 -239 623.68 -239 623 C-239.66 623 -240.32 623 -241 623 C-241 622.34 -241 621.68 -241 621 C-241.66 621 -242.32 621 -243 621 C-243 619.68 -243 618.36 -243 617 C-243.66 617 -244.32 617 -245 617 C-245 616.34 -245 615.68 -245 615 C-245.66 615 -246.32 615 -247 615 C-247 614.34 -247 613.68 -247 613 C-247.66 613 -248.32 613 -249 613 C-249 612.34 -249 611.68 -249 611 C-249.66 611 -250.32 611 -251 611 C-251 610.34 -251 609.68 -251 609 C-251.66 609 -252.32 609 -253 609 C-253 607.68 -253 606.36 -253 605 C-253.66 605 -254.32 605 -255 605 C-255 604.34 -255 603.68 -255 603 C-255.66 603 -256.32 603 -257 603 C-257 602.34 -257 601.68 -257 601 C-257.66 601 -258.32 601 -259 601 C-259 600.34 -259 599.68 -259 599 C-259.66 599 -260.32 599 -261 599 C-261 597.68 -261 596.36 -261 595 C-261.66 595 -262.32 595 -263 595 C-263 594.34 -263 593.68 -263 593 C-263.66 593 -264.32 593 -265 593 C-265 592.01 -265 591.02 -265 590 C-265.66 590 -266.32 590 -267 590 C-267 588.68 -267 587.36 -267 586 C-267.66 586 -268.32 586 -269 586 C-269 585.34 -269 584.68 -269 584 C-269.66 584 -270.32 584 -271 584 C-271 582.68 -271 581.36 -271 580 C-271.66 580 -272.32 580 -273 580 C-273 579.34 -273 578.68 -273 578 C-273.99 578 -274.98 578 -276 578 C-276 576.68 -276 575.36 -276 574 C-276.66 574 -277.32 574 -278 574 C-278 573.34 -278 572.68 -278 572 C-278.66 572 -279.32 572 -280 572 C-280 570.68 -280 569.36 -280 568 C-280.66 568 -281.32 568 -282 568 C-282 566.68 -282 565.36 -282 564 C-282.66 564 -283.32 564 -284 564 C-284 563.34 -284 562.68 -284 562 C-284.66 562 -285.32 562 -286 562 C-286 560.68 -286 559.36 -286 558 C-286.66 558 -287.32 558 -288 558 C-288 556.68 -288 555.36 -288 554 C-288.66 554 -289.32 554 -290 554 C-290 552.68 -290 551.36 -290 550 C-290.66 550 -291.32 550 -292 550 C-292 548.68 -292 547.36 -292 546 C-292.66 546 -293.32 546 -294 546 C-294 544.35 -294 542.7 -294 541 C-294.66 541 -295.32 541 -296 541 C-296 539.68 -296 538.36 -296 537 C-296.66 537 -297.32 537 -298 537 C-298 535.68 -298 534.36 -298 533 C-298.66 533 -299.32 533 -300 533 C-300 531.68 -300 530.36 -300 529 C-300.66 529 -301.32 529 -302 529 C-302 527.68 -302 526.36 -302 525 C-302.66 525 -303.32 525 -304 525 C-304 523.68 -304 522.36 -304 521 C-304.66 521 -305.32 521 -306 521 C-306 519.02 -306 517.04 -306 515 C-306.66 515 -307.32 515 -308 515 C-308 513.68 -308 512.36 -308 511 C-308.66 511 -309.32 511 -310 511 C-310 509.02 -310 507.04 -310 505 C-310.66 505 -311.32 505 -312 505 C-312 503.68 -312 502.36 -312 501 C-312.66 501 -313.32 501 -314 501 C-314 498.69 -314 496.38 -314 494 C-314.66 494 -315.32 494 -316 494 C-316 492.02 -316 490.04 -316 488 C-316.66 488 -317.32 488 -318 488 C-318 485.36 -318 482.72 -318 480 C-318.66 480 -319.32 480 -320 480 C-320 478.02 -320 476.04 -320 474 C-320.99 474 -321.98 474 -323 474 C-323 471.36 -323 468.72 -323 466 C-323.66 466 -324.32 466 -325 466 C-325 463.36 -325 460.72 -325 458 C-325.66 458 -326.32 458 -327 458 C-327 455.36 -327 452.72 -327 450 C-327.66 450 -328.32 450 -329 450 C-329 445.71 -329 441.42 -329 437 C-329.66 437 -330.32 437 -331 437 C-331 433.04 -331 429.08 -331 425 C-331.66 425 -332.32 425 -333 425 C-333 418.4 -333 411.8 -333 405 C-333.66 405 -334.32 405 -335 405 C-335 383.88 -335 362.76 -335 341 C-334.34 341 -333.68 341 -333 341 C-333 334.4 -333 327.8 -333 321 C-332.34 321 -331.68 321 -331 321 C-331 317.04 -331 313.08 -331 309 C-330.34 309 -329.68 309 -329 309 C-329 304.71 -329 300.42 -329 296 C-328.34 296 -327.68 296 -327 296 C-327 293.36 -327 290.72 -327 288 C-326.34 288 -325.68 288 -325 288 C-325 285.36 -325 282.72 -325 280 C-324.34 280 -323.68 280 -323 280 C-323 277.36 -323 274.72 -323 272 C-322.01 272 -321.02 272 -320 272 C-320 270.02 -320 268.04 -320 266 C-319.34 266 -318.68 266 -318 266 C-318 263.36 -318 260.72 -318 258 C-317.34 258 -316.68 258 -316 258 C-316 256.02 -316 254.04 -316 252 C-315.34 252 -314.68 252 -314 252 C-314 249.69 -314 247.38 -314 245 C-313.34 245 -312.68 245 -312 245 C-312 243.68 -312 242.36 -312 241 C-311.34 241 -310.68 241 -310 241 C-310 239.02 -310 237.04 -310 235 C-309.34 235 -308.68 235 -308 235 C-308 233.68 -308 232.36 -308 231 C-307.34 231 -306.68 231 -306 231 C-306 229.02 -306 227.04 -306 225 C-305.34 225 -304.68 225 -304 225 C-304 223.68 -304 222.36 -304 221 C-303.34 221 -302.68 221 -302 221 C-302 219.68 -302 218.36 -302 217 C-301.34 217 -300.68 217 -300 217 C-300 215.68 -300 214.36 -300 213 C-299.34 213 -298.68 213 -298 213 C-298 211.68 -298 210.36 -298 209 C-297.34 209 -296.68 209 -296 209 C-296 207.68 -296 206.36 -296 205 C-295.34 205 -294.68 205 -294 205 C-294 203.35 -294 201.7 -294 200 C-293.34 200 -292.68 200 -292 200 C-292 198.68 -292 197.36 -292 196 C-291.34 196 -290.68 196 -290 196 C-290 194.68 -290 193.36 -290 192 C-289.34 192 -288.68 192 -288 192 C-288 190.68 -288 189.36 -288 188 C-287.34 188 -286.68 188 -286 188 C-286 186.68 -286 185.36 -286 184 C-285.34 184 -284.68 184 -284 184 C-284 183.34 -284 182.68 -284 182 C-283.34 182 -282.68 182 -282 182 C-282 180.68 -282 179.36 -282 178 C-281.34 178 -280.68 178 -280 178 C-280 176.68 -280 175.36 -280 174 C-279.34 174 -278.68 174 -278 174 C-278 173.34 -278 172.68 -278 172 C-277.34 172 -276.68 172 -276 172 C-276 170.68 -276 169.36 -276 168 C-275.01 168 -274.02 168 -273 168 C-273 167.34 -273 166.68 -273 166 C-272.34 166 -271.68 166 -271 166 C-271 164.68 -271 163.36 -271 162 C-270.34 162 -269.68 162 -269 162 C-269 161.34 -269 160.68 -269 160 C-268.34 160 -267.68 160 -267 160 C-267 158.68 -267 157.36 -267 156 C-266.34 156 -265.68 156 -265 156 C-265 155.01 -265 154.02 -265 153 C-264.34 153 -263.68 153 -263 153 C-263 152.34 -263 151.68 -263 151 C-262.34 151 -261.68 151 -261 151 C-261 149.68 -261 148.36 -261 147 C-260.34 147 -259.68 147 -259 147 C-259 146.34 -259 145.68 -259 145 C-258.34 145 -257.68 145 -257 145 C-257 144.34 -257 143.68 -257 143 C-256.34 143 -255.68 143 -255 143 C-255 141.68 -255 140.36 -255 139 C-254.34 139 -253.68 139 -253 139 C-253 138.34 -253 137.68 -253 137 C-252.34 137 -251.68 137 -251 137 C-251 136.34 -251 135.68 -251 135 C-250.34 135 -249.68 135 -249 135 C-249 134.34 -249 133.68 -249 133 C-248.34 133 -247.68 133 -247 133 C-247 132.34 -247 131.68 -247 131 C-246.34 131 -245.68 131 -245 131 C-245 129.68 -245 128.36 -245 127 C-244.34 127 -243.68 127 -243 127 C-243 126.34 -243 125.68 -243 125 C-242.34 125 -241.68 125 -241 125 C-241 124.34 -241 123.68 -241 123 C-240.34 123 -239.68 123 -239 123 C-239 122.34 -239 121.68 -239 121 C-238.34 121 -237.68 121 -237 121 C-237 120.34 -237 119.68 -237 119 C-236.34 119 -235.68 119 -235 119 C-235 118.34 -235 117.68 -235 117 C-234.34 117 -233.68 117 -233 117 C-233 116.34 -233 115.68 -233 115 C-232.34 115 -231.68 115 -231 115 C-231 114.34 -231 113.68 -231 113 C-230.34 113 -229.68 113 -229 113 C-229 112.34 -229 111.68 -229 111 C-228.34 111 -227.68 111 -227 111 C-227 110.34 -227 109.68 -227 109 C-226.01 109 -225.02 109 -224 109 C-224 108.34 -224 107.68 -224 107 C-223.34 107 -222.68 107 -222 107 C-222 106.01 -222 105.02 -222 104 C-221.34 104 -220.68 104 -220 104 C-220 103.34 -220 102.68 -220 102 C-219.34 102 -218.68 102 -218 102 C-218 101.34 -218 100.68 -218 100 C-217.34 100 -216.68 100 -216 100 C-216 99.34 -216 98.68 -216 98 C-215.34 98 -214.68 98 -214 98 C-214 97.34 -214 96.68 -214 96 C-213.34 96 -212.68 96 -212 96 C-212 95.34 -212 94.68 -212 94 C-211.34 94 -210.68 94 -210 94 C-210 93.34 -210 92.68 -210 92 C-209.34 92 -208.68 92 -208 92 C-208 91.34 -208 90.68 -208 90 C-206.68 90 -205.36 90 -204 90 C-204 89.34 -204 88.68 -204 88 C-203.34 88 -202.68 88 -202 88 C-202 87.34 -202 86.68 -202 86 C-201.34 86 -200.68 86 -200 86 C-200 85.34 -200 84.68 -200 84 C-199.34 84 -198.68 84 -198 84 C-198 83.34 -198 82.68 -198 82 C-197.34 82 -196.68 82 -196 82 C-196 81.34 -196 80.68 -196 80 C-194.68 80 -193.36 80 -192 80 C-192 79.34 -192 78.68 -192 78 C-191.34 78 -190.68 78 -190 78 C-190 77.34 -190 76.68 -190 76 C-189.34 76 -188.68 76 -188 76 C-188 75.34 -188 74.68 -188 74 C-186.68 74 -185.36 74 -184 74 C-184 73.34 -184 72.68 -184 72 C-183.34 72 -182.68 72 -182 72 C-182 71.34 -182 70.68 -182 70 C-181.34 70 -180.68 70 -180 70 C-180 69.34 -180 68.68 -180 68 C-178.35 68 -176.7 68 -175 68 C-175 67.34 -175 66.68 -175 66 C-174.34 66 -173.68 66 -173 66 C-173 65.34 -173 64.68 -173 64 C-171.68 64 -170.36 64 -169 64 C-169 63.34 -169 62.68 -169 62 C-168.34 62 -167.68 62 -167 62 C-167 61.34 -167 60.68 -167 60 C-165.68 60 -164.36 60 -163 60 C-163 59.34 -163 58.68 -163 58 C-162.34 58 -161.68 58 -161 58 C-161 57.01 -161 56.02 -161 55 C-159.68 55 -158.36 55 -157 55 C-157 54.34 -157 53.68 -157 53 C-155.68 53 -154.36 53 -153 53 C-153 52.34 -153 51.68 -153 51 C-152.34 51 -151.68 51 -151 51 C-151 50.34 -151 49.68 -151 49 C-149.68 49 -148.36 49 -147 49 C-147 48.34 -147 47.68 -147 47 C-145.68 47 -144.36 47 -143 47 C-143 46.34 -143 45.68 -143 45 C-141.68 45 -140.36 45 -139 45 C-139 44.34 -139 43.68 -139 43 C-138.34 43 -137.68 43 -137 43 C-137 42.34 -137 41.68 -137 41 C-135.68 41 -134.36 41 -133 41 C-133 40.34 -133 39.68 -133 39 C-131.68 39 -130.36 39 -129 39 C-129 38.34 -129 37.68 -129 37 C-127.35 37 -125.7 37 -124 37 C-124 36.34 -124 35.68 -124 35 C-122.02 35 -120.04 35 -118 35 C-118 34.34 -118 33.68 -118 33 C-116.68 33 -115.36 33 -114 33 C-114 32.34 -114 31.68 -114 31 C-112.68 31 -111.36 31 -110 31 C-110 30.34 -110 29.68 -110 29 C-108.68 29 -107.36 29 -106 29 C-106 28.34 -106 27.68 -106 27 C-104.02 27 -102.04 27 -100 27 C-100 26.34 -100 25.68 -100 25 C-98.68 25 -97.36 25 -96 25 C-96 24.34 -96 23.68 -96 23 C-94.02 23 -92.04 23 -90 23 C-90 22.34 -90 21.68 -90 21 C-88.02 21 -86.04 21 -84 21 C-84 20.34 -84 19.68 -84 19 C-81.69 19 -79.38 19 -77 19 C-77 18.34 -77 17.68 -77 17 C-75.02 17 -73.04 17 -71 17 C-71 16.34 -71 15.68 -71 15 C-68.36 15 -65.72 15 -63 15 C-63 14.34 -63 13.68 -63 13 C-61.02 13 -59.04 13 -57 13 C-57 12.34 -57 11.68 -57 11 C-54.36 11 -51.72 11 -49 11 C-49 10.34 -49 9.68 -49 9 C-46.36 9 -43.72 9 -41 9 C-41 8.01 -41 7.02 -41 6 C-36.71 6 -32.42 6 -28 6 C-28 5.34 -28 4.68 -28 4 C-24.04 4 -20.08 4 -16 4 C-16 3.34 -16 2.68 -16 2 C-10.72 2 -5.44 2 0 2 C0 1.34 0 0.68 0 0 Z " fill="#3785C6" transform="translate(530,694)"/>
<path d="M0 0 C10.89 0 21.78 0 33 0 C33 0.66 33 1.32 33 2 C36.96 2 40.92 2 45 2 C45 2.66 45 3.32 45 4 C47.64 4 50.28 4 53 4 C53 4.66 53 5.32 53 6 C54.98 6 56.96 6 59 6 C59 6.66 59 7.32 59 8 C61.64 8 64.28 8 67 8 C67 8.66 67 9.32 67 10 C68.65 10 70.3 10 72 10 C72 10.66 72 11.32 72 12 C73.98 12 75.96 12 78 12 C78 12.66 78 13.32 78 14 C79.32 14 80.64 14 82 14 C82 14.66 82 15.32 82 16 C83.32 16 84.64 16 86 16 C86 16.66 86 17.32 86 18 C87.32 18 88.64 18 90 18 C90 18.66 90 19.32 90 20 C90.66 20 91.32 20 92 20 C92 20.66 92 21.32 92 22 C93.32 22 94.64 22 96 22 C96 22.66 96 23.32 96 24 C97.32 24 98.64 24 100 24 C100 24.99 100 25.98 100 27 C100.66 27 101.32 27 102 27 C102 27.66 102 28.32 102 29 C102.66 29 103.32 29 104 29 C104 29.66 104 30.32 104 31 C104.66 31 105.32 31 106 31 C106 31.66 106 32.32 106 33 C106.66 33 107.32 33 108 33 C108 34.32 108 35.64 108 37 C108.66 37 109.32 37 110 37 C110 110.92 110 184.84 110 261 C108.02 261 106.04 261 104 261 C104 260.34 104 259.68 104 259 C102.68 259 101.36 259 100 259 C100 258.34 100 257.68 100 257 C98.68 257 97.36 257 96 257 C96 256.34 96 255.68 96 255 C95.34 255 94.68 255 94 255 C94 254.34 94 253.68 94 253 C92.68 253 91.36 253 90 253 C90 252.34 90 251.68 90 251 C88.02 251 86.04 251 84 251 C84 250.34 84 249.68 84 249 C82.68 249 81.36 249 80 249 C80 248.34 80 247.68 80 247 C78.68 247 77.36 247 76 247 C76 246.34 76 245.68 76 245 C74.02 245 72.04 245 70 245 C70 244.34 70 243.68 70 243 C67.03 243 64.06 243 61 243 C61 242.34 61 241.68 61 241 C58.36 241 55.72 241 53 241 C53 240.34 53 239.68 53 239 C49.04 239 45.08 239 41 239 C41 238.34 41 237.68 41 237 C26.15 237 11.3 237 -4 237 C-4 237.66 -4 238.32 -4 239 C-9.94 239 -15.88 239 -22 239 C-22 239.66 -22 240.32 -22 241 C-24.31 241 -26.62 241 -29 241 C-29 241.66 -29 242.32 -29 243 C-32.96 243 -36.92 243 -41 243 C-41 243.66 -41 244.32 -41 245 C-43.64 245 -46.28 245 -49 245 C-49 245.66 -49 246.32 -49 247 C-50.98 247 -52.96 247 -55 247 C-55 247.66 -55 248.32 -55 249 C-57.64 249 -60.28 249 -63 249 C-63 249.66 -63 250.32 -63 251 C-64.98 251 -66.96 251 -69 251 C-69 251.66 -69 252.32 -69 253 C-70.98 253 -72.96 253 -75 253 C-75 253.66 -75 254.32 -75 255 C-77.31 255 -79.62 255 -82 255 C-82 255.66 -82 256.32 -82 257 C-83.32 257 -84.64 257 -86 257 C-86 257.66 -86 258.32 -86 259 C-87.98 259 -89.96 259 -92 259 C-92 259.66 -92 260.32 -92 261 C-93.98 261 -95.96 261 -98 261 C-98 261.66 -98 262.32 -98 263 C-99.98 263 -101.96 263 -104 263 C-104 263.66 -104 264.32 -104 265 C-105.98 265 -107.96 265 -110 265 C-110 265.66 -110 266.32 -110 267 C-111.98 267 -113.96 267 -116 267 C-116 267.66 -116 268.32 -116 269 C-117.98 269 -119.96 269 -122 269 C-122 269.99 -122 270.98 -122 272 C-124.31 272 -126.62 272 -129 272 C-129 272.66 -129 273.32 -129 274 C-130.98 274 -132.96 274 -135 274 C-135 274.66 -135 275.32 -135 276 C-136.98 276 -138.96 276 -141 276 C-141 276.66 -141 277.32 -141 278 C-142.98 278 -144.96 278 -147 278 C-147 278.66 -147 279.32 -147 280 C-148.98 280 -150.96 280 -153 280 C-153 280.66 -153 281.32 -153 282 C-155.64 282 -158.28 282 -161 282 C-161 282.66 -161 283.32 -161 284 C-162.98 284 -164.96 284 -167 284 C-167 284.66 -167 285.32 -167 286 C-169.97 286 -172.94 286 -176 286 C-176 286.66 -176 287.32 -176 288 C-178.64 288 -181.28 288 -184 288 C-184 288.66 -184 289.32 -184 290 C-187.96 290 -191.92 290 -196 290 C-196 290.66 -196 291.32 -196 292 C-200.62 292 -205.24 292 -210 292 C-210 292.66 -210 293.32 -210 294 C-224.19 294 -238.38 294 -253 294 C-253 293.34 -253 292.68 -253 292 C-256.96 292 -260.92 292 -265 292 C-265 291.34 -265 290.68 -265 290 C-266.98 290 -268.96 290 -271 290 C-271 289.34 -271 288.68 -271 288 C-273.97 288 -276.94 288 -280 288 C-280 287.34 -280 286.68 -280 286 C-281.98 286 -283.96 286 -286 286 C-286 285.34 -286 284.68 -286 284 C-287.32 284 -288.64 284 -290 284 C-290 283.34 -290 282.68 -290 282 C-291.98 282 -293.96 282 -296 282 C-296 281.34 -296 280.68 -296 280 C-297.32 280 -298.64 280 -300 280 C-300 279.34 -300 278.68 -300 278 C-301.32 278 -302.64 278 -304 278 C-304 277.34 -304 276.68 -304 276 C-304.66 276 -305.32 276 -306 276 C-306 275.34 -306 274.68 -306 274 C-307.32 274 -308.64 274 -310 274 C-310 273.34 -310 272.68 -310 272 C-311.32 272 -312.64 272 -314 272 C-314 271.01 -314 270.02 -314 269 C-314.66 269 -315.32 269 -316 269 C-316 268.34 -316 267.68 -316 267 C-316.66 267 -317.32 267 -318 267 C-318 266.34 -318 265.68 -318 265 C-318.66 265 -319.32 265 -320 265 C-320 263.02 -320 261.04 -320 259 C-320.99 259 -321.98 259 -323 259 C-323 187.72 -323 116.44 -323 43 C-322.01 43 -321.02 43 -320 43 C-320 41.68 -320 40.36 -320 39 C-318.02 39 -316.04 39 -314 39 C-314 39.66 -314 40.32 -314 41 C-312.68 41 -311.36 41 -310 41 C-310 41.66 -310 42.32 -310 43 C-309.34 43 -308.68 43 -308 43 C-308 43.66 -308 44.32 -308 45 C-306.68 45 -305.36 45 -304 45 C-304 45.66 -304 46.32 -304 47 C-303.34 47 -302.68 47 -302 47 C-302 47.66 -302 48.32 -302 49 C-300.68 49 -299.36 49 -298 49 C-298 49.66 -298 50.32 -298 51 C-296.68 51 -295.36 51 -294 51 C-294 51.66 -294 52.32 -294 53 C-292.68 53 -291.36 53 -290 53 C-290 53.66 -290 54.32 -290 55 C-288.02 55 -286.04 55 -284 55 C-284 55.66 -284 56.32 -284 57 C-282.68 57 -281.36 57 -280 57 C-280 57.66 -280 58.32 -280 59 C-278.02 59 -276.04 59 -274 59 C-274 59.66 -274 60.32 -274 61 C-270.37 61 -266.74 61 -263 61 C-263 61.66 -263 62.32 -263 63 C-261.68 63 -260.36 63 -259 63 C-259 63.66 -259 64.32 -259 65 C-255.04 65 -251.08 65 -247 65 C-247 65.66 -247 66.32 -247 67 C-238.09 67 -229.18 67 -220 67 C-220 66.34 -220 65.68 -220 65 C-214.72 65 -209.44 65 -204 65 C-204 64.34 -204 63.68 -204 63 C-200.7 63 -197.4 63 -194 63 C-194 62.34 -194 61.68 -194 61 C-190.04 61 -186.08 61 -182 61 C-182 60.34 -182 59.68 -182 59 C-180.68 59 -179.36 59 -178 59 C-178 58.34 -178 57.68 -178 57 C-175.03 57 -172.06 57 -169 57 C-169 56.34 -169 55.68 -169 55 C-167.02 55 -165.04 55 -163 55 C-163 54.34 -163 53.68 -163 53 C-161.02 53 -159.04 53 -157 53 C-157 52.34 -157 51.68 -157 51 C-155.02 51 -153.04 51 -151 51 C-151 50.34 -151 49.68 -151 49 C-149.02 49 -147.04 49 -145 49 C-145 48.34 -145 47.68 -145 47 C-143.02 47 -141.04 47 -139 47 C-139 46.34 -139 45.68 -139 45 C-137.02 45 -135.04 45 -133 45 C-133 44.34 -133 43.68 -133 43 C-131.68 43 -130.36 43 -129 43 C-129 42.34 -129 41.68 -129 41 C-126.69 41 -124.38 41 -122 41 C-122 40.34 -122 39.68 -122 39 C-120.02 39 -118.04 39 -116 39 C-116 38.34 -116 37.68 -116 37 C-114.68 37 -113.36 37 -112 37 C-112 36.34 -112 35.68 -112 35 C-110.02 35 -108.04 35 -106 35 C-106 34.34 -106 33.68 -106 33 C-104.02 33 -102.04 33 -100 33 C-100 32.34 -100 31.68 -100 31 C-98.68 31 -97.36 31 -96 31 C-96 30.34 -96 29.68 -96 29 C-94.02 29 -92.04 29 -90 29 C-90 28.34 -90 27.68 -90 27 C-88.02 27 -86.04 27 -84 27 C-84 26.01 -84 25.02 -84 24 C-82.02 24 -80.04 24 -78 24 C-78 23.34 -78 22.68 -78 22 C-76.35 22 -74.7 22 -73 22 C-73 21.34 -73 20.68 -73 20 C-71.02 20 -69.04 20 -67 20 C-67 19.34 -67 18.68 -67 18 C-65.02 18 -63.04 18 -61 18 C-61 17.34 -61 16.68 -61 16 C-59.02 16 -57.04 16 -55 16 C-55 15.34 -55 14.68 -55 14 C-53.02 14 -51.04 14 -49 14 C-49 13.34 -49 12.68 -49 12 C-47.02 12 -45.04 12 -43 12 C-43 11.34 -43 10.68 -43 10 C-40.36 10 -37.72 10 -35 10 C-35 9.34 -35 8.68 -35 8 C-31.37 8 -27.74 8 -24 8 C-24 7.34 -24 6.68 -24 6 C-21.36 6 -18.72 6 -16 6 C-16 5.34 -16 4.68 -16 4 C-13.36 4 -10.72 4 -8 4 C-8 3.34 -8 2.68 -8 2 C-5.36 2 -2.72 2 0 2 C0 1.34 0 0.68 0 0 Z " fill="#FEFEFE" transform="translate(675,919)"/>
<path d="M0 0 C16.17 0 32.34 0 49 0 C49 0.66 49 1.32 49 2 C52.96 2 56.92 2 61 2 C61 2.66 61 3.32 61 4 C63.64 4 66.28 4 69 4 C69 4.66 69 5.32 69 6 C70.98 6 72.96 6 75 6 C75 6.66 75 7.32 75 8 C76.98 8 78.96 8 81 8 C81 8.66 81 9.32 81 10 C83.31 10 85.62 10 88 10 C88 10.66 88 11.32 88 12 C89.32 12 90.64 12 92 12 C92 12.66 92 13.32 92 14 C93.32 14 94.64 14 96 14 C96 14.66 96 15.32 96 16 C97.32 16 98.64 16 100 16 C100 16.66 100 17.32 100 18 C101.32 18 102.64 18 104 18 C104 18.99 104 19.98 104 21 C105.32 21 106.64 21 108 21 C108 21.66 108 22.32 108 23 C108.66 23 109.32 23 110 23 C110 23.66 110 24.32 110 25 C111.32 25 112.64 25 114 25 C114 25.66 114 26.32 114 27 C114.66 27 115.32 27 116 27 C116 27.66 116 28.32 116 29 C117.32 29 118.64 29 120 29 C120 29.66 120 30.32 120 31 C120.66 31 121.32 31 122 31 C122 31.66 122 32.32 122 33 C123.32 33 124.64 33 126 33 C126 33.66 126 34.32 126 35 C126.66 35 127.32 35 128 35 C128 35.66 128 36.32 128 37 C128.66 37 129.32 37 130 37 C130 37.66 130 38.32 130 39 C130.99 39 131.98 39 133 39 C133 39.66 133 40.32 133 41 C133.66 41 134.32 41 135 41 C135 41.66 135 42.32 135 43 C135.66 43 136.32 43 137 43 C137 43.66 137 44.32 137 45 C137.66 45 138.32 45 139 45 C139 45.66 139 46.32 139 47 C139.66 47 140.32 47 141 47 C141 47.66 141 48.32 141 49 C141.66 49 142.32 49 143 49 C143 49.66 143 50.32 143 51 C143.66 51 144.32 51 145 51 C145 51.66 145 52.32 145 53 C145.66 53 146.32 53 147 53 C147 53.66 147 54.32 147 55 C147.66 55 148.32 55 149 55 C149 55.66 149 56.32 149 57 C149.66 57 150.32 57 151 57 C151 57.66 151 58.32 151 59 C151.66 59 152.32 59 153 59 C153 60.32 153 61.64 153 63 C153.66 63 154.32 63 155 63 C155 63.66 155 64.32 155 65 C155.66 65 156.32 65 157 65 C157 65.66 157 66.32 157 67 C157.66 67 158.32 67 159 67 C159 68.65 159 70.3 159 72 C159.66 72 160.32 72 161 72 C161 72.66 161 73.32 161 74 C161.66 74 162.32 74 163 74 C163 75.32 163 76.64 163 78 C163.66 78 164.32 78 165 78 C165 79.32 165 80.64 165 82 C165.66 82 166.32 82 167 82 C167 82.66 167 83.32 167 84 C167.66 84 168.32 84 169 84 C169 85.32 169 86.64 169 88 C169.66 88 170.32 88 171 88 C171 89.32 171 90.64 171 92 C171.66 92 172.32 92 173 92 C173 93.98 173 95.96 173 98 C173.66 98 174.32 98 175 98 C175 99.32 175 100.64 175 102 C175.66 102 176.32 102 177 102 C177 103.98 177 105.96 177 108 C177.66 108 178.32 108 179 108 C179 109.98 179 111.96 179 114 C179.99 114 180.98 114 182 114 C182 116.97 182 119.94 182 123 C182.66 123 183.32 123 184 123 C184 125.64 184 128.28 184 131 C184.66 131 185.32 131 186 131 C186 135.62 186 140.24 186 145 C186.66 145 187.32 145 188 145 C188 155.23 188 165.46 188 176 C188.66 176 189.32 176 190 176 C190 191.51 190 207.02 190 223 C189.34 223 188.68 223 188 223 C188 276.79 188 330.58 188 386 C160.94 386 133.88 386 106 386 C106 375.77 106 365.54 106 355 C105.34 355 104.68 355 104 355 C104 337.51 104 320.02 104 302 C52.19 302 0.38 302 -53 302 C-53 302.66 -53 303.32 -53 304 C-53.66 304 -54.32 304 -55 304 C-55 331.06 -55 358.12 -55 386 C-82.72 386 -110.44 386 -139 386 C-139 311.75 -139 237.5 -139 161 C-138.34 161 -137.68 161 -137 161 C-137 153.74 -137 146.48 -137 139 C-136.34 139 -135.68 139 -135 139 C-135 135.04 -135 131.08 -135 127 C-134.34 127 -133.68 127 -133 127 C-133 124.36 -133 121.72 -133 119 C-132.34 119 -131.68 119 -131 119 C-131 116.69 -131 114.38 -131 112 C-130.34 112 -129.68 112 -129 112 C-129 110.02 -129 108.04 -129 106 C-128.34 106 -127.68 106 -127 106 C-127 104.02 -127 102.04 -127 100 C-126.34 100 -125.68 100 -125 100 C-125 98.68 -125 97.36 -125 96 C-124.34 96 -123.68 96 -123 96 C-123 94.68 -123 93.36 -123 92 C-122.34 92 -121.68 92 -121 92 C-121 90.68 -121 89.36 -121 88 C-120.34 88 -119.68 88 -119 88 C-119 86.68 -119 85.36 -119 84 C-118.34 84 -117.68 84 -117 84 C-117 82.68 -117 81.36 -117 80 C-116.34 80 -115.68 80 -115 80 C-115 78.68 -115 77.36 -115 76 C-114.01 76 -113.02 76 -112 76 C-112 75.34 -112 74.68 -112 74 C-111.34 74 -110.68 74 -110 74 C-110 72.68 -110 71.36 -110 70 C-109.34 70 -108.68 70 -108 70 C-108 69.01 -108 68.02 -108 67 C-107.34 67 -106.68 67 -106 67 C-106 65.68 -106 64.36 -106 63 C-105.34 63 -104.68 63 -104 63 C-104 62.34 -104 61.68 -104 61 C-103.34 61 -102.68 61 -102 61 C-102 60.34 -102 59.68 -102 59 C-101.34 59 -100.68 59 -100 59 C-100 58.34 -100 57.68 -100 57 C-99.34 57 -98.68 57 -98 57 C-98 56.34 -98 55.68 -98 55 C-97.34 55 -96.68 55 -96 55 C-96 53.68 -96 52.36 -96 51 C-95.34 51 -94.68 51 -94 51 C-94 50.34 -94 49.68 -94 49 C-93.34 49 -92.68 49 -92 49 C-92 48.34 -92 47.68 -92 47 C-91.34 47 -90.68 47 -90 47 C-90 46.34 -90 45.68 -90 45 C-89.34 45 -88.68 45 -88 45 C-88 44.34 -88 43.68 -88 43 C-87.34 43 -86.68 43 -86 43 C-86 42.34 -86 41.68 -86 41 C-85.34 41 -84.68 41 -84 41 C-84 40.34 -84 39.68 -84 39 C-82.68 39 -81.36 39 -80 39 C-80 38.34 -80 37.68 -80 37 C-79.34 37 -78.68 37 -78 37 C-78 36.34 -78 35.68 -78 35 C-77.34 35 -76.68 35 -76 35 C-76 34.34 -76 33.68 -76 33 C-75.34 33 -74.68 33 -74 33 C-74 32.34 -74 31.68 -74 31 C-72.68 31 -71.36 31 -70 31 C-70 30.34 -70 29.68 -70 29 C-69.34 29 -68.68 29 -68 29 C-68 28.34 -68 27.68 -68 27 C-66.35 27 -64.7 27 -63 27 C-63 26.34 -63 25.68 -63 25 C-62.34 25 -61.68 25 -61 25 C-61 24.34 -61 23.68 -61 23 C-59.68 23 -58.36 23 -57 23 C-57 22.34 -57 21.68 -57 21 C-55.68 21 -54.36 21 -53 21 C-53 20.01 -53 19.02 -53 18 C-51.68 18 -50.36 18 -49 18 C-49 17.34 -49 16.68 -49 16 C-47.68 16 -46.36 16 -45 16 C-45 15.34 -45 14.68 -45 14 C-43.68 14 -42.36 14 -41 14 C-41 13.34 -41 12.68 -41 12 C-39.68 12 -38.36 12 -37 12 C-37 11.34 -37 10.68 -37 10 C-35.02 10 -33.04 10 -31 10 C-31 9.34 -31 8.68 -31 8 C-29.02 8 -27.04 8 -25 8 C-25 7.34 -25 6.68 -25 6 C-23.02 6 -21.04 6 -19 6 C-19 5.34 -19 4.68 -19 4 C-16.03 4 -13.06 4 -10 4 C-10 3.34 -10 2.68 -10 2 C-6.7 2 -3.4 2 0 2 C0 1.34 0 0.68 0 0 Z M14 84 C14 84.66 14 85.32 14 86 C10.7 86 7.4 86 4 86 C4 86.66 4 87.32 4 88 C2.02 88 0.04 88 -2 88 C-2 88.66 -2 89.32 -2 90 C-3.32 90 -4.64 90 -6 90 C-6 90.66 -6 91.32 -6 92 C-7.32 92 -8.64 92 -10 92 C-10 92.66 -10 93.32 -10 94 C-11.32 94 -12.64 94 -14 94 C-14 94.66 -14 95.32 -14 96 C-15.65 96 -17.3 96 -19 96 C-19 96.66 -19 97.32 -19 98 C-19.66 98 -20.32 98 -21 98 C-21 98.66 -21 99.32 -21 100 C-21.66 100 -22.32 100 -23 100 C-23 100.66 -23 101.32 -23 102 C-24.32 102 -25.64 102 -27 102 C-27 102.66 -27 103.32 -27 104 C-27.66 104 -28.32 104 -29 104 C-29 104.66 -29 105.32 -29 106 C-29.66 106 -30.32 106 -31 106 C-31 106.66 -31 107.32 -31 108 C-31.66 108 -32.32 108 -33 108 C-33 108.66 -33 109.32 -33 110 C-33.66 110 -34.32 110 -35 110 C-35 111.32 -35 112.64 -35 114 C-35.66 114 -36.32 114 -37 114 C-37 114.66 -37 115.32 -37 116 C-37.66 116 -38.32 116 -39 116 C-39 116.99 -39 117.98 -39 119 C-39.66 119 -40.32 119 -41 119 C-41 120.32 -41 121.64 -41 123 C-41.66 123 -42.32 123 -43 123 C-43 123.66 -43 124.32 -43 125 C-43.66 125 -44.32 125 -45 125 C-45 126.32 -45 127.64 -45 129 C-45.66 129 -46.32 129 -47 129 C-47 130.98 -47 132.96 -47 135 C-47.66 135 -48.32 135 -49 135 C-49 136.32 -49 137.64 -49 139 C-49.66 139 -50.32 139 -51 139 C-51 141.64 -51 144.28 -51 147 C-51.66 147 -52.32 147 -53 147 C-53 151.62 -53 156.24 -53 161 C-53.66 161 -54.32 161 -55 161 C-55 180.14 -55 199.28 -55 219 C-1.87 219 51.26 219 106 219 C106 201.18 106 183.36 106 165 C105.34 165 104.68 165 104 165 C104 159.72 104 154.44 104 149 C103.34 149 102.68 149 102 149 C102 146.36 102 143.72 102 141 C101.34 141 100.68 141 100 141 C100 139.02 100 137.04 100 135 C99.34 135 98.68 135 98 135 C98 133.68 98 132.36 98 131 C97.34 131 96.68 131 96 131 C96 129.68 96 128.36 96 127 C95.34 127 94.68 127 94 127 C94 125.68 94 124.36 94 123 C93.34 123 92.68 123 92 123 C92 121.68 92 120.36 92 119 C91.34 119 90.68 119 90 119 C90 118.01 90 117.02 90 116 C89.34 116 88.68 116 88 116 C88 115.34 88 114.68 88 114 C87.34 114 86.68 114 86 114 C86 112.68 86 111.36 86 110 C85.34 110 84.68 110 84 110 C84 109.34 84 108.68 84 108 C83.01 108 82.02 108 81 108 C81 107.34 81 106.68 81 106 C80.34 106 79.68 106 79 106 C79 105.34 79 104.68 79 104 C78.34 104 77.68 104 77 104 C77 103.34 77 102.68 77 102 C75.68 102 74.36 102 73 102 C73 101.34 73 100.68 73 100 C72.34 100 71.68 100 71 100 C71 99.34 71 98.68 71 98 C70.34 98 69.68 98 69 98 C69 97.34 69 96.68 69 96 C67.68 96 66.36 96 65 96 C65 95.34 65 94.68 65 94 C63.68 94 62.36 94 61 94 C61 93.34 61 92.68 61 92 C59.68 92 58.36 92 57 92 C57 91.34 57 90.68 57 90 C55.68 90 54.36 90 53 90 C53 89.34 53 88.68 53 88 C51.02 88 49.04 88 47 88 C47 87.34 47 86.68 47 86 C43.7 86 40.4 86 37 86 C37 85.34 37 84.68 37 84 C29.41 84 21.82 84 14 84 Z " fill="#3785C6" transform="translate(1686,876)"/>
<path d="M0 0 C14.19 0 28.38 0 43 0 C43 0.66 43 1.32 43 2 C46.96 2 50.92 2 55 2 C55 2.66 55 3.32 55 4 C58.3 4 61.6 4 65 4 C65 4.66 65 5.32 65 6 C66.98 6 68.96 6 71 6 C71 6.66 71 7.32 71 8 C73.31 8 75.62 8 78 8 C78 8.66 78 9.32 78 10 C79.98 10 81.96 10 84 10 C84 10.66 84 11.32 84 12 C85.32 12 86.64 12 88 12 C88 12.66 88 13.32 88 14 C89.32 14 90.64 14 92 14 C92 14.66 92 15.32 92 16 C93.32 16 94.64 16 96 16 C96 16.66 96 17.32 96 18 C97.32 18 98.64 18 100 18 C100 18.99 100 19.98 100 21 C101.32 21 102.64 21 104 21 C104 21.66 104 22.32 104 23 C105.32 23 106.64 23 108 23 C108 23.66 108 24.32 108 25 C108.66 25 109.32 25 110 25 C110 25.66 110 26.32 110 27 C111.32 27 112.64 27 114 27 C114 27.66 114 28.32 114 29 C114.66 29 115.32 29 116 29 C116 29.66 116 30.32 116 31 C117.32 31 118.64 31 120 31 C120 31.66 120 32.32 120 33 C120.66 33 121.32 33 122 33 C122 33.66 122 34.32 122 35 C122.66 35 123.32 35 124 35 C124 35.66 124 36.32 124 37 C124.99 37 125.98 37 127 37 C127 37.66 127 38.32 127 39 C128.32 39 129.64 39 131 39 C131 39.66 131 40.32 131 41 C131.66 41 132.32 41 133 41 C133 41.66 133 42.32 133 43 C133.66 43 134.32 43 135 43 C135 43.66 135 44.32 135 45 C135.66 45 136.32 45 137 45 C137 45.66 137 46.32 137 47 C137.66 47 138.32 47 139 47 C139 47.66 139 48.32 139 49 C139.66 49 140.32 49 141 49 C141 49.66 141 50.32 141 51 C141.66 51 142.32 51 143 51 C143 52.32 143 53.64 143 55 C143.66 55 144.32 55 145 55 C145 55.66 145 56.32 145 57 C145.66 57 146.32 57 147 57 C147 57.66 147 58.32 147 59 C147.66 59 148.32 59 149 59 C149 59.66 149 60.32 149 61 C149.66 61 150.32 61 151 61 C151 61.66 151 62.32 151 63 C151.66 63 152.32 63 153 63 C153 64.32 153 65.64 153 67 C153.66 67 154.32 67 155 67 C155 67.99 155 68.98 155 70 C155.66 70 156.32 70 157 70 C157 71.32 157 72.64 157 74 C157.66 74 158.32 74 159 74 C159 74.66 159 75.32 159 76 C159.66 76 160.32 76 161 76 C161 77.32 161 78.64 161 80 C161.66 80 162.32 80 163 80 C163 81.32 163 82.64 163 84 C163.66 84 164.32 84 165 84 C165 85.32 165 86.64 165 88 C165.66 88 166.32 88 167 88 C167 89.32 167 90.64 167 92 C167.66 92 168.32 92 169 92 C169 93.32 169 94.64 169 96 C169.66 96 170.32 96 171 96 C171 97.32 171 98.64 171 100 C171.99 100 172.98 100 174 100 C174 101.98 174 103.96 174 106 C174.66 106 175.32 106 176 106 C176 107.98 176 109.96 176 112 C176.66 112 177.32 112 178 112 C178 114.31 178 116.62 178 119 C178.66 119 179.32 119 180 119 C180 121.64 180 124.28 180 127 C180.66 127 181.32 127 182 127 C182 130.96 182 134.92 182 139 C182.66 139 183.32 139 184 139 C184 144.94 184 150.88 184 157 C184.66 157 185.32 157 186 157 C186 231.91 186 306.82 186 384 C158.28 384 130.56 384 102 384 C102 356.94 102 329.88 102 302 C49.53 302 -2.94 302 -57 302 C-57 329.72 -57 357.44 -57 386 C-84.72 386 -112.44 386 -141 386 C-141 307.79 -141 229.58 -141 149 C-140.34 149 -139.68 149 -139 149 C-139 144.38 -139 139.76 -139 135 C-138.34 135 -137.68 135 -137 135 C-137 131.7 -137 128.4 -137 125 C-136.34 125 -135.68 125 -135 125 C-135 122.03 -135 119.06 -135 116 C-134.34 116 -133.68 116 -133 116 C-133 114.02 -133 112.04 -133 110 C-132.34 110 -131.68 110 -131 110 C-131 108.02 -131 106.04 -131 104 C-130.34 104 -129.68 104 -129 104 C-129 102.68 -129 101.36 -129 100 C-128.34 100 -127.68 100 -127 100 C-127 98.02 -127 96.04 -127 94 C-126.34 94 -125.68 94 -125 94 C-125 92.68 -125 91.36 -125 90 C-124.34 90 -123.68 90 -123 90 C-123 88.68 -123 87.36 -123 86 C-122.34 86 -121.68 86 -121 86 C-121 84.68 -121 83.36 -121 82 C-120.01 82 -119.02 82 -118 82 C-118 80.68 -118 79.36 -118 78 C-117.34 78 -116.68 78 -116 78 C-116 77.34 -116 76.68 -116 76 C-115.34 76 -114.68 76 -114 76 C-114 74.68 -114 73.36 -114 72 C-113.34 72 -112.68 72 -112 72 C-112 71.34 -112 70.68 -112 70 C-111.34 70 -110.68 70 -110 70 C-110 68.35 -110 66.7 -110 65 C-109.34 65 -108.68 65 -108 65 C-108 64.34 -108 63.68 -108 63 C-107.34 63 -106.68 63 -106 63 C-106 62.34 -106 61.68 -106 61 C-105.34 61 -104.68 61 -104 61 C-104 59.68 -104 58.36 -104 57 C-103.34 57 -102.68 57 -102 57 C-102 56.34 -102 55.68 -102 55 C-101.34 55 -100.68 55 -100 55 C-100 54.34 -100 53.68 -100 53 C-99.34 53 -98.68 53 -98 53 C-98 52.34 -98 51.68 -98 51 C-97.34 51 -96.68 51 -96 51 C-96 50.34 -96 49.68 -96 49 C-95.34 49 -94.68 49 -94 49 C-94 48.34 -94 47.68 -94 47 C-93.34 47 -92.68 47 -92 47 C-92 46.34 -92 45.68 -92 45 C-91.34 45 -90.68 45 -90 45 C-90 44.34 -90 43.68 -90 43 C-89.34 43 -88.68 43 -88 43 C-88 42.34 -88 41.68 -88 41 C-87.34 41 -86.68 41 -86 41 C-86 40.34 -86 39.68 -86 39 C-85.34 39 -84.68 39 -84 39 C-84 38.34 -84 37.68 -84 37 C-82.68 37 -81.36 37 -80 37 C-80 36.34 -80 35.68 -80 35 C-79.34 35 -78.68 35 -78 35 C-78 34.34 -78 33.68 -78 33 C-77.34 33 -76.68 33 -76 33 C-76 32.34 -76 31.68 -76 31 C-74.68 31 -73.36 31 -72 31 C-72 30.34 -72 29.68 -72 29 C-71.01 29 -70.02 29 -69 29 C-69 28.34 -69 27.68 -69 27 C-68.34 27 -67.68 27 -67 27 C-67 26.34 -67 25.68 -67 25 C-65.68 25 -64.36 25 -63 25 C-63 24.34 -63 23.68 -63 23 C-61.68 23 -60.36 23 -59 23 C-59 22.34 -59 21.68 -59 21 C-57.68 21 -56.36 21 -55 21 C-55 20.01 -55 19.02 -55 18 C-54.34 18 -53.68 18 -53 18 C-53 17.34 -53 16.68 -53 16 C-51.02 16 -49.04 16 -47 16 C-47 15.34 -47 14.68 -47 14 C-45.68 14 -44.36 14 -43 14 C-43 13.34 -43 12.68 -43 12 C-41.68 12 -40.36 12 -39 12 C-39 11.34 -39 10.68 -39 10 C-37.02 10 -35.04 10 -33 10 C-33 9.34 -33 8.68 -33 8 C-31.02 8 -29.04 8 -27 8 C-27 7.34 -27 6.68 -27 6 C-24.69 6 -22.38 6 -20 6 C-20 5.34 -20 4.68 -20 4 C-17.36 4 -14.72 4 -12 4 C-12 3.34 -12 2.68 -12 2 C-8.04 2 -4.08 2 0 2 C0 1.34 0 0.68 0 0 Z M12 84 C12 84.66 12 85.32 12 86 C8.7 86 5.4 86 2 86 C2 86.66 2 87.32 2 88 C0.02 88 -1.96 88 -4 88 C-4 88.66 -4 89.32 -4 90 C-5.98 90 -7.96 90 -10 90 C-10 90.66 -10 91.32 -10 92 C-11.32 92 -12.64 92 -14 92 C-14 92.66 -14 93.32 -14 94 C-15.32 94 -16.64 94 -18 94 C-18 94.66 -18 95.32 -18 96 C-18.66 96 -19.32 96 -20 96 C-20 96.66 -20 97.32 -20 98 C-21.65 98 -23.3 98 -25 98 C-25 98.66 -25 99.32 -25 100 C-25.66 100 -26.32 100 -27 100 C-27 100.66 -27 101.32 -27 102 C-27.66 102 -28.32 102 -29 102 C-29 102.66 -29 103.32 -29 104 C-29.66 104 -30.32 104 -31 104 C-31 104.66 -31 105.32 -31 106 C-31.66 106 -32.32 106 -33 106 C-33 106.66 -33 107.32 -33 108 C-33.66 108 -34.32 108 -35 108 C-35 108.66 -35 109.32 -35 110 C-35.66 110 -36.32 110 -37 110 C-37 110.66 -37 111.32 -37 112 C-37.66 112 -38.32 112 -39 112 C-39 112.66 -39 113.32 -39 114 C-39.66 114 -40.32 114 -41 114 C-41 115.65 -41 117.3 -41 119 C-41.66 119 -42.32 119 -43 119 C-43 119.66 -43 120.32 -43 121 C-43.66 121 -44.32 121 -45 121 C-45 122.32 -45 123.64 -45 125 C-45.66 125 -46.32 125 -47 125 C-47 125.66 -47 126.32 -47 127 C-47.66 127 -48.32 127 -49 127 C-49 128.98 -49 130.96 -49 133 C-49.66 133 -50.32 133 -51 133 C-51 134.32 -51 135.64 -51 137 C-51.66 137 -52.32 137 -53 137 C-53 139.64 -53 142.28 -53 145 C-53.66 145 -54.32 145 -55 145 C-55 148.3 -55 151.6 -55 155 C-55.66 155 -56.32 155 -57 155 C-57 176.12 -57 197.24 -57 219 C-4.53 219 47.94 219 102 219 C102 197.88 102 176.76 102 155 C101.34 155 100.68 155 100 155 C100 151.7 100 148.4 100 145 C99.34 145 98.68 145 98 145 C98 142.36 98 139.72 98 137 C97.34 137 96.68 137 96 137 C96 135.68 96 134.36 96 133 C95.34 133 94.68 133 94 133 C94 131.68 94 130.36 94 129 C93.34 129 92.68 129 92 129 C92 127.68 92 126.36 92 125 C91.34 125 90.68 125 90 125 C90 123.68 90 122.36 90 121 C89.34 121 88.68 121 88 121 C88 120.34 88 119.68 88 119 C87.34 119 86.68 119 86 119 C86 117.35 86 115.7 86 114 C85.34 114 84.68 114 84 114 C84 113.34 84 112.68 84 112 C83.34 112 82.68 112 82 112 C82 111.34 82 110.68 82 110 C81.34 110 80.68 110 80 110 C80 109.34 80 108.68 80 108 C79.34 108 78.68 108 78 108 C78 107.34 78 106.68 78 106 C77.01 106 76.02 106 75 106 C75 105.34 75 104.68 75 104 C74.34 104 73.68 104 73 104 C73 103.34 73 102.68 73 102 C72.34 102 71.68 102 71 102 C71 101.34 71 100.68 71 100 C69.68 100 68.36 100 67 100 C67 99.34 67 98.68 67 98 C66.34 98 65.68 98 65 98 C65 97.34 65 96.68 65 96 C63.68 96 62.36 96 61 96 C61 95.34 61 94.68 61 94 C60.34 94 59.68 94 59 94 C59 93.34 59 92.68 59 92 C57.02 92 55.04 92 53 92 C53 91.34 53 90.68 53 90 C51.68 90 50.36 90 49 90 C49 89.34 49 88.68 49 88 C47.02 88 45.04 88 43 88 C43 87.34 43 86.68 43 86 C39.7 86 36.4 86 33 86 C33 85.34 33 84.68 33 84 C26.07 84 19.14 84 12 84 Z " fill="#3785C6" transform="translate(2619,876)"/>
<path d="M0 0 C55.44 0 110.88 0 168 0 C168 0.66 168 1.32 168 2 C171.3 2 174.6 2 178 2 C178 2.66 178 3.32 178 4 C179.98 4 181.96 4 184 4 C184 4.66 184 5.32 184 6 C186.64 6 189.28 6 192 6 C192 6.66 192 7.32 192 8 C193.32 8 194.64 8 196 8 C196 8.66 196 9.32 196 10 C198.31 10 200.62 10 203 10 C203 10.66 203 11.32 203 12 C204.32 12 205.64 12 207 12 C207 12.66 207 13.32 207 14 C208.98 14 210.96 14 213 14 C213 14.66 213 15.32 213 16 C214.32 16 215.64 16 217 16 C217 16.66 217 17.32 217 18 C218.32 18 219.64 18 221 18 C221 18.99 221 19.98 221 21 C222.32 21 223.64 21 225 21 C225 21.66 225 22.32 225 23 C225.66 23 226.32 23 227 23 C227 23.66 227 24.32 227 25 C228.32 25 229.64 25 231 25 C231 25.66 231 26.32 231 27 C232.32 27 233.64 27 235 27 C235 27.66 235 28.32 235 29 C235.66 29 236.32 29 237 29 C237 29.66 237 30.32 237 31 C238.32 31 239.64 31 241 31 C241 31.66 241 32.32 241 33 C242.32 33 243.64 33 245 33 C245 33.66 245 34.32 245 35 C245.99 35 246.98 35 248 35 C248 35.66 248 36.32 248 37 C248.66 37 249.32 37 250 37 C250 37.66 250 38.32 250 39 C251.32 39 252.64 39 254 39 C254 39.66 254 40.32 254 41 C254.66 41 255.32 41 256 41 C256 41.66 256 42.32 256 43 C256.66 43 257.32 43 258 43 C258 43.66 258 44.32 258 45 C258.66 45 259.32 45 260 45 C260 45.66 260 46.32 260 47 C261.32 47 262.64 47 264 47 C264 47.66 264 48.32 264 49 C264.66 49 265.32 49 266 49 C266 49.66 266 50.32 266 51 C266.66 51 267.32 51 268 51 C268 51.66 268 52.32 268 53 C268.66 53 269.32 53 270 53 C270 53.66 270 54.32 270 55 C270.66 55 271.32 55 272 55 C272 55.66 272 56.32 272 57 C272.66 57 273.32 57 274 57 C274 57.66 274 58.32 274 59 C274.66 59 275.32 59 276 59 C276 60.32 276 61.64 276 63 C276.66 63 277.32 63 278 63 C278 63.66 278 64.32 278 65 C278.66 65 279.32 65 280 65 C280 65.66 280 66.32 280 67 C280.66 67 281.32 67 282 67 C282 67.99 282 68.98 282 70 C282.66 70 283.32 70 284 70 C284 71.32 284 72.64 284 74 C284.66 74 285.32 74 286 74 C286 74.66 286 75.32 286 76 C286.66 76 287.32 76 288 76 C288 76.66 288 77.32 288 78 C288.66 78 289.32 78 290 78 C290 79.32 290 80.64 290 82 C290.66 82 291.32 82 292 82 C292 82.66 292 83.32 292 84 C292.66 84 293.32 84 294 84 C294 85.32 294 86.64 294 88 C294.99 88 295.98 88 297 88 C297 88.66 297 89.32 297 90 C297.66 90 298.32 90 299 90 C299 91.32 299 92.64 299 94 C299.66 94 300.32 94 301 94 C301 95.32 301 96.64 301 98 C301.66 98 302.32 98 303 98 C303 99.32 303 100.64 303 102 C303.66 102 304.32 102 305 102 C305 103.32 305 104.64 305 106 C305.66 106 306.32 106 307 106 C307 107.32 307 108.64 307 110 C307.66 110 308.32 110 309 110 C309 111.32 309 112.64 309 114 C309.66 114 310.32 114 311 114 C311 115.65 311 117.3 311 119 C311.66 119 312.32 119 313 119 C313 120.98 313 122.96 313 125 C313.66 125 314.32 125 315 125 C315 126.98 315 128.96 315 131 C315.66 131 316.32 131 317 131 C317 132.98 317 134.96 317 137 C317.66 137 318.32 137 319 137 C319 138.98 319 140.96 319 143 C319.66 143 320.32 143 321 143 C321 145.64 321 148.28 321 151 C321.66 151 322.32 151 323 151 C323 154.96 323 158.92 323 163 C323.66 163 324.32 163 325 163 C325 169.27 325 175.54 325 182 C325.66 182 326.32 182 327 182 C327 189.26 327 196.52 327 204 C326.34 204 325.68 204 325 204 C325 210.27 325 216.54 325 223 C324.34 223 323.68 223 323 223 C323 226.96 323 230.92 323 235 C322.34 235 321.68 235 321 235 C321 237.64 321 240.28 321 243 C320.34 243 319.68 243 319 243 C319 244.98 319 246.96 319 249 C318.34 249 317.68 249 317 249 C317 250.98 317 252.96 317 255 C316.34 255 315.68 255 315 255 C315 256.98 315 258.96 315 261 C314.34 261 313.68 261 313 261 C313 263.31 313 265.62 313 268 C312.34 268 311.68 268 311 268 C311 269.32 311 270.64 311 272 C310.34 272 309.68 272 309 272 C309 273.32 309 274.64 309 276 C308.34 276 307.68 276 307 276 C307 277.32 307 278.64 307 280 C306.34 280 305.68 280 305 280 C305 281.32 305 282.64 305 284 C304.34 284 303.68 284 303 284 C303 285.32 303 286.64 303 288 C302.34 288 301.68 288 301 288 C301 289.32 301 290.64 301 292 C300.34 292 299.68 292 299 292 C299 292.66 299 293.32 299 294 C298.34 294 297.68 294 297 294 C297 295.32 297 296.64 297 298 C296.01 298 295.02 298 294 298 C294 298.66 294 299.32 294 300 C293.34 300 292.68 300 292 300 C292 301.32 292 302.64 292 304 C291.34 304 290.68 304 290 304 C290 304.66 290 305.32 290 306 C289.34 306 288.68 306 288 306 C288 307.32 288 308.64 288 310 C287.34 310 286.68 310 286 310 C286 310.66 286 311.32 286 312 C285.34 312 284.68 312 284 312 C284 312.99 284 313.98 284 315 C283.34 315 282.68 315 282 315 C282 315.66 282 316.32 282 317 C281.34 317 280.68 317 280 317 C280 318.32 280 319.64 280 321 C279.34 321 278.68 321 278 321 C278 321.66 278 322.32 278 323 C277.34 323 276.68 323 276 323 C276 323.66 276 324.32 276 325 C275.34 325 274.68 325 274 325 C274 325.66 274 326.32 274 327 C273.34 327 272.68 327 272 327 C272 327.66 272 328.32 272 329 C271.34 329 270.68 329 270 329 C270 329.66 270 330.32 270 331 C269.34 331 268.68 331 268 331 C268 331.66 268 332.32 268 333 C267.34 333 266.68 333 266 333 C266 333.66 266 334.32 266 335 C265.34 335 264.68 335 264 335 C264 335.66 264 336.32 264 337 C263.34 337 262.68 337 262 337 C262 337.66 262 338.32 262 339 C261.34 339 260.68 339 260 339 C260 339.66 260 340.32 260 341 C258.68 341 257.36 341 256 341 C256 341.66 256 342.32 256 343 C255.34 343 254.68 343 254 343 C254 343.66 254 344.32 254 345 C253.34 345 252.68 345 252 345 C252 345.66 252 346.32 252 347 C250.68 347 249.36 347 248 347 C248 347.66 248 348.32 248 349 C247.01 349 246.02 349 245 349 C245 349.66 245 350.32 245 351 C243.68 351 242.36 351 241 351 C241 351.66 241 352.32 241 353 C240.34 353 239.68 353 239 353 C239 353.66 239 354.32 239 355 C237.68 355 236.36 355 235 355 C235 355.66 235 356.32 235 357 C234.34 357 233.68 357 233 357 C233 357.66 233 358.32 233 359 C231.68 359 230.36 359 229 359 C229 359.66 229 360.32 229 361 C227.68 361 226.36 361 225 361 C225 361.99 225 362.98 225 364 C223.68 364 222.36 364 221 364 C221 364.66 221 365.32 221 366 C219.68 366 218.36 366 217 366 C217 366.66 217 367.32 217 368 C215.68 368 214.36 368 213 368 C213 368.66 213 369.32 213 370 C211.68 370 210.36 370 209 370 C209 370.66 209 371.32 209 372 C207.68 372 206.36 372 205 372 C205 372.66 205 373.32 205 374 C203.02 374 201.04 374 199 374 C199 374.66 199 375.32 199 376 C197.35 376 195.7 376 194 376 C194 376.66 194 377.32 194 378 C192.02 378 190.04 378 188 378 C188 378.66 188 379.32 188 380 C185.36 380 182.72 380 180 380 C180 380.66 180 381.32 180 382 C176.7 382 173.4 382 170 382 C170 382.66 170 383.32 170 384 C113.9 384 57.8 384 0 384 C0 257.28 0 130.56 0 0 Z M84 84 C84 155.28 84 226.56 84 300 C106.44 300 128.88 300 152 300 C152 299.34 152 298.68 152 298 C155.3 298 158.6 298 162 298 C162 297.34 162 296.68 162 296 C164.64 296 167.28 296 170 296 C170 295.34 170 294.68 170 294 C171.98 294 173.96 294 176 294 C176 293.34 176 292.68 176 292 C177.32 292 178.64 292 180 292 C180 291.34 180 290.68 180 290 C181.32 290 182.64 290 184 290 C184 289.34 184 288.68 184 288 C185.32 288 186.64 288 188 288 C188 287.34 188 286.68 188 286 C189.32 286 190.64 286 192 286 C192 285.34 192 284.68 192 284 C192.66 284 193.32 284 194 284 C194 283.34 194 282.68 194 282 C195.65 282 197.3 282 199 282 C199 281.34 199 280.68 199 280 C199.66 280 200.32 280 201 280 C201 279.34 201 278.68 201 278 C201.66 278 202.32 278 203 278 C203 277.34 203 276.68 203 276 C203.66 276 204.32 276 205 276 C205 275.34 205 274.68 205 274 C206.32 274 207.64 274 209 274 C209 273.34 209 272.68 209 272 C209.66 272 210.32 272 211 272 C211 271.34 211 270.68 211 270 C211.66 270 212.32 270 213 270 C213 269.34 213 268.68 213 268 C213.66 268 214.32 268 215 268 C215 266.35 215 264.7 215 263 C215.66 263 216.32 263 217 263 C217 262.34 217 261.68 217 261 C217.66 261 218.32 261 219 261 C219 260.34 219 259.68 219 259 C219.66 259 220.32 259 221 259 C221 258.34 221 257.68 221 257 C221.66 257 222.32 257 223 257 C223 255.68 223 254.36 223 253 C223.66 253 224.32 253 225 253 C225 252.34 225 251.68 225 251 C225.66 251 226.32 251 227 251 C227 249.68 227 248.36 227 247 C227.66 247 228.32 247 229 247 C229 245.68 229 244.36 229 243 C229.66 243 230.32 243 231 243 C231 241.68 231 240.36 231 239 C231.66 239 232.32 239 233 239 C233 237.68 233 236.36 233 235 C233.66 235 234.32 235 235 235 C235 233.02 235 231.04 235 229 C235.66 229 236.32 229 237 229 C237 227.02 237 225.04 237 223 C237.66 223 238.32 223 239 223 C239 220.03 239 217.06 239 214 C239.66 214 240.32 214 241 214 C241 210.04 241 206.08 241 202 C241.66 202 242.32 202 243 202 C243 194.08 243 186.16 243 178 C242.34 178 241.68 178 241 178 C241 174.7 241 171.4 241 168 C240.34 168 239.68 168 239 168 C239 165.03 239 162.06 239 159 C238.34 159 237.68 159 237 159 C237 157.02 237 155.04 237 153 C236.34 153 235.68 153 235 153 C235 151.02 235 149.04 235 147 C234.34 147 233.68 147 233 147 C233 145.68 233 144.36 233 143 C232.34 143 231.68 143 231 143 C231 141.68 231 140.36 231 139 C230.34 139 229.68 139 229 139 C229 138.34 229 137.68 229 137 C228.34 137 227.68 137 227 137 C227 135.68 227 134.36 227 133 C226.34 133 225.68 133 225 133 C225 131.68 225 130.36 225 129 C224.34 129 223.68 129 223 129 C223 128.34 223 127.68 223 127 C222.34 127 221.68 127 221 127 C221 126.34 221 125.68 221 125 C220.34 125 219.68 125 219 125 C219 124.34 219 123.68 219 123 C218.34 123 217.68 123 217 123 C217 122.34 217 121.68 217 121 C216.34 121 215.68 121 215 121 C215 119.35 215 117.7 215 116 C214.34 116 213.68 116 213 116 C213 115.34 213 114.68 213 114 C211.68 114 210.36 114 209 114 C209 113.34 209 112.68 209 112 C208.34 112 207.68 112 207 112 C207 111.34 207 110.68 207 110 C206.34 110 205.68 110 205 110 C205 109.34 205 108.68 205 108 C204.34 108 203.68 108 203 108 C203 107.34 203 106.68 203 106 C202.34 106 201.68 106 201 106 C201 105.34 201 104.68 201 104 C199.35 104 197.7 104 196 104 C196 103.34 196 102.68 196 102 C195.34 102 194.68 102 194 102 C194 101.34 194 100.68 194 100 C192.68 100 191.36 100 190 100 C190 99.34 190 98.68 190 98 C188.68 98 187.36 98 186 98 C186 97.34 186 96.68 186 96 C185.34 96 184.68 96 184 96 C184 95.34 184 94.68 184 94 C182.02 94 180.04 94 178 94 C178 93.34 178 92.68 178 92 C176.68 92 175.36 92 174 92 C174 91.34 174 90.68 174 90 C172.02 90 170.04 90 168 90 C168 89.34 168 88.68 168 88 C166.02 88 164.04 88 162 88 C162 87.34 162 86.68 162 86 C158.04 86 154.08 86 150 86 C150 85.34 150 84.68 150 84 C128.22 84 106.44 84 84 84 Z " fill="#3785C6" transform="translate(1083,876)"/>
<path d="M0 0 C14.85 0 29.7 0 45 0 C45 0.66 45 1.32 45 2 C49.29 2 53.58 2 58 2 C58 2.66 58 3.32 58 4 C60.64 4 63.28 4 66 4 C66 4.66 66 5.32 66 6 C68.64 6 71.28 6 74 6 C74 6.66 74 7.32 74 8 C75.98 8 77.96 8 80 8 C80 8.66 80 9.32 80 10 C81.32 10 82.64 10 84 10 C84 10.66 84 11.32 84 12 C85.98 12 87.96 12 90 12 C90 12.66 90 13.32 90 14 C91.32 14 92.64 14 94 14 C94 14.66 94 15.32 94 16 C95.32 16 96.64 16 98 16 C98 16.66 98 17.32 98 18 C99.32 18 100.64 18 102 18 C102 18.99 102 19.98 102 21 C102.99 21 103.98 21 105 21 C105 21.66 105 22.32 105 23 C106.32 23 107.64 23 109 23 C109 23.66 109 24.32 109 25 C110.32 25 111.64 25 113 25 C113 25.66 113 26.32 113 27 C113.66 27 114.32 27 115 27 C115 27.66 115 28.32 115 29 C116.32 29 117.64 29 119 29 C119 29.66 119 30.32 119 31 C119.66 31 120.32 31 121 31 C121 31.66 121 32.32 121 33 C121.66 33 122.32 33 123 33 C123 33.66 123 34.32 123 35 C123.66 35 124.32 35 125 35 C125 35.66 125 36.32 125 37 C126.32 37 127.64 37 129 37 C129 37.66 129 38.32 129 39 C129.66 39 130.32 39 131 39 C131 39.66 131 40.32 131 41 C131.66 41 132.32 41 133 41 C133 41.66 133 42.32 133 43 C133.66 43 134.32 43 135 43 C135 43.66 135 44.32 135 45 C135.66 45 136.32 45 137 45 C137 45.66 137 46.32 137 47 C137.66 47 138.32 47 139 47 C139 47.66 139 48.32 139 49 C139.66 49 140.32 49 141 49 C141 49.66 141 50.32 141 51 C141.66 51 142.32 51 143 51 C143 51.66 143 52.32 143 53 C143.66 53 144.32 53 145 53 C145 53.66 145 54.32 145 55 C145.66 55 146.32 55 147 55 C147 56.32 147 57.64 147 59 C147.66 59 148.32 59 149 59 C149 59.66 149 60.32 149 61 C149.66 61 150.32 61 151 61 C151 61.66 151 62.32 151 63 C151.99 63 152.98 63 154 63 C154 63.66 154 64.32 154 65 C154.66 65 155.32 65 156 65 C156 66.65 156 68.3 156 70 C156.66 70 157.32 70 158 70 C158 70.66 158 71.32 158 72 C158.66 72 159.32 72 160 72 C160 73.32 160 74.64 160 76 C160.66 76 161.32 76 162 76 C162 76.66 162 77.32 162 78 C162.66 78 163.32 78 164 78 C164 79.32 164 80.64 164 82 C164.66 82 165.32 82 166 82 C166 83.32 166 84.64 166 86 C166.66 86 167.32 86 168 86 C168 87.32 168 88.64 168 90 C168.66 90 169.32 90 170 90 C170 91.32 170 92.64 170 94 C170.66 94 171.32 94 172 94 C172 95.32 172 96.64 172 98 C172.66 98 173.32 98 174 98 C174 99.98 174 101.96 174 104 C174.66 104 175.32 104 176 104 C176 105.32 176 106.64 176 108 C176.66 108 177.32 108 178 108 C178 109.98 178 111.96 178 114 C178.66 114 179.32 114 180 114 C180 116.31 180 118.62 180 121 C180.66 121 181.32 121 182 121 C182 123.64 182 126.28 182 129 C182.66 129 183.32 129 184 129 C184 133.62 184 138.24 184 143 C184.66 143 185.32 143 186 143 C186 222.53 186 302.06 186 384 C159.27 384 132.54 384 105 384 C105 313.38 105 242.76 105 170 C104.01 170 103.02 170 102 170 C102 163.07 102 156.14 102 149 C101.34 149 100.68 149 100 149 C100 146.36 100 143.72 100 141 C99.34 141 98.68 141 98 141 C98 139.02 98 137.04 98 135 C97.34 135 96.68 135 96 135 C96 133.68 96 132.36 96 131 C95.34 131 94.68 131 94 131 C94 129.68 94 128.36 94 127 C93.34 127 92.68 127 92 127 C92 125.68 92 124.36 92 123 C91.34 123 90.68 123 90 123 C90 122.34 90 121.68 90 121 C89.34 121 88.68 121 88 121 C88 119.35 88 117.7 88 116 C87.34 116 86.68 116 86 116 C86 115.34 86 114.68 86 114 C85.34 114 84.68 114 84 114 C84 113.34 84 112.68 84 112 C83.34 112 82.68 112 82 112 C82 111.34 82 110.68 82 110 C81.34 110 80.68 110 80 110 C80 109.34 80 108.68 80 108 C79.34 108 78.68 108 78 108 C78 107.34 78 106.68 78 106 C77.34 106 76.68 106 76 106 C76 105.34 76 104.68 76 104 C75.34 104 74.68 104 74 104 C74 103.34 74 102.68 74 102 C73.34 102 72.68 102 72 102 C72 101.34 72 100.68 72 100 C71.34 100 70.68 100 70 100 C70 99.34 70 98.68 70 98 C68.68 98 67.36 98 66 98 C66 97.34 66 96.68 66 96 C64.68 96 63.36 96 62 96 C62 95.34 62 94.68 62 94 C61.34 94 60.68 94 60 94 C60 93.34 60 92.68 60 92 C58.68 92 57.36 92 56 92 C56 91.34 56 90.68 56 90 C53.69 90 51.38 90 49 90 C49 89.34 49 88.68 49 88 C47.02 88 45.04 88 43 88 C43 87.34 43 86.68 43 86 C40.36 86 37.72 86 35 86 C35 85.34 35 84.68 35 84 C27.74 84 20.48 84 13 84 C13 84.66 13 85.32 13 86 C9.37 86 5.74 86 2 86 C2 86.66 2 87.32 2 88 C0.02 88 -1.96 88 -4 88 C-4 88.66 -4 89.32 -4 90 C-5.32 90 -6.64 90 -8 90 C-8 90.66 -8 91.32 -8 92 C-9.32 92 -10.64 92 -12 92 C-12 92.66 -12 93.32 -12 94 C-13.32 94 -14.64 94 -16 94 C-16 94.66 -16 95.32 -16 96 C-17.32 96 -18.64 96 -20 96 C-20 96.66 -20 97.32 -20 98 C-20.66 98 -21.32 98 -22 98 C-22 98.66 -22 99.32 -22 100 C-22.66 100 -23.32 100 -24 100 C-24 100.66 -24 101.32 -24 102 C-25.32 102 -26.64 102 -28 102 C-28 102.66 -28 103.32 -28 104 C-28.66 104 -29.32 104 -30 104 C-30 104.66 -30 105.32 -30 106 C-30.66 106 -31.32 106 -32 106 C-32 106.66 -32 107.32 -32 108 C-32.66 108 -33.32 108 -34 108 C-34 108.66 -34 109.32 -34 110 C-34.66 110 -35.32 110 -36 110 C-36 110.66 -36 111.32 -36 112 C-36.66 112 -37.32 112 -38 112 C-38 112.66 -38 113.32 -38 114 C-38.66 114 -39.32 114 -40 114 C-40 115.65 -40 117.3 -40 119 C-40.66 119 -41.32 119 -42 119 C-42 119.66 -42 120.32 -42 121 C-42.99 121 -43.98 121 -45 121 C-45 121.66 -45 122.32 -45 123 C-45.66 123 -46.32 123 -47 123 C-47 124.32 -47 125.64 -47 127 C-47.66 127 -48.32 127 -49 127 C-49 128.32 -49 129.64 -49 131 C-49.66 131 -50.32 131 -51 131 C-51 132.32 -51 133.64 -51 135 C-51.66 135 -52.32 135 -53 135 C-53 137.64 -53 140.28 -53 143 C-53.66 143 -54.32 143 -55 143 C-55 147.62 -55 152.24 -55 157 C-55.66 157 -56.32 157 -57 157 C-57 170.53 -57 184.06 -57 198 C-57.66 198 -58.32 198 -59 198 C-59 218.79 -59 239.58 -59 261 C-58.34 261 -57.68 261 -57 261 C-57 301.59 -57 342.18 -57 384 C-83.73 384 -110.46 384 -138 384 C-138 381.36 -138 378.72 -138 376 C-138.66 376 -139.32 376 -140 376 C-140 332.11 -140 288.22 -140 243 C-139.34 243 -138.68 243 -138 243 C-138 208.02 -138 173.04 -138 137 C-137.34 137 -136.68 137 -136 137 C-136 133.7 -136 130.4 -136 127 C-135.34 127 -134.68 127 -134 127 C-134 124.36 -134 121.72 -134 119 C-133.34 119 -132.68 119 -132 119 C-132 116.69 -132 114.38 -132 112 C-131.34 112 -130.68 112 -130 112 C-130 110.02 -130 108.04 -130 106 C-129.34 106 -128.68 106 -128 106 C-128 104.68 -128 103.36 -128 102 C-127.34 102 -126.68 102 -126 102 C-126 100.02 -126 98.04 -126 96 C-125.34 96 -124.68 96 -124 96 C-124 94.68 -124 93.36 -124 92 C-123.34 92 -122.68 92 -122 92 C-122 90.68 -122 89.36 -122 88 C-121.34 88 -120.68 88 -120 88 C-120 86.68 -120 85.36 -120 84 C-119.34 84 -118.68 84 -118 84 C-118 82.68 -118 81.36 -118 80 C-117.34 80 -116.68 80 -116 80 C-116 79.34 -116 78.68 -116 78 C-115.34 78 -114.68 78 -114 78 C-114 76.68 -114 75.36 -114 74 C-113.34 74 -112.68 74 -112 74 C-112 72.68 -112 71.36 -112 70 C-111.34 70 -110.68 70 -110 70 C-110 69.01 -110 68.02 -110 67 C-109.34 67 -108.68 67 -108 67 C-108 66.34 -108 65.68 -108 65 C-107.34 65 -106.68 65 -106 65 C-106 63.68 -106 62.36 -106 61 C-105.34 61 -104.68 61 -104 61 C-104 60.34 -104 59.68 -104 59 C-103.34 59 -102.68 59 -102 59 C-102 58.34 -102 57.68 -102 57 C-101.34 57 -100.68 57 -100 57 C-100 56.34 -100 55.68 -100 55 C-99.34 55 -98.68 55 -98 55 C-98 53.68 -98 52.36 -98 51 C-97.34 51 -96.68 51 -96 51 C-96 50.34 -96 49.68 -96 49 C-95.34 49 -94.68 49 -94 49 C-94 48.34 -94 47.68 -94 47 C-93.01 47 -92.02 47 -91 47 C-91 46.34 -91 45.68 -91 45 C-90.34 45 -89.68 45 -89 45 C-89 44.34 -89 43.68 -89 43 C-88.34 43 -87.68 43 -87 43 C-87 42.34 -87 41.68 -87 41 C-85.68 41 -84.36 41 -83 41 C-83 40.34 -83 39.68 -83 39 C-82.34 39 -81.68 39 -81 39 C-81 38.34 -81 37.68 -81 37 C-80.34 37 -79.68 37 -79 37 C-79 36.34 -79 35.68 -79 35 C-78.34 35 -77.68 35 -77 35 C-77 34.34 -77 33.68 -77 33 C-75.68 33 -74.36 33 -73 33 C-73 32.34 -73 31.68 -73 31 C-72.34 31 -71.68 31 -71 31 C-71 30.34 -71 29.68 -71 29 C-70.34 29 -69.68 29 -69 29 C-69 28.34 -69 27.68 -69 27 C-67.68 27 -66.36 27 -65 27 C-65 26.34 -65 25.68 -65 25 C-64.34 25 -63.68 25 -63 25 C-63 24.34 -63 23.68 -63 23 C-61.68 23 -60.36 23 -59 23 C-59 22.34 -59 21.68 -59 21 C-57.68 21 -56.36 21 -55 21 C-55 20.01 -55 19.02 -55 18 C-53.68 18 -52.36 18 -51 18 C-51 17.34 -51 16.68 -51 16 C-49.68 16 -48.36 16 -47 16 C-47 15.34 -47 14.68 -47 14 C-45.35 14 -43.7 14 -42 14 C-42 13.34 -42 12.68 -42 12 C-40.68 12 -39.36 12 -38 12 C-38 11.34 -38 10.68 -38 10 C-36.02 10 -34.04 10 -32 10 C-32 9.34 -32 8.68 -32 8 C-30.02 8 -28.04 8 -26 8 C-26 7.34 -26 6.68 -26 6 C-24.02 6 -22.04 6 -20 6 C-20 5.34 -20 4.68 -20 4 C-17.36 4 -14.72 4 -12 4 C-12 3.34 -12 2.68 -12 2 C-8.04 2 -4.08 2 0 2 C0 1.34 0 0.68 0 0 Z " fill="#3785C6" transform="translate(2153,876)"/>
<path d="M0 0 C0.99 0 1.98 0 3 0 C3 71.28 3 142.56 3 216 C2.01 216 1.02 216 0 216 C0 144.72 0 73.44 0 0 Z " fill="#CAE7F8" transform="translate(352,962)"/>
</svg>
