<?xml version="1.0" encoding="UTF-8"?>
<svg version="1.1" xmlns="http://www.w3.org/2000/svg" width="3000" height="2134">
<path d="M0 0 C23.76 0 47.52 0 72 0 C72 1.98 72 3.96 72 6 C85.2 6 98.4 6 112 6 C112 7.65 112 9.3 112 11 C117.28 11 122.56 11 128 11 C128 12.98 128 14.96 128 17 C135.59 17 143.18 17 151 17 C151 18.98 151 20.96 151 23 C154.63 23 158.26 23 162 23 C162 24.65 162 26.3 162 28 C165.63 28 169.26 28 173 28 C173 29.98 173 31.96 173 34 C176.63 34 180.26 34 184 34 C184 35.65 184 37.3 184 39 C187.63 39 191.26 39 195 39 C195 40.98 195 42.96 195 45 C198.96 45 202.92 45 207 45 C207 46.98 207 48.96 207 51 C210.63 51 214.26 51 218 51 C218 54.63 218 58.26 218 62 C221.63 62 225.26 62 229 62 C229 63.65 229 65.3 229 67 C230.65 67 232.3 67 234 67 C234 68.98 234 70.96 234 73 C237.96 73 241.92 73 246 73 C246 74.65 246 76.3 246 78 C247.65 78 249.3 78 251 78 C251 79.98 251 81.96 251 84 C252.98 84 254.96 84 257 84 C257 85.98 257 87.96 257 90 C258.65 90 260.3 90 262 90 C262 91.65 262 93.3 262 95 C263.98 95 265.96 95 268 95 C268 96.98 268 98.96 268 101 C269.98 101 271.96 101 274 101 C274 102.65 274 104.3 274 106 C275.65 106 277.3 106 279 106 C279 107.98 279 109.96 279 112 C280.98 112 282.96 112 285 112 C285 115.63 285 119.26 285 123 C286.65 123 288.3 123 290 123 C290 124.98 290 126.96 290 129 C291.98 129 293.96 129 296 129 C296 132.63 296 136.26 296 140 C299.63 140 303.26 140 307 140 C307 143.63 307 147.26 307 151 C308.98 151 310.96 151 313 151 C313 154.63 313 158.26 313 162 C314.65 162 316.3 162 318 162 C318 165.63 318 169.26 318 173 C319.98 173 321.96 173 324 173 C324 174.98 324 176.96 324 179 C325.65 179 327.3 179 329 179 C329 184.61 329 190.22 329 196 C330.98 196 332.96 196 335 196 C335 199.63 335 203.26 335 207 C336.98 207 338.96 207 341 207 C341 214.26 341 221.52 341 229 C342.65 229 344.3 229 346 229 C346 234.61 346 240.22 346 246 C347.98 246 349.96 246 352 246 C352 258.87 352 271.74 352 285 C353.65 285 355.3 285 357 285 C357 310.74 357 336.48 357 363 C355.35 363 353.7 363 352 363 C352 376.2 352 389.4 352 403 C350.02 403 348.04 403 346 403 C346 408.28 346 413.56 346 419 C344.35 419 342.7 419 341 419 C341 426.59 341 434.18 341 442 C339.02 442 337.04 442 335 442 C335 445.63 335 449.26 335 453 C333.02 453 331.04 453 329 453 C329 458.61 329 464.22 329 470 C327.35 470 325.7 470 324 470 C324 471.65 324 473.3 324 475 C322.02 475 320.04 475 318 475 C318 478.63 318 482.26 318 486 C316.35 486 314.7 486 313 486 C313 489.96 313 493.92 313 498 C311.02 498 309.04 498 307 498 C307 501.63 307 505.26 307 509 C303.37 509 299.74 509 296 509 C296 512.63 296 516.26 296 520 C294.02 520 292.04 520 290 520 C290 521.65 290 523.3 290 525 C288.35 525 286.7 525 285 525 C285 528.96 285 532.92 285 537 C283.02 537 281.04 537 279 537 C279 538.65 279 540.3 279 542 C277.35 542 275.7 542 274 542 C274 543.98 274 545.96 274 548 C272.02 548 270.04 548 268 548 C268 549.65 268 551.3 268 553 C266.02 553 264.04 553 262 553 C262 554.98 262 556.96 262 559 C260.35 559 258.7 559 257 559 C257 560.98 257 562.96 257 565 C255.02 565 253.04 565 251 565 C251 566.65 251 568.3 251 570 C249.35 570 247.7 570 246 570 C246 571.98 246 573.96 246 576 C242.04 576 238.08 576 234 576 C234 577.65 234 579.3 234 581 C232.35 581 230.7 581 229 581 C229 582.98 229 584.96 229 587 C225.37 587 221.74 587 218 587 C218 590.63 218 594.26 218 598 C214.37 598 210.74 598 207 598 C207 599.98 207 601.96 207 604 C203.04 604 199.08 604 195 604 C195 605.65 195 607.3 195 609 C191.37 609 187.74 609 184 609 C184 610.98 184 612.96 184 615 C180.37 615 176.74 615 173 615 C173 616.65 173 618.3 173 620 C169.37 620 165.74 620 162 620 C162 621.98 162 623.96 162 626 C158.37 626 154.74 626 151 626 C151 627.98 151 629.96 151 632 C143.41 632 135.82 632 128 632 C128 633.65 128 635.3 128 637 C122.72 637 117.44 637 112 637 C112 638.98 112 640.96 112 643 C98.8 643 85.6 643 72 643 C72 644.65 72 646.3 72 648 C48.24 648 24.48 648 0 648 C0 646.35 0 644.7 0 643 C-14.85 643 -29.7 643 -45 643 C-45 641.02 -45 639.04 -45 637 C-50.61 637 -56.22 637 -62 637 C-62 635.35 -62 633.7 -62 632 C-69.26 632 -76.52 632 -84 632 C-84 630.02 -84 628.04 -84 626 C-87.63 626 -91.26 626 -95 626 C-95 624.02 -95 622.04 -95 620 C-98.63 620 -102.26 620 -106 620 C-106 618.35 -106 616.7 -106 615 C-109.96 615 -113.92 615 -118 615 C-118 613.02 -118 611.04 -118 609 C-121.63 609 -125.26 609 -129 609 C-129 607.35 -129 605.7 -129 604 C-132.63 604 -136.26 604 -140 604 C-140 602.02 -140 600.04 -140 598 C-143.63 598 -147.26 598 -151 598 C-151 594.37 -151 590.74 -151 587 C-154.63 587 -158.26 587 -162 587 C-162 585.02 -162 583.04 -162 581 C-163.98 581 -165.96 581 -168 581 C-168 579.35 -168 577.7 -168 576 C-171.63 576 -175.26 576 -179 576 C-179 574.02 -179 572.04 -179 570 C-180.98 570 -182.96 570 -185 570 C-185 568.35 -185 566.7 -185 565 C-186.65 565 -188.3 565 -190 565 C-190 563.02 -190 561.04 -190 559 C-191.98 559 -193.96 559 -196 559 C-196 557.02 -196 555.04 -196 553 C-197.65 553 -199.3 553 -201 553 C-201 551.35 -201 549.7 -201 548 C-202.98 548 -204.96 548 -207 548 C-207 546.02 -207 544.04 -207 542 C-208.98 542 -210.96 542 -213 542 C-213 540.35 -213 538.7 -213 537 C-214.65 537 -216.3 537 -218 537 C-218 533.04 -218 529.08 -218 525 C-219.98 525 -221.96 525 -224 525 C-224 523.35 -224 521.7 -224 520 C-225.65 520 -227.3 520 -229 520 C-229 516.37 -229 512.74 -229 509 C-230.98 509 -232.96 509 -235 509 C-235 507.02 -235 505.04 -235 503 C-236.65 503 -238.3 503 -240 503 C-240 501.35 -240 499.7 -240 498 C-241.98 498 -243.96 498 -246 498 C-246 494.04 -246 490.08 -246 486 C-247.98 486 -249.96 486 -252 486 C-252 482.37 -252 478.74 -252 475 C-253.65 475 -255.3 475 -257 475 C-257 471.37 -257 467.74 -257 464 C-258.98 464 -260.96 464 -263 464 C-263 460.37 -263 456.74 -263 453 C-264.65 453 -266.3 453 -268 453 C-268 449.37 -268 445.74 -268 442 C-269.98 442 -271.96 442 -274 442 C-274 434.41 -274 426.82 -274 419 C-275.98 419 -277.96 419 -280 419 C-280 413.72 -280 408.44 -280 403 C-281.65 403 -283.3 403 -285 403 C-285 388.15 -285 373.3 -285 358 C-286.98 358 -288.96 358 -291 358 C-291 335.89 -291 313.78 -291 291 C-289.02 291 -287.04 291 -285 291 C-285 276.15 -285 261.3 -285 246 C-283.35 246 -281.7 246 -280 246 C-280 240.39 -280 234.78 -280 229 C-278.02 229 -276.04 229 -274 229 C-274 221.74 -274 214.48 -274 207 C-272.02 207 -270.04 207 -268 207 C-268 203.37 -268 199.74 -268 196 C-266.35 196 -264.7 196 -263 196 C-263 192.37 -263 188.74 -263 185 C-261.02 185 -259.04 185 -257 185 C-257 181.04 -257 177.08 -257 173 C-255.35 173 -253.7 173 -252 173 C-252 169.37 -252 165.74 -252 162 C-250.02 162 -248.04 162 -246 162 C-246 158.37 -246 154.74 -246 151 C-244.02 151 -242.04 151 -240 151 C-240 149.35 -240 147.7 -240 146 C-238.35 146 -236.7 146 -235 146 C-235 144.02 -235 142.04 -235 140 C-233.02 140 -231.04 140 -229 140 C-229 136.37 -229 132.74 -229 129 C-227.35 129 -225.7 129 -224 129 C-224 127.02 -224 125.04 -224 123 C-222.02 123 -220.04 123 -218 123 C-218 119.37 -218 115.74 -218 112 C-216.35 112 -214.7 112 -213 112 C-213 110.02 -213 108.04 -213 106 C-211.02 106 -209.04 106 -207 106 C-207 104.35 -207 102.7 -207 101 C-205.02 101 -203.04 101 -201 101 C-201 99.02 -201 97.04 -201 95 C-199.35 95 -197.7 95 -196 95 C-196 93.35 -196 91.7 -196 90 C-194.02 90 -192.04 90 -190 90 C-190 88.02 -190 86.04 -190 84 C-188.35 84 -186.7 84 -185 84 C-185 82.02 -185 80.04 -185 78 C-183.02 78 -181.04 78 -179 78 C-179 76.35 -179 74.7 -179 73 C-175.37 73 -171.74 73 -168 73 C-168 71.02 -168 69.04 -168 67 C-166.02 67 -164.04 67 -162 67 C-162 65.35 -162 63.7 -162 62 C-158.37 62 -154.74 62 -151 62 C-151 58.37 -151 54.74 -151 51 C-147.37 51 -143.74 51 -140 51 C-140 49.02 -140 47.04 -140 45 C-136.37 45 -132.74 45 -129 45 C-129 43.02 -129 41.04 -129 39 C-125.37 39 -121.74 39 -118 39 C-118 37.35 -118 35.7 -118 34 C-114.04 34 -110.08 34 -106 34 C-106 32.02 -106 30.04 -106 28 C-102.37 28 -98.74 28 -95 28 C-95 26.35 -95 24.7 -95 23 C-91.37 23 -87.74 23 -84 23 C-84 21.02 -84 19.04 -84 17 C-76.74 17 -69.48 17 -62 17 C-62 15.02 -62 13.04 -62 11 C-56.39 11 -50.78 11 -45 11 C-45 9.35 -45 7.7 -45 6 C-30.15 6 -15.3 6 0 6 C0 4.02 0 2.04 0 0 Z " fill="#0AAFDA" transform="translate(404,741)"/>
<path d="M0 0 C26.07 0 52.14 0 79 0 C79 1.65 79 3.3 79 5 C84.28 5 89.56 5 95 5 C95 6.98 95 8.96 95 11 C100.61 11 106.22 11 112 11 C112 12.65 112 14.3 112 16 C115.63 16 119.26 16 123 16 C123 17.98 123 19.96 123 22 C126.96 22 130.92 22 135 22 C135 23.98 135 25.96 135 28 C136.65 28 138.3 28 140 28 C140 29.65 140 31.3 140 33 C141.98 33 143.96 33 146 33 C146 23.76 146 14.52 146 5 C179 5 212 5 246 5 C246 134.03 246 263.06 246 396 C244.35 396 242.7 396 241 396 C241 401.61 241 407.22 241 413 C239.02 413 237.04 413 235 413 C235 418.61 235 424.22 235 430 C233.35 430 231.7 430 230 430 C230 431.65 230 433.3 230 435 C228.02 435 226.04 435 224 435 C224 440.61 224 446.22 224 452 C222.02 452 220.04 452 218 452 C218 453.98 218 455.96 218 458 C216.35 458 214.7 458 213 458 C213 461.63 213 465.26 213 469 C209.37 469 205.74 469 202 469 C202 472.63 202 476.26 202 480 C198.04 480 194.08 480 190 480 C190 483.63 190 487.26 190 491 C186.37 491 182.74 491 179 491 C179 492.98 179 494.96 179 497 C177.35 497 175.7 497 174 497 C174 498.65 174 500.3 174 502 C170.37 502 166.74 502 163 502 C163 503.98 163 505.96 163 508 C159.04 508 155.08 508 151 508 C151 509.98 151 511.96 151 514 C145.72 514 140.44 514 135 514 C135 515.65 135 517.3 135 519 C133.02 519 131.04 519 129 519 C129 520.98 129 522.96 129 525 C116.13 525 103.26 525 90 525 C90 526.65 90 528.3 90 530 C67.89 530 45.78 530 23 530 C23 528.35 23 526.7 23 525 C10.13 525 -2.74 525 -16 525 C-16 523.02 -16 521.04 -16 519 C-21.61 519 -27.22 519 -33 519 C-33 517.35 -33 515.7 -33 514 C-38.61 514 -44.22 514 -50 514 C-50 512.02 -50 510.04 -50 508 C-51.65 508 -53.3 508 -55 508 C-55 506.02 -55 504.04 -55 502 C-58.96 502 -62.92 502 -67 502 C-67 500.35 -67 498.7 -67 497 C-70.63 497 -74.26 497 -78 497 C-78 495.02 -78 493.04 -78 491 C-79.65 491 -81.3 491 -83 491 C-83 489.35 -83 487.7 -83 486 C-84.98 486 -86.96 486 -89 486 C-89 484.02 -89 482.04 -89 480 C-90.98 480 -92.96 480 -95 480 C-95 478.35 -95 476.7 -95 475 C-96.65 475 -98.3 475 -100 475 C-100 473.02 -100 471.04 -100 469 C-103.63 469 -107.26 469 -111 469 C-111 461.74 -111 454.48 -111 447 C-109.35 447 -107.7 447 -106 447 C-106 445.02 -106 443.04 -106 441 C-104.02 441 -102.04 441 -100 441 C-100 439.02 -100 437.04 -100 435 C-98.35 435 -96.7 435 -95 435 C-95 433.35 -95 431.7 -95 430 C-93.02 430 -91.04 430 -89 430 C-89 428.02 -89 426.04 -89 424 C-87.02 424 -85.04 424 -83 424 C-83 422.35 -83 420.7 -83 419 C-81.35 419 -79.7 419 -78 419 C-78 417.02 -78 415.04 -78 413 C-74.37 413 -70.74 413 -67 413 C-67 409.37 -67 405.74 -67 402 C-63.04 402 -59.08 402 -55 402 C-55 400.02 -55 398.04 -55 396 C-53.35 396 -51.7 396 -50 396 C-50 394.35 -50 392.7 -50 391 C-48.02 391 -46.04 391 -44 391 C-44 392.65 -44 394.3 -44 396 C-42.35 396 -40.7 396 -39 396 C-39 397.98 -39 399.96 -39 402 C-37.02 402 -35.04 402 -33 402 C-33 403.65 -33 405.3 -33 407 C-31.02 407 -29.04 407 -27 407 C-27 408.98 -27 410.96 -27 413 C-23.37 413 -19.74 413 -16 413 C-16 414.98 -16 416.96 -16 419 C-14.35 419 -12.7 419 -11 419 C-11 420.65 -11 422.3 -11 424 C-5.39 424 0.22 424 6 424 C6 425.98 6 427.96 6 430 C9.63 430 13.26 430 17 430 C17 431.65 17 433.3 17 435 C39.11 435 61.22 435 84 435 C84 433.35 84 431.7 84 430 C87.63 430 91.26 430 95 430 C95 428.02 95 426.04 95 424 C98.96 424 102.92 424 107 424 C107 422.35 107 420.7 107 419 C108.65 419 110.3 419 112 419 C112 417.02 112 415.04 112 413 C113.98 413 115.96 413 118 413 C118 411.02 118 409.04 118 407 C119.65 407 121.3 407 123 407 C123 405.35 123 403.7 123 402 C124.98 402 126.96 402 129 402 C129 398.37 129 394.74 129 391 C130.98 391 132.96 391 135 391 C135 387.37 135 383.74 135 380 C136.65 380 138.3 380 140 380 C140 376.04 140 372.08 140 368 C141.98 368 143.96 368 146 368 C146 357.11 146 346.22 146 335 C142.37 335 138.74 335 135 335 C135 336.65 135 338.3 135 340 C131.04 340 127.08 340 123 340 C123 341.98 123 343.96 123 346 C119.37 346 115.74 346 112 346 C112 347.98 112 349.96 112 352 C108.37 352 104.74 352 101 352 C101 353.65 101 355.3 101 357 C91.76 357 82.52 357 73 357 C73 358.98 73 360.96 73 363 C50.89 363 28.78 363 6 363 C6 361.02 6 359.04 6 357 C-3.24 357 -12.48 357 -22 357 C-22 355.35 -22 353.7 -22 352 C-25.63 352 -29.26 352 -33 352 C-33 350.02 -33 348.04 -33 346 C-38.61 346 -44.22 346 -50 346 C-50 344.02 -50 342.04 -50 340 C-51.65 340 -53.3 340 -55 340 C-55 338.35 -55 336.7 -55 335 C-58.96 335 -62.92 335 -67 335 C-67 333.02 -67 331.04 -67 329 C-68.65 329 -70.3 329 -72 329 C-72 327.35 -72 325.7 -72 324 C-73.98 324 -75.96 324 -78 324 C-78 322.02 -78 320.04 -78 318 C-79.65 318 -81.3 318 -83 318 C-83 316.02 -83 314.04 -83 312 C-84.98 312 -86.96 312 -89 312 C-89 310.35 -89 308.7 -89 307 C-90.98 307 -92.96 307 -95 307 C-95 305.02 -95 303.04 -95 301 C-96.65 301 -98.3 301 -100 301 C-100 297.37 -100 293.74 -100 290 C-103.63 290 -107.26 290 -111 290 C-111 286.37 -111 282.74 -111 279 C-112.98 279 -114.96 279 -117 279 C-117 275.37 -117 271.74 -117 268 C-118.65 268 -120.3 268 -122 268 C-122 264.37 -122 260.74 -122 257 C-123.98 257 -125.96 257 -128 257 C-128 251.39 -128 245.78 -128 240 C-129.98 240 -131.96 240 -134 240 C-134 230.76 -134 221.52 -134 212 C-135.65 212 -137.3 212 -139 212 C-139 193.52 -139 175.04 -139 156 C-137.35 156 -135.7 156 -134 156 C-134 144.78 -134 133.56 -134 122 C-132.02 122 -130.04 122 -128 122 C-128 118.37 -128 114.74 -128 111 C-126.02 111 -124.04 111 -122 111 C-122 105.72 -122 100.44 -122 95 C-120.35 95 -118.7 95 -117 95 C-117 93.02 -117 91.04 -117 89 C-115.02 89 -113.04 89 -111 89 C-111 85.37 -111 81.74 -111 78 C-109.35 78 -107.7 78 -106 78 C-106 74.37 -106 70.74 -106 67 C-104.02 67 -102.04 67 -100 67 C-100 65.02 -100 63.04 -100 61 C-98.35 61 -96.7 61 -95 61 C-95 59.02 -95 57.04 -95 55 C-93.02 55 -91.04 55 -89 55 C-89 53.35 -89 51.7 -89 50 C-87.02 50 -85.04 50 -83 50 C-83 48.02 -83 46.04 -83 44 C-81.35 44 -79.7 44 -78 44 C-78 42.35 -78 40.7 -78 39 C-76.02 39 -74.04 39 -72 39 C-72 37.02 -72 35.04 -72 33 C-68.37 33 -64.74 33 -61 33 C-61 31.35 -61 29.7 -61 28 C-59.02 28 -57.04 28 -55 28 C-55 26.02 -55 24.04 -55 22 C-51.37 22 -47.74 22 -44 22 C-44 20.02 -44 18.04 -44 16 C-40.37 16 -36.74 16 -33 16 C-33 14.35 -33 12.7 -33 11 C-27.39 11 -21.78 11 -16 11 C-16 9.02 -16 7.04 -16 5 C-10.72 5 -5.44 5 0 5 C0 3.35 0 1.7 0 0 Z M23 89 C23 90.98 23 92.96 23 95 C21.02 95 19.04 95 17 95 C17 96.65 17 98.3 17 100 C13.37 100 9.74 100 6 100 C6 101.98 6 103.96 6 106 C4.02 106 2.04 106 0 106 C0 107.65 0 109.3 0 111 C-3.63 111 -7.26 111 -11 111 C-11 114.63 -11 118.26 -11 122 C-14.63 122 -18.26 122 -22 122 C-22 125.96 -22 129.92 -22 134 C-23.65 134 -25.3 134 -27 134 C-27 137.63 -27 141.26 -27 145 C-28.98 145 -30.96 145 -33 145 C-33 152.26 -33 159.52 -33 167 C-34.98 167 -36.96 167 -39 167 C-39 176.24 -39 185.48 -39 195 C-37.02 195 -35.04 195 -33 195 C-33 200.61 -33 206.22 -33 212 C-31.02 212 -29.04 212 -27 212 C-27 215.63 -27 219.26 -27 223 C-25.35 223 -23.7 223 -22 223 C-22 226.63 -22 230.26 -22 234 C-20.02 234 -18.04 234 -16 234 C-16 235.98 -16 237.96 -16 240 C-14.35 240 -12.7 240 -11 240 C-11 241.65 -11 243.3 -11 245 C-9.02 245 -7.04 245 -5 245 C-5 246.98 -5 248.96 -5 251 C-3.35 251 -1.7 251 0 251 C0 252.98 0 254.96 0 257 C3.96 257 7.92 257 12 257 C12 258.65 12 260.3 12 262 C15.63 262 19.26 262 23 262 C23 263.98 23 265.96 23 268 C43.13 268 63.26 268 84 268 C84 266.02 84 264.04 84 262 C87.63 262 91.26 262 95 262 C95 260.35 95 258.7 95 257 C96.98 257 98.96 257 101 257 C101 255.02 101 253.04 101 251 C104.63 251 108.26 251 112 251 C112 249.02 112 247.04 112 245 C113.98 245 115.96 245 118 245 C118 243.35 118 241.7 118 240 C119.65 240 121.3 240 123 240 C123 236.37 123 232.74 123 229 C124.98 229 126.96 229 129 229 C129 227.02 129 225.04 129 223 C130.98 223 132.96 223 135 223 C135 219.37 135 215.74 135 212 C136.65 212 138.3 212 140 212 C140 206.39 140 200.78 140 195 C141.98 195 143.96 195 146 195 C146 184.11 146 173.22 146 162 C144.02 162 142.04 162 140 162 C140 158.04 140 154.08 140 150 C138.35 150 136.7 150 135 150 C135 144.72 135 139.44 135 134 C133.02 134 131.04 134 129 134 C129 132.02 129 130.04 129 128 C127.02 128 125.04 128 123 128 C123 126.02 123 124.04 123 122 C121.35 122 119.7 122 118 122 C118 120.35 118 118.7 118 117 C116.02 117 114.04 117 112 117 C112 115.02 112 113.04 112 111 C110.35 111 108.7 111 107 111 C107 109.35 107 107.7 107 106 C105.02 106 103.04 106 101 106 C101 104.02 101 102.04 101 100 C97.37 100 93.74 100 90 100 C90 98.35 90 96.7 90 95 C86.37 95 82.74 95 79 95 C79 93.02 79 91.04 79 89 C60.52 89 42.04 89 23 89 Z " fill="#040707" transform="translate(990,859)"/>
<path d="M0 0 C27.72 0 55.44 0 84 0 C84 1.65 84 3.3 84 5 C89.61 5 95.22 5 101 5 C101 6.98 101 8.96 101 11 C106.61 11 112.22 11 118 11 C118 12.65 118 14.3 118 16 C119.65 16 121.3 16 123 16 C123 17.98 123 19.96 123 22 C128.61 22 134.22 22 140 22 C140 23.98 140 25.96 140 28 C141.98 28 143.96 28 146 28 C146 29.65 146 31.3 146 33 C149.63 33 153.26 33 157 33 C157 36.63 157 40.26 157 44 C160.63 44 164.26 44 168 44 C168 47.63 168 51.26 168 55 C171.63 55 175.26 55 179 55 C179 58.96 179 62.92 179 67 C180.98 67 182.96 67 185 67 C185 68.65 185 70.3 185 72 C186.65 72 188.3 72 190 72 C190 73.98 190 75.96 190 78 C191.98 78 193.96 78 196 78 C196 81.63 196 85.26 196 89 C197.65 89 199.3 89 201 89 C201 92.63 201 96.26 201 100 C202.98 100 204.96 100 207 100 C207 103.63 207 107.26 207 111 C208.98 111 210.96 111 213 111 C213 118.59 213 126.18 213 134 C214.65 134 216.3 134 218 134 C218 143.24 218 152.48 218 162 C219.98 162 221.96 162 224 162 C224 174.87 224 187.74 224 201 C222.02 201 220.04 201 218 201 C218 208.26 218 215.52 218 223 C216.35 223 214.7 223 213 223 C213 232.24 213 241.48 213 251 C211.02 251 209.04 251 207 251 C207 254.63 207 258.26 207 262 C205.02 262 203.04 262 201 262 C201 265.63 201 269.26 201 273 C199.35 273 197.7 273 196 273 C196 274.98 196 276.96 196 279 C194.02 279 192.04 279 190 279 C190 282.63 190 286.26 190 290 C188.35 290 186.7 290 185 290 C185 291.98 185 293.96 185 296 C183.02 296 181.04 296 179 296 C179 299.63 179 303.26 179 307 C177.35 307 175.7 307 174 307 C174 308.65 174 310.3 174 312 C172.02 312 170.04 312 168 312 C168 313.98 168 315.96 168 318 C166.02 318 164.04 318 162 318 C162 319.98 162 321.96 162 324 C158.37 324 154.74 324 151 324 C151 325.65 151 327.3 151 329 C149.35 329 147.7 329 146 329 C146 330.98 146 332.96 146 335 C142.04 335 138.08 335 134 335 C134 336.65 134 338.3 134 340 C132.35 340 130.7 340 129 340 C129 341.98 129 343.96 129 346 C123.39 346 117.78 346 112 346 C112 347.98 112 349.96 112 352 C110.02 352 108.04 352 106 352 C106 353.65 106 355.3 106 357 C97.09 357 88.18 357 79 357 C79 358.98 79 360.96 79 363 C56.56 363 34.12 363 11 363 C11 361.02 11 359.04 11 357 C2.09 357 -6.82 357 -16 357 C-16 355.35 -16 353.7 -16 352 C-19.96 352 -23.92 352 -28 352 C-28 350.02 -28 348.04 -28 346 C-33.28 346 -38.56 346 -44 346 C-44 344.02 -44 342.04 -44 340 C-45.98 340 -47.96 340 -50 340 C-50 338.35 -50 336.7 -50 335 C-53.63 335 -57.26 335 -61 335 C-61 388.46 -61 441.92 -61 497 C-95.98 497 -130.96 497 -167 497 C-167 334.64 -167 172.28 -167 5 C-132.02 5 -97.04 5 -61 5 C-61 14.24 -61 23.48 -61 33 C-59.35 33 -57.7 33 -56 33 C-56 31.35 -56 29.7 -56 28 C-54.02 28 -52.04 28 -50 28 C-50 26.02 -50 24.04 -50 22 C-46.37 22 -42.74 22 -39 22 C-39 20.02 -39 18.04 -39 16 C-37.02 16 -35.04 16 -33 16 C-33 14.35 -33 12.7 -33 11 C-25.74 11 -18.48 11 -11 11 C-11 9.02 -11 7.04 -11 5 C-7.37 5 -3.74 5 0 5 C0 3.35 0 1.7 0 0 Z M0 89 C0 90.98 0 92.96 0 95 C-1.65 95 -3.3 95 -5 95 C-5 96.65 -5 98.3 -5 100 C-10.61 100 -16.22 100 -22 100 C-22 101.98 -22 103.96 -22 106 C-23.98 106 -25.96 106 -28 106 C-28 107.65 -28 109.3 -28 111 C-29.65 111 -31.3 111 -33 111 C-33 112.98 -33 114.96 -33 117 C-34.98 117 -36.96 117 -39 117 C-39 118.65 -39 120.3 -39 122 C-40.65 122 -42.3 122 -44 122 C-44 125.96 -44 129.92 -44 134 C-45.98 134 -47.96 134 -50 134 C-50 135.65 -50 137.3 -50 139 C-51.98 139 -53.96 139 -56 139 C-56 146.59 -56 154.18 -56 162 C-57.65 162 -59.3 162 -61 162 C-61 174.87 -61 187.74 -61 201 C-59.35 201 -57.7 201 -56 201 C-56 206.28 -56 211.56 -56 217 C-54.02 217 -52.04 217 -50 217 C-50 218.98 -50 220.96 -50 223 C-48.02 223 -46.04 223 -44 223 C-44 226.63 -44 230.26 -44 234 C-42.35 234 -40.7 234 -39 234 C-39 235.98 -39 237.96 -39 240 C-37.02 240 -35.04 240 -33 240 C-33 241.65 -33 243.3 -33 245 C-31.35 245 -29.7 245 -28 245 C-28 246.98 -28 248.96 -28 251 C-26.02 251 -24.04 251 -22 251 C-22 252.98 -22 254.96 -22 257 C-18.37 257 -14.74 257 -11 257 C-11 258.65 -11 260.3 -11 262 C-7.37 262 -3.74 262 0 262 C0 263.98 0 265.96 0 268 C20.46 268 40.92 268 62 268 C62 266.02 62 264.04 62 262 C63.65 262 65.3 262 67 262 C67 260.35 67 258.7 67 257 C70.96 257 74.92 257 79 257 C79 255.02 79 253.04 79 251 C80.65 251 82.3 251 84 251 C84 249.02 84 247.04 84 245 C85.98 245 87.96 245 90 245 C90 243.35 90 241.7 90 240 C91.65 240 93.3 240 95 240 C95 238.02 95 236.04 95 234 C96.98 234 98.96 234 101 234 C101 232.35 101 230.7 101 229 C102.65 229 104.3 229 106 229 C106 227.02 106 225.04 106 223 C107.98 223 109.96 223 112 223 C112 217.39 112 211.78 112 206 C113.98 206 115.96 206 118 206 C118 200.72 118 195.44 118 190 C119.65 190 121.3 190 123 190 C123 182.41 123 174.82 123 167 C121.35 167 119.7 167 118 167 C118 163.37 118 159.74 118 156 C116.02 156 114.04 156 112 156 C112 148.74 112 141.48 112 134 C110.02 134 108.04 134 106 134 C106 132.02 106 130.04 106 128 C104.35 128 102.7 128 101 128 C101 126.02 101 124.04 101 122 C99.02 122 97.04 122 95 122 C95 120.35 95 118.7 95 117 C93.35 117 91.7 117 90 117 C90 115.02 90 113.04 90 111 C88.02 111 86.04 111 84 111 C84 109.35 84 107.7 84 106 C82.35 106 80.7 106 79 106 C79 104.02 79 102.04 79 100 C75.04 100 71.08 100 67 100 C67 98.35 67 96.7 67 95 C63.37 95 59.74 95 56 95 C56 93.02 56 91.04 56 89 C37.52 89 19.04 89 0 89 Z " fill="#040707" transform="translate(1873,859)"/>
<path d="M0 0 C47.85 0 95.7 0 145 0 C145 1.65 145 3.3 145 5 C150.61 5 156.22 5 162 5 C162 6.98 162 8.96 162 11 C165.63 11 169.26 11 173 11 C173 12.65 173 14.3 173 16 C174.98 16 176.96 16 179 16 C179 17.98 179 19.96 179 22 C180.65 22 182.3 22 184 22 C184 23.98 184 25.96 184 28 C185.98 28 187.96 28 190 28 C190 31.63 190 35.26 190 39 C191.65 39 193.3 39 195 39 C195 46.26 195 53.52 195 61 C125.04 61 55.08 61 -17 61 C-17 68.26 -17 75.52 -17 83 C60.55 83 138.1 83 218 83 C218 84.98 218 86.96 218 89 C221.63 89 225.26 89 229 89 C229 90.98 229 92.96 229 95 C232.63 95 236.26 95 240 95 C240 96.65 240 98.3 240 100 C241.98 100 243.96 100 246 100 C246 101.98 246 103.96 246 106 C247.65 106 249.3 106 251 106 C251 107.65 251 109.3 251 111 C252.98 111 254.96 111 257 111 C257 112.98 257 114.96 257 117 C258.98 117 260.96 117 263 117 C263 120.63 263 124.26 263 128 C264.65 128 266.3 128 268 128 C268 131.63 268 135.26 268 139 C269.98 139 271.96 139 274 139 C274 177.94 274 216.88 274 257 C272.02 257 270.04 257 268 257 C268 262.28 268 267.56 268 273 C266.35 273 264.7 273 263 273 C263 276.96 263 280.92 263 285 C261.02 285 259.04 285 257 285 C257 288.63 257 292.26 257 296 C255.02 296 253.04 296 251 296 C251 297.65 251 299.3 251 301 C249.35 301 247.7 301 246 301 C246 302.98 246 304.96 246 307 C244.02 307 242.04 307 240 307 C240 308.98 240 310.96 240 313 C238.35 313 236.7 313 235 313 C235 314.65 235 316.3 235 318 C231.04 318 227.08 318 223 318 C223 319.98 223 321.96 223 324 C219.37 324 215.74 324 212 324 C212 325.65 212 327.3 212 329 C206.39 329 200.78 329 195 329 C195 330.98 195 332.96 195 335 C125.04 335 55.08 335 -17 335 C-17 333.02 -17 331.04 -17 329 C-22.61 329 -28.22 329 -34 329 C-34 327.35 -34 325.7 -34 324 C-37.63 324 -41.26 324 -45 324 C-45 322.02 -45 320.04 -45 318 C-48.63 318 -52.26 318 -56 318 C-56 316.35 -56 314.7 -56 313 C-57.98 313 -59.96 313 -62 313 C-62 311.02 -62 309.04 -62 307 C-63.65 307 -65.3 307 -67 307 C-67 305.02 -67 303.04 -67 301 C-68.98 301 -70.96 301 -73 301 C-73 299.35 -73 297.7 -73 296 C-74.65 296 -76.3 296 -78 296 C-78 292.37 -78 288.74 -78 285 C-79.98 285 -81.96 285 -84 285 C-84 281.04 -84 277.08 -84 273 C-85.65 273 -87.3 273 -89 273 C-89 269.37 -89 265.74 -89 262 C-90.98 262 -92.96 262 -95 262 C-95 199.3 -95 136.6 -95 72 C-93.02 72 -91.04 72 -89 72 C-89 68.37 -89 64.74 -89 61 C-87.35 61 -85.7 61 -84 61 C-84 57.37 -84 53.74 -84 50 C-82.02 50 -80.04 50 -78 50 C-78 46.37 -78 42.74 -78 39 C-76.35 39 -74.7 39 -73 39 C-73 37.02 -73 35.04 -73 33 C-71.02 33 -69.04 33 -67 33 C-67 31.35 -67 29.7 -67 28 C-65.35 28 -63.7 28 -62 28 C-62 26.02 -62 24.04 -62 22 C-60.02 22 -58.04 22 -56 22 C-56 20.02 -56 18.04 -56 16 C-52.37 16 -48.74 16 -45 16 C-45 14.35 -45 12.7 -45 11 C-41.37 11 -37.74 11 -34 11 C-34 9.02 -34 7.04 -34 5 C-22.78 5 -11.56 5 0 5 C0 3.35 0 1.7 0 0 Z " fill="#FEFEFE" transform="translate(348,898)"/>
<path d="M0 0 C25.74 0 51.48 0 78 0 C78 1.98 78 3.96 78 6 C87.24 6 96.48 6 106 6 C106 7.65 106 9.3 106 11 C109.96 11 113.92 11 118 11 C118 12.98 118 14.96 118 17 C123.28 17 128.56 17 134 17 C134 18.65 134 20.3 134 22 C135.98 22 137.96 22 140 22 C140 23.98 140 25.96 140 28 C141.98 28 143.96 28 146 28 C146 29.98 146 31.96 146 34 C149.63 34 153.26 34 157 34 C157 35.65 157 37.3 157 39 C158.65 39 160.3 39 162 39 C162 40.98 162 42.96 162 45 C163.98 45 165.96 45 168 45 C168 48.63 168 52.26 168 56 C169.65 56 171.3 56 173 56 C173 57.65 173 59.3 173 61 C174.98 61 176.96 61 179 61 C179 64.96 179 68.92 179 73 C180.98 73 182.96 73 185 73 C185 76.63 185 80.26 185 84 C186.65 84 188.3 84 190 84 C190 174.42 190 264.84 190 358 C162.28 358 134.56 358 106 358 C106 348.76 106 339.52 106 330 C104.35 330 102.7 330 101 330 C101 333.63 101 337.26 101 341 C97.37 341 93.74 341 90 341 C90 342.65 90 344.3 90 346 C86.04 346 82.08 346 78 346 C78 347.98 78 349.96 78 352 C74.37 352 70.74 352 67 352 C67 353.98 67 355.96 67 358 C63.37 358 59.74 358 56 358 C56 359.65 56 361.3 56 363 C21.02 363 -13.96 363 -50 363 C-50 361.35 -50 359.7 -50 358 C-53.63 358 -57.26 358 -61 358 C-61 356.02 -61 354.04 -61 352 C-66.61 352 -72.22 352 -78 352 C-78 350.02 -78 348.04 -78 346 C-81.63 346 -85.26 346 -89 346 C-89 344.35 -89 342.7 -89 341 C-90.98 341 -92.96 341 -95 341 C-95 339.02 -95 337.04 -95 335 C-96.65 335 -98.3 335 -100 335 C-100 333.35 -100 331.7 -100 330 C-101.98 330 -103.96 330 -106 330 C-106 328.02 -106 326.04 -106 324 C-107.65 324 -109.3 324 -111 324 C-111 322.02 -111 320.04 -111 318 C-112.98 318 -114.96 318 -117 318 C-117 316.35 -117 314.7 -117 313 C-118.98 313 -120.96 313 -123 313 C-123 309.37 -123 305.74 -123 302 C-124.65 302 -126.3 302 -128 302 C-128 298.37 -128 294.74 -128 291 C-129.98 291 -131.96 291 -134 291 C-134 270.54 -134 250.08 -134 229 C-132.02 229 -130.04 229 -128 229 C-128 225.37 -128 221.74 -128 218 C-126.35 218 -124.7 218 -123 218 C-123 214.37 -123 210.74 -123 207 C-121.02 207 -119.04 207 -117 207 C-117 205.02 -117 203.04 -117 201 C-115.02 201 -113.04 201 -111 201 C-111 199.35 -111 197.7 -111 196 C-109.35 196 -107.7 196 -106 196 C-106 194.02 -106 192.04 -106 190 C-104.02 190 -102.04 190 -100 190 C-100 188.02 -100 186.04 -100 184 C-98.35 184 -96.7 184 -95 184 C-95 182.35 -95 180.7 -95 179 C-93.02 179 -91.04 179 -89 179 C-89 177.02 -89 175.04 -89 173 C-85.37 173 -81.74 173 -78 173 C-78 171.35 -78 169.7 -78 168 C-76.02 168 -74.04 168 -72 168 C-72 166.02 -72 164.04 -72 162 C-66.72 162 -61.44 162 -56 162 C-56 160.02 -56 158.04 -56 156 C-52.04 156 -48.08 156 -44 156 C-44 154.35 -44 152.7 -44 151 C-36.74 151 -29.48 151 -22 151 C-22 149.02 -22 147.04 -22 145 C-16.39 145 -10.78 145 -5 145 C-5 143.35 -5 141.7 -5 140 C11.5 140 28 140 45 140 C45 138.02 45 136.04 45 134 C54.24 134 63.48 134 73 134 C73 132.02 73 130.04 73 128 C78.61 128 84.22 128 90 128 C90 124.37 90 120.74 90 117 C91.65 117 93.3 117 95 117 C95 113.37 95 109.74 95 106 C93.35 106 91.7 106 90 106 C90 104.35 90 102.7 90 101 C88.02 101 86.04 101 84 101 C84 99.02 84 97.04 84 95 C82.02 95 80.04 95 78 95 C78 93.02 78 91.04 78 89 C74.37 89 70.74 89 67 89 C67 87.35 67 85.7 67 84 C61.72 84 56.44 84 51 84 C51 82.02 51 80.04 51 78 C43.41 78 35.82 78 28 78 C28 79.98 28 81.96 28 84 C20.74 84 13.48 84 6 84 C6 85.65 6 87.3 6 89 C4.02 89 2.04 89 0 89 C0 90.98 0 92.96 0 95 C-3.63 95 -7.26 95 -11 95 C-11 96.98 -11 98.96 -11 101 C-12.98 101 -14.96 101 -17 101 C-17 102.65 -17 104.3 -17 106 C-18.65 106 -20.3 106 -22 106 C-22 107.98 -22 109.96 -22 112 C-23.98 112 -25.96 112 -28 112 C-28 113.65 -28 115.3 -28 117 C-29.65 117 -31.3 117 -33 117 C-33 118.98 -33 120.96 -33 123 C-34.98 123 -36.96 123 -39 123 C-39 126.63 -39 130.26 -39 134 C-40.65 134 -42.3 134 -44 134 C-44 135.98 -44 137.96 -44 140 C-57.2 140 -70.4 140 -84 140 C-84 138.02 -84 136.04 -84 134 C-89.28 134 -94.56 134 -100 134 C-100 132.02 -100 130.04 -100 128 C-109.24 128 -118.48 128 -128 128 C-128 119.09 -128 110.18 -128 101 C-126.35 101 -124.7 101 -123 101 C-123 95.39 -123 89.78 -123 84 C-121.02 84 -119.04 84 -117 84 C-117 80.37 -117 76.74 -117 73 C-115.02 73 -113.04 73 -111 73 C-111 71.02 -111 69.04 -111 67 C-109.35 67 -107.7 67 -106 67 C-106 65.02 -106 63.04 -106 61 C-104.02 61 -102.04 61 -100 61 C-100 57.37 -100 53.74 -100 50 C-98.35 50 -96.7 50 -95 50 C-95 48.35 -95 46.7 -95 45 C-93.02 45 -91.04 45 -89 45 C-89 43.02 -89 41.04 -89 39 C-85.37 39 -81.74 39 -78 39 C-78 37.35 -78 35.7 -78 34 C-76.02 34 -74.04 34 -72 34 C-72 32.02 -72 30.04 -72 28 C-70.35 28 -68.7 28 -67 28 C-67 26.02 -67 24.04 -67 22 C-63.37 22 -59.74 22 -56 22 C-56 20.35 -56 18.7 -56 17 C-50.39 17 -44.78 17 -39 17 C-39 15.02 -39 13.04 -39 11 C-35.37 11 -31.74 11 -28 11 C-28 9.35 -28 7.7 -28 6 C-18.76 6 -9.52 6 0 6 C0 4.02 0 2.04 0 0 Z M95 196 C95 197.65 95 199.3 95 201 C93.35 201 91.7 201 90 201 C90 202.98 90 204.96 90 207 C82.41 207 74.82 207 67 207 C67 208.65 67 210.3 67 212 C59.74 212 52.48 212 45 212 C45 213.98 45 215.96 45 218 C33.78 218 22.56 218 11 218 C11 219.65 11 221.3 11 223 C5.72 223 0.44 223 -5 223 C-5 224.98 -5 226.96 -5 229 C-10.61 229 -16.22 229 -22 229 C-22 230.98 -22 232.96 -22 235 C-23.98 235 -25.96 235 -28 235 C-28 236.65 -28 238.3 -28 240 C-29.65 240 -31.3 240 -33 240 C-33 241.98 -33 243.96 -33 246 C-34.98 246 -36.96 246 -39 246 C-39 251.61 -39 257.22 -39 263 C-37.02 263 -35.04 263 -33 263 C-33 266.63 -33 270.26 -33 274 C-31.35 274 -29.7 274 -28 274 C-28 275.65 -28 277.3 -28 279 C-24.37 279 -20.74 279 -17 279 C-17 280.98 -17 282.96 -17 285 C-3.8 285 9.4 285 23 285 C23 283.02 23 281.04 23 279 C28.28 279 33.56 279 39 279 C39 277.35 39 275.7 39 274 C46.59 274 54.18 274 62 274 C62 272.02 62 270.04 62 268 C63.65 268 65.3 268 67 268 C67 266.35 67 264.7 67 263 C70.63 263 74.26 263 78 263 C78 261.02 78 259.04 78 257 C79.98 257 81.96 257 84 257 C84 255.02 84 253.04 84 251 C85.98 251 87.96 251 90 251 C90 249.35 90 247.7 90 246 C91.65 246 93.3 246 95 246 C95 244.02 95 242.04 95 240 C96.98 240 98.96 240 101 240 C101 225.48 101 210.96 101 196 C99.02 196 97.04 196 95 196 Z " fill="#040707" transform="translate(2253,853)"/>
<path d="M0 0 C26.07 0 52.14 0 79 0 C79 1.98 79 3.96 79 6 C87.91 6 96.82 6 106 6 C106 7.65 106 9.3 106 11 C107.98 11 109.96 11 112 11 C112 12.98 112 14.96 112 17 C117.61 17 123.22 17 129 17 C129 18.65 129 20.3 129 22 C132.63 22 136.26 22 140 22 C140 23.98 140 25.96 140 28 C143.63 28 147.26 28 151 28 C151 29.98 151 31.96 151 34 C152.98 34 154.96 34 157 34 C157 35.65 157 37.3 157 39 C158.65 39 160.3 39 162 39 C162 40.98 162 42.96 162 45 C163.98 45 165.96 45 168 45 C168 46.65 168 48.3 168 50 C171.63 50 175.26 50 179 50 C179 53.63 179 57.26 179 61 C182.63 61 186.26 61 190 61 C190 64.96 190 68.92 190 73 C191.98 73 193.96 73 196 73 C196 74.65 196 76.3 196 78 C197.65 78 199.3 78 201 78 C201 81.63 201 85.26 201 89 C202.98 89 204.96 89 207 89 C207 90.98 207 92.96 207 95 C208.98 95 210.96 95 213 95 C213 100.61 213 106.22 213 112 C214.65 112 216.3 112 218 112 C218 115.63 218 119.26 218 123 C219.98 123 221.96 123 224 123 C224 130.26 224 137.52 224 145 C225.65 145 227.3 145 229 145 C229 156.22 229 167.44 229 179 C230.98 179 232.96 179 235 179 C235 184.61 235 190.22 235 196 C233.02 196 231.04 196 229 196 C229 206.89 229 217.78 229 229 C227.35 229 225.7 229 224 229 C224 238.24 224 247.48 224 257 C222.02 257 220.04 257 218 257 C218 258.98 218 260.96 218 263 C216.35 263 214.7 263 213 263 C213 268.28 213 273.56 213 279 C211.02 279 209.04 279 207 279 C207 280.98 207 282.96 207 285 C205.02 285 203.04 285 201 285 C201 288.63 201 292.26 201 296 C199.35 296 197.7 296 196 296 C196 297.98 196 299.96 196 302 C194.02 302 192.04 302 190 302 C190 305.63 190 309.26 190 313 C188.35 313 186.7 313 185 313 C185 314.65 185 316.3 185 318 C183.02 318 181.04 318 179 318 C179 319.98 179 321.96 179 324 C177.35 324 175.7 324 174 324 C174 325.98 174 327.96 174 330 C170.04 330 166.08 330 162 330 C162 331.65 162 333.3 162 335 C160.35 335 158.7 335 157 335 C157 336.98 157 338.96 157 341 C153.37 341 149.74 341 146 341 C146 342.65 146 344.3 146 346 C144.02 346 142.04 346 140 346 C140 347.98 140 349.96 140 352 C136.37 352 132.74 352 129 352 C129 353.98 129 355.96 129 358 C125.37 358 121.74 358 118 358 C118 359.65 118 361.3 118 363 C112.39 363 106.78 363 101 363 C101 364.98 101 366.96 101 369 C95.39 369 89.78 369 84 369 C84 370.65 84 372.3 84 374 C52.65 374 21.3 374 -11 374 C-11 372.35 -11 370.7 -11 369 C-16.61 369 -22.22 369 -28 369 C-28 367.02 -28 365.04 -28 363 C-33.28 363 -38.56 363 -44 363 C-44 361.35 -44 359.7 -44 358 C-47.96 358 -51.92 358 -56 358 C-56 356.02 -56 354.04 -56 352 C-59.63 352 -63.26 352 -67 352 C-67 350.02 -67 348.04 -67 346 C-70.63 346 -74.26 346 -78 346 C-78 344.35 -78 342.7 -78 341 C-79.98 341 -81.96 341 -84 341 C-84 339.02 -84 337.04 -84 335 C-85.65 335 -87.3 335 -89 335 C-89 333.35 -89 331.7 -89 330 C-92.63 330 -96.26 330 -100 330 C-100 326.04 -100 322.08 -100 318 C-103.63 318 -107.26 318 -111 318 C-111 314.37 -111 310.74 -111 307 C-112.98 307 -114.96 307 -117 307 C-117 305.35 -117 303.7 -117 302 C-118.98 302 -120.96 302 -123 302 C-123 300.02 -123 298.04 -123 296 C-124.65 296 -126.3 296 -128 296 C-128 292.37 -128 288.74 -128 285 C-129.98 285 -131.96 285 -134 285 C-134 281.37 -134 277.74 -134 274 C-135.65 274 -137.3 274 -139 274 C-139 272.02 -139 270.04 -139 268 C-140.98 268 -142.96 268 -145 268 C-145 262.39 -145 256.78 -145 251 C-146.98 251 -148.96 251 -151 251 C-151 245.72 -151 240.44 -151 235 C-152.65 235 -154.3 235 -156 235 C-156 203.65 -156 172.3 -156 140 C-154.35 140 -152.7 140 -151 140 C-151 136.04 -151 132.08 -151 128 C-149.02 128 -147.04 128 -145 128 C-145 120.74 -145 113.48 -145 106 C-143.02 106 -141.04 106 -139 106 C-139 104.35 -139 102.7 -139 101 C-137.35 101 -135.7 101 -134 101 C-134 97.04 -134 93.08 -134 89 C-132.02 89 -130.04 89 -128 89 C-128 87.35 -128 85.7 -128 84 C-126.35 84 -124.7 84 -123 84 C-123 80.37 -123 76.74 -123 73 C-121.02 73 -119.04 73 -117 73 C-117 71.02 -117 69.04 -117 67 C-115.02 67 -113.04 67 -111 67 C-111 65.02 -111 63.04 -111 61 C-109.35 61 -107.7 61 -106 61 C-106 59.35 -106 57.7 -106 56 C-104.02 56 -102.04 56 -100 56 C-100 54.02 -100 52.04 -100 50 C-98.35 50 -96.7 50 -95 50 C-95 48.35 -95 46.7 -95 45 C-93.02 45 -91.04 45 -89 45 C-89 43.02 -89 41.04 -89 39 C-87.35 39 -85.7 39 -84 39 C-84 37.35 -84 35.7 -84 34 C-82.02 34 -80.04 34 -78 34 C-78 32.02 -78 30.04 -78 28 C-74.37 28 -70.74 28 -67 28 C-67 26.02 -67 24.04 -67 22 C-63.37 22 -59.74 22 -56 22 C-56 20.35 -56 18.7 -56 17 C-52.04 17 -48.08 17 -44 17 C-44 15.02 -44 13.04 -44 11 C-38.72 11 -33.44 11 -28 11 C-28 9.35 -28 7.7 -28 6 C-18.76 6 -9.52 6 0 6 C0 4.02 0 2.04 0 0 Z M28 89 C28 90.98 28 92.96 28 95 C18.76 95 9.52 95 0 95 C0 96.98 0 98.96 0 101 C-1.65 101 -3.3 101 -5 101 C-5 102.65 -5 104.3 -5 106 C-10.61 106 -16.22 106 -22 106 C-22 109.63 -22 113.26 -22 117 C-25.63 117 -29.26 117 -33 117 C-33 118.98 -33 120.96 -33 123 C-34.98 123 -36.96 123 -39 123 C-39 124.65 -39 126.3 -39 128 C-40.65 128 -42.3 128 -44 128 C-44 131.96 -44 135.92 -44 140 C-45.98 140 -47.96 140 -50 140 C-50 141.65 -50 143.3 -50 145 C-51.98 145 -53.96 145 -56 145 C-56 150.61 -56 156.22 -56 162 C-57.65 162 -59.3 162 -61 162 C-61 169.26 -61 176.52 -61 184 C-62.98 184 -64.96 184 -67 184 C-67 185.98 -67 187.96 -67 190 C-65.02 190 -63.04 190 -61 190 C-61 197.26 -61 204.52 -61 212 C-59.35 212 -57.7 212 -56 212 C-56 217.61 -56 223.22 -56 229 C-54.02 229 -52.04 229 -50 229 C-50 230.98 -50 232.96 -50 235 C-48.02 235 -46.04 235 -44 235 C-44 238.63 -44 242.26 -44 246 C-42.35 246 -40.7 246 -39 246 C-39 247.65 -39 249.3 -39 251 C-37.02 251 -35.04 251 -33 251 C-33 252.98 -33 254.96 -33 257 C-31.35 257 -29.7 257 -28 257 C-28 258.98 -28 260.96 -28 263 C-24.04 263 -20.08 263 -16 263 C-16 264.65 -16 266.3 -16 268 C-14.35 268 -12.7 268 -11 268 C-11 269.98 -11 271.96 -11 274 C-5.39 274 0.22 274 6 274 C6 275.65 6 277.3 6 279 C9.63 279 13.26 279 17 279 C17 280.98 17 282.96 17 285 C29.87 285 42.74 285 56 285 C56 283.02 56 281.04 56 279 C61.61 279 67.22 279 73 279 C73 277.35 73 275.7 73 274 C76.63 274 80.26 274 84 274 C84 272.02 84 270.04 84 268 C85.98 268 87.96 268 90 268 C90 266.35 90 264.7 90 263 C93.63 263 97.26 263 101 263 C101 261.02 101 259.04 101 257 C102.65 257 104.3 257 106 257 C106 255.02 106 253.04 106 251 C107.98 251 109.96 251 112 251 C112 249.35 112 247.7 112 246 C113.98 246 115.96 246 118 246 C118 244.02 118 242.04 118 240 C119.65 240 121.3 240 123 240 C123 236.37 123 232.74 123 229 C124.98 229 126.96 229 129 229 C129 225.37 129 221.74 129 218 C130.65 218 132.3 218 134 218 C134 197.54 134 177.08 134 156 C132.35 156 130.7 156 129 156 C129 154.35 129 152.7 129 151 C127.02 151 125.04 151 123 151 C123 147.37 123 143.74 123 140 C121.35 140 119.7 140 118 140 C118 136.04 118 132.08 118 128 C116.02 128 114.04 128 112 128 C112 126.35 112 124.7 112 123 C110.02 123 108.04 123 106 123 C106 121.02 106 119.04 106 117 C104.35 117 102.7 117 101 117 C101 115.35 101 113.7 101 112 C97.37 112 93.74 112 90 112 C90 110.02 90 108.04 90 106 C88.02 106 86.04 106 84 106 C84 104.35 84 102.7 84 101 C80.37 101 76.74 101 73 101 C73 99.02 73 97.04 73 95 C63.76 95 54.52 95 45 95 C45 93.02 45 91.04 45 89 C39.39 89 33.78 89 28 89 Z " fill="#040707" transform="translate(1426,853)"/>
<path d="M0 0 C36.96 0 73.92 0 112 0 C112 1.65 112 3.3 112 5 C113.65 5 115.3 5 117 5 C117 8.63 117 12.26 117 16 C118.98 16 120.96 16 123 16 C123 19.96 123 23.92 123 28 C124.65 28 126.3 28 128 28 C128 31.63 128 35.26 128 39 C129.98 39 131.96 39 134 39 C134 40.65 134 42.3 134 44 C135.98 44 137.96 44 140 44 C140 49.61 140 55.22 140 61 C141.65 61 143.3 61 145 61 C145 62.98 145 64.96 145 67 C146.98 67 148.96 67 151 67 C151 70.63 151 74.26 151 78 C152.65 78 154.3 78 156 78 C156 81.63 156 85.26 156 89 C157.98 89 159.96 89 162 89 C162 92.63 162 96.26 162 100 C163.98 100 165.96 100 168 100 C168 103.63 168 107.26 168 111 C169.65 111 171.3 111 173 111 C173 114.63 173 118.26 173 122 C174.98 122 176.96 122 179 122 C179 125.96 179 129.92 179 134 C180.65 134 182.3 134 184 134 C184 137.63 184 141.26 184 145 C185.98 145 187.96 145 190 145 C190 146.65 190 148.3 190 150 C191.98 150 193.96 150 196 150 C196 155.61 196 161.22 196 167 C197.65 167 199.3 167 201 167 C201 168.98 201 170.96 201 173 C202.98 173 204.96 173 207 173 C207 178.61 207 184.22 207 190 C208.65 190 210.3 190 212 190 C212 191.65 212 193.3 212 195 C213.98 195 215.96 195 218 195 C218 196.98 218 198.96 218 201 C219.65 201 221.3 201 223 201 C223 197.37 223 193.74 223 190 C224.98 190 226.96 190 229 190 C229 184.39 229 178.78 229 173 C230.98 173 232.96 173 235 173 C235 171.02 235 169.04 235 167 C236.65 167 238.3 167 240 167 C240 161.39 240 155.78 240 150 C241.98 150 243.96 150 246 150 C246 148.35 246 146.7 246 145 C247.65 145 249.3 145 251 145 C251 139.39 251 133.78 251 128 C252.98 128 254.96 128 257 128 C257 124.37 257 120.74 257 117 C258.98 117 260.96 117 263 117 C263 111.39 263 105.78 263 100 C264.65 100 266.3 100 268 100 C268 96.37 268 92.74 268 89 C269.98 89 271.96 89 274 89 C274 85.37 274 81.74 274 78 C275.65 78 277.3 78 279 78 C279 74.37 279 70.74 279 67 C280.98 67 282.96 67 285 67 C285 61.39 285 55.78 285 50 C286.98 50 288.96 50 291 50 C291 48.02 291 46.04 291 44 C292.65 44 294.3 44 296 44 C296 38.72 296 33.44 296 28 C297.98 28 299.96 28 302 28 C302 26.02 302 24.04 302 22 C303.65 22 305.3 22 307 22 C307 16.39 307 10.78 307 5 C308.98 5 310.96 5 313 5 C313 3.35 313 1.7 313 0 C349.96 0 386.92 0 425 0 C425 3.63 425 7.26 425 11 C423.02 11 421.04 11 419 11 C419 16.61 419 22.22 419 28 C417.02 28 415.04 28 413 28 C413 29.65 413 31.3 413 33 C411.35 33 409.7 33 408 33 C408 38.61 408 44.22 408 50 C406.02 50 404.04 50 402 50 C402 51.65 402 53.3 402 55 C400.35 55 398.7 55 397 55 C397 60.61 397 66.22 397 72 C395.02 72 393.04 72 391 72 C391 75.63 391 79.26 391 83 C389.35 83 387.7 83 386 83 C386 86.96 386 90.92 386 95 C384.02 95 382.04 95 380 95 C380 98.63 380 102.26 380 106 C378.02 106 376.04 106 374 106 C374 109.63 374 113.26 374 117 C372.35 117 370.7 117 369 117 C369 120.63 369 124.26 369 128 C367.02 128 365.04 128 363 128 C363 133.61 363 139.22 363 145 C361.35 145 359.7 145 358 145 C358 146.65 358 148.3 358 150 C356.02 150 354.04 150 352 150 C352 155.61 352 161.22 352 167 C350.02 167 348.04 167 346 167 C346 168.98 346 170.96 346 173 C344.35 173 342.7 173 341 173 C341 178.61 341 184.22 341 190 C339.02 190 337.04 190 335 190 C335 193.63 335 197.26 335 201 C333.35 201 331.7 201 330 201 C330 204.63 330 208.26 330 212 C328.02 212 326.04 212 324 212 C324 215.63 324 219.26 324 223 C322.02 223 320.04 223 318 223 C318 226.63 318 230.26 318 234 C316.35 234 314.7 234 313 234 C313 237.63 313 241.26 313 245 C311.02 245 309.04 245 307 245 C307 248.96 307 252.92 307 257 C305.35 257 303.7 257 302 257 C302 260.63 302 264.26 302 268 C300.02 268 298.04 268 296 268 C296 273.61 296 279.22 296 285 C294.35 285 292.7 285 291 285 C291 286.65 291 288.3 291 290 C289.02 290 287.04 290 285 290 C285 295.61 285 301.22 285 307 C283.02 307 281.04 307 279 307 C279 308.65 279 310.3 279 312 C277.35 312 275.7 312 274 312 C274 317.61 274 323.22 274 329 C272.02 329 270.04 329 268 329 C268 330.98 268 332.96 268 335 C266.35 335 264.7 335 263 335 C263 340.61 263 346.22 263 352 C261.02 352 259.04 352 257 352 C257 353.65 257 355.3 257 357 C255.02 357 253.04 357 251 357 C251 362.61 251 368.22 251 374 C249.35 374 247.7 374 246 374 C246 375.98 246 377.96 246 380 C244.02 380 242.04 380 240 380 C240 385.28 240 390.56 240 396 C238.35 396 236.7 396 235 396 C235 399.63 235 403.26 235 407 C233.02 407 231.04 407 229 407 C229 410.96 229 414.92 229 419 C227.02 419 225.04 419 223 419 C223 422.63 223 426.26 223 430 C221.35 430 219.7 430 218 430 C218 435.61 218 441.22 218 447 C216.02 447 214.04 447 212 447 C212 448.65 212 450.3 212 452 C210.35 452 208.7 452 207 452 C207 457.61 207 463.22 207 469 C205.02 469 203.04 469 201 469 C201 470.98 201 472.96 201 475 C199.35 475 197.7 475 196 475 C196 480.28 196 485.56 196 491 C194.02 491 192.04 491 190 491 C190 492.98 190 494.96 190 497 C153.04 497 116.08 497 78 497 C78 491.39 78 485.78 78 480 C79.98 480 81.96 480 84 480 C84 476.37 84 472.74 84 469 C85.65 469 87.3 469 89 469 C89 465.37 89 461.74 89 458 C90.98 458 92.96 458 95 458 C95 452.39 95 446.78 95 441 C96.98 441 98.96 441 101 441 C101 439.02 101 437.04 101 435 C102.65 435 104.3 435 106 435 C106 429.72 106 424.44 106 419 C107.98 419 109.96 419 112 419 C112 417.02 112 415.04 112 413 C113.65 413 115.3 413 117 413 C117 407.39 117 401.78 117 396 C118.98 396 120.96 396 123 396 C123 394.35 123 392.7 123 391 C124.65 391 126.3 391 128 391 C128 385.39 128 379.78 128 374 C129.98 374 131.96 374 134 374 C134 372.02 134 370.04 134 368 C135.98 368 137.96 368 140 368 C140 362.72 140 357.44 140 352 C141.65 352 143.3 352 145 352 C145 350.02 145 348.04 145 346 C146.98 346 148.96 346 151 346 C151 340.39 151 334.78 151 329 C152.65 329 154.3 329 156 329 C156 325.37 156 321.74 156 318 C157.98 318 159.96 318 162 318 C162 314.37 162 310.74 162 307 C160.02 307 158.04 307 156 307 C156 305.02 156 303.04 156 301 C154.35 301 152.7 301 151 301 C151 295.72 151 290.44 151 285 C149.02 285 147.04 285 145 285 C145 283.02 145 281.04 145 279 C143.35 279 141.7 279 140 279 C140 275.37 140 271.74 140 268 C138.02 268 136.04 268 134 268 C134 264.37 134 260.74 134 257 C132.02 257 130.04 257 128 257 C128 253.04 128 249.08 128 245 C126.35 245 124.7 245 123 245 C123 241.37 123 237.74 123 234 C121.02 234 119.04 234 117 234 C117 230.37 117 226.74 117 223 C115.35 223 113.7 223 112 223 C112 221.02 112 219.04 112 217 C110.02 217 108.04 217 106 217 C106 211.72 106 206.44 106 201 C104.35 201 102.7 201 101 201 C101 199.02 101 197.04 101 195 C99.02 195 97.04 195 95 195 C95 189.39 95 183.78 95 178 C93.02 178 91.04 178 89 178 C89 176.35 89 174.7 89 173 C87.35 173 85.7 173 84 173 C84 169.37 84 165.74 84 162 C82.02 162 80.04 162 78 162 C78 158.04 78 154.08 78 150 C76.35 150 74.7 150 73 150 C73 146.37 73 142.74 73 139 C71.02 139 69.04 139 67 139 C67 137.35 67 135.7 67 134 C65.02 134 63.04 134 61 134 C61 128.39 61 122.78 61 117 C59.35 117 57.7 117 56 117 C56 115.02 56 113.04 56 111 C54.02 111 52.04 111 50 111 C50 107.37 50 103.74 50 100 C48.35 100 46.7 100 45 100 C45 96.37 45 92.74 45 89 C43.02 89 41.04 89 39 89 C39 85.37 39 81.74 39 78 C37.35 78 35.7 78 34 78 C34 74.37 34 70.74 34 67 C32.02 67 30.04 67 28 67 C28 63.04 28 59.08 28 55 C26.02 55 24.04 55 22 55 C22 53.35 22 51.7 22 50 C20.35 50 18.7 50 17 50 C17 44.39 17 38.78 17 33 C15.02 33 13.04 33 11 33 C11 31.35 11 29.7 11 28 C9.35 28 7.7 28 6 28 C6 22.39 6 16.78 6 11 C4.02 11 2.04 11 0 11 C0 7.37 0 3.74 0 0 Z " fill="#040707" transform="translate(2460,859)"/>
<path d="M0 0 C7.26 0 14.52 0 22 0 C22 1.98 22 3.96 22 6 C23.98 6 25.96 6 28 6 C28 13.26 28 20.52 28 28 C26.02 28 24.04 28 22 28 C22 37.24 22 46.48 22 56 C20.35 56 18.7 56 17 56 C17 57.98 17 59.96 17 62 C11.39 62 5.78 62 0 62 C0 50.78 0 39.56 0 28 C-1.98 28 -3.96 28 -6 28 C-6 20.74 -6 13.48 -6 6 C-4.02 6 -2.04 6 0 6 C0 4.02 0 2.04 0 0 Z " fill="#0AB0DA" transform="translate(538,1076)"/>
<path d="M0 0 C75.57 0 151.14 0 229 0 C229 1.98 229 3.96 229 6 C153.43 6 77.86 6 0 6 C0 4.02 0 2.04 0 0 Z " fill="#D5EFF8" transform="translate(337,981)"/>
<path d="M0 0 C69.96 0 139.92 0 212 0 C212 1.98 212 3.96 212 6 C142.04 6 72.08 6 0 6 C0 4.02 0 2.04 0 0 Z " fill="#ECF7FB" transform="translate(331,1227)"/>
<path d="M0 0 C73.92 0 147.84 0 224 0 C224 1.65 224 3.3 224 5 C150.08 5 76.16 5 0 5 C0 3.35 0 1.7 0 0 Z " fill="#25BDE1" transform="translate(331,976)"/>
<path d="M0 0 C67.98 0 135.96 0 206 0 C206 1.65 206 3.3 206 5 C138.02 5 70.04 5 0 5 C0 3.35 0 1.7 0 0 Z " fill="#89D4EA" transform="translate(337,954)"/>
<path d="M0 0 C1.98 0 3.96 0 6 0 C6 44.22 6 88.44 6 134 C4.02 134 2.04 134 0 134 C0 89.78 0 45.56 0 0 Z " fill="#53C7E5" transform="translate(247,998)"/>
<path d="M0 0 C47.85 0 95.7 0 145 0 C145 1.65 145 3.3 145 5 C97.15 5 49.3 5 0 5 C0 3.35 0 1.7 0 0 Z " fill="#EDF8FC" transform="translate(348,898)"/>
<path d="M0 0 C38.94 0 77.88 0 118 0 C118 1.98 118 3.96 118 6 C79.06 6 40.12 6 0 6 C0 4.02 0 2.04 0 0 Z " fill="#64CBE6" transform="translate(381,1233)"/>
<path d="M0 0 C31.35 0 62.7 0 95 0 C95 1.98 95 3.96 95 6 C63.65 6 32.3 6 0 6 C0 4.02 0 2.04 0 0 Z " fill="#64CBE6" transform="translate(381,892)"/>
<path d="M0 0 C1.65 0 3.3 0 5 0 C5 29.37 5 58.74 5 89 C3.35 89 1.7 89 0 89 C0 59.63 0 30.26 0 0 Z " fill="#52C7E5" transform="translate(622,1049)"/>
<path d="M0 0 C1.98 0 3.96 0 6 0 C6 20.13 6 40.26 6 61 C4.02 61 2.04 61 0 61 C0 40.87 0 20.74 0 0 Z " fill="#ECF7FC" transform="translate(253,1099)"/>
<path d="M0 0 C1.98 0 3.96 0 6 0 C6 14.85 6 29.7 6 45 C4.02 45 2.04 45 0 45 C0 30.15 0 15.3 0 0 Z " fill="#E9F6FB" transform="translate(616,1110)"/>
<path d="M0 0 C1.98 0 3.96 0 6 0 C6 14.85 6 29.7 6 45 C4.02 45 2.04 45 0 45 C0 30.15 0 15.3 0 0 Z " fill="#D7EFF9" transform="translate(253,970)"/>
<path d="M0 0 C13.2 0 26.4 0 40 0 C40 1.98 40 3.96 40 6 C26.8 6 13.6 6 0 6 C0 4.02 0 2.04 0 0 Z " fill="#3DC3E5" transform="translate(381,1233)"/>
<path d="M0 0 C11.22 0 22.44 0 34 0 C34 1.98 34 3.96 34 6 C22.78 6 11.56 6 0 6 C0 4.02 0 2.04 0 0 Z " fill="#3EC3E4" transform="translate(465,1233)"/>
<path d="M0 0 C1.98 0 3.96 0 6 0 C6 11.22 6 22.44 6 34 C4.02 34 2.04 34 0 34 C0 22.78 0 11.56 0 0 Z " fill="#3EC3E5" transform="translate(247,998)"/>
<path d="M0 0 C1.98 0 3.96 0 6 0 C6 10.89 6 21.78 6 33 C4.02 33 2.04 33 0 33 C0 22.11 0 11.22 0 0 Z " fill="#3FC3E5" transform="translate(247,1099)"/>
<path d="M0 0 C9.24 0 18.48 0 28 0 C28 1.98 28 3.96 28 6 C18.76 6 9.52 6 0 6 C0 4.02 0 2.04 0 0 Z " fill="#BEE6F4" transform="translate(331,1227)"/>
<path d="M0 0 C1.98 0 3.96 0 6 0 C6 9.24 6 18.48 6 28 C4.02 28 2.04 28 0 28 C0 18.76 0 9.52 0 0 Z " fill="#C0E7F4" transform="translate(253,1132)"/>
<path d="M0 0 C1.98 0 3.96 0 6 0 C6 9.24 6 18.48 6 28 C4.02 28 2.04 28 0 28 C0 18.76 0 9.52 0 0 Z " fill="#EDF7FC" transform="translate(560,1104)"/>
<path d="M0 0 C1.98 0 3.96 0 6 0 C6 9.24 6 18.48 6 28 C4.02 28 2.04 28 0 28 C0 18.76 0 9.52 0 0 Z " fill="#BFE6F4" transform="translate(532,1104)"/>
<path d="M0 0 C9.24 0 18.48 0 28 0 C28 1.98 28 3.96 28 6 C18.76 6 9.52 6 0 6 C0 4.02 0 2.04 0 0 Z " fill="#3BC2E4" transform="translate(381,892)"/>
<path d="M0 0 C8.91 0 17.82 0 27 0 C27 1.98 27 3.96 27 6 C18.09 6 9.18 6 0 6 C0 4.02 0 2.04 0 0 Z " fill="#C1E7F5" transform="translate(516,1227)"/>
<path d="M0 0 C1.65 0 3.3 0 5 0 C5 9.24 5 18.48 5 28 C3.35 28 1.7 28 0 28 C0 18.76 0 9.52 0 0 Z " fill="#3CC3E4" transform="translate(622,1110)"/>
<path d="M0 0 C7.26 0 14.52 0 22 0 C22 1.98 22 3.96 22 6 C14.74 6 7.48 6 0 6 C0 4.02 0 2.04 0 0 Z " fill="#1CBADF" transform="translate(359,1233)"/>
<path d="M0 0 C7.26 0 14.52 0 22 0 C22 1.98 22 3.96 22 6 C14.74 6 7.48 6 0 6 C0 4.02 0 2.04 0 0 Z " fill="#12B6DE" transform="translate(538,1076)"/>
<path d="M0 0 C7.26 0 14.52 0 22 0 C22 1.98 22 3.96 22 6 C14.74 6 7.48 6 0 6 C0 4.02 0 2.04 0 0 Z " fill="#3EC3E4" transform="translate(454,892)"/>
<path d="M0 0 C1.65 0 3.3 0 5 0 C5 7.26 5 14.52 5 22 C3.35 22 1.7 22 0 22 C0 14.74 0 7.48 0 0 Z " fill="#3CC3E4" transform="translate(555,1110)"/>
<path d="M0 0 C1.65 0 3.3 0 5 0 C5 7.26 5 14.52 5 22 C3.35 22 1.7 22 0 22 C0 14.74 0 7.48 0 0 Z " fill="#AADFF0" transform="translate(566,1082)"/>
<path d="M0 0 C1.65 0 3.3 0 5 0 C5 7.26 5 14.52 5 22 C3.35 22 1.7 22 0 22 C0 14.74 0 7.48 0 0 Z " fill="#7BD0E7" transform="translate(527,1082)"/>
<path d="M0 0 C7.26 0 14.52 0 22 0 C22 1.65 22 3.3 22 5 C14.74 5 7.48 5 0 5 C0 3.35 0 1.7 0 0 Z " fill="#9ADAED" transform="translate(326,898)"/>
<path d="M0 0 C1.98 0 3.96 0 6 0 C6 3.96 6 7.92 6 12 C2.04 12 -1.92 12 -6 12 C-6 10.02 -6 8.04 -6 6 C-4.02 6 -2.04 6 0 6 C0 4.02 0 2.04 0 0 Z " fill="#F6FBFE" transform="translate(292,914)"/>
<path d="M0 0 C5.94 0 11.88 0 18 0 C17.67 1.98 17.34 3.96 17 6 C11.39 6 5.78 6 0 6 C0 4.02 0 2.04 0 0 Z " fill="#1EBADF" transform="translate(499,1233)"/>
<path d="M0 0 C1.98 0 3.96 0 6 0 C6 5.61 6 11.22 6 17 C4.02 17 2.04 17 0 17 C0 11.39 0 5.78 0 0 Z " fill="#C3E8F5" transform="translate(616,1138)"/>
<path d="M0 0 C5.61 0 11.22 0 17 0 C17 1.98 17 3.96 17 6 C11.39 6 5.78 6 0 6 C0 4.02 0 2.04 0 0 Z " fill="#37C2E4" transform="translate(538,1132)"/>
<path d="M0 0 C1.98 0 3.96 0 6 0 C6 5.61 6 11.22 6 17 C4.02 17 2.04 17 0 17 C0 11.39 0 5.78 0 0 Z " fill="#ECF7FC" transform="translate(253,1015)"/>
<path d="M0 0 C1.98 0 3.96 0 6 0 C6 5.61 6 11.22 6 17 C4.02 17 2.04 17 0 17 C0 11.39 0 5.78 0 0 Z " fill="#29BEE2" transform="translate(247,998)"/>
<path d="M0 0 C5.61 0 11.22 0 17 0 C17 1.98 17 3.96 17 6 C11.39 6 5.78 6 0 6 C0 4.02 0 2.04 0 0 Z " fill="#CCEBF6" transform="translate(549,981)"/>
<path d="M0 0 C1.98 0 3.96 0 6 0 C6 5.61 6 11.22 6 17 C4.02 17 2.04 17 0 17 C0 11.39 0 5.78 0 0 Z " fill="#A9DFF0" transform="translate(253,970)"/>
<path d="M0 0 C1.98 0 3.96 0 6 0 C6 5.61 6 11.22 6 17 C4.02 17 2.04 17 0 17 C0 11.39 0 5.78 0 0 Z " fill="#2DBFE2" transform="translate(543,942)"/>
<path d="M0 0 C5.61 0 11.22 0 17 0 C17 1.98 17 3.96 17 6 C11.39 6 5.78 6 0 6 C0 4.02 0 2.04 0 0 Z " fill="#F5FBFE" transform="translate(493,903)"/>
<path d="M0 0 C3.63 0 7.26 0 11 0 C11 1.98 11 3.96 11 6 C9.35 6 7.7 6 6 6 C6 7.65 6 9.3 6 11 C4.02 11 2.04 11 0 11 C0 7.37 0 3.74 0 0 Z " fill="#EEF8FC" transform="translate(577,1205)"/>
<path d="M0 0 C1.98 0 3.96 0 6 0 C6 5.28 6 10.56 6 16 C4.02 16 2.04 16 0 16 C0 10.72 0 5.44 0 0 Z " fill="#2ABEE1" transform="translate(247,1116)"/>
<path d="M0 0 C5.28 0 10.56 0 16 0 C16 1.98 16 3.96 16 6 C10.72 6 5.44 6 0 6 C0 4.02 0 2.04 0 0 Z " fill="#1CBADF" transform="translate(365,892)"/>
<path d="M0 0 C3.63 0 7.26 0 11 0 C11 1.98 11 3.96 11 6 C9.02 6 7.04 6 5 6 C5 7.65 5 9.3 5 11 C3.35 11 1.7 11 0 11 C0 7.37 0 3.74 0 0 Z " fill="#F5FBFE" transform="translate(594,1188)"/>
<path d="M0 0 C1.65 0 3.3 0 5 0 C5 5.61 5 11.22 5 17 C3.35 17 1.7 17 0 17 C0 11.39 0 5.78 0 0 Z " fill="#A0DCEE" transform="translate(326,959)"/>
<path d="M0 0 C1.65 0 3.3 0 5 0 C5 5.61 5 11.22 5 17 C3.35 17 1.7 17 0 17 C0 11.39 0 5.78 0 0 Z " fill="#F0F9FC" transform="translate(259,959)"/>
<path d="M0 0 C5.61 0 11.22 0 17 0 C17 1.65 17 3.3 17 5 C11.39 5 5.78 5 0 5 C0 3.35 0 1.7 0 0 Z " fill="#C3E8F6" transform="translate(348,898)"/>
<path d="M0 0 C3.96 0 7.92 0 12 0 C12 1.98 12 3.96 12 6 C8.04 6 4.08 6 0 6 C0 4.02 0 2.04 0 0 Z " fill="#1DBBE1" transform="translate(543,1227)"/>
<path d="M0 0 C3.96 0 7.92 0 12 0 C12 1.98 12 3.96 12 6 C8.04 6 4.08 6 0 6 C0 4.02 0 2.04 0 0 Z " fill="#E8F6FB" transform="translate(543,1138)"/>
<path d="M0 0 C1.98 0 3.96 0 6 0 C6 3.96 6 7.92 6 12 C4.02 12 2.04 12 0 12 C0 8.04 0 4.08 0 0 Z " fill="#12B6DE" transform="translate(247,1132)"/>
<path d="M0 0 C1.98 0 3.96 0 6 0 C6 3.96 6 7.92 6 12 C4.02 12 2.04 12 0 12 C0 8.04 0 4.08 0 0 Z " fill="#E7F6FB" transform="translate(560,1104)"/>
<path d="M0 0 C1.98 0 3.96 0 6 0 C6 3.96 6 7.92 6 12 C4.02 12 2.04 12 0 12 C0 8.04 0 4.08 0 0 Z " fill="#D1EDF7" transform="translate(616,1037)"/>
<path d="M0 0 C3.96 0 7.92 0 12 0 C12 1.98 12 3.96 12 6 C8.04 6 4.08 6 0 6 C0 4.02 0 2.04 0 0 Z " fill="#C4E8F6" transform="translate(314,903)"/>
<path d="M0 0 C3.63 0 7.26 0 11 0 C11 1.98 11 3.96 11 6 C7.37 6 3.74 6 0 6 C0 4.02 0 2.04 0 0 Z " fill="#9ADAED" transform="translate(532,1227)"/>
<path d="M0 0 C3.63 0 7.26 0 11 0 C11 1.98 11 3.96 11 6 C7.37 6 3.74 6 0 6 C0 4.02 0 2.04 0 0 Z " fill="#30C0E3" transform="translate(320,1227)"/>
<path d="M0 0 C3.63 0 7.26 0 11 0 C11 1.98 11 3.96 11 6 C7.37 6 3.74 6 0 6 C0 4.02 0 2.04 0 0 Z " fill="#E6F5FB" transform="translate(560,1216)"/>
<path d="M0 0 C3.63 0 7.26 0 11 0 C11 1.98 11 3.96 11 6 C7.37 6 3.74 6 0 6 C0 4.02 0 2.04 0 0 Z " fill="#13B6DE" transform="translate(292,1216)"/>
<path d="M0 0 C1.98 0 3.96 0 6 0 C6 3.63 6 7.26 6 11 C4.02 11 2.04 11 0 11 C0 7.37 0 3.74 0 0 Z " fill="#11B6DE" transform="translate(264,1183)"/>
<path d="M0 0 C1.98 0 3.96 0 6 0 C6 3.63 6 7.26 6 11 C4.02 11 2.04 11 0 11 C0 7.37 0 3.74 0 0 Z " fill="#20BBE0" transform="translate(616,1155)"/>
<path d="M0 0 C1.98 0 3.96 0 6 0 C6 3.63 6 7.26 6 11 C4.02 11 2.04 11 0 11 C0 7.37 0 3.74 0 0 Z " fill="#8DD6EB" transform="translate(253,1149)"/>
<path d="M0 0 C1.98 0 3.96 0 6 0 C6 3.63 6 7.26 6 11 C4.02 11 2.04 11 0 11 C0 7.37 0 3.74 0 0 Z " fill="#D2EDF7" transform="translate(616,1127)"/>
<path d="M0 0 C1.98 0 3.96 0 6 0 C6 3.63 6 7.26 6 11 C4.02 11 2.04 11 0 11 C0 7.37 0 3.74 0 0 Z " fill="#D4EEF8" transform="translate(253,1121)"/>
<path d="M0 0 C1.98 0 3.96 0 6 0 C6 3.63 6 7.26 6 11 C4.02 11 2.04 11 0 11 C0 7.37 0 3.74 0 0 Z " fill="#1CBADF" transform="translate(616,1026)"/>
<path d="M0 0 C1.98 0 3.96 0 6 0 C6 3.63 6 7.26 6 11 C4.02 11 2.04 11 0 11 C0 7.37 0 3.74 0 0 Z " fill="#BFE6F4" transform="translate(253,987)"/>
<path d="M0 0 C3.63 0 7.26 0 11 0 C11 1.98 11 3.96 11 6 C7.37 6 3.74 6 0 6 C0 4.02 0 2.04 0 0 Z " fill="#13B7DE" transform="translate(566,981)"/>
<path d="M0 0 C1.98 0 3.96 0 6 0 C6 3.63 6 7.26 6 11 C4.02 11 2.04 11 0 11 C0 7.37 0 3.74 0 0 Z " fill="#EEF8FC" transform="translate(532,926)"/>
<path d="M0 0 C3.63 0 7.26 0 11 0 C11 1.98 11 3.96 11 6 C7.37 6 3.74 6 0 6 C0 4.02 0 2.04 0 0 Z " fill="#0FB4DD" transform="translate(303,903)"/>
<path d="M0 0 C3.96 0 7.92 0 12 0 C12 1.65 12 3.3 12 5 C8.04 5 4.08 5 0 5 C0 3.35 0 1.7 0 0 Z " fill="#E0F2FA" transform="translate(314,1222)"/>
<path d="M0 0 C1.65 0 3.3 0 5 0 C5 3.96 5 7.92 5 12 C3.35 12 1.7 12 0 12 C0 8.04 0 4.08 0 0 Z " fill="#0EB4DD" transform="translate(611,1171)"/>
<path d="M0 0 C1.65 0 3.3 0 5 0 C5 3.96 5 7.92 5 12 C3.35 12 1.7 12 0 12 C0 8.04 0 4.08 0 0 Z " fill="#17B8DF" transform="translate(259,1171)"/>
<path d="M0 0 C3.96 0 7.92 0 12 0 C12 1.65 12 3.3 12 5 C8.04 5 4.08 5 0 5 C0 3.35 0 1.7 0 0 Z " fill="#BDE6F3" transform="translate(543,1071)"/>
<path d="M0 0 C3.63 0 7.26 0 11 0 C11 1.65 11 3.3 11 5 C7.37 5 3.74 5 0 5 C0 3.35 0 1.7 0 0 Z " fill="#CBEBF6" transform="translate(549,1222)"/>
<path d="M0 0 C3.63 0 7.26 0 11 0 C11 1.65 11 3.3 11 5 C7.37 5 3.74 5 0 5 C0 3.35 0 1.7 0 0 Z " fill="#22BCE0" transform="translate(303,1222)"/>
<path d="M0 0 C1.65 0 3.3 0 5 0 C5 3.63 5 7.26 5 11 C3.35 11 1.7 11 0 11 C0 7.37 0 3.74 0 0 Z " fill="#D4EEF8" transform="translate(611,1160)"/>
<path d="M0 0 C1.65 0 3.3 0 5 0 C5 3.63 5 7.26 5 11 C3.35 11 1.7 11 0 11 C0 7.37 0 3.74 0 0 Z " fill="#DBF1FA" transform="translate(259,1160)"/>
<path d="M0 0 C1.65 0 3.3 0 5 0 C5 3.63 5 7.26 5 11 C3.35 11 1.7 11 0 11 C0 7.37 0 3.74 0 0 Z " fill="#24BDE1" transform="translate(622,1127)"/>
<path d="M0 0 C1.65 0 3.3 0 5 0 C5 3.63 5 7.26 5 11 C3.35 11 1.7 11 0 11 C0 7.37 0 3.74 0 0 Z " fill="#15B8DF" transform="translate(611,1015)"/>
<path d="M0 0 C3.63 0 7.26 0 11 0 C11 1.65 11 3.3 11 5 C7.37 5 3.74 5 0 5 C0 3.35 0 1.7 0 0 Z " fill="#F4FBFE" transform="translate(577,993)"/>
<path d="M0 0 C1.65 0 3.3 0 5 0 C5 3.63 5 7.26 5 11 C3.35 11 1.7 11 0 11 C0 7.37 0 3.74 0 0 Z " fill="#17B8DF" transform="translate(259,948)"/>
<path d="M0 0 C1.65 0 3.3 0 5 0 C5 3.63 5 7.26 5 11 C3.35 11 1.7 11 0 11 C0 7.37 0 3.74 0 0 Z " fill="#D2EDF8" transform="translate(538,937)"/>
<path d="M0 0 C1.65 0 3.3 0 5 0 C5 3.63 5 7.26 5 11 C3.35 11 1.7 11 0 11 C0 7.37 0 3.74 0 0 Z " fill="#EAF6FB" transform="translate(270,937)"/>
<path d="M0 0 C3.63 0 7.26 0 11 0 C11 1.65 11 3.3 11 5 C7.37 5 3.74 5 0 5 C0 3.35 0 1.7 0 0 Z " fill="#DDF2FA" transform="translate(510,909)"/>
<path d="M0 0 C3.63 0 7.26 0 11 0 C11 1.65 11 3.3 11 5 C7.37 5 3.74 5 0 5 C0 3.35 0 1.7 0 0 Z " fill="#B2E2F2" transform="translate(482,898)"/>
<path d="M0 0 C3.63 0 7.26 0 11 0 C11 1.65 11 3.3 11 5 C7.37 5 3.74 5 0 5 C0 3.35 0 1.7 0 0 Z " fill="#56C9E6" transform="translate(326,898)"/>
<path d="M0 0 C1.98 0 3.96 0 6 0 C6 1.98 6 3.96 6 6 C4.02 6 2.04 6 0 6 C0 4.02 0 2.04 0 0 Z " fill="#42C5E5" transform="translate(543,1227)"/>
<path d="M0 0 C1.98 0 3.96 0 6 0 C6 1.98 6 3.96 6 6 C4.02 6 2.04 6 0 6 C0 4.02 0 2.04 0 0 Z " fill="#82D3E9" transform="translate(331,1227)"/>
<path d="M0 0 C1.98 0 3.96 0 6 0 C6 1.98 6 3.96 6 6 C4.02 6 2.04 6 0 6 C0 4.02 0 2.04 0 0 Z " fill="#32C1E4" transform="translate(571,1216)"/>
<path d="M0 0 C1.98 0 3.96 0 6 0 C6 1.98 6 3.96 6 6 C4.02 6 2.04 6 0 6 C0 4.02 0 2.04 0 0 Z " fill="#C6E9F7" transform="translate(303,1216)"/>
<path d="M0 0 C1.98 0 3.96 0 6 0 C6 1.98 6 3.96 6 6 C4.02 6 2.04 6 0 6 C0 4.02 0 2.04 0 0 Z " fill="#15B8DF" transform="translate(588,1205)"/>
<path d="M0 0 C1.98 0 3.96 0 6 0 C6 1.98 6 3.96 6 6 C4.02 6 2.04 6 0 6 C0 4.02 0 2.04 0 0 Z " fill="#CCEBF6" transform="translate(286,1205)"/>
<path d="M0 0 C1.98 0 3.96 0 6 0 C6 1.98 6 3.96 6 6 C4.02 6 2.04 6 0 6 C0 4.02 0 2.04 0 0 Z " fill="#A5DEEF" transform="translate(588,1199)"/>
<path d="M0 0 C1.98 0 3.96 0 6 0 C6 1.98 6 3.96 6 6 C4.02 6 2.04 6 0 6 C0 4.02 0 2.04 0 0 Z " fill="#45C6E4" transform="translate(275,1199)"/>
<path d="M0 0 C1.98 0 3.96 0 6 0 C6 1.98 6 3.96 6 6 C4.02 6 2.04 6 0 6 C0 4.02 0 2.04 0 0 Z " fill="#6ECEE7" transform="translate(599,1188)"/>
<path d="M0 0 C1.98 0 3.96 0 6 0 C6 1.98 6 3.96 6 6 C4.02 6 2.04 6 0 6 C0 4.02 0 2.04 0 0 Z " fill="#A4DDEF" transform="translate(605,1177)"/>
<path d="M0 0 C1.98 0 3.96 0 6 0 C6 1.98 6 3.96 6 6 C4.02 6 2.04 6 0 6 C0 4.02 0 2.04 0 0 Z " fill="#C0E7F4" transform="translate(264,1177)"/>
<path d="M0 0 C1.98 0 3.96 0 6 0 C6 1.98 6 3.96 6 6 C4.02 6 2.04 6 0 6 C0 4.02 0 2.04 0 0 Z " fill="#E6F5FB" transform="translate(605,1171)"/>
<path d="M0 0 C1.98 0 3.96 0 6 0 C6 1.98 6 3.96 6 6 C4.02 6 2.04 6 0 6 C0 4.02 0 2.04 0 0 Z " fill="#24BDE1" transform="translate(253,1160)"/>
<path d="M0 0 C1.98 0 3.96 0 6 0 C6 1.98 6 3.96 6 6 C4.02 6 2.04 6 0 6 C0 4.02 0 2.04 0 0 Z " fill="#92D8EB" transform="translate(616,1149)"/>
<path d="M0 0 C1.98 0 3.96 0 6 0 C6 1.98 6 3.96 6 6 C4.02 6 2.04 6 0 6 C0 4.02 0 2.04 0 0 Z " fill="#47C6E5" transform="translate(549,1132)"/>
<path d="M0 0 C1.98 0 3.96 0 6 0 C6 1.98 6 3.96 6 6 C4.02 6 2.04 6 0 6 C0 4.02 0 2.04 0 0 Z " fill="#A8DFF1" transform="translate(560,1104)"/>
<path d="M0 0 C1.98 0 3.96 0 6 0 C6 1.98 6 3.96 6 6 C4.02 6 2.04 6 0 6 C0 4.02 0 2.04 0 0 Z " fill="#80D2E9" transform="translate(532,1104)"/>
<path d="M0 0 C1.98 0 3.96 0 6 0 C6 1.98 6 3.96 6 6 C4.02 6 2.04 6 0 6 C0 4.02 0 2.04 0 0 Z " fill="#32C1E4" transform="translate(560,1082)"/>
<path d="M0 0 C1.98 0 3.96 0 6 0 C6 1.98 6 3.96 6 6 C4.02 6 2.04 6 0 6 C0 4.02 0 2.04 0 0 Z " fill="#13B7DE" transform="translate(532,1082)"/>
<path d="M0 0 C1.98 0 3.96 0 6 0 C6 1.98 6 3.96 6 6 C4.02 6 2.04 6 0 6 C0 4.02 0 2.04 0 0 Z " fill="#C1E7F5" transform="translate(560,1076)"/>
<path d="M0 0 C1.98 0 3.96 0 6 0 C6 1.98 6 3.96 6 6 C4.02 6 2.04 6 0 6 C0 4.02 0 2.04 0 0 Z " fill="#A0DCEE" transform="translate(532,1076)"/>
<path d="M0 0 C1.98 0 3.96 0 6 0 C6 1.98 6 3.96 6 6 C4.02 6 2.04 6 0 6 C0 4.02 0 2.04 0 0 Z " fill="#ADE0F0" transform="translate(616,1037)"/>
<path d="M0 0 C1.98 0 3.96 0 6 0 C6 1.98 6 3.96 6 6 C4.02 6 2.04 6 0 6 C0 4.02 0 2.04 0 0 Z " fill="#B4E3F3" transform="translate(605,1015)"/>
<path d="M0 0 C1.98 0 3.96 0 6 0 C6 1.98 6 3.96 6 6 C4.02 6 2.04 6 0 6 C0 4.02 0 2.04 0 0 Z " fill="#39C3E4" transform="translate(605,1009)"/>
<path d="M0 0 C1.98 0 3.96 0 6 0 C6 1.98 6 3.96 6 6 C4.02 6 2.04 6 0 6 C0 4.02 0 2.04 0 0 Z " fill="#D0EDF7" transform="translate(599,1009)"/>
<path d="M0 0 C1.98 0 3.96 0 6 0 C6 1.98 6 3.96 6 6 C4.02 6 2.04 6 0 6 C0 4.02 0 2.04 0 0 Z " fill="#CDEBF6" transform="translate(588,998)"/>
<path d="M0 0 C1.98 0 3.96 0 6 0 C6 1.98 6 3.96 6 6 C4.02 6 2.04 6 0 6 C0 4.02 0 2.04 0 0 Z " fill="#5BC9E5" transform="translate(577,987)"/>
<path d="M0 0 C1.98 0 3.96 0 6 0 C6 1.98 6 3.96 6 6 C4.02 6 2.04 6 0 6 C0 4.02 0 2.04 0 0 Z " fill="#BAE5F4" transform="translate(571,987)"/>
<path d="M0 0 C1.98 0 3.96 0 6 0 C6 1.98 6 3.96 6 6 C4.02 6 2.04 6 0 6 C0 4.02 0 2.04 0 0 Z " fill="#8AD5EB" transform="translate(560,981)"/>
<path d="M0 0 C1.98 0 3.96 0 6 0 C6 1.98 6 3.96 6 6 C4.02 6 2.04 6 0 6 C0 4.02 0 2.04 0 0 Z " fill="#54C8E4" transform="translate(253,970)"/>
<path d="M0 0 C1.98 0 3.96 0 6 0 C6 1.98 6 3.96 6 6 C4.02 6 2.04 6 0 6 C0 4.02 0 2.04 0 0 Z " fill="#22BCE1" transform="translate(331,959)"/>
<path d="M0 0 C1.98 0 3.96 0 6 0 C6 1.98 6 3.96 6 6 C4.02 6 2.04 6 0 6 C0 4.02 0 2.04 0 0 Z " fill="#BDE6F4" transform="translate(264,948)"/>
<path d="M0 0 C1.98 0 3.96 0 6 0 C6 1.98 6 3.96 6 6 C4.02 6 2.04 6 0 6 C0 4.02 0 2.04 0 0 Z " fill="#55C8E5" transform="translate(264,942)"/>
<path d="M0 0 C1.98 0 3.96 0 6 0 C6 1.98 6 3.96 6 6 C4.02 6 2.04 6 0 6 C0 4.02 0 2.04 0 0 Z " fill="#BAE5F4" transform="translate(275,931)"/>
<path d="M0 0 C1.98 0 3.96 0 6 0 C6 1.98 6 3.96 6 6 C4.02 6 2.04 6 0 6 C0 4.02 0 2.04 0 0 Z " fill="#2CBFE3" transform="translate(532,920)"/>
<path d="M0 0 C1.98 0 3.96 0 6 0 C6 1.98 6 3.96 6 6 C4.02 6 2.04 6 0 6 C0 4.02 0 2.04 0 0 Z " fill="#B2E2F2" transform="translate(286,920)"/>
<path d="M0 0 C1.98 0 3.96 0 6 0 C6 1.98 6 3.96 6 6 C4.02 6 2.04 6 0 6 C0 4.02 0 2.04 0 0 Z " fill="#BDE6F4" transform="translate(521,914)"/>
<path d="M0 0 C1.98 0 3.96 0 6 0 C6 1.98 6 3.96 6 6 C4.02 6 2.04 6 0 6 C0 4.02 0 2.04 0 0 Z " fill="#90D7EC" transform="translate(292,914)"/>
<path d="M0 0 C1.98 0 3.96 0 6 0 C6 1.98 6 3.96 6 6 C4.02 6 2.04 6 0 6 C0 4.02 0 2.04 0 0 Z " fill="#1FBBE0" transform="translate(286,914)"/>
<path d="M0 0 C1.98 0 3.96 0 6 0 C6 1.98 6 3.96 6 6 C4.02 6 2.04 6 0 6 C0 4.02 0 2.04 0 0 Z " fill="#32C1E4" transform="translate(510,903)"/>
<path d="M0 0 C1.98 0 3.96 0 6 0 C6 1.98 6 3.96 6 6 C4.02 6 2.04 6 0 6 C0 4.02 0 2.04 0 0 Z " fill="#95D9EE" transform="translate(504,903)"/>
<path d="M0 0 C1.98 0 3.96 0 6 0 C6 1.98 6 3.96 6 6 C4.02 6 2.04 6 0 6 C0 4.02 0 2.04 0 0 Z " fill="#8DD6EB" transform="translate(314,903)"/>
<path d="M0 0 C1.98 0 3.96 0 6 0 C6 1.98 6 3.96 6 6 C4.02 6 2.04 6 0 6 C0 4.02 0 2.04 0 0 Z " fill="#54C8E4" transform="translate(409,892)"/>
<path d="M0 0 C1.65 0 3.3 0 5 0 C5 1.98 5 3.96 5 6 C3.35 6 1.7 6 0 6 C0 4.02 0 2.04 0 0 Z " fill="#73CFE8" transform="translate(538,1227)"/>
<path d="M0 0 C1.65 0 3.3 0 5 0 C5 1.98 5 3.96 5 6 C3.35 6 1.7 6 0 6 C0 4.02 0 2.04 0 0 Z " fill="#B9E4F3" transform="translate(527,1227)"/>
<path d="M0 0 C1.65 0 3.3 0 5 0 C5 1.98 5 3.96 5 6 C3.35 6 1.7 6 0 6 C0 4.02 0 2.04 0 0 Z " fill="#D2EDF8" transform="translate(516,1227)"/>
<path d="M0 0 C1.65 0 3.3 0 5 0 C5 1.98 5 3.96 5 6 C3.35 6 1.7 6 0 6 C0 4.02 0 2.04 0 0 Z " fill="#CAEAF6" transform="translate(354,1227)"/>
<path d="M0 0 C1.65 0 3.3 0 5 0 C5 1.98 5 3.96 5 6 C3.35 6 1.7 6 0 6 C0 4.02 0 2.04 0 0 Z " fill="#A2DCEF" transform="translate(337,1227)"/>
<path d="M0 0 C1.65 0 3.3 0 5 0 C5 1.98 5 3.96 5 6 C3.35 6 1.7 6 0 6 C0 4.02 0 2.04 0 0 Z " fill="#59C9E5" transform="translate(326,1227)"/>
<path d="M0 0 C1.98 0 3.96 0 6 0 C6 1.65 6 3.3 6 5 C4.02 5 2.04 5 0 5 C0 3.35 0 1.7 0 0 Z " fill="#44C5E5" transform="translate(560,1222)"/>
<path d="M0 0 C1.98 0 3.96 0 6 0 C6 1.65 6 3.3 6 5 C4.02 5 2.04 5 0 5 C0 3.35 0 1.7 0 0 Z " fill="#F0F9FD" transform="translate(543,1222)"/>
<path d="M0 0 C1.98 0 3.96 0 6 0 C6 1.65 6 3.3 6 5 C4.02 5 2.04 5 0 5 C0 3.35 0 1.7 0 0 Z " fill="#B5E3F2" transform="translate(314,1222)"/>
<path d="M0 0 C1.65 0 3.3 0 5 0 C5 1.98 5 3.96 5 6 C3.35 6 1.7 6 0 6 C0 4.02 0 2.04 0 0 Z " fill="#98D9EC" transform="translate(566,1216)"/>
<path d="M0 0 C1.65 0 3.3 0 5 0 C5 1.98 5 3.96 5 6 C3.35 6 1.7 6 0 6 C0 4.02 0 2.04 0 0 Z " fill="#6CCDE8" transform="translate(298,1216)"/>
<path d="M0 0 C1.98 0 3.96 0 6 0 C6 1.65 6 3.3 6 5 C4.02 5 2.04 5 0 5 C0 3.35 0 1.7 0 0 Z " fill="#6CCDE7" transform="translate(577,1211)"/>
<path d="M0 0 C1.98 0 3.96 0 6 0 C6 1.65 6 3.3 6 5 C4.02 5 2.04 5 0 5 C0 3.35 0 1.7 0 0 Z " fill="#D9F0F9" transform="translate(571,1211)"/>
<path d="M0 0 C1.98 0 3.96 0 6 0 C6 1.65 6 3.3 6 5 C4.02 5 2.04 5 0 5 C0 3.35 0 1.7 0 0 Z " fill="#ABDFF0" transform="translate(292,1211)"/>
<path d="M0 0 C1.98 0 3.96 0 6 0 C6 1.65 6 3.3 6 5 C4.02 5 2.04 5 0 5 C0 3.35 0 1.7 0 0 Z " fill="#2EC0E4" transform="translate(286,1211)"/>
<path d="M0 0 C1.65 0 3.3 0 5 0 C5 1.98 5 3.96 5 6 C3.35 6 1.7 6 0 6 C0 4.02 0 2.04 0 0 Z " fill="#94D8ED" transform="translate(583,1205)"/>
<path d="M0 0 C1.65 0 3.3 0 5 0 C5 1.98 5 3.96 5 6 C3.35 6 1.7 6 0 6 C0 4.02 0 2.04 0 0 Z " fill="#3EC4E4" transform="translate(281,1205)"/>
<path d="M0 0 C1.65 0 3.3 0 5 0 C5 1.98 5 3.96 5 6 C3.35 6 1.7 6 0 6 C0 4.02 0 2.04 0 0 Z " fill="#1DBBE1" transform="translate(594,1199)"/>
<path d="M0 0 C1.65 0 3.3 0 5 0 C5 1.98 5 3.96 5 6 C3.35 6 1.7 6 0 6 C0 4.02 0 2.04 0 0 Z " fill="#D0EDF7" transform="translate(281,1199)"/>
<path d="M0 0 C1.98 0 3.96 0 6 0 C6 1.65 6 3.3 6 5 C4.02 5 2.04 5 0 5 C0 3.35 0 1.7 0 0 Z " fill="#C7EAF7" transform="translate(275,1194)"/>
<path d="M0 0 C1.65 0 3.3 0 5 0 C5 1.98 5 3.96 5 6 C3.35 6 1.7 6 0 6 C0 4.02 0 2.04 0 0 Z " fill="#A5DEEF" transform="translate(270,1188)"/>
<path d="M0 0 C1.98 0 3.96 0 6 0 C6 1.65 6 3.3 6 5 C4.02 5 2.04 5 0 5 C0 3.35 0 1.7 0 0 Z " fill="#35C2E4" transform="translate(605,1183)"/>
<path d="M0 0 C1.98 0 3.96 0 6 0 C6 1.65 6 3.3 6 5 C4.02 5 2.04 5 0 5 C0 3.35 0 1.7 0 0 Z " fill="#D9F0F9" transform="translate(599,1183)"/>
<path d="M0 0 C1.98 0 3.96 0 6 0 C6 1.65 6 3.3 6 5 C4.02 5 2.04 5 0 5 C0 3.35 0 1.7 0 0 Z " fill="#5FCAE7" transform="translate(264,1183)"/>
<path d="M0 0 C1.65 0 3.3 0 5 0 C5 1.98 5 3.96 5 6 C3.35 6 1.7 6 0 6 C0 4.02 0 2.04 0 0 Z " fill="#40C4E5" transform="translate(611,1171)"/>
<path d="M0 0 C1.65 0 3.3 0 5 0 C5 1.98 5 3.96 5 6 C3.35 6 1.7 6 0 6 C0 4.02 0 2.04 0 0 Z " fill="#55C8E5" transform="translate(259,1171)"/>
<path d="M0 0 C1.98 0 3.96 0 6 0 C6 1.65 6 3.3 6 5 C4.02 5 2.04 5 0 5 C0 3.35 0 1.7 0 0 Z " fill="#59C9E5" transform="translate(616,1155)"/>
<path d="M0 0 C1.98 0 3.96 0 6 0 C6 1.65 6 3.3 6 5 C4.02 5 2.04 5 0 5 C0 3.35 0 1.7 0 0 Z " fill="#5CCAE6" transform="translate(253,1155)"/>
<path d="M0 0 C1.98 0 3.96 0 6 0 C6 1.65 6 3.3 6 5 C4.02 5 2.04 5 0 5 C0 3.35 0 1.7 0 0 Z " fill="#B4E3F3" transform="translate(616,1144)"/>
<path d="M0 0 C1.98 0 3.96 0 6 0 C6 1.65 6 3.3 6 5 C4.02 5 2.04 5 0 5 C0 3.35 0 1.7 0 0 Z " fill="#A8DFF1" transform="translate(253,1144)"/>
<path d="M0 0 C1.65 0 3.3 0 5 0 C5 1.98 5 3.96 5 6 C3.35 6 1.7 6 0 6 C0 4.02 0 2.04 0 0 Z " fill="#C2E8F6" transform="translate(555,1132)"/>
<path d="M0 0 C1.65 0 3.3 0 5 0 C5 1.98 5 3.96 5 6 C3.35 6 1.7 6 0 6 C0 4.02 0 2.04 0 0 Z " fill="#9ADAED" transform="translate(538,1132)"/>
<path d="M0 0 C1.98 0 3.96 0 6 0 C6 1.65 6 3.3 6 5 C4.02 5 2.04 5 0 5 C0 3.35 0 1.7 0 0 Z " fill="#DBF1FA" transform="translate(532,1127)"/>
<path d="M0 0 C1.98 0 3.96 0 6 0 C6 1.65 6 3.3 6 5 C4.02 5 2.04 5 0 5 C0 3.35 0 1.7 0 0 Z " fill="#E1F3FA" transform="translate(253,1116)"/>
<path d="M0 0 C1.65 0 3.3 0 5 0 C5 1.98 5 3.96 5 6 C3.35 6 1.7 6 0 6 C0 4.02 0 2.04 0 0 Z " fill="#17B8DF" transform="translate(555,1104)"/>
<path d="M0 0 C1.98 0 3.96 0 6 0 C6 1.65 6 3.3 6 5 C4.02 5 2.04 5 0 5 C0 3.35 0 1.7 0 0 Z " fill="#26BEE2" transform="translate(560,1099)"/>
<path d="M0 0 C1.65 0 3.3 0 5 0 C5 1.98 5 3.96 5 6 C3.35 6 1.7 6 0 6 C0 4.02 0 2.04 0 0 Z " fill="#D7EFF9" transform="translate(566,1082)"/>
<path d="M0 0 C1.65 0 3.3 0 5 0 C5 1.98 5 3.96 5 6 C3.35 6 1.7 6 0 6 C0 4.02 0 2.04 0 0 Z " fill="#BEE6F4" transform="translate(527,1082)"/>
<path d="M0 0 C1.65 0 3.3 0 5 0 C5 1.98 5 3.96 5 6 C3.35 6 1.7 6 0 6 C0 4.02 0 2.04 0 0 Z " fill="#48C6E5" transform="translate(555,1076)"/>
<path d="M0 0 C1.65 0 3.3 0 5 0 C5 1.98 5 3.96 5 6 C3.35 6 1.7 6 0 6 C0 4.02 0 2.04 0 0 Z " fill="#2CBFE3" transform="translate(538,1076)"/>
<path d="M0 0 C1.65 0 3.3 0 5 0 C5 1.98 5 3.96 5 6 C3.35 6 1.7 6 0 6 C0 4.02 0 2.04 0 0 Z " fill="#24BDE1" transform="translate(622,1043)"/>
<path d="M0 0 C1.98 0 3.96 0 6 0 C6 1.65 6 3.3 6 5 C4.02 5 2.04 5 0 5 C0 3.35 0 1.7 0 0 Z " fill="#61CBE6" transform="translate(616,1032)"/>
<path d="M0 0 C1.65 0 3.3 0 5 0 C5 1.98 5 3.96 5 6 C3.35 6 1.7 6 0 6 C0 4.02 0 2.04 0 0 Z " fill="#C9EAF6" transform="translate(611,1026)"/>
<path d="M0 0 C1.98 0 3.96 0 6 0 C6 1.65 6 3.3 6 5 C4.02 5 2.04 5 0 5 C0 3.35 0 1.7 0 0 Z " fill="#58C9E6" transform="translate(599,1004)"/>
<path d="M0 0 C1.65 0 3.3 0 5 0 C5 1.98 5 3.96 5 6 C3.35 6 1.7 6 0 6 C0 4.02 0 2.04 0 0 Z " fill="#52C8E4" transform="translate(594,998)"/>
<path d="M0 0 C1.98 0 3.96 0 6 0 C6 1.65 6 3.3 6 5 C4.02 5 2.04 5 0 5 C0 3.35 0 1.7 0 0 Z " fill="#32C1E4" transform="translate(588,993)"/>
<path d="M0 0 C1.65 0 3.3 0 5 0 C5 1.98 5 3.96 5 6 C3.35 6 1.7 6 0 6 C0 4.02 0 2.04 0 0 Z " fill="#11B6DE" transform="translate(583,987)"/>
<path d="M0 0 C1.65 0 3.3 0 5 0 C5 1.98 5 3.96 5 6 C3.35 6 1.7 6 0 6 C0 4.02 0 2.04 0 0 Z " fill="#EAF7FC" transform="translate(566,987)"/>
<path d="M0 0 C1.65 0 3.3 0 5 0 C5 1.98 5 3.96 5 6 C3.35 6 1.7 6 0 6 C0 4.02 0 2.04 0 0 Z " fill="#44C5E4" transform="translate(566,981)"/>
<path d="M0 0 C1.65 0 3.3 0 5 0 C5 1.98 5 3.96 5 6 C3.35 6 1.7 6 0 6 C0 4.02 0 2.04 0 0 Z " fill="#B5E3F2" transform="translate(555,981)"/>
<path d="M0 0 C1.98 0 3.96 0 6 0 C6 1.65 6 3.3 6 5 C4.02 5 2.04 5 0 5 C0 3.35 0 1.7 0 0 Z " fill="#71CEE7" transform="translate(331,976)"/>
<path d="M0 0 C1.98 0 3.96 0 6 0 C6 1.65 6 3.3 6 5 C4.02 5 2.04 5 0 5 C0 3.35 0 1.7 0 0 Z " fill="#87D4EA" transform="translate(253,976)"/>
<path d="M0 0 C1.98 0 3.96 0 6 0 C6 1.65 6 3.3 6 5 C4.02 5 2.04 5 0 5 C0 3.35 0 1.7 0 0 Z " fill="#22BCE0" transform="translate(253,965)"/>
<path d="M0 0 C1.65 0 3.3 0 5 0 C5 1.98 5 3.96 5 6 C3.35 6 1.7 6 0 6 C0 4.02 0 2.04 0 0 Z " fill="#C3E8F5" transform="translate(326,959)"/>
<path d="M0 0 C1.65 0 3.3 0 5 0 C5 1.98 5 3.96 5 6 C3.35 6 1.7 6 0 6 C0 4.02 0 2.04 0 0 Z " fill="#A0DCEE" transform="translate(259,959)"/>
<path d="M0 0 C1.98 0 3.96 0 6 0 C6 1.65 6 3.3 6 5 C4.02 5 2.04 5 0 5 C0 3.35 0 1.7 0 0 Z " fill="#20BBE0" transform="translate(543,954)"/>
<path d="M0 0 C1.98 0 3.96 0 6 0 C6 1.65 6 3.3 6 5 C4.02 5 2.04 5 0 5 C0 3.35 0 1.7 0 0 Z " fill="#C4E8F6" transform="translate(331,954)"/>
<path d="M0 0 C1.65 0 3.3 0 5 0 C5 1.98 5 3.96 5 6 C3.35 6 1.7 6 0 6 C0 4.02 0 2.04 0 0 Z " fill="#E1F3FA" transform="translate(538,948)"/>
<path d="M0 0 C1.65 0 3.3 0 5 0 C5 1.98 5 3.96 5 6 C3.35 6 1.7 6 0 6 C0 4.02 0 2.04 0 0 Z " fill="#61CBE6" transform="translate(538,931)"/>
<path d="M0 0 C1.65 0 3.3 0 5 0 C5 1.98 5 3.96 5 6 C3.35 6 1.7 6 0 6 C0 4.02 0 2.04 0 0 Z " fill="#22BCE1" transform="translate(270,931)"/>
<path d="M0 0 C1.98 0 3.96 0 6 0 C6 1.65 6 3.3 6 5 C4.02 5 2.04 5 0 5 C0 3.35 0 1.7 0 0 Z " fill="#A9DFF0" transform="translate(532,926)"/>
<path d="M0 0 C1.98 0 3.96 0 6 0 C6 1.65 6 3.3 6 5 C4.02 5 2.04 5 0 5 C0 3.35 0 1.7 0 0 Z " fill="#2EC0E4" transform="translate(275,926)"/>
<path d="M0 0 C1.65 0 3.3 0 5 0 C5 1.98 5 3.96 5 6 C3.35 6 1.7 6 0 6 C0 4.02 0 2.04 0 0 Z " fill="#CAEAF6" transform="translate(527,920)"/>
<path d="M0 0 C1.65 0 3.3 0 5 0 C5 1.98 5 3.96 5 6 C3.35 6 1.7 6 0 6 C0 4.02 0 2.04 0 0 Z " fill="#28BEE3" transform="translate(281,920)"/>
<path d="M0 0 C1.65 0 3.3 0 5 0 C5 1.98 5 3.96 5 6 C3.35 6 1.7 6 0 6 C0 4.02 0 2.04 0 0 Z " fill="#3EC4E4" transform="translate(527,914)"/>
<path d="M0 0 C1.65 0 3.3 0 5 0 C5 1.98 5 3.96 5 6 C3.35 6 1.7 6 0 6 C0 4.02 0 2.04 0 0 Z " fill="#E7F6FB" transform="translate(298,914)"/>
<path d="M0 0 C1.98 0 3.96 0 6 0 C6 1.65 6 3.3 6 5 C4.02 5 2.04 5 0 5 C0 3.35 0 1.7 0 0 Z " fill="#1DBBE0" transform="translate(521,909)"/>
<path d="M0 0 C1.98 0 3.96 0 6 0 C6 1.65 6 3.3 6 5 C4.02 5 2.04 5 0 5 C0 3.35 0 1.7 0 0 Z " fill="#9FDBEE" transform="translate(303,909)"/>
<path d="M0 0 C1.65 0 3.3 0 5 0 C5 1.98 5 3.96 5 6 C3.35 6 1.7 6 0 6 C0 4.02 0 2.04 0 0 Z " fill="#D0EDF7" transform="translate(499,903)"/>
<path d="M0 0 C1.65 0 3.3 0 5 0 C5 1.98 5 3.96 5 6 C3.35 6 1.7 6 0 6 C0 4.02 0 2.04 0 0 Z " fill="#E5F5FB" transform="translate(326,903)"/>
<path d="M0 0 C1.65 0 3.3 0 5 0 C5 1.98 5 3.96 5 6 C3.35 6 1.7 6 0 6 C0 4.02 0 2.04 0 0 Z " fill="#42C5E5" transform="translate(309,903)"/>
<path d="M0 0 C1.98 0 3.96 0 6 0 C6 1.65 6 3.3 6 5 C4.02 5 2.04 5 0 5 C0 3.35 0 1.7 0 0 Z " fill="#4BC7E6" transform="translate(493,898)"/>
<path d="M0 0 C1.98 0 3.96 0 6 0 C6 1.65 6 3.3 6 5 C4.02 5 2.04 5 0 5 C0 3.35 0 1.7 0 0 Z " fill="#D1EDF7" transform="translate(476,898)"/>
<path d="M0 0 C1.98 0 3.96 0 6 0 C6 1.65 6 3.3 6 5 C4.02 5 2.04 5 0 5 C0 3.35 0 1.7 0 0 Z " fill="#ABDFF0" transform="translate(348,898)"/>
<path d="M0 0 C1.98 0 3.96 0 6 0 C6 1.65 6 3.3 6 5 C4.02 5 2.04 5 0 5 C0 3.35 0 1.7 0 0 Z " fill="#17B8DF" transform="translate(320,898)"/>
<path d="M0 0 C1.65 0 3.3 0 5 0 C5 1.98 5 3.96 5 6 C3.35 6 1.7 6 0 6 C0 4.02 0 2.04 0 0 Z " fill="#26BEE2" transform="translate(471,892)"/>
<path d="M0 0 C1.98 0 3.96 0 6 0 C5.67 1.65 5.34 3.3 5 5 C3.35 5 1.7 5 0 5 C0 3.35 0 1.7 0 0 Z " fill="#DEF2FB" transform="translate(365,898)"/>
<path d="M0 0 C1.65 0 3.3 0 5 0 C5 1.65 5 3.3 5 5 C3.35 5 1.7 5 0 5 C0 3.35 0 1.7 0 0 Z " fill="#94D8ED" transform="translate(555,1222)"/>
<path d="M0 0 C1.65 0 3.3 0 5 0 C5 1.65 5 3.3 5 5 C3.35 5 1.7 5 0 5 C0 3.35 0 1.7 0 0 Z " fill="#6CCDE8" transform="translate(309,1222)"/>
<path d="M0 0 C1.65 0 3.3 0 5 0 C5 1.65 5 3.3 5 5 C3.35 5 1.7 5 0 5 C0 3.35 0 1.7 0 0 Z " fill="#11B6DE" transform="translate(583,1211)"/>
<path d="M0 0 C1.65 0 3.3 0 5 0 C5 1.65 5 3.3 5 5 C3.35 5 1.7 5 0 5 C0 3.35 0 1.7 0 0 Z " fill="#91D7EC" transform="translate(594,1194)"/>
<path d="M0 0 C1.65 0 3.3 0 5 0 C5 1.65 5 3.3 5 5 C3.35 5 1.7 5 0 5 C0 3.35 0 1.7 0 0 Z " fill="#26BEE2" transform="translate(270,1194)"/>
<path d="M0 0 C1.65 0 3.3 0 5 0 C5 1.65 5 3.3 5 5 C3.35 5 1.7 5 0 5 C0 3.35 0 1.7 0 0 Z " fill="#EEF8FC" transform="translate(270,1183)"/>
<path d="M0 0 C1.65 0 3.3 0 5 0 C5 1.65 5 3.3 5 5 C3.35 5 1.7 5 0 5 C0 3.35 0 1.7 0 0 Z " fill="#99DAEC" transform="translate(611,1166)"/>
<path d="M0 0 C1.65 0 3.3 0 5 0 C5 1.65 5 3.3 5 5 C3.35 5 1.7 5 0 5 C0 3.35 0 1.7 0 0 Z " fill="#A3DDF0" transform="translate(259,1166)"/>
<path d="M0 0 C1.65 0 3.3 0 5 0 C5 1.65 5 3.3 5 5 C3.35 5 1.7 5 0 5 C0 3.35 0 1.7 0 0 Z " fill="#F2FAFD" transform="translate(611,1155)"/>
<path d="M0 0 C1.65 0 3.3 0 5 0 C5 1.65 5 3.3 5 5 C3.35 5 1.7 5 0 5 C0 3.35 0 1.7 0 0 Z " fill="#F2FAFD" transform="translate(259,1155)"/>
<path d="M0 0 C1.65 0 3.3 0 5 0 C5 1.65 5 3.3 5 5 C3.35 5 1.7 5 0 5 C0 3.35 0 1.7 0 0 Z " fill="#56C9E6" transform="translate(555,1127)"/>
<path d="M0 0 C1.65 0 3.3 0 5 0 C5 1.65 5 3.3 5 5 C3.35 5 1.7 5 0 5 C0 3.35 0 1.7 0 0 Z " fill="#26BEE2" transform="translate(538,1127)"/>
<path d="M0 0 C1.65 0 3.3 0 5 0 C5 1.65 5 3.3 5 5 C3.35 5 1.7 5 0 5 C0 3.35 0 1.7 0 0 Z " fill="#D2EDF8" transform="translate(566,1099)"/>
<path d="M0 0 C1.65 0 3.3 0 5 0 C5 1.65 5 3.3 5 5 C3.35 5 1.7 5 0 5 C0 3.35 0 1.7 0 0 Z " fill="#B4E3F3" transform="translate(527,1099)"/>
<path d="M0 0 C1.65 0 3.3 0 5 0 C5 1.65 5 3.3 5 5 C3.35 5 1.7 5 0 5 C0 3.35 0 1.7 0 0 Z " fill="#E7F6FB" transform="translate(555,1071)"/>
<path d="M0 0 C1.65 0 3.3 0 5 0 C5 1.65 5 3.3 5 5 C3.35 5 1.7 5 0 5 C0 3.35 0 1.7 0 0 Z " fill="#E1F3FA" transform="translate(538,1071)"/>
<path d="M0 0 C1.65 0 3.3 0 5 0 C5 1.65 5 3.3 5 5 C3.35 5 1.7 5 0 5 C0 3.35 0 1.7 0 0 Z " fill="#F2FAFD" transform="translate(611,1032)"/>
<path d="M0 0 C1.65 0 3.3 0 5 0 C5 1.65 5 3.3 5 5 C3.35 5 1.7 5 0 5 C0 3.35 0 1.7 0 0 Z " fill="#68CCE6" transform="translate(611,1021)"/>
<path d="M0 0 C1.65 0 3.3 0 5 0 C5 1.65 5 3.3 5 5 C3.35 5 1.7 5 0 5 C0 3.35 0 1.7 0 0 Z " fill="#E4F4FB" transform="translate(594,1004)"/>
<path d="M0 0 C1.65 0 3.3 0 5 0 C5 1.65 5 3.3 5 5 C3.35 5 1.7 5 0 5 C0 3.35 0 1.7 0 0 Z " fill="#ACE0F0" transform="translate(583,993)"/>
<path d="M0 0 C1.65 0 3.3 0 5 0 C5 1.65 5 3.3 5 5 C3.35 5 1.7 5 0 5 C0 3.35 0 1.7 0 0 Z " fill="#E5F5FB" transform="translate(326,976)"/>
<path d="M0 0 C1.65 0 3.3 0 5 0 C5 1.65 5 3.3 5 5 C3.35 5 1.7 5 0 5 C0 3.35 0 1.7 0 0 Z " fill="#85D4EA" transform="translate(326,965)"/>
<path d="M0 0 C1.65 0 3.3 0 5 0 C5 1.65 5 3.3 5 5 C3.35 5 1.7 5 0 5 C0 3.35 0 1.7 0 0 Z " fill="#D5EFF9" transform="translate(259,965)"/>
<path d="M0 0 C1.65 0 3.3 0 5 0 C5 1.65 5 3.3 5 5 C3.35 5 1.7 5 0 5 C0 3.35 0 1.7 0 0 Z " fill="#50C7E6" transform="translate(259,954)"/>
<path d="M0 0 C1.65 0 3.3 0 5 0 C5 1.65 5 3.3 5 5 C3.35 5 1.7 5 0 5 C0 3.35 0 1.7 0 0 Z " fill="#AEE0F1" transform="translate(538,937)"/>
<path d="M0 0 C1.65 0 3.3 0 5 0 C5 1.65 5 3.3 5 5 C3.35 5 1.7 5 0 5 C0 3.35 0 1.7 0 0 Z " fill="#93D8EC" transform="translate(270,937)"/>
<path d="M0 0 C1.65 0 3.3 0 5 0 C5 1.65 5 3.3 5 5 C3.35 5 1.7 5 0 5 C0 3.35 0 1.7 0 0 Z " fill="#13B7DE" transform="translate(538,926)"/>
<path d="M0 0 C1.65 0 3.3 0 5 0 C5 1.65 5 3.3 5 5 C3.35 5 1.7 5 0 5 C0 3.35 0 1.7 0 0 Z " fill="#BEE6F4" transform="translate(281,926)"/>
<path d="M0 0 C1.65 0 3.3 0 5 0 C5 1.65 5 3.3 5 5 C3.35 5 1.7 5 0 5 C0 3.35 0 1.7 0 0 Z " fill="#89D5EB" transform="translate(516,909)"/>
<path d="M0 0 C1.65 0 3.3 0 5 0 C5 1.65 5 3.3 5 5 C3.35 5 1.7 5 0 5 C0 3.35 0 1.7 0 0 Z " fill="#E6F5FB" transform="translate(309,909)"/>
<path d="M0 0 C1.65 0 3.3 0 5 0 C5 1.65 5 3.3 5 5 C3.35 5 1.7 5 0 5 C0 3.35 0 1.7 0 0 Z " fill="#42C5E5" transform="translate(298,909)"/>
<path d="M0 0 C1.65 0 3.3 0 5 0 C5 1.65 5 3.3 5 5 C3.35 5 1.7 5 0 5 C0 3.35 0 1.7 0 0 Z " fill="#24BDE0" transform="translate(499,898)"/>
<path d="M0 0 C1.65 0 3.3 0 5 0 C5 1.65 5 3.3 5 5 C3.35 5 1.7 5 0 5 C0 3.35 0 1.7 0 0 Z " fill="#85D4EA" transform="translate(488,898)"/>
<path d="M0 0 C1.65 0 3.3 0 5 0 C5 1.65 5 3.3 5 5 C3.35 5 1.7 5 0 5 C0 3.35 0 1.7 0 0 Z " fill="#7DD2E8" transform="translate(337,898)"/>
<path d="M0 0 C1.65 0 3.3 0 5 0 C5 1.65 5 3.3 5 5 C3.35 5 1.7 5 0 5 C0 3.35 0 1.7 0 0 Z " fill="#37C2E4" transform="translate(326,898)"/>
</svg>
