<?xml version="1.0" encoding="UTF-8"?>
<svg version="1.1" xmlns="http://www.w3.org/2000/svg" width="3000" height="2134">
<path d="M0 0 C1.27101563 0.31066406 2.54203125 0.62132812 3.8515625 0.94140625 C27.32054435 7.30829549 48.32744075 22.95482376 63 42 C65.0696431 44.57367863 67.16120482 47.12935765 69.25 49.6875 C70.36231115 51.05832444 71.47428651 52.42942141 72.5859375 53.80078125 C74.87316561 56.61871467 77.17081583 59.42767102 79.4765625 62.23046875 C84.77335138 68.68227597 89.95126996 75.11620869 94.65234375 82.0234375 C96.93486351 85.37113315 99.35858024 88.37082957 102.25 91.20703125 C105.29821927 94.30287895 108.07957562 97.55322552 110.875 100.875 C112.91075372 103.25511465 114.95517477 105.62768037 117 108 C117.59683594 108.69867187 118.19367188 109.39734375 118.80859375 110.1171875 C133.36131504 125.9172849 157.82496616 135.10998106 179 136 C179.91136719 136.0515625 180.82273437 136.103125 181.76171875 136.15625 C213.88057405 137.12344263 243.64573558 121.91855433 270.234375 105.31640625 C275.29480398 102.16002757 280.49795642 99.24966484 285.6875 96.3125 C286.62650146 95.77737793 287.56550293 95.24225586 288.53295898 94.69091797 C293.25267596 92.0233057 297.99654751 89.487113 302.87109375 87.11328125 C309.00988104 84.07932751 314.80084574 80.57997646 320.61352539 76.96725464 C387.6756913 35.38336725 387.6756913 35.38336725 425 44 C442.08939394 48.82785479 455.80184833 60.38824806 466.6484375 74.109375 C469.95835048 78.1780388 473.53252598 81.96981827 477.12890625 85.78515625 C479 88 479 88 479 90 C479.89730835 90.39239868 479.89730835 90.39239868 480.81274414 90.79272461 C483.13933504 92.07690722 484.32878112 93.26683305 485.99609375 95.31640625 C486.82379272 96.32574219 486.82379272 96.32574219 487.66821289 97.35546875 C488.54401001 98.44794922 488.54401001 98.44794922 489.4375 99.5625 C490.05294678 100.32046875 490.66839355 101.0784375 491.30249023 101.859375 C497.1292408 109.07479594 502.76511386 116.43226132 508.35595703 123.83105469 C510.07149257 126.09431839 511.7977832 128.34900108 513.52734375 130.6015625 C514.10863037 131.35888672 514.68991699 132.11621094 515.28881836 132.89648438 C516.39194099 134.3331092 517.49558027 135.76933754 518.59985352 137.20507812 C520.07521297 139.1303431 521.53969934 141.06329631 523 143 C523.48984375 143.6403418 523.9796875 144.28068359 524.484375 144.94042969 C528 149.65344101 528 149.65344101 528 153 C528.66 153 529.32 153 530 153 C530 153.99 530 154.98 530 156 C528.09838867 157.45117188 528.09838867 157.45117188 525.41796875 158.96875 C524.43231934 159.53456787 523.44666992 160.10038574 522.43115234 160.68334961 C521.36074707 161.28284424 520.2903418 161.88233887 519.1875 162.5 C516.97524403 163.76169002 514.76300465 165.02340912 512.55078125 166.28515625 C510.88909912 167.22512451 510.88909912 167.22512451 509.19384766 168.18408203 C506.33816429 169.80773078 503.4989877 171.45492959 500.66796875 173.12109375 C493.97314016 177.059583 487.30924604 180.92779253 480.3125 184.3125 C467.31267093 190.64418145 454.88692692 198.28847309 442.625 205.9375 C433.0605168 211.89154915 423.22836511 217.40296816 413.45947266 223.01220703 C406.89231569 226.78565742 400.33409498 230.57461 393.77514648 234.36230469 C388.23789836 237.55891145 382.69676862 240.74844431 377.1484375 243.92578125 C363.34050755 251.82462348 363.34050755 251.82462348 349.8125 260.1875 C340.7874476 265.96868521 331.24320251 270.77562474 321.69580078 275.62646484 C319.27800922 276.85835176 316.86996792 278.10690539 314.46484375 279.36328125 C293.14390391 290.41165733 271.61830599 295.94328004 248 289 C232.04627516 283.60301502 215.50608028 272.51940475 204.8515625 259.296875 C203.30659218 257.38032954 201.72232371 255.54057946 200.0859375 253.703125 C191.71124408 244.27457125 184.21869751 234.40815107 176.9609375 224.10546875 C165.81733414 208.44480806 151.08535164 188.17880209 133.875 179.07421875 C131.66113769 177.80586014 129.67780187 176.32782841 127.625 174.8125 C96.06673172 152.61715168 55.86425044 146.10610274 18.16040039 152.52319336 C15.76470424 152.98010061 13.38295439 153.48080094 11 154 C9.63415771 154.29003906 9.63415771 154.29003906 8.24072266 154.5859375 C-16.40342367 159.94749762 -39.33479076 169.08032429 -62 180 C-62.78793945 180.37543945 -63.57587891 180.75087891 -64.38769531 181.13769531 C-72.20892963 184.87408559 -79.69974814 188.9252272 -87.03515625 193.55859375 C-92.37569869 196.89124117 -97.85463374 199.98992596 -103.3125 203.125 C-112.87089078 208.6188542 -122.40943928 214.14423046 -131.92529297 219.71142578 C-137.25975709 222.82885522 -142.60453878 225.92721959 -147.96484375 229 C-148.54835602 229.33491455 -149.13186829 229.6698291 -149.73306274 230.01489258 C-152.54846702 231.63081992 -155.36539838 233.24392523 -158.18554688 234.8515625 C-162.70292472 237.44270532 -167.16059072 240.05236185 -171.46875 242.98046875 C-176.9880691 246.73040109 -182.77196901 250.00308068 -188.5625 253.3125 C-189.72225713 253.97762777 -190.88192426 254.64291247 -192.04150391 255.30834961 C-195.35888595 257.20929774 -198.67905082 259.10529245 -202 261 C-202.84771973 261.48533203 -203.69543945 261.97066406 -204.56884766 262.47070312 C-210.94908518 266.12127268 -217.32594759 269.71625912 -223.9375 272.9375 C-230.50686745 276.15019066 -236.74464343 279.88772721 -243.01953125 283.6328125 C-244.34612517 284.42225994 -245.67294347 285.21133047 -247 286 C-247.65919434 286.39413086 -248.31838867 286.78826172 -248.99755859 287.19433594 C-253.77113566 290 -253.77113566 290 -256 290 C-256 290.66 -256 291.32 -256 292 C-278.39678428 303.29650071 -302.72367128 311.43609392 -327.875 304.25 C-342.69289115 299.13602049 -351.64206796 289.35027846 -360.94482422 277.19360352 C-363.80761838 273.46300258 -366.79212881 269.94605436 -370 266.5 C-374.12955701 262.04579228 -377.89480732 257.41694757 -381.60888672 252.61987305 C-385.94770907 247.02635111 -390.43171972 241.56014143 -394.95043945 236.11132812 C-397.45068016 233.09636223 -399.9374013 230.07936067 -402.36328125 227.00390625 C-410.56740976 216.60583 -420.12483217 206.99545708 -430.26171875 198.46484375 C-431.47508289 197.44234588 -432.663702 196.39007343 -433.83203125 195.31640625 C-461.42277471 170.08576712 -499.02215022 162.89573852 -535.21923828 163.82080078 C-558.70886884 164.93415406 -581.84479904 170.86615617 -603.67578125 179.38671875 C-606.65053756 180.54074243 -609.61529428 181.46797311 -612.69140625 182.3125 C-619.32073618 184.25960708 -625.4336363 187.28561789 -631.625 190.3125 C-632.25528107 190.61823944 -632.88556213 190.92397888 -633.53494263 191.23898315 C-645.41524859 197.01660834 -656.83497342 203.45046314 -668.14453125 210.27978516 C-671.95757021 212.57686728 -675.79268241 214.83564555 -679.62817383 217.0949707 C-682.39342777 218.72403618 -685.15613671 220.35732854 -687.91796875 221.9921875 C-688.78212402 222.50362305 -689.6462793 223.01505859 -690.53662109 223.54199219 C-692.0864389 224.45928772 -693.63624526 225.37660262 -695.18603516 226.29394531 C-705.3821192 232.3247483 -715.63271556 238.25801802 -725.89746094 244.17114258 C-733.609595 248.61566092 -741.31050698 253.07892201 -749 257.5625 C-750.4396814 258.40119629 -750.4396814 258.40119629 -751.90844727 259.25683594 C-756.3826647 261.8683356 -760.83230398 264.50875507 -765.25 267.21484375 C-768.0444475 268.90213563 -770.77660046 270.42368028 -773.79296875 271.671875 C-776.89625081 272.95703444 -779.49149261 274.43737007 -782.3125 276.25 C-792.26424222 282.52154415 -802.52993527 288.27099301 -812.73339844 294.11914062 C-815.76052784 295.86211558 -818.77667683 297.62232636 -821.7890625 299.390625 C-849.91590269 315.84250774 -877.32429313 324.54221455 -910 316 C-927.99136579 311.25629584 -948.13043654 301.9128323 -960.125 287.265625 C-962.48290236 284.41649298 -964.98751051 281.71192047 -967.5 279 C-974.10285692 271.8533784 -980.45794353 264.52585421 -986.625 257 C-987.22691162 256.26724854 -987.82882324 255.53449707 -988.44897461 254.77954102 C-993.03373294 249.19259731 -997.60406033 243.59380933 -1002.15014648 237.9753418 C-1004.9577175 234.50559562 -1007.78154164 231.05115555 -1010.6328125 227.6171875 C-1011.22763428 226.89668213 -1011.82245605 226.17617676 -1012.43530273 225.43383789 C-1013.57300579 224.05645153 -1014.71548649 222.68299243 -1015.86352539 221.31420898 C-1018.58221131 218.01139202 -1020.70569193 215.15290259 -1022 211 C-1011.58158922 204.3305601 -1000.79111072 198.35159681 -989.984375 192.33984375 C-985.40130166 189.7894932 -980.84877392 187.1949757 -976.3125 184.5625 C-970.80463067 181.38904703 -965.18717973 178.56302631 -959.44921875 175.8359375 C-956.74204819 174.39497469 -954.32751519 172.91463975 -951.8046875 171.1953125 C-946.53461638 167.61687599 -941.01550658 164.56807914 -935.4375 161.5 C-926.89903849 156.76370379 -918.41757989 151.94794559 -910 147 C-900.6206324 141.4877963 -891.16390051 136.1301141 -881.63476562 130.88085938 C-875.90760781 127.706726 -870.36290488 124.34947488 -864.8605957 120.80151367 C-859.59296817 117.48412666 -854.16540608 114.44270776 -848.75 111.375 C-847.52122401 110.67668539 -846.29254725 109.97819614 -845.06396484 109.27954102 C-842.57642035 107.86559592 -840.08786816 106.45344646 -837.59863281 105.04248047 C-834.24628124 103.14140945 -830.90004955 101.22975331 -827.5546875 99.31640625 C-818.54474494 94.17557628 -809.54156794 89.19886054 -800.21875 84.6484375 C-794.69935833 81.82175876 -789.45350491 78.54710714 -784.16552734 75.31591797 C-768.65818624 65.89262952 -752.90676707 56.87999284 -737.12844849 47.92074585 C-733.38039115 45.79088949 -729.6443634 43.64124646 -725.9140625 41.48046875 C-690.23734555 20.8972844 -654.18736799 7.46648729 -612.5625 7.6875 C-611.8432132 7.68932281 -611.12392639 7.69114563 -610.38284302 7.69302368 C-593.67050045 7.7641637 -578.76551607 10.4562652 -563 16 C-561.97519531 16.35707031 -560.95039062 16.71414063 -559.89453125 17.08203125 C-545.19939345 22.69434434 -524.94202801 34.35595883 -516.65625 48.25390625 C-514.31501383 52.13572 -511.41018305 55.47102171 -508.5 58.9375 C-503.45028198 65.00543878 -498.48315748 71.12259949 -493.640625 77.35717773 C-491.54694651 80.04899111 -489.41660947 82.68660846 -487.19140625 85.26953125 C-485 88 -485 88 -485 90 C-484.44183594 90.20367188 -483.88367187 90.40734375 -483.30859375 90.6171875 C-480.13062606 92.52074175 -478.24762765 95.20657051 -476.0625 98.125 C-475.08696236 99.3927164 -474.11035552 100.65961057 -473.1328125 101.92578125 C-472.62266602 102.5904541 -472.11251953 103.25512695 -471.58691406 103.93994141 C-453.26625389 127.72297687 -433.80664856 144.02559914 -403.1796875 148.56640625 C-390.91193904 150.01224803 -378.07034446 149.495442 -366 147 C-364.15535156 146.64421875 -364.15535156 146.64421875 -362.2734375 146.28125 C-349.01767734 143.28579251 -337.89762915 135.98062226 -326.38623047 129.03173828 C-321.00678314 125.80406988 -315.56519457 122.68628883 -310.125 119.5625 C-307.98170936 118.32562735 -305.83848087 117.088647 -303.6953125 115.8515625 C-298.9668171 113.12764508 -294.23187191 110.41531443 -289.4921875 107.7109375 C-288.86482697 107.3529155 -288.23746643 106.99489349 -287.59109497 106.62602234 C-284.56582778 104.89999059 -281.53969698 103.17549909 -278.51220703 101.45336914 C-273.61593239 98.66294562 -268.74180615 95.8564276 -263.9375 92.91015625 C-259.41930222 90.17365426 -254.74714554 87.85131865 -250.00878906 85.52294922 C-245.17512701 83.07630982 -240.53348476 80.32442391 -235.875 77.5625 C-233.76597714 76.32231764 -231.65658939 75.08275562 -229.546875 73.84375 C-228.46857422 73.20953125 -227.39027344 72.5753125 -226.27929688 71.921875 C-220.91005047 68.77515763 -215.51778023 65.66865665 -210.125 62.5625 C-209.05822021 61.94713379 -207.99144043 61.33176758 -206.89233398 60.69775391 C-201.82568397 57.77592874 -196.75644298 54.85875268 -191.6807251 51.95271301 C-189.90815723 50.93749165 -188.13633769 49.92097661 -186.36474609 48.90405273 C-184.14911864 47.6327264 -181.93208926 46.36383879 -179.71337891 45.09790039 C-175.24027096 42.5288423 -170.83354537 39.93927301 -166.57421875 37.02734375 C-160.89640843 33.17174112 -154.88632545 29.92610905 -148.875 26.625 C-147.65719778 25.95496768 -146.43942458 25.28488261 -145.22167969 24.61474609 C-142.85375512 23.31253049 -140.4843795 22.01306778 -138.11425781 20.71484375 C-135.6347657 19.34952919 -133.16841537 17.96677307 -130.7109375 16.5625 C-115.86574528 8.2518732 -99.78852074 1.85531354 -83 -1 C-81.50760668 -1.34510532 -80.01682258 -1.69721258 -78.52734375 -2.0546875 C-52.83480375 -7.90347736 -25.3525334 -6.7603344 0 0 Z " fill="#FCB613" transform="translate(2236,702)"/>
<path d="M0 0 C1.73830078 0.51046875 1.73830078 0.51046875 3.51171875 1.03125 C16.44918281 5.24410958 27.82723954 11.96744387 38 21 C38.68449219 21.60199219 39.36898437 22.20398437 40.07421875 22.82421875 C48.29813329 30.53110919 54.16121207 40.44561976 60 50 C60.66 50.99 61.32 51.98 62 53 C62.36609375 52.50113281 62.7321875 52.00226563 63.109375 51.48828125 C83.79234213 24.05872723 111.56059626 3.36201743 145.90551758 -2.60742188 C151.81994669 -3.35774945 157.73342059 -3.33882219 163.6875 -3.3125 C164.68103485 -3.30926727 164.68103485 -3.30926727 165.69464111 -3.30596924 C191.43312331 -3.17160316 215.47994156 4.09536066 234.375 22.203125 C251.77773388 40.74532359 262.80952041 62.54064012 268.1875 87.375 C268.34234863 88.08027832 268.49719727 88.78555664 268.65673828 89.51220703 C271.75619947 104.69922957 272.28689279 119.76265236 272.22705078 135.20727539 C272.22648522 137.27872207 272.22680604 139.35016915 272.22793579 141.4216156 C272.22850467 146.99071523 272.21682649 152.55972697 272.20278788 158.12880635 C272.19020217 163.96903988 272.18910388 169.80927588 272.18673706 175.64952087 C272.18054517 186.68458936 272.16416566 197.71961775 272.14403808 208.75466865 C272.12160738 221.32797403 272.11066769 233.90128143 272.10064721 246.47460186 C272.07979717 272.31642852 272.04314988 298.15820029 272 324 C245.93 324 219.86 324 193 324 C192.98541748 318.3595459 192.97083496 312.7190918 192.95581055 306.90771484 C192.90533504 288.21212102 192.83886446 269.51660887 192.76428509 250.82109642 C192.71948125 239.49288239 192.6800318 228.16469872 192.65356445 216.83642578 C192.63045875 206.95296173 192.59692264 197.06959502 192.55129844 187.18620837 C192.52753432 181.96188687 192.50869621 176.73766075 192.50238609 171.51328659 C193.90455995 121.4307965 193.90455995 121.4307965 172.73046875 77.6171875 C162.08917494 67.67250209 149.45855037 63.23916855 135.06738281 63.54663086 C120.3118781 64.25322772 106.56802513 70.70962413 96 81 C80.07661178 98.98800905 77.54648318 118.38882861 77.56762695 141.33764648 C77.55859112 143.33983965 77.5482595 145.34202733 77.53674316 147.34420776 C77.50936086 152.73365845 77.49991436 158.12300365 77.49388909 163.51251483 C77.48445618 169.1619546 77.45824909 174.81131707 77.43388367 180.46070862 C77.39034957 191.13810775 77.3617224 201.81549176 77.33856028 212.49295241 C77.31143816 224.65756348 77.26753116 236.82209629 77.22227156 248.9866513 C77.12961286 273.99106967 77.06006155 298.99548062 77 324 C50.6 324 24.2 324 -3 324 C-3.02187378 315.197677 -3.02187378 315.197677 -3.04418945 306.2175293 C-3.09461911 286.7875003 -3.16108104 267.35755028 -3.23571491 247.92759991 C-3.28055849 236.15201911 -3.31999917 224.37646778 -3.34643555 212.60083008 C-3.36950864 202.32955491 -3.40300955 192.05837391 -3.44870156 181.78717357 C-3.47250888 176.35559112 -3.4913191 170.9241012 -3.49761391 165.49246788 C-3.5037218 160.36491388 -3.52392383 155.23759627 -3.55427551 150.11013031 C-3.56296535 148.24272373 -3.56679748 146.37528613 -3.56500816 144.50786018 C-3.54853306 119.34710782 -6.64059683 94.34964911 -24.58984375 75.26171875 C-34.34933334 66.10329984 -46.04168433 63.50055889 -59.13818359 63.6484375 C-74.57421965 64.18109726 -87.3109699 71.14366334 -98 82 C-98.64839844 82.6496875 -99.29679687 83.299375 -99.96484375 83.96875 C-111.5596052 96.350027 -117.13687966 114.48760246 -117.15821838 131.23200989 C-117.16315636 132.05707604 -117.16809434 132.88214218 -117.17318195 133.73221034 C-117.18852922 136.49440451 -117.19691007 139.25657548 -117.20532227 142.01879883 C-117.21490297 143.99980879 -117.22491316 145.98081672 -117.23532104 147.96182251 C-117.26235535 153.33944107 -117.28337293 158.71706839 -117.30332303 164.09471726 C-117.32519164 169.71482836 -117.35257606 175.33491249 -117.37937927 180.95500183 C-117.42929429 191.59731874 -117.47423756 202.23965062 -117.51740164 212.88199681 C-117.56678417 224.99798228 -117.62169854 237.1139407 -117.67708123 249.2299 C-117.79088301 274.15324267 -117.89699573 299.07661021 -118 324 C-144.73 324 -171.46 324 -199 324 C-199.12816991 289.29936034 -199.25577533 254.59871881 -199.38218227 219.8980727 C-199.39719773 215.77628672 -199.41221985 211.65450078 -199.42724609 207.53271484 C-199.43023671 206.71234098 -199.43322732 205.89196711 -199.43630856 205.04673342 C-199.48438108 191.86399203 -199.53298947 178.68125267 -199.58180541 165.49851401 C-199.63209942 151.91330418 -199.68179553 138.32809226 -199.73096704 124.74287832 C-199.75851292 117.13696032 -199.78631425 109.53104346 -199.81480408 101.92512894 C-199.93693666 69.28326058 -200.02634026 36.6421712 -200 4 C-176.9 4 -153.8 4 -130 4 C-128.5625 24.1875 -128.5625 24.1875 -128.11547852 30.53588867 C-127.9952062 32.20493353 -127.87469796 33.8739614 -127.75390625 35.54296875 C-127.66441711 36.83249451 -127.66441711 36.83249451 -127.57312012 38.14807129 C-127.27906757 42.17185599 -126.93422648 46.06214725 -126 50 C-125.4121875 48.9171875 -125.4121875 48.9171875 -124.8125 47.8125 C-123.221157 45.34317465 -121.61257525 43.63221408 -119.5 41.6328125 C-117.53135532 39.48986074 -115.96612615 37.1437572 -114.3125 34.75 C-98.54204905 12.85310993 -72.43957421 2.307962 -46.78515625 -2.6171875 C-31.4700902 -4.16607963 -14.83838445 -4.44972109 0 0 Z " fill="#183C6E" transform="translate(435,1105)"/>
<path d="M0 0 C26.73 0 53.46 0 81 0 C81.01981934 11.68293457 81.03963867 23.36586914 81.06005859 35.40283203 C81.12519326 73.00339542 81.19974514 110.60393505 81.28005161 148.20446897 C81.29256693 154.06827864 81.30500025 159.93208849 81.31738281 165.79589844 C81.3210818 167.54659054 81.3210818 167.54659054 81.32485552 169.33265017 C81.36432268 188.10405431 81.39718366 206.87546428 81.42749982 225.64688517 C81.45887678 244.98167529 81.49759255 264.31644121 81.54279006 283.65120399 C81.56790247 294.48019627 81.58984418 305.30917389 81.60334396 316.13818741 C81.66021391 360.484604 81.97076404 404.6914548 84 449 C59.58 449 35.16 449 10 449 C9.32961974 445.64809868 8.83335092 442.74664212 8.61108398 439.39331055 C8.55109726 438.51277512 8.49111053 437.63223969 8.42930603 436.72502136 C8.36884598 435.7883815 8.30838593 434.85174164 8.24609375 433.88671875 C8.18092056 432.91716751 8.11574738 431.94761627 8.04859924 430.94868469 C7.84181089 427.86181996 7.63959499 424.7746752 7.4375 421.6875 C7.29782779 419.59047467 7.15785726 417.49346919 7.01757812 415.39648438 C6.67492753 410.26454651 6.33637653 405.13235276 6 400 C5.73454376 400.54459869 5.46908752 401.08919739 5.19558716 401.65029907 C4.84245453 402.36720917 4.4893219 403.08411926 4.12548828 403.82275391 C3.77753204 404.5323526 3.42957581 405.24195129 3.07107544 405.97305298 C-9.14027479 429.08231221 -35.75770903 443.96121311 -59.7265625 451.75 C-91.18493233 461.31494813 -127.75422657 458.1743379 -156.95410156 442.98339844 C-165.15924893 438.51261927 -172.24582089 433.48721551 -179 427 C-180.34868748 425.82700361 -181.70279717 424.66020975 -183.0625 423.5 C-184.37941567 422.33831997 -185.69199294 421.17170171 -187 420 C-187.61230469 419.45472656 -188.22460938 418.90945313 -188.85546875 418.34765625 C-216.34214088 392.44784354 -230.33521295 352.81832575 -234 316 C-234.16628906 314.515 -234.16628906 314.515 -234.3359375 313 C-238.90987302 265.52996654 -229.39256152 212.19224261 -198.86328125 174.3515625 C-196.64680896 171.81962188 -194.35612103 169.40281245 -192 167 C-191.17048828 166.14994385 -191.17048828 166.14994385 -190.32421875 165.28271484 C-177.71753002 152.39595246 -177.71753002 152.39595246 -173 149 C-172.34 149 -171.68 149 -171 149 C-170.67 148.01 -170.34 147.02 -170 146 C-167.87817484 144.46975056 -165.81282451 143.12829303 -163.5625 141.8125 C-162.89581299 141.42030273 -162.22912598 141.02810547 -161.54223633 140.62402344 C-139.65273097 128.04634857 -116.6117928 121.57348052 -91.3125 121.6875 C-89.33685059 121.69595947 -89.33685059 121.69595947 -87.32128906 121.70458984 C-55.95431547 122.09388259 -29.592946 132.28713834 -7.2265625 154.5078125 C-5 157 -5 157 -1 163 C-0.67 109.21 -0.34 55.42 0 0 Z M-127.53125 209.84765625 C-149.22125938 237.44299353 -154.91231082 273.49458499 -151.50390625 307.734375 C-148.42767705 333.38275473 -138.7251554 357.95312911 -118.609375 375.0078125 C-102.38668049 387.39340262 -82.05531237 392.36351592 -61.82910156 389.71582031 C-42.97686935 386.4004584 -26.58661864 376.23914291 -15 361 C-2.42559901 342.93368922 0.14537886 323.22249939 0.16796875 301.6484375 C0.17129715 300.50952057 0.17462555 299.37060364 0.17805481 298.19717407 C0.18308341 295.80218912 0.18546441 293.40719726 0.18530273 291.01220703 C0.18748178 287.405152 0.20566142 283.7984071 0.22460938 280.19140625 C0.29699858 251.30376105 -1.99438316 225.25487083 -23.3828125 203.5859375 C-38.87376371 189.0662058 -56.50838187 184.43861609 -77.3359375 184.7265625 C-97.07854405 185.38968297 -114.61086043 195.31221798 -127.53125 209.84765625 Z " fill="#183B6E" transform="translate(1626,980)"/>
<path d="M0 0 C1.08796875 0.54527344 2.1759375 1.09054687 3.296875 1.65234375 C16.28544887 8.67923094 33.06396303 21.53321079 38 36 C38.66 36 39.32 36 40 36 C55.89603537 66.33964112 61.18069169 96.02759478 61.11352539 130.18066406 C61.11324289 132.20211282 61.11340248 134.22356168 61.1139679 136.24501038 C61.11425341 141.70074644 61.10839655 147.15646028 61.10139394 152.6121912 C61.09511934 158.32566781 61.09455336 164.03914499 61.09336853 169.75262451 C61.09026729 180.55764139 61.08207023 191.36264807 61.07201904 202.16766047 C61.06082034 214.47483745 61.055338 226.78201492 61.05032361 239.08919573 C61.03988656 264.39280409 61.02155615 289.6963985 61 315 C34.27 315 7.54 315 -20 315 C-20.04898437 301.97273438 -20.09796875 288.94546875 -20.1484375 275.5234375 C-20.18385005 267.23827486 -20.21974702 258.95311893 -20.2578125 250.66796875 C-20.31805574 237.53631159 -20.37640054 224.40466694 -20.421875 211.27294922 C-20.45501422 201.70593055 -20.494963 192.13896754 -20.54279006 182.57201064 C-20.56783924 177.51538037 -20.58968169 172.45878597 -20.60334396 167.40211105 C-18.93164101 115.02456991 -18.93164101 115.02456991 -41.28515625 69.5546875 C-46.95107318 64.11325223 -52.60324348 60.60881454 -60 58 C-60.90105469 57.68160156 -61.80210937 57.36320312 -62.73046875 57.03515625 C-78.37609933 52.35225716 -95.06418304 54.14665916 -109.5 61.5 C-125.9621138 70.44757412 -137.75568845 85.35398765 -143.70703125 103.109375 C-146.8500083 114.41504783 -146.16865647 126.50946409 -146.20532227 138.12744141 C-146.21491389 140.05992842 -146.2249247 141.99241339 -146.23532104 143.92489624 C-146.26223707 149.14726488 -146.28331823 154.36964242 -146.30332303 159.59204149 C-146.32526513 165.0586409 -146.3526134 170.52521324 -146.37937927 175.99179077 C-146.42919537 186.33290535 -146.4741751 196.67403504 -146.51740164 207.01517904 C-146.56686902 218.79271382 -146.62175177 230.57022144 -146.67708123 242.34772992 C-146.79073104 266.56512914 -146.89689201 290.78255345 -147 315 C-174.06 315 -201.12 315 -229 315 C-229.02505615 306.73976807 -229.0501123 298.47953613 -229.07592773 289.96899414 C-229.15702024 263.45003084 -229.24266137 236.93108407 -229.33111694 210.41214437 C-229.34488426 206.28347071 -229.35861169 202.15479692 -229.37231445 198.02612305 C-229.37504276 197.20428052 -229.37777106 196.38243798 -229.38058204 195.53569113 C-229.42449256 182.28004201 -229.4651822 169.02438489 -229.50465261 155.76872189 C-229.54531483 142.13724948 -229.58950538 128.5057917 -229.63687855 114.87434095 C-229.66593223 106.48305833 -229.69232999 98.0917764 -229.71517897 89.70047455 C-229.73117568 83.92313792 -229.75064157 78.14581902 -229.77266841 72.36850227 C-229.78522326 69.05004087 -229.79588991 65.73160462 -229.80341911 62.41312599 C-229.83490053 48.93730369 -229.97912256 35.49208771 -230.65474075 22.03098875 C-231.08689209 12.98855172 -231 4.09911621 -231 -5 C-207.57 -5 -184.14 -5 -160 -5 C-159.01 5.23 -158.02 15.46 -157 26 C-156.01 33.425 -156.01 33.425 -155 41 C-154.34515625 40.12859375 -153.6903125 39.2571875 -153.015625 38.359375 C-132.32115346 11.18660072 -105.75347542 -6.6758228 -71.45849609 -11.6184082 C-46.03531744 -14.42346455 -22.71791761 -11.63753187 0 0 Z " fill="#183B6E" transform="translate(1297,1114)"/>
<path d="M0 0 C2.65259054 -0.00963265 5.30437973 -0.04070989 7.95678711 -0.07226562 C43.99252511 -0.29357968 77.36821989 9.76564638 103.81420898 34.99023438 C135.46376322 67.99619808 137.03399929 112.67229002 137.09056282 155.85661316 C137.09888661 160.22768483 137.11982702 164.59869513 137.13977051 168.96972656 C137.18834005 180.05986667 137.22086919 191.15003295 137.25170898 202.24023438 C137.28501411 214.19514999 137.32144911 226.15001633 137.37583971 238.10485744 C137.39506083 242.42809754 137.41048543 246.75127373 137.41618347 251.07455444 C137.45133947 276.7172816 138.56334488 301.73332154 141.75170898 327.24023438 C117.00170898 327.24023438 92.25170898 327.24023438 66.75170898 327.24023438 C61.6122988 298.11690998 61.6122988 298.11690998 61.75170898 292.24023438 C59.11285273 294.16588624 57.06663321 295.68036908 55.45092773 298.55273438 C53.38420248 301.82148604 50.82297506 304.11101964 47.87670898 306.55273438 C47.01505127 307.27058105 47.01505127 307.27058105 46.13598633 308.00292969 C20.1928231 329.15647702 -13.43451652 337.69095873 -46.49829102 334.55273438 C-73.18790042 331.65185774 -97.50291092 319.84191925 -114.97094727 299.20507812 C-117.67698642 295.75437955 -119.82776201 292.45482485 -121.40844727 288.33007812 C-122.53528781 285.52607956 -123.87509825 282.83794528 -125.18579102 280.11523438 C-136.96627506 254.53726034 -137.32294449 225.36680241 -127.74438477 198.99023438 C-127.25117423 197.73805908 -126.75222539 196.48813251 -126.24829102 195.24023438 C-125.83667725 194.20769531 -125.83667725 194.20769531 -125.41674805 193.15429688 C-120.95785854 182.23014082 -115.34130696 173.78763816 -107.24829102 165.24023438 C-106.67723633 164.59054687 -106.10618164 163.94085937 -105.51782227 163.27148438 C-90.8479428 147.28169288 -70.44510137 138.66862986 -50.24829102 132.24023438 C-49.33966309 131.9422998 -48.43103516 131.64436523 -47.49487305 131.33740234 C-14.2576623 120.51289037 19.9871101 117.68577506 54.75170898 118.24023438 C54.32245927 101.7141202 51.64410213 86.92134641 40.37670898 74.11523438 C31.35910477 65.61489235 18.77597165 61.14052657 6.75170898 59.24023438 C5.64182617 59.046875 5.64182617 59.046875 4.50952148 58.84960938 C-27.51970164 54.25673964 -63.30840817 63.89008176 -91.03735352 79.51757812 C-94.24829102 81.24023438 -94.24829102 81.24023438 -96.24829102 81.24023438 C-96.48427002 80.47694824 -96.72024902 79.71366211 -96.96337891 78.92724609 C-98.07827104 75.32295948 -99.19435878 71.71904414 -100.31079102 68.11523438 C-100.51259979 67.46340179 -100.71440857 66.81156921 -100.92233276 66.13998413 C-103.96054105 56.33039456 -107.04167509 46.53585442 -110.21533203 36.76904297 C-110.62029907 35.51148193 -110.62029907 35.51148193 -111.03344727 34.22851562 C-111.26942627 33.50188721 -111.50540527 32.77525879 -111.74853516 32.02661133 C-112.24829102 30.24023438 -112.24829102 30.24023438 -112.24829102 28.24023438 C-86.12979009 13.52218766 -57.99736658 4.9842007 -28.24829102 1.24023438 C-27.50603271 1.14597168 -26.76377441 1.05170898 -25.99902344 0.95458984 C-17.35478432 0.01549167 -8.68518466 0.01896156 0 0 Z M-42.62329102 198.61523438 C-52.3273829 210.00958817 -54.33516983 223.79873566 -53.24829102 238.24023438 C-51.49213746 250.90224912 -45.4314191 260.85043011 -35.41235352 268.67382812 C-23.84889485 276.62665582 -8.632303 276.89452262 4.87866211 274.93115234 C22.94219392 271.33406552 38.48919315 260.38491794 48.75170898 245.24023438 C54.92466572 234.11591656 55.90557631 225.21482872 55.84936523 212.74414062 C55.84795029 211.55545883 55.84653534 210.36677704 55.84507751 209.14207458 C55.83950013 205.36226843 55.82695173 201.58252249 55.81420898 197.80273438 C55.80919106 195.23307377 55.80462867 192.66341224 55.80053711 190.09375 C55.7895381 183.8092244 55.77282249 177.52473369 55.75170898 171.24023438 C51.50173017 171.20523168 47.25178932 171.18447372 43.00170898 171.16601562 C41.81448242 171.15606567 40.62725586 171.14611572 39.40405273 171.13586426 C9.78900895 171.0397772 -21.45110307 176.53453837 -42.62329102 198.61523438 Z " fill="#183B6E" transform="translate(877.248291015625,1101.759765625)"/>
<path d="M0 0 C0 23.43 0 46.86 0 71 C-6.435 70.505 -6.435 70.505 -13 70 C-34.82103662 69.01909857 -55.52955192 72.03925282 -72.4375 87.125 C-87.61410104 101.52363869 -96.35303264 123.93833766 -97.1386652 144.65684414 C-97.14511775 145.97039914 -97.1515703 147.28395414 -97.15821838 148.63731384 C-97.16315636 149.37425069 -97.16809434 150.11118754 -97.17318195 150.8704558 C-97.18845382 153.32240787 -97.19688937 155.77433397 -97.20532227 158.22631836 C-97.21490891 159.99087754 -97.22491945 161.75543445 -97.23532104 163.51998901 C-97.26229095 168.29833323 -97.28334323 173.07668724 -97.30332303 177.85506511 C-97.32523155 182.85322896 -97.35259638 187.85136288 -97.37937927 192.84950256 C-97.42924047 202.30885791 -97.47420363 211.76822993 -97.51740164 221.2276178 C-97.57607593 234.01386399 -97.6423274 246.80007077 -97.70815182 259.58628178 C-97.81162366 279.72416128 -97.90498118 299.86207473 -98 320 C-125.06 320 -152.12 320 -180 320 C-180.02505615 311.7094751 -180.0501123 303.4189502 -180.07592773 294.87719727 C-180.15701904 268.26143888 -180.24266025 241.64569696 -180.33111694 215.0299621 C-180.34488427 210.88626716 -180.3586117 206.7425721 -180.37231445 202.59887695 C-180.37504276 201.77404381 -180.37777106 200.94921066 -180.38058204 200.09938257 C-180.42449339 186.79523447 -180.46518276 173.49107841 -180.50465261 160.18691648 C-180.54531382 146.50572357 -180.58950425 132.82454523 -180.63687855 119.14337391 C-180.66593324 110.72138179 -180.69233086 102.29939039 -180.71517897 93.87737911 C-180.73117481 88.07901774 -180.75064049 82.28067404 -180.77266841 76.48233248 C-180.78522412 73.15171949 -180.79589052 69.82113157 -180.80341911 66.4905014 C-180.8349153 52.95798405 -180.98206168 39.45635059 -181.65474075 25.93840557 C-182.0682614 17.26013469 -182 8.73100978 -182 0 C-158.57 0 -135.14 0 -111 0 C-109.86178467 2.27643065 -109.81198605 3.70967732 -109.70288086 6.2434082 C-109.6429319 7.56167351 -109.6429319 7.56167351 -109.58177185 8.90657043 C-109.54318558 9.86166 -109.5045993 10.81674957 -109.46484375 11.80078125 C-109.40037804 13.28181587 -109.40037804 13.28181587 -109.33460999 14.79277039 C-109.2442533 16.89178367 -109.15613898 18.99089448 -109.07006836 21.09008789 C-108.93959841 24.26149269 -108.80146518 27.43249028 -108.66210938 30.60351562 C-108.22710043 40.74021466 -107.83368062 50.85205375 -108 61 C-107.34 61 -106.68 61 -106 61 C-105.82984375 60.38253906 -105.6596875 59.76507812 -105.484375 59.12890625 C-99.26163116 37.38240251 -84.68097565 20.93387536 -65 10 C-50.53360943 2.72469803 -35.06245858 0.20363456 -19.0625 -0.625 C-18.22009766 -0.6765625 -17.37769531 -0.728125 -16.50976562 -0.78125 C-15.67251953 -0.82507812 -14.83527344 -0.86890625 -13.97265625 -0.9140625 C-13.23281494 -0.9548291 -12.49297363 -0.9955957 -11.73071289 -1.03759766 C-7.80558093 -0.98355471 -3.90149456 -0.4334994 0 0 Z " fill="#183C6E" transform="translate(2080,1109)"/>
<path d="M0 0 C27.06 0 54.12 0 82 0 C82 105.6 82 211.2 82 320 C54.94 320 27.88 320 0 320 C0 214.4 0 108.8 0 0 Z " fill="#183C6F" transform="translate(2117,1109)"/>
<path d="M0 0 C27.06 0 54.12 0 82 0 C82 105.6 82 211.2 82 320 C54.94 320 27.88 320 0 320 C0 214.4 0 108.8 0 0 Z " fill="#183C6F" transform="translate(1763,1109)"/>
</svg>
