<?xml version="1.0" encoding="UTF-8"?>
<svg version="1.1" xmlns="http://www.w3.org/2000/svg" width="3000" height="2134">
<path d="M0 0 C86.46 0 172.92 0 262 0 C262 0.66 262 1.32 262 2 C267.61 2 273.22 2 279 2 C279 2.66 279 3.32 279 4 C283.29 4 287.58 4 292 4 C292 4.66 292 5.32 292 6 C294.97 6 297.94 6 301 6 C301 6.99 301 7.98 301 9 C303.64 9 306.28 9 309 9 C309 9.66 309 10.32 309 11 C311.97 11 314.94 11 318 11 C318 11.66 318 12.32 318 13 C319.98 13 321.96 13 324 13 C324 13.66 324 14.32 324 15 C325.65 15 327.3 15 329 15 C329 15.66 329 16.32 329 17 C330.98 17 332.96 17 335 17 C335 17.66 335 18.32 335 19 C336.32 19 337.64 19 339 19 C339 19.66 339 20.32 339 21 C340.65 21 342.3 21 344 21 C344 21.99 344 22.98 344 24 C345.32 24 346.64 24 348 24 C348 24.66 348 25.32 348 26 C348.66 26 349.32 26 350 26 C350 26.66 350 27.32 350 28 C351.32 28 352.64 28 354 28 C354 28.66 354 29.32 354 30 C355.65 30 357.3 30 359 30 C359 30.66 359 31.32 359 32 C359.66 32 360.32 32 361 32 C361 32.66 361 33.32 361 34 C361.66 34 362.32 34 363 34 C363 34.66 363 35.32 363 36 C364.32 36 365.64 36 367 36 C367 36.99 367 37.98 367 39 C367.99 39 368.98 39 370 39 C370 39.66 370 40.32 370 41 C370.66 41 371.32 41 372 41 C372 41.66 372 42.32 372 43 C372.66 43 373.32 43 374 43 C374 43.66 374 44.32 374 45 C374.66 45 375.32 45 376 45 C376 45.66 376 46.32 376 47 C376.66 47 377.32 47 378 47 C378 47.66 378 48.32 378 49 C378.66 49 379.32 49 380 49 C380 50.65 380 52.3 380 54 C380.66 54 381.32 54 382 54 C382 54.66 382 55.32 382 56 C382.99 56 383.98 56 385 56 C385 56.66 385 57.32 385 58 C385.66 58 386.32 58 387 58 C387 58.66 387 59.32 387 60 C387.66 60 388.32 60 389 60 C389 61.32 389 62.64 389 64 C389.66 64 390.32 64 391 64 C391 64.99 391 65.98 391 67 C391.66 67 392.32 67 393 67 C393 68.32 393 69.64 393 71 C393.66 71 394.32 71 395 71 C395 72.32 395 73.64 395 75 C395.66 75 396.32 75 397 75 C397 76.32 397 77.64 397 79 C397.99 79 398.98 79 400 79 C400 80.65 400 82.3 400 84 C400.66 84 401.32 84 402 84 C402 85.98 402 87.96 402 90 C402.66 90 403.32 90 404 90 C404 92.31 404 94.62 404 97 C404.66 97 405.32 97 406 97 C406 99.64 406 102.28 406 105 C406.66 105 407.32 105 408 105 C408 109.95 408 114.9 408 120 C408.66 120 409.32 120 410 120 C410 129.9 410 139.8 410 150 C409.34 150 408.68 150 408 150 C408 156.6 408 163.2 408 170 C408.66 170 409.32 170 410 170 C410 170.66 410 171.32 410 172 C411.65 172 413.3 172 415 172 C415 172.66 415 173.32 415 174 C415.66 174 416.32 174 417 174 C417 174.66 417 175.32 417 176 C418.32 176 419.64 176 421 176 C421 176.66 421 177.32 421 178 C421.66 178 422.32 178 423 178 C423 178.66 423 179.32 423 180 C423.66 180 424.32 180 425 180 C425 180.66 425 181.32 425 182 C425.66 182 426.32 182 427 182 C427 182.99 427 183.98 427 185 C427.99 185 428.98 185 430 185 C430 185.66 430 186.32 430 187 C430.66 187 431.32 187 432 187 C432 187.66 432 188.32 432 189 C432.66 189 433.32 189 434 189 C434 189.66 434 190.32 434 191 C434.66 191 435.32 191 436 191 C436 191.66 436 192.32 436 193 C436.66 193 437.32 193 438 193 C438 193.66 438 194.32 438 195 C438.66 195 439.32 195 440 195 C440 195.66 440 196.32 440 197 C440.66 197 441.32 197 442 197 C442 198.65 442 200.3 442 202 C442.99 202 443.98 202 445 202 C445 202.66 445 203.32 445 204 C445.66 204 446.32 204 447 204 C447 205.32 447 206.64 447 208 C447.66 208 448.32 208 449 208 C449 209.65 449 211.3 449 213 C449.66 213 450.32 213 451 213 C451 214.32 451 215.64 451 217 C451.66 217 452.32 217 453 217 C453 218.32 453 219.64 453 221 C453.66 221 454.32 221 455 221 C455 223.31 455 225.62 455 228 C455.99 228 456.98 228 458 228 C458 229.98 458 231.96 458 234 C458.66 234 459.32 234 460 234 C460 237.63 460 241.26 460 245 C460.66 245 461.32 245 462 245 C462 264.14 462 283.28 462 303 C461.34 303 460.68 303 460 303 C460 307.29 460 311.58 460 316 C459.34 316 458.68 316 458 316 C458 319.3 458 322.6 458 326 C457.01 326 456.02 326 455 326 C455 328.97 455 331.94 455 335 C454.34 335 453.68 335 453 335 C453 337.64 453 340.28 453 343 C452.34 343 451.68 343 451 343 C451 345.31 451 347.62 451 350 C450.34 350 449.68 350 449 350 C449 351.98 449 353.96 449 356 C448.34 356 447.68 356 447 356 C447 358.31 447 360.62 447 363 C446.34 363 445.68 363 445 363 C445 364.32 445 365.64 445 367 C444.01 367 443.02 367 442 367 C442 369.31 442 371.62 442 374 C441.34 374 440.68 374 440 374 C440 375.32 440 376.64 440 378 C439.34 378 438.68 378 438 378 C438 379.32 438 380.64 438 382 C437.34 382 436.68 382 436 382 C436 383.32 436 384.64 436 386 C435.34 386 434.68 386 434 386 C434 387.65 434 389.3 434 391 C433.34 391 432.68 391 432 391 C432 392.32 432 393.64 432 395 C431.34 395 430.68 395 430 395 C430 395.66 430 396.32 430 397 C429.01 397 428.02 397 427 397 C427 398.32 427 399.64 427 401 C426.34 401 425.68 401 425 401 C425 402.65 425 404.3 425 406 C424.34 406 423.68 406 423 406 C423 406.66 423 407.32 423 408 C422.34 408 421.68 408 421 408 C421 408.66 421 409.32 421 410 C420.34 410 419.68 410 419 410 C419 411.32 419 412.64 419 414 C418.34 414 417.68 414 417 414 C417 414.66 417 415.32 417 416 C416.34 416 415.68 416 415 416 C415 416.99 415 417.98 415 419 C414.01 419 413.02 419 412 419 C412 419.66 412 420.32 412 421 C411.34 421 410.68 421 410 421 C410 421.66 410 422.32 410 423 C409.34 423 408.68 423 408 423 C408 424.32 408 425.64 408 427 C407.34 427 406.68 427 406 427 C406 427.66 406 428.32 406 429 C405.34 429 404.68 429 404 429 C404 429.66 404 430.32 404 431 C403.34 431 402.68 431 402 431 C402 431.99 402 432.98 402 434 C400.35 434 398.7 434 397 434 C397 434.66 397 435.32 397 436 C396.34 436 395.68 436 395 436 C395 436.66 395 437.32 395 438 C394.34 438 393.68 438 393 438 C393 438.66 393 439.32 393 440 C392.34 440 391.68 440 391 440 C391 440.66 391 441.32 391 442 C390.34 442 389.68 442 389 442 C389 442.66 389 443.32 389 444 C387.68 444 386.36 444 385 444 C385 444.99 385 445.98 385 447 C384.01 447 383.02 447 382 447 C382 447.66 382 448.32 382 449 C381.34 449 380.68 449 380 449 C380 449.66 380 450.32 380 451 C378.68 451 377.36 451 376 451 C376 451.66 376 452.32 376 453 C374.68 453 373.36 453 372 453 C372 453.66 372 454.32 372 455 C371.34 455 370.68 455 370 455 C370 455.66 370 456.32 370 457 C368.35 457 366.7 457 365 457 C365 457.66 365 458.32 365 459 C363.68 459 362.36 459 361 459 C361 459.99 361 460.98 361 462 C359.68 462 358.36 462 357 462 C357 462.66 357 463.32 357 464 C355.35 464 353.7 464 352 464 C352 464.66 352 465.32 352 466 C350.02 466 348.04 466 346 466 C346 466.66 346 467.32 346 468 C344.68 468 343.36 468 342 468 C342 468.66 342 469.32 342 470 C339.69 470 337.38 470 335 470 C335 470.66 335 471.32 335 472 C333.02 472 331.04 472 329 472 C329 472.66 329 473.32 329 474 C326.03 474 323.06 474 320 474 C320 474.99 320 475.98 320 477 C317.36 477 314.72 477 312 477 C312 477.66 312 478.32 312 479 C308.37 479 304.74 479 301 479 C301 479.66 301 480.32 301 481 C296.05 481 291.1 481 286 481 C286 481.66 286 482.32 286 483 C267.52 483 249.04 483 230 483 C230 483.66 230 484.32 230 485 C227.03 485 224.06 485 221 485 C221 485.66 221 486.32 221 487 C219.68 487 218.36 487 217 487 C217 487.66 217 488.32 217 489 C216.34 489 215.68 489 215 489 C215 489.99 215 490.98 215 492 C214.34 492 213.68 492 213 492 C213 492.66 213 493.32 213 494 C212.34 494 211.68 494 211 494 C211 494.66 211 495.32 211 496 C210.01 496 209.02 496 208 496 C208 497.32 208 498.64 208 500 C207.34 500 206.68 500 206 500 C206 502.31 206 504.62 206 507 C205.34 507 204.68 507 204 507 C204 510.96 204 514.92 204 519 C203.34 519 202.68 519 202 519 C202 523.29 202 527.58 202 532 C201.34 532 200.68 532 200 532 C200 536.95 200 541.9 200 547 C199.34 547 198.68 547 198 547 C198 551.29 198 555.58 198 560 C197.34 560 196.68 560 196 560 C196 564.29 196 568.58 196 573 C195.01 573 194.02 573 193 573 C193 577.95 193 582.9 193 588 C192.34 588 191.68 588 191 588 C191 592.29 191 596.58 191 601 C190.34 601 189.68 601 189 601 C189 605.29 189 609.58 189 614 C188.34 614 187.68 614 187 614 C187 618.95 187 623.9 187 629 C186.34 629 185.68 629 185 629 C185 633.29 185 637.58 185 642 C184.34 642 183.68 642 183 642 C183 645.63 183 649.26 183 653 C182.34 653 181.68 653 181 653 C181 654.32 181 655.64 181 657 C180.01 657 179.02 657 178 657 C178 657.66 178 658.32 178 659 C177.34 659 176.68 659 176 659 C176 659.66 176 660.32 176 661 C175.34 661 174.68 661 174 661 C174 661.66 174 662.32 174 663 C173.34 663 172.68 663 172 663 C172 663.66 172 664.32 172 665 C171.34 665 170.68 665 170 665 C170 665.99 170 666.98 170 668 C167.69 668 165.38 668 163 668 C163 668.66 163 669.32 163 670 C122.74 670 82.48 670 41 670 C41 669.34 41 668.68 41 668 C39.68 668 38.36 668 37 668 C37 667.01 37 666.02 37 665 C36.34 665 35.68 665 35 665 C35 663.68 35 662.36 35 661 C34.01 661 33.02 661 32 661 C32 659.68 32 658.36 32 657 C31.34 657 30.68 657 30 657 C30 654.69 30 652.38 30 650 C30.66 650 31.32 650 32 650 C32 645.05 32 640.1 32 635 C32.99 635 33.98 635 35 635 C35 631.04 35 627.08 35 623 C35.66 623 36.32 623 37 623 C37 618.71 37 614.42 37 610 C37.66 610 38.32 610 39 610 C39 605.05 39 600.1 39 595 C-5.55 595 -50.1 595 -96 595 C-96 594.01 -96 593.02 -96 592 C-96.66 592 -97.32 592 -98 592 C-98 591.34 -98 590.68 -98 590 C-98.99 590 -99.98 590 -101 590 C-101 589.34 -101 588.68 -101 588 C-101.66 588 -102.32 588 -103 588 C-103 587.34 -103 586.68 -103 586 C-103.66 586 -104.32 586 -105 586 C-105 577.42 -105 568.84 -105 560 C-104.34 560 -103.68 560 -103 560 C-103 555.71 -103 551.42 -103 547 C-102.34 547 -101.68 547 -101 547 C-101 543.04 -101 539.08 -101 535 C-100.01 535 -99.02 535 -98 535 C-98 529.72 -98 524.44 -98 519 C-97.34 519 -96.68 519 -96 519 C-96 515.04 -96 511.08 -96 507 C-95.34 507 -94.68 507 -94 507 C-94 502.71 -94 498.42 -94 494 C-93.34 494 -92.68 494 -92 494 C-92 489.05 -92 484.1 -92 479 C-91.34 479 -90.68 479 -90 479 C-90 474.71 -90 470.42 -90 466 C-89.34 466 -88.68 466 -88 466 C-88 461.71 -88 457.42 -88 453 C-87.34 453 -86.68 453 -86 453 C-86 448.05 -86 443.1 -86 438 C-85.01 438 -84.02 438 -83 438 C-83 433.71 -83 429.42 -83 425 C-82.34 425 -81.68 425 -81 425 C-81 420.71 -81 416.42 -81 412 C-80.34 412 -79.68 412 -79 412 C-79 407.05 -79 402.1 -79 397 C-78.34 397 -77.68 397 -77 397 C-77 392.71 -77 388.42 -77 384 C-76.34 384 -75.68 384 -75 384 C-75 379.71 -75 375.42 -75 371 C-74.34 371 -73.68 371 -73 371 C-73 366.05 -73 361.1 -73 356 C-72.34 356 -71.68 356 -71 356 C-71 351.71 -71 347.42 -71 343 C-70.01 343 -69.02 343 -68 343 C-68 339.04 -68 335.08 -68 331 C-67.34 331 -66.68 331 -66 331 C-66 326.05 -66 321.1 -66 316 C-65.34 316 -64.68 316 -64 316 C-64 311.71 -64 307.42 -64 303 C-63.34 303 -62.68 303 -62 303 C-62 298.71 -62 294.42 -62 290 C-61.34 290 -60.68 290 -60 290 C-60 285.05 -60 280.1 -60 275 C-59.34 275 -58.68 275 -58 275 C-58 270.71 -58 266.42 -58 262 C-57.34 262 -56.68 262 -56 262 C-56 257.71 -56 253.42 -56 249 C-55.01 249 -54.02 249 -53 249 C-53 244.05 -53 239.1 -53 234 C-52.34 234 -51.68 234 -51 234 C-51 229.71 -51 225.42 -51 221 C-50.34 221 -49.68 221 -49 221 C-49 216.71 -49 212.42 -49 208 C-48.34 208 -47.68 208 -47 208 C-47 203.05 -47 198.1 -47 193 C-46.34 193 -45.68 193 -45 193 C-45 188.71 -45 184.42 -45 180 C-44.34 180 -43.68 180 -43 180 C-43 175.71 -43 171.42 -43 167 C-42.34 167 -41.68 167 -41 167 C-41 162.05 -41 157.1 -41 152 C-40.01 152 -39.02 152 -38 152 C-38 148.04 -38 144.08 -38 140 C-37.34 140 -36.68 140 -36 140 C-36 134.72 -36 129.44 -36 124 C-35.34 124 -34.68 124 -34 124 C-34 120.04 -34 116.08 -34 112 C-33.34 112 -32.68 112 -32 112 C-32 107.71 -32 103.42 -32 99 C-31.34 99 -30.68 99 -30 99 C-30 94.05 -30 89.1 -30 84 C-29.34 84 -28.68 84 -28 84 C-28 79.71 -28 75.42 -28 71 C-27.34 71 -26.68 71 -26 71 C-26 66.71 -26 62.42 -26 58 C-25.01 58 -24.02 58 -23 58 C-23 53.05 -23 48.1 -23 43 C-22.34 43 -21.68 43 -21 43 C-21 38.71 -21 34.42 -21 30 C-20.34 30 -19.68 30 -19 30 C-19 26.37 -19 22.74 -19 19 C-18.34 19 -17.68 19 -17 19 C-17 17.68 -17 16.36 -17 15 C-16.34 15 -15.68 15 -15 15 C-15 13.68 -15 12.36 -15 11 C-14.34 11 -13.68 11 -13 11 C-13 10.34 -13 9.68 -13 9 C-12.01 9 -11.02 9 -10 9 C-10 8.01 -10 7.02 -10 6 C-9.34 6 -8.68 6 -8 6 C-8 5.34 -8 4.68 -8 4 C-6.68 4 -5.36 4 -4 4 C-4 3.34 -4 2.68 -4 2 C-2.68 2 -1.36 2 0 2 C0 1.34 0 0.68 0 0 Z " fill="#233C80" transform="translate(231,701)"/>
<path d="M0 0 C58.74 0 117.48 0 178 0 C178 0.66 178 1.32 178 2 C183.94 2 189.88 2 196 2 C196 2.66 196 3.32 196 4 C199.96 4 203.92 4 208 4 C208 4.99 208 5.98 208 7 C210.97 7 213.94 7 217 7 C217 7.66 217 8.32 217 9 C218.98 9 220.96 9 223 9 C223 9.66 223 10.32 223 11 C225.31 11 227.62 11 230 11 C230 11.66 230 12.32 230 13 C231.32 13 232.64 13 234 13 C234 13.66 234 14.32 234 15 C235.32 15 236.64 15 238 15 C238 15.66 238 16.32 238 17 C239.65 17 241.3 17 243 17 C243 17.66 243 18.32 243 19 C244.32 19 245.64 19 247 19 C247 19.99 247 20.98 247 22 C248.32 22 249.64 22 251 22 C251 22.66 251 23.32 251 24 C251.66 24 252.32 24 253 24 C253 24.66 253 25.32 253 26 C253.99 26 254.98 26 256 26 C256 26.66 256 27.32 256 28 C257.32 28 258.64 28 260 28 C260 28.66 260 29.32 260 30 C260.66 30 261.32 30 262 30 C262 30.66 262 31.32 262 32 C262.66 32 263.32 32 264 32 C264 32.66 264 33.32 264 34 C264.66 34 265.32 34 266 34 C266 34.99 266 35.98 266 37 C266.99 37 267.98 37 269 37 C269 37.66 269 38.32 269 39 C269.66 39 270.32 39 271 39 C271 40.32 271 41.64 271 43 C271.66 43 272.32 43 273 43 C273 43.66 273 44.32 273 45 C273.66 45 274.32 45 275 45 C275 45.66 275 46.32 275 47 C275.66 47 276.32 47 277 47 C277 48.65 277 50.3 277 52 C277.66 52 278.32 52 279 52 C279 53.32 279 54.64 279 56 C279.66 56 280.32 56 281 56 C281 57.32 281 58.64 281 60 C281.99 60 282.98 60 284 60 C284 61.65 284 63.3 284 65 C284.66 65 285.32 65 286 65 C286 66.98 286 68.96 286 71 C286.66 71 287.32 71 288 71 C288 73.97 288 76.94 288 80 C288.66 80 289.32 80 290 80 C290 85.61 290 91.22 290 97 C290.66 97 291.32 97 292 97 C292 103.93 292 110.86 292 118 C291.34 118 290.68 118 290 118 C290 125.26 290 132.52 290 140 C289.34 140 288.68 140 288 140 C288 143.3 288 146.6 288 150 C287.34 150 286.68 150 286 150 C286 152.97 286 155.94 286 159 C285.34 159 284.68 159 284 159 C284 161.97 284 164.94 284 168 C283.01 168 282.02 168 281 168 C281 170.64 281 173.28 281 176 C280.34 176 279.68 176 279 176 C279 178.31 279 180.62 279 183 C278.34 183 277.68 183 277 183 C277 184.32 277 185.64 277 187 C276.34 187 275.68 187 275 187 C275 188.98 275 190.96 275 193 C274.34 193 273.68 193 273 193 C273 194.65 273 196.3 273 198 C272.34 198 271.68 198 271 198 C271 199.32 271 200.64 271 202 C270.34 202 269.68 202 269 202 C269 203.32 269 204.64 269 206 C268.01 206 267.02 206 266 206 C266 207.32 266 208.64 266 210 C265.34 210 264.68 210 264 210 C264 210.99 264 211.98 264 213 C263.34 213 262.68 213 262 213 C262 214.32 262 215.64 262 217 C261.34 217 260.68 217 260 217 C260 217.66 260 218.32 260 219 C259.34 219 258.68 219 258 219 C258 220.32 258 221.64 258 223 C257.34 223 256.68 223 256 223 C256 223.99 256 224.98 256 226 C255.01 226 254.02 226 253 226 C253 226.66 253 227.32 253 228 C252.34 228 251.68 228 251 228 C251 229.32 251 230.64 251 232 C250.34 232 249.68 232 249 232 C249 232.66 249 233.32 249 234 C248.34 234 247.68 234 247 234 C247 234.66 247 235.32 247 236 C246.34 236 245.68 236 245 236 C245 236.66 245 237.32 245 238 C244.34 238 243.68 238 243 238 C243 238.99 243 239.98 243 241 C242.34 241 241.68 241 241 241 C241 241.66 241 242.32 241 243 C240.01 243 239.02 243 238 243 C238 243.66 238 244.32 238 245 C237.34 245 236.68 245 236 245 C236 245.66 236 246.32 236 247 C234.68 247 233.36 247 232 247 C232 247.66 232 248.32 232 249 C231.34 249 230.68 249 230 249 C230 249.66 230 250.32 230 251 C229.34 251 228.68 251 228 251 C228 251.66 228 252.32 228 253 C226.35 253 224.7 253 223 253 C223 253.99 223 254.98 223 256 C222.34 256 221.68 256 221 256 C221 256.66 221 257.32 221 258 C219.68 258 218.36 258 217 258 C217 258.66 217 259.32 217 260 C216.34 260 215.68 260 215 260 C215 260.66 215 261.32 215 262 C213.68 262 212.36 262 211 262 C211 262.66 211 263.32 211 264 C209.35 264 207.7 264 206 264 C206 264.66 206 265.32 206 266 C204.68 266 203.36 266 202 266 C202 266.66 202 267.32 202 268 C200.02 268 198.04 268 196 268 C196 268.99 196 269.98 196 271 C194.35 271 192.7 271 191 271 C191 271.66 191 272.32 191 273 C189.02 273 187.04 273 185 273 C185 273.66 185 274.32 185 275 C182.03 275 179.06 275 176 275 C176 275.66 176 276.32 176 277 C173.36 277 170.72 277 168 277 C168 277.66 168 278.32 168 279 C163.71 279 159.42 279 155 279 C155 279.66 155 280.32 155 281 C148.4 281 141.8 281 135 281 C135 281.66 135 282.32 135 283 C110.25 283 85.5 283 60 283 C60 283.99 60 284.98 60 286 C58.68 286 57.36 286 56 286 C56 286.66 56 287.32 56 288 C55.34 288 54.68 288 54 288 C54 288.66 54 289.32 54 290 C53.34 290 52.68 290 52 290 C52 290.66 52 291.32 52 292 C51.34 292 50.68 292 50 292 C50 294.31 50 296.62 50 299 C49.01 299 48.02 299 47 299 C47 302.3 47 305.6 47 309 C46.34 309 45.68 309 45 309 C45 313.29 45 317.58 45 322 C44.34 322 43.68 322 43 322 C43 326.95 43 331.9 43 337 C42.34 337 41.68 337 41 337 C41 341.29 41 345.58 41 350 C40.34 350 39.68 350 39 350 C39 354.29 39 358.58 39 363 C38.34 363 37.68 363 37 363 C37 367.95 37 372.9 37 378 C36.34 378 35.68 378 35 378 C35 382.29 35 386.58 35 391 C34.01 391 33.02 391 32 391 C32 395.29 32 399.58 32 404 C31.34 404 30.68 404 30 404 C30 407.3 30 410.6 30 414 C29.34 414 28.68 414 28 414 C28 415.65 28 417.3 28 419 C27.34 419 26.68 419 26 419 C26 419.66 26 420.32 26 421 C24.68 421 23.36 421 22 421 C22 421.66 22 422.32 22 423 C-8.69 423 -39.38 423 -71 423 C-71 422.34 -71 421.68 -71 421 C-71.66 421 -72.32 421 -73 421 C-73 420.34 -73 419.68 -73 419 C-73.66 419 -74.32 419 -75 419 C-75 417.35 -75 415.7 -75 414 C-75.66 414 -76.32 414 -77 414 C-77 410.7 -77 407.4 -77 404 C-76.34 404 -75.68 404 -75 404 C-75 399.71 -75 395.42 -75 391 C-74.34 391 -73.68 391 -73 391 C-73 386.05 -73 381.1 -73 376 C-72.34 376 -71.68 376 -71 376 C-71 371.71 -71 367.42 -71 363 C-70.34 363 -69.68 363 -69 363 C-69 358.71 -69 354.42 -69 350 C-68.01 350 -67.02 350 -66 350 C-66 345.05 -66 340.1 -66 335 C-65.34 335 -64.68 335 -64 335 C-64 330.71 -64 326.42 -64 322 C-63.34 322 -62.68 322 -62 322 C-62 317.71 -62 313.42 -62 309 C-61.34 309 -60.68 309 -60 309 C-60 304.05 -60 299.1 -60 294 C-59.34 294 -58.68 294 -58 294 C-58 289.71 -58 285.42 -58 281 C-57.34 281 -56.68 281 -56 281 C-56 276.05 -56 271.1 -56 266 C-55.01 266 -54.02 266 -53 266 C-53 261.71 -53 257.42 -53 253 C-52.34 253 -51.68 253 -51 253 C-51 249.04 -51 245.08 -51 241 C-50.34 241 -49.68 241 -49 241 C-49 236.05 -49 231.1 -49 226 C-48.34 226 -47.68 226 -47 226 C-47 221.71 -47 217.42 -47 213 C-46.34 213 -45.68 213 -45 213 C-45 208.71 -45 204.42 -45 200 C-44.34 200 -43.68 200 -43 200 C-43 195.05 -43 190.1 -43 185 C-42.34 185 -41.68 185 -41 185 C-41 180.71 -41 176.42 -41 172 C-40.01 172 -39.02 172 -38 172 C-38 167.71 -38 163.42 -38 159 C-37.34 159 -36.68 159 -36 159 C-36 154.05 -36 149.1 -36 144 C-35.34 144 -34.68 144 -34 144 C-34 139.71 -34 135.42 -34 131 C-33.34 131 -32.68 131 -32 131 C-32 126.71 -32 122.42 -32 118 C-31.34 118 -30.68 118 -30 118 C-30 113.05 -30 108.1 -30 103 C-29.34 103 -28.68 103 -28 103 C-28 98.71 -28 94.42 -28 90 C-27.34 90 -26.68 90 -26 90 C-26 85.71 -26 81.42 -26 77 C-25.01 77 -24.02 77 -23 77 C-23 72.05 -23 67.1 -23 62 C-22.34 62 -21.68 62 -21 62 C-21 57.71 -21 53.42 -21 49 C-20.34 49 -19.68 49 -19 49 C-19 45.04 -19 41.08 -19 37 C-18.34 37 -17.68 37 -17 37 C-17 32.05 -17 27.1 -17 22 C-16.34 22 -15.68 22 -15 22 C-15 19.03 -15 16.06 -15 13 C-14.34 13 -13.68 13 -13 13 C-13 11.68 -13 10.36 -13 9 C-12.34 9 -11.68 9 -11 9 C-11 8.34 -11 7.68 -11 7 C-10.01 7 -9.02 7 -8 7 C-8 6.01 -8 5.02 -8 4 C-6.68 4 -5.36 4 -4 4 C-4 3.34 -4 2.68 -4 2 C-2.68 2 -1.36 2 0 2 C0 1.34 0 0.68 0 0 Z M88 86 C88 86.66 88 87.32 88 88 C86.68 88 85.36 88 84 88 C84 88.66 84 89.32 84 90 C83.34 90 82.68 90 82 90 C82 91.65 82 93.3 82 95 C81.34 95 80.68 95 80 95 C80 98.3 80 101.6 80 105 C79.01 105 78.02 105 77 105 C77 109.29 77 113.58 77 118 C76.34 118 75.68 118 75 118 C75 122.95 75 127.9 75 133 C74.34 133 73.68 133 73 133 C73 137.29 73 141.58 73 146 C72.34 146 71.68 146 71 146 C71 150.29 71 154.58 71 159 C70.34 159 69.68 159 69 159 C69 163.95 69 168.9 69 174 C68.34 174 67.68 174 67 174 C67 178.29 67 182.58 67 187 C66.34 187 65.68 187 65 187 C65 190.63 65 194.26 65 198 C77.54 198 90.08 198 103 198 C103 197.01 103 196.02 103 195 C110.92 195 118.84 195 127 195 C127 194.34 127 193.68 127 193 C129.64 193 132.28 193 135 193 C135 192.34 135 191.68 135 191 C137.31 191 139.62 191 142 191 C142 190.34 142 189.68 142 189 C143.32 189 144.64 189 146 189 C146 188.34 146 187.68 146 187 C147.32 187 148.64 187 150 187 C150 186.34 150 185.68 150 185 C150.99 185 151.98 185 153 185 C153 184.34 153 183.68 153 183 C153.66 183 154.32 183 155 183 C155 182.01 155 181.02 155 180 C155.66 180 156.32 180 157 180 C157 179.34 157 178.68 157 178 C157.66 178 158.32 178 159 178 C159 177.34 159 176.68 159 176 C159.66 176 160.32 176 161 176 C161 175.34 161 174.68 161 174 C161.66 174 162.32 174 163 174 C163 173.34 163 172.68 163 172 C163.66 172 164.32 172 165 172 C165 170.68 165 169.36 165 168 C165.99 168 166.98 168 168 168 C168 166.35 168 164.7 168 163 C168.66 163 169.32 163 170 163 C170 161.02 170 159.04 170 157 C170.66 157 171.32 157 172 157 C172 154.69 172 152.38 172 150 C172.66 150 173.32 150 174 150 C174 145.71 174 141.42 174 137 C174.66 137 175.32 137 176 137 C176 131.39 176 125.78 176 120 C175.34 120 174.68 120 174 120 C174 117.36 174 114.72 174 112 C173.34 112 172.68 112 172 112 C172 110.35 172 108.7 172 107 C171.34 107 170.68 107 170 107 C170 106.34 170 105.68 170 105 C169.34 105 168.68 105 168 105 C168 103.68 168 102.36 168 101 C167.01 101 166.02 101 165 101 C165 100.34 165 99.68 165 99 C164.34 99 163.68 99 163 99 C163 98.34 163 97.68 163 97 C161.68 97 160.36 97 159 97 C159 96.34 159 95.68 159 95 C157.68 95 156.36 95 155 95 C155 94.01 155 93.02 155 92 C153.35 92 151.7 92 150 92 C150 91.34 150 90.68 150 90 C147.36 90 144.72 90 142 90 C142 89.34 142 88.68 142 88 C136.39 88 130.78 88 125 88 C125 87.34 125 86.68 125 86 C112.79 86 100.58 86 88 86 Z " fill="#1A9BD6" transform="translate(2073,849)"/>
<path d="M0 0 C58.08 0 116.16 0 176 0 C176 0.66 176 1.32 176 2 C182.6 2 189.2 2 196 2 C196 2.66 196 3.32 196 4 C199.3 4 202.6 4 206 4 C206 4.99 206 5.98 206 7 C208.97 7 211.94 7 215 7 C215 7.66 215 8.32 215 9 C216.98 9 218.96 9 221 9 C221 9.66 221 10.32 221 11 C223.31 11 225.62 11 228 11 C228 11.66 228 12.32 228 13 C229.98 13 231.96 13 234 13 C234 13.66 234 14.32 234 15 C235.65 15 237.3 15 239 15 C239 15.66 239 16.32 239 17 C240.32 17 241.64 17 243 17 C243 17.66 243 18.32 243 19 C243.66 19 244.32 19 245 19 C245 19.99 245 20.98 245 22 C246.32 22 247.64 22 249 22 C249 22.66 249 23.32 249 24 C250.65 24 252.3 24 254 24 C254 24.66 254 25.32 254 26 C254.66 26 255.32 26 256 26 C256 26.66 256 27.32 256 28 C256.66 28 257.32 28 258 28 C258 28.66 258 29.32 258 30 C258.66 30 259.32 30 260 30 C260 30.66 260 31.32 260 32 C260.66 32 261.32 32 262 32 C262 32.66 262 33.32 262 34 C262.66 34 263.32 34 264 34 C264 34.99 264 35.98 264 37 C264.99 37 265.98 37 267 37 C267 37.66 267 38.32 267 39 C267.66 39 268.32 39 269 39 C269 39.66 269 40.32 269 41 C269.66 41 270.32 41 271 41 C271 41.66 271 42.32 271 43 C271.66 43 272.32 43 273 43 C273 44.32 273 45.64 273 47 C273.66 47 274.32 47 275 47 C275 47.66 275 48.32 275 49 C275.66 49 276.32 49 277 49 C277 50.65 277 52.3 277 54 C277.66 54 278.32 54 279 54 C279 55.32 279 56.64 279 58 C279.99 58 280.98 58 282 58 C282 59.32 282 60.64 282 62 C282.66 62 283.32 62 284 62 C284 64.31 284 66.62 284 69 C284.66 69 285.32 69 286 69 C286 70.98 286 72.96 286 75 C286.66 75 287.32 75 288 75 C288 78.63 288 82.26 288 86 C288.66 86 289.32 86 290 86 C290 100.19 290 114.38 290 129 C289.34 129 288.68 129 288 129 C288 133.95 288 138.9 288 144 C287.34 144 286.68 144 286 144 C286 147.63 286 151.26 286 155 C285.34 155 284.68 155 284 155 C284 157.64 284 160.28 284 163 C283.34 163 282.68 163 282 163 C282 165.97 282 168.94 282 172 C281.01 172 280.02 172 279 172 C279 173.98 279 175.96 279 178 C278.34 178 277.68 178 277 178 C277 180.31 277 182.62 277 185 C276.34 185 275.68 185 275 185 C275 186.32 275 187.64 275 189 C274.34 189 273.68 189 273 189 C273 190.98 273 192.96 273 195 C272.34 195 271.68 195 271 195 C271 196.65 271 198.3 271 200 C270.34 200 269.68 200 269 200 C269 201.32 269 202.64 269 204 C268.34 204 267.68 204 267 204 C267 205.32 267 206.64 267 208 C266.01 208 265.02 208 264 208 C264 208.66 264 209.32 264 210 C263.34 210 262.68 210 262 210 C262 211.65 262 213.3 262 215 C261.34 215 260.68 215 260 215 C260 216.32 260 217.64 260 219 C259.34 219 258.68 219 258 219 C258 219.66 258 220.32 258 221 C257.34 221 256.68 221 256 221 C256 221.66 256 222.32 256 223 C255.34 223 254.68 223 254 223 C254 224.65 254 226.3 254 228 C253.34 228 252.68 228 252 228 C252 228.66 252 229.32 252 230 C251.01 230 250.02 230 249 230 C249 230.66 249 231.32 249 232 C248.34 232 247.68 232 247 232 C247 232.66 247 233.32 247 234 C246.34 234 245.68 234 245 234 C245 234.66 245 235.32 245 236 C244.34 236 243.68 236 243 236 C243 236.66 243 237.32 243 238 C242.34 238 241.68 238 241 238 C241 238.99 241 239.98 241 241 C240.34 241 239.68 241 239 241 C239 241.66 239 242.32 239 243 C238.34 243 237.68 243 237 243 C237 243.66 237 244.32 237 245 C236.01 245 235.02 245 234 245 C234 245.66 234 246.32 234 247 C233.34 247 232.68 247 232 247 C232 247.66 232 248.32 232 249 C231.34 249 230.68 249 230 249 C230 249.66 230 250.32 230 251 C228.68 251 227.36 251 226 251 C226 251.66 226 252.32 226 253 C225.34 253 224.68 253 224 253 C224 253.99 224 254.98 224 256 C222.35 256 220.7 256 219 256 C219 256.66 219 257.32 219 258 C218.34 258 217.68 258 217 258 C217 258.66 217 259.32 217 260 C215.68 260 214.36 260 213 260 C213 260.66 213 261.32 213 262 C211.68 262 210.36 262 209 262 C209 262.66 209 263.32 209 264 C207.35 264 205.7 264 204 264 C204 264.66 204 265.32 204 266 C202.68 266 201.36 266 200 266 C200 266.66 200 267.32 200 268 C198.68 268 197.36 268 196 268 C196 268.99 196 269.98 196 271 C193.69 271 191.38 271 189 271 C189 271.66 189 272.32 189 273 C187.02 273 185.04 273 183 273 C183 273.66 183 274.32 183 275 C180.69 275 178.38 275 176 275 C176 275.66 176 276.32 176 277 C172.7 277 169.4 277 166 277 C166 277.66 166 278.32 166 279 C162.37 279 158.74 279 155 279 C155 279.66 155 280.32 155 281 C148.73 281 142.46 281 136 281 C136 281.66 136 282.32 136 283 C110.92 283 85.84 283 60 283 C60 283.99 60 284.98 60 286 C58.68 286 57.36 286 56 286 C56 286.66 56 287.32 56 288 C55.34 288 54.68 288 54 288 C54 288.66 54 289.32 54 290 C53.34 290 52.68 290 52 290 C52 290.66 52 291.32 52 292 C51.34 292 50.68 292 50 292 C50 292.66 50 293.32 50 294 C49.34 294 48.68 294 48 294 C48 296.97 48 299.94 48 303 C47.01 303 46.02 303 45 303 C45 307.29 45 311.58 45 316 C44.34 316 43.68 316 43 316 C43 320.29 43 324.58 43 329 C42.34 329 41.68 329 41 329 C41 333.95 41 338.9 41 344 C40.34 344 39.68 344 39 344 C39 347.96 39 351.92 39 356 C38.34 356 37.68 356 37 356 C37 360.29 37 364.58 37 369 C36.34 369 35.68 369 35 369 C35 373.95 35 378.9 35 384 C34.34 384 33.68 384 33 384 C33 388.29 33 392.58 33 397 C32.01 397 31.02 397 30 397 C30 400.63 30 404.26 30 408 C29.34 408 28.68 408 28 408 C28 409.98 28 411.96 28 414 C27.34 414 26.68 414 26 414 C26 414.99 26 415.98 26 417 C25.34 417 24.68 417 24 417 C24 417.66 24 418.32 24 419 C23.34 419 22.68 419 22 419 C22 419.66 22 420.32 22 421 C20.68 421 19.36 421 18 421 C18 421.66 18 422.32 18 423 C-11.04 423 -40.08 423 -70 423 C-70 422.34 -70 421.68 -70 421 C-71.65 421 -73.3 421 -75 421 C-75 419.68 -75 418.36 -75 417 C-75.66 417 -76.32 417 -77 417 C-77 409.74 -77 402.48 -77 395 C-76.34 395 -75.68 395 -75 395 C-75 390.71 -75 386.42 -75 382 C-74.34 382 -73.68 382 -73 382 C-73 377.71 -73 373.42 -73 369 C-72.01 369 -71.02 369 -70 369 C-70 364.05 -70 359.1 -70 354 C-69.34 354 -68.68 354 -68 354 C-68 349.71 -68 345.42 -68 341 C-67.34 341 -66.68 341 -66 341 C-66 337.04 -66 333.08 -66 329 C-65.34 329 -64.68 329 -64 329 C-64 324.05 -64 319.1 -64 314 C-63.34 314 -62.68 314 -62 314 C-62 309.71 -62 305.42 -62 301 C-61.34 301 -60.68 301 -60 301 C-60 296.71 -60 292.42 -60 288 C-59.34 288 -58.68 288 -58 288 C-58 283.05 -58 278.1 -58 273 C-57.01 273 -56.02 273 -55 273 C-55 268.71 -55 264.42 -55 260 C-54.34 260 -53.68 260 -53 260 C-53 255.71 -53 251.42 -53 247 C-52.34 247 -51.68 247 -51 247 C-51 242.05 -51 237.1 -51 232 C-50.34 232 -49.68 232 -49 232 C-49 227.71 -49 223.42 -49 219 C-48.34 219 -47.68 219 -47 219 C-47 214.71 -47 210.42 -47 206 C-46.34 206 -45.68 206 -45 206 C-45 201.05 -45 196.1 -45 191 C-44.34 191 -43.68 191 -43 191 C-43 186.71 -43 182.42 -43 178 C-42.01 178 -41.02 178 -40 178 C-40 173.71 -40 169.42 -40 165 C-39.34 165 -38.68 165 -38 165 C-38 160.05 -38 155.1 -38 150 C-37.34 150 -36.68 150 -36 150 C-36 145.71 -36 141.42 -36 137 C-35.34 137 -34.68 137 -34 137 C-34 133.04 -34 129.08 -34 125 C-33.34 125 -32.68 125 -32 125 C-32 120.05 -32 115.1 -32 110 C-31.34 110 -30.68 110 -30 110 C-30 105.71 -30 101.42 -30 97 C-29.34 97 -28.68 97 -28 97 C-28 92.71 -28 88.42 -28 84 C-27.01 84 -26.02 84 -25 84 C-25 79.05 -25 74.1 -25 69 C-24.34 69 -23.68 69 -23 69 C-23 64.71 -23 60.42 -23 56 C-22.34 56 -21.68 56 -21 56 C-21 51.71 -21 47.42 -21 43 C-20.34 43 -19.68 43 -19 43 C-19 38.05 -19 33.1 -19 28 C-18.34 28 -17.68 28 -17 28 C-17 23.71 -17 19.42 -17 15 C-16.34 15 -15.68 15 -15 15 C-15 13.68 -15 12.36 -15 11 C-14.34 11 -13.68 11 -13 11 C-13 10.34 -13 9.68 -13 9 C-12.01 9 -11.02 9 -10 9 C-10 8.34 -10 7.68 -10 7 C-9.34 7 -8.68 7 -8 7 C-8 6.01 -8 5.02 -8 4 C-7.34 4 -6.68 4 -6 4 C-6 3.34 -6 2.68 -6 2 C-4.02 2 -2.04 2 0 2 C0 1.34 0 0.68 0 0 Z M88 86 C88 86.66 88 87.32 88 88 C86.68 88 85.36 88 84 88 C84 88.66 84 89.32 84 90 C83.34 90 82.68 90 82 90 C82 90.66 82 91.32 82 92 C81.34 92 80.68 92 80 92 C80 93.65 80 95.3 80 97 C79.34 97 78.68 97 78 97 C78 101.95 78 106.9 78 112 C77.01 112 76.02 112 75 112 C75 116.29 75 120.58 75 125 C74.34 125 73.68 125 73 125 C73 128.96 73 132.92 73 137 C72.34 137 71.68 137 71 137 C71 142.28 71 147.56 71 153 C70.34 153 69.68 153 69 153 C69 156.96 69 160.92 69 165 C68.34 165 67.68 165 67 165 C67 169.29 67 173.58 67 178 C66.34 178 65.68 178 65 178 C65 182.95 65 187.9 65 193 C64.34 193 63.68 193 63 193 C63 194.65 63 196.3 63 198 C76.2 198 89.4 198 103 198 C103 197.01 103 196.02 103 195 C110.26 195 117.52 195 125 195 C125 194.34 125 193.68 125 193 C127.64 193 130.28 193 133 193 C133 192.34 133 191.68 133 191 C135.31 191 137.62 191 140 191 C140 190.34 140 189.68 140 189 C141.32 189 142.64 189 144 189 C144 188.34 144 187.68 144 187 C145.32 187 146.64 187 148 187 C148 186.34 148 185.68 148 185 C149.65 185 151.3 185 153 185 C153 184.34 153 183.68 153 183 C153.66 183 154.32 183 155 183 C155 182.01 155 181.02 155 180 C155.66 180 156.32 180 157 180 C157 179.34 157 178.68 157 178 C157.66 178 158.32 178 159 178 C159 177.34 159 176.68 159 176 C159.66 176 160.32 176 161 176 C161 174.68 161 173.36 161 172 C161.99 172 162.98 172 164 172 C164 171.34 164 170.68 164 170 C164.66 170 165.32 170 166 170 C166 168.35 166 166.7 166 165 C166.66 165 167.32 165 168 165 C168 163.68 168 162.36 168 161 C168.66 161 169.32 161 170 161 C170 159.02 170 157.04 170 155 C170.66 155 171.32 155 172 155 C172 151.37 172 147.74 172 144 C172.66 144 173.32 144 174 144 C174 134.76 174 125.52 174 116 C173.34 116 172.68 116 172 116 C172 114.02 172 112.04 172 110 C171.34 110 170.68 110 170 110 C170 108.35 170 106.7 170 105 C169.34 105 168.68 105 168 105 C168 104.34 168 103.68 168 103 C167.34 103 166.68 103 166 103 C166 102.34 166 101.68 166 101 C165.34 101 164.68 101 164 101 C164 100.34 164 99.68 164 99 C163.01 99 162.02 99 161 99 C161 98.34 161 97.68 161 97 C160.34 97 159.68 97 159 97 C159 96.34 159 95.68 159 95 C157.68 95 156.36 95 155 95 C155 94.01 155 93.02 155 92 C152.69 92 150.38 92 148 92 C148 91.34 148 90.68 148 90 C146.02 90 144.04 90 142 90 C142 89.34 142 88.68 142 88 C135.73 88 129.46 88 123 88 C123 87.34 123 86.68 123 86 C111.45 86 99.9 86 88 86 Z " fill="#243C80" transform="translate(993,849)"/>
<path d="M0 0 C1.32 0 2.64 0 4 0 C4 0.66 4 1.32 4 2 C5.65 2 7.3 2 9 2 C9 2.66 9 3.32 9 4 C9.66 4 10.32 4 11 4 C11 4.66 11 5.32 11 6 C12.32 6 13.64 6 15 6 C15 6.66 15 7.32 15 8 C15.66 8 16.32 8 17 8 C17 8.66 17 9.32 17 10 C17.66 10 18.32 10 19 10 C19 10.66 19 11.32 19 12 C19.66 12 20.32 12 21 12 C21 12.99 21 13.98 21 15 C21.99 15 22.98 15 24 15 C24 15.66 24 16.32 24 17 C24.66 17 25.32 17 26 17 C26 17.66 26 18.32 26 19 C26.66 19 27.32 19 28 19 C28 19.66 28 20.32 28 21 C28.66 21 29.32 21 30 21 C30 21.66 30 22.32 30 23 C30.66 23 31.32 23 32 23 C32 23.66 32 24.32 32 25 C32.66 25 33.32 25 34 25 C34 25.66 34 26.32 34 27 C34.66 27 35.32 27 36 27 C36 28.65 36 30.3 36 32 C36.99 32 37.98 32 39 32 C39 32.66 39 33.32 39 34 C39.66 34 40.32 34 41 34 C41 35.32 41 36.64 41 38 C41.66 38 42.32 38 43 38 C43 39.65 43 41.3 43 43 C43.66 43 44.32 43 45 43 C45 44.32 45 45.64 45 47 C45.66 47 46.32 47 47 47 C47 48.32 47 49.64 47 51 C47.66 51 48.32 51 49 51 C49 53.31 49 55.62 49 58 C49.99 58 50.98 58 52 58 C52 59.98 52 61.96 52 64 C52.66 64 53.32 64 54 64 C54 67.63 54 71.26 54 75 C54.66 75 55.32 75 56 75 C56 94.14 56 113.28 56 133 C55.34 133 54.68 133 54 133 C54 137.29 54 141.58 54 146 C53.34 146 52.68 146 52 146 C52 149.3 52 152.6 52 156 C51.01 156 50.02 156 49 156 C49 158.97 49 161.94 49 165 C48.34 165 47.68 165 47 165 C47 167.64 47 170.28 47 173 C46.34 173 45.68 173 45 173 C45 175.31 45 177.62 45 180 C44.34 180 43.68 180 43 180 C43 181.98 43 183.96 43 186 C42.34 186 41.68 186 41 186 C41 188.31 41 190.62 41 193 C40.34 193 39.68 193 39 193 C39 194.32 39 195.64 39 197 C38.01 197 37.02 197 36 197 C36 199.31 36 201.62 36 204 C35.34 204 34.68 204 34 204 C34 205.32 34 206.64 34 208 C33.34 208 32.68 208 32 208 C32 209.32 32 210.64 32 212 C31.34 212 30.68 212 30 212 C30 213.32 30 214.64 30 216 C29.34 216 28.68 216 28 216 C28 217.65 28 219.3 28 221 C27.34 221 26.68 221 26 221 C26 222.32 26 223.64 26 225 C25.34 225 24.68 225 24 225 C24 225.66 24 226.32 24 227 C23.01 227 22.02 227 21 227 C21 228.32 21 229.64 21 231 C20.34 231 19.68 231 19 231 C19 232.65 19 234.3 19 236 C18.34 236 17.68 236 17 236 C17 236.66 17 237.32 17 238 C16.34 238 15.68 238 15 238 C15 238.66 15 239.32 15 240 C14.34 240 13.68 240 13 240 C13 241.32 13 242.64 13 244 C12.34 244 11.68 244 11 244 C11 244.66 11 245.32 11 246 C10.34 246 9.68 246 9 246 C9 246.99 9 247.98 9 249 C8.01 249 7.02 249 6 249 C6 249.66 6 250.32 6 251 C5.34 251 4.68 251 4 251 C4 251.66 4 252.32 4 253 C3.34 253 2.68 253 2 253 C2 254.32 2 255.64 2 257 C1.34 257 0.68 257 0 257 C0 257.66 0 258.32 0 259 C-0.66 259 -1.32 259 -2 259 C-2 259.66 -2 260.32 -2 261 C-2.66 261 -3.32 261 -4 261 C-4 261.99 -4 262.98 -4 264 C-5.65 264 -7.3 264 -9 264 C-9 264.66 -9 265.32 -9 266 C-9.66 266 -10.32 266 -11 266 C-11 266.66 -11 267.32 -11 268 C-11.66 268 -12.32 268 -13 268 C-13 268.66 -13 269.32 -13 270 C-13.66 270 -14.32 270 -15 270 C-15 270.66 -15 271.32 -15 272 C-15.66 272 -16.32 272 -17 272 C-17 272.66 -17 273.32 -17 274 C-18.32 274 -19.64 274 -21 274 C-21 274.99 -21 275.98 -21 277 C-21.99 277 -22.98 277 -24 277 C-24 277.66 -24 278.32 -24 279 C-24.66 279 -25.32 279 -26 279 C-26 279.66 -26 280.32 -26 281 C-27.32 281 -28.64 281 -30 281 C-30 281.66 -30 282.32 -30 283 C-31.32 283 -32.64 283 -34 283 C-34 283.66 -34 284.32 -34 285 C-34.66 285 -35.32 285 -36 285 C-36 285.66 -36 286.32 -36 287 C-37.65 287 -39.3 287 -41 287 C-41 287.66 -41 288.32 -41 289 C-42.32 289 -43.64 289 -45 289 C-45 289.99 -45 290.98 -45 292 C-46.32 292 -47.64 292 -49 292 C-49 292.66 -49 293.32 -49 294 C-50.65 294 -52.3 294 -54 294 C-54 294.66 -54 295.32 -54 296 C-55.98 296 -57.96 296 -60 296 C-60 296.66 -60 297.32 -60 298 C-61.32 298 -62.64 298 -64 298 C-64 298.66 -64 299.32 -64 300 C-66.31 300 -68.62 300 -71 300 C-71 300.66 -71 301.32 -71 302 C-72.98 302 -74.96 302 -77 302 C-77 302.66 -77 303.32 -77 304 C-79.97 304 -82.94 304 -86 304 C-86 304.99 -86 305.98 -86 307 C-88.64 307 -91.28 307 -94 307 C-94 307.66 -94 308.32 -94 309 C-97.63 309 -101.26 309 -105 309 C-105 309.66 -105 310.32 -105 311 C-109.95 311 -114.9 311 -120 311 C-120 311.66 -120 312.32 -120 313 C-138.48 313 -156.96 313 -176 313 C-176 313.66 -176 314.32 -176 315 C-178.97 315 -181.94 315 -185 315 C-185 315.66 -185 316.32 -185 317 C-186.32 317 -187.64 317 -189 317 C-189 317.66 -189 318.32 -189 319 C-189.66 319 -190.32 319 -191 319 C-191 319.99 -191 320.98 -191 322 C-191.66 322 -192.32 322 -193 322 C-193 322.66 -193 323.32 -193 324 C-193.66 324 -194.32 324 -195 324 C-195 324.66 -195 325.32 -195 326 C-195.99 326 -196.98 326 -198 326 C-198 327.32 -198 328.64 -198 330 C-198.66 330 -199.32 330 -200 330 C-200 332.31 -200 334.62 -200 337 C-200.66 337 -201.32 337 -202 337 C-202 340.96 -202 344.92 -202 349 C-202.66 349 -203.32 349 -204 349 C-204 353.29 -204 357.58 -204 362 C-204.66 362 -205.32 362 -206 362 C-206 366.95 -206 371.9 -206 377 C-206.66 377 -207.32 377 -208 377 C-208 381.29 -208 385.58 -208 390 C-208.66 390 -209.32 390 -210 390 C-210 394.29 -210 398.58 -210 403 C-210.99 403 -211.98 403 -213 403 C-213 407.95 -213 412.9 -213 418 C-213.66 418 -214.32 418 -215 418 C-215 422.29 -215 426.58 -215 431 C-215.66 431 -216.32 431 -217 431 C-217 435.29 -217 439.58 -217 444 C-217.66 444 -218.32 444 -219 444 C-219 448.95 -219 453.9 -219 459 C-219.66 459 -220.32 459 -221 459 C-221 463.29 -221 467.58 -221 472 C-221.66 472 -222.32 472 -223 472 C-223 475.63 -223 479.26 -223 483 C-223.66 483 -224.32 483 -225 483 C-225 484.32 -225 485.64 -225 487 C-225.99 487 -226.98 487 -228 487 C-228 487.66 -228 488.32 -228 489 C-228.66 489 -229.32 489 -230 489 C-230 489.66 -230 490.32 -230 491 C-230.66 491 -231.32 491 -232 491 C-232 491.66 -232 492.32 -232 493 C-232.66 493 -233.32 493 -234 493 C-234 493.66 -234 494.32 -234 495 C-234.66 495 -235.32 495 -236 495 C-236 495.99 -236 496.98 -236 498 C-238.31 498 -240.62 498 -243 498 C-243 498.66 -243 499.32 -243 500 C-283.26 500 -323.52 500 -365 500 C-365 499.34 -365 498.68 -365 498 C-366.32 498 -367.64 498 -369 498 C-369 497.01 -369 496.02 -369 495 C-369.66 495 -370.32 495 -371 495 C-371 493.68 -371 492.36 -371 491 C-371.99 491 -372.98 491 -374 491 C-374 489.68 -374 488.36 -374 487 C-374.66 487 -375.32 487 -376 487 C-376 484.69 -376 482.38 -376 480 C-375.34 480 -374.68 480 -374 480 C-374 475.05 -374 470.1 -374 465 C-373.01 465 -372.02 465 -371 465 C-371 461.04 -371 457.08 -371 453 C-370.34 453 -369.68 453 -369 453 C-369 448.71 -369 444.42 -369 440 C-368.34 440 -367.68 440 -367 440 C-367 435.05 -367 430.1 -367 425 C-366.34 425 -365.68 425 -365 425 C-365 423.35 -365 421.7 -365 420 C-364.34 420 -363.68 420 -363 420 C-363 415.71 -363 411.42 -363 407 C-362.34 407 -361.68 407 -361 407 C-361 403.04 -361 399.08 -361 395 C-360.34 395 -359.68 395 -359 395 C-359 391.37 -359 387.74 -359 384 C-358.01 384 -357.02 384 -356 384 C-356 378.39 -356 372.78 -356 367 C-355.34 367 -354.68 367 -354 367 C-354 362.71 -354 358.42 -354 354 C-353.34 354 -352.68 354 -352 354 C-352 349.05 -352 344.1 -352 339 C-351.34 339 -350.68 339 -350 339 C-350 334.71 -350 330.42 -350 326 C-349.34 326 -348.68 326 -348 326 C-348 321.71 -348 317.42 -348 313 C-347.34 313 -346.68 313 -346 313 C-346 308.05 -346 303.1 -346 298 C-345.01 298 -344.02 298 -343 298 C-343 293.71 -343 289.42 -343 285 C-342.34 285 -341.68 285 -341 285 C-341 280.71 -341 276.42 -341 272 C-340.34 272 -339.68 272 -339 272 C-339 267.05 -339 262.1 -339 257 C-338.34 257 -337.68 257 -337 257 C-337 252.71 -337 248.42 -337 244 C-336.34 244 -335.68 244 -335 244 C-335 239.71 -335 235.42 -335 231 C-334.34 231 -333.68 231 -333 231 C-333 227.7 -333 224.4 -333 221 C-332.34 221 -331.68 221 -331 221 C-331 219.35 -331 217.7 -331 216 C-330.01 216 -329.02 216 -328 216 C-328 214.68 -328 213.36 -328 212 C-327.34 212 -326.68 212 -326 212 C-326 211.34 -326 210.68 -326 210 C-325.34 210 -324.68 210 -324 210 C-324 209.34 -324 208.68 -324 208 C-322.68 208 -321.36 208 -320 208 C-320 207.34 -320 206.68 -320 206 C-318.68 206 -317.36 206 -316 206 C-316 205.34 -316 204.68 -316 204 C-314.35 204 -312.7 204 -311 204 C-311 203.01 -311 202.02 -311 201 C-277.01 201 -243.02 201 -208 201 C-208 200.34 -208 199.68 -208 199 C-201.73 199 -195.46 199 -189 199 C-189 198.34 -189 197.68 -189 197 C-184.71 197 -180.42 197 -176 197 C-176 196.34 -176 195.68 -176 195 C-172.37 195 -168.74 195 -165 195 C-165 194.34 -165 193.68 -165 193 C-163.02 193 -161.04 193 -159 193 C-159 192.34 -159 191.68 -159 191 C-156.03 191 -153.06 191 -150 191 C-150 190.01 -150 189.02 -150 188 C-148.02 188 -146.04 188 -144 188 C-144 187.34 -144 186.68 -144 186 C-141.69 186 -139.38 186 -137 186 C-137 185.34 -137 184.68 -137 184 C-135.02 184 -133.04 184 -131 184 C-131 183.34 -131 182.68 -131 182 C-129.68 182 -128.36 182 -127 182 C-127 181.34 -127 180.68 -127 180 C-124.69 180 -122.38 180 -120 180 C-120 179.34 -120 178.68 -120 178 C-118.68 178 -117.36 178 -116 178 C-116 177.34 -116 176.68 -116 176 C-114.68 176 -113.36 176 -112 176 C-112 175.01 -112 174.02 -112 173 C-110.35 173 -108.7 173 -107 173 C-107 172.34 -107 171.68 -107 171 C-106.34 171 -105.68 171 -105 171 C-105 170.34 -105 169.68 -105 169 C-103.68 169 -102.36 169 -101 169 C-101 168.34 -101 167.68 -101 167 C-99.68 167 -98.36 167 -97 167 C-97 166.34 -97 165.68 -97 165 C-96.01 165 -95.02 165 -94 165 C-94 164.34 -94 163.68 -94 163 C-92.68 163 -91.36 163 -90 163 C-90 162.34 -90 161.68 -90 161 C-89.34 161 -88.68 161 -88 161 C-88 160.01 -88 159.02 -88 158 C-86.68 158 -85.36 158 -84 158 C-84 157.34 -84 156.68 -84 156 C-83.34 156 -82.68 156 -82 156 C-82 155.34 -82 154.68 -82 154 C-81.01 154 -80.02 154 -79 154 C-79 153.34 -79 152.68 -79 152 C-78.34 152 -77.68 152 -77 152 C-77 151.34 -77 150.68 -77 150 C-76.34 150 -75.68 150 -75 150 C-75 149.34 -75 148.68 -75 148 C-73.68 148 -72.36 148 -71 148 C-71 147.34 -71 146.68 -71 146 C-70.34 146 -69.68 146 -69 146 C-69 145.01 -69 144.02 -69 143 C-68.34 143 -67.68 143 -67 143 C-67 142.34 -67 141.68 -67 141 C-66.01 141 -65.02 141 -64 141 C-64 140.34 -64 139.68 -64 139 C-63.34 139 -62.68 139 -62 139 C-62 138.34 -62 137.68 -62 137 C-61.34 137 -60.68 137 -60 137 C-60 136.34 -60 135.68 -60 135 C-59.34 135 -58.68 135 -58 135 C-58 134.34 -58 133.68 -58 133 C-57.34 133 -56.68 133 -56 133 C-56 131.35 -56 129.7 -56 128 C-55.34 128 -54.68 128 -54 128 C-54 127.34 -54 126.68 -54 126 C-53.34 126 -52.68 126 -52 126 C-52 125.34 -52 124.68 -52 124 C-51.01 124 -50.02 124 -49 124 C-49 123.34 -49 122.68 -49 122 C-48.34 122 -47.68 122 -47 122 C-47 120.68 -47 119.36 -47 118 C-46.34 118 -45.68 118 -45 118 C-45 117.01 -45 116.02 -45 115 C-44.34 115 -43.68 115 -43 115 C-43 114.34 -43 113.68 -43 113 C-42.34 113 -41.68 113 -41 113 C-41 111.68 -41 110.36 -41 109 C-40.34 109 -39.68 109 -39 109 C-39 108.34 -39 107.68 -39 107 C-38.01 107 -37.02 107 -36 107 C-36 105.68 -36 104.36 -36 103 C-35.34 103 -34.68 103 -34 103 C-34 101.35 -34 99.7 -34 98 C-33.34 98 -32.68 98 -32 98 C-32 97.34 -32 96.68 -32 96 C-31.34 96 -30.68 96 -30 96 C-30 94.68 -30 93.36 -30 92 C-29.34 92 -28.68 92 -28 92 C-28 90.68 -28 89.36 -28 88 C-27.34 88 -26.68 88 -26 88 C-26 86.35 -26 84.7 -26 83 C-25.34 83 -24.68 83 -24 83 C-24 81.68 -24 80.36 -24 79 C-23.01 79 -22.02 79 -21 79 C-21 77.02 -21 75.04 -21 73 C-20.34 73 -19.68 73 -19 73 C-19 71.35 -19 69.7 -19 68 C-18.34 68 -17.68 68 -17 68 C-17 66.02 -17 64.04 -17 62 C-16.34 62 -15.68 62 -15 62 C-15 60.68 -15 59.36 -15 58 C-14.34 58 -13.68 58 -13 58 C-13 55.69 -13 53.38 -13 51 C-12.34 51 -11.68 51 -11 51 C-11 49.02 -11 47.04 -11 45 C-10.34 45 -9.68 45 -9 45 C-9 41.37 -9 37.74 -9 34 C-8.01 34 -7.02 34 -6 34 C-6 31.03 -6 28.06 -6 25 C-5.34 25 -4.68 25 -4 25 C-4 22.36 -4 19.72 -4 17 C-3.34 17 -2.68 17 -2 17 C-2 14.03 -2 11.06 -2 8 C-1.34 8 -0.68 8 0 8 C0 5.36 0 2.72 0 0 Z " fill="#1A9AD6" transform="translate(637,871)"/>
<path d="M0 0 C8.58 0 17.16 0 26 0 C26 0.66 26 1.32 26 2 C32.27 2 38.54 2 45 2 C45 2.66 45 3.32 45 4 C47.97 4 50.94 4 54 4 C54 4.99 54 5.98 54 7 C56.64 7 59.28 7 62 7 C62 7.66 62 8.32 62 9 C64.31 9 66.62 9 69 9 C69 9.66 69 10.32 69 11 C70.32 11 71.64 11 73 11 C73 11.66 73 12.32 73 13 C74.32 13 75.64 13 77 13 C77 13.66 77 14.32 77 15 C78.65 15 80.3 15 82 15 C82 15.66 82 16.32 82 17 C83.32 17 84.64 17 86 17 C86 17.99 86 18.98 86 20 C86.66 20 87.32 20 88 20 C88 20.66 88 21.32 88 22 C88.66 22 89.32 22 90 22 C90 22.66 90 23.32 90 24 C90.66 24 91.32 24 92 24 C92 24.66 92 25.32 92 26 C92.66 26 93.32 26 94 26 C94 26.66 94 27.32 94 28 C94.99 28 95.98 28 97 28 C97 28.66 97 29.32 97 30 C97.66 30 98.32 30 99 30 C99 31.65 99 33.3 99 35 C99.66 35 100.32 35 101 35 C101 34.01 101 33.02 101 32 C101.66 32 102.32 32 103 32 C103 28.04 103 24.08 103 20 C103.66 20 104.32 20 105 20 C105 17.69 105 15.38 105 13 C105.66 13 106.32 13 107 13 C107 12.34 107 11.68 107 11 C107.66 11 108.32 11 109 11 C109 10.34 109 9.68 109 9 C138.04 9 167.08 9 197 9 C197 9.66 197 10.32 197 11 C197.99 11 198.98 11 200 11 C200 11.66 200 12.32 200 13 C200.66 13 201.32 13 202 13 C202 13.66 202 14.32 202 15 C202.66 15 203.32 15 204 15 C204 19.95 204 24.9 204 30 C203.34 30 202.68 30 202 30 C202 34.29 202 38.58 202 43 C201.34 43 200.68 43 200 43 C200 47.29 200 51.58 200 56 C199.01 56 198.02 56 197 56 C197 60.95 197 65.9 197 71 C196.34 71 195.68 71 195 71 C195 75.29 195 79.58 195 84 C194.34 84 193.68 84 193 84 C193 88.29 193 92.58 193 97 C192.34 97 191.68 97 191 97 C191 101.95 191 106.9 191 112 C190.34 112 189.68 112 189 112 C189 116.29 189 120.58 189 125 C188.34 125 187.68 125 187 125 C187 129.29 187 133.58 187 138 C186.34 138 185.68 138 185 138 C185 142.95 185 147.9 185 153 C184.01 153 183.02 153 182 153 C182 157.29 182 161.58 182 166 C181.34 166 180.68 166 180 166 C180 169.96 180 173.92 180 178 C179.34 178 178.68 178 178 178 C178 182.95 178 187.9 178 193 C177.34 193 176.68 193 176 193 C176 197.29 176 201.58 176 206 C175.34 206 174.68 206 174 206 C174 210.29 174 214.58 174 219 C173.34 219 172.68 219 172 219 C172 223.95 172 228.9 172 234 C171.34 234 170.68 234 170 234 C170 238.29 170 242.58 170 247 C169.01 247 168.02 247 167 247 C167 251.29 167 255.58 167 260 C166.34 260 165.68 260 165 260 C165 264.29 165 268.58 165 273 C164.34 273 163.68 273 163 273 C163 274.98 163 276.96 163 279 C162.34 279 161.68 279 161 279 C161 280.65 161 282.3 161 284 C160.34 284 159.68 284 159 284 C159 284.66 159 285.32 159 286 C157.68 286 156.36 286 155 286 C155 286.66 155 287.32 155 288 C154.01 288 153.02 288 152 288 C152 288.66 152 289.32 152 290 C125.27 290 98.54 290 71 290 C71 289.34 71 288.68 71 288 C69.35 288 67.7 288 66 288 C66 286.68 66 285.36 66 284 C65.34 284 64.68 284 64 284 C64 277.4 64 270.8 64 264 C64.66 264 65.32 264 66 264 C66 262.68 66 261.36 66 260 C65.34 260 64.68 260 64 260 C64 260.66 64 261.32 64 262 C63.34 262 62.68 262 62 262 C62 262.66 62 263.32 62 264 C60.68 264 59.36 264 58 264 C58 264.66 58 265.32 58 266 C57.34 266 56.68 266 56 266 C56 266.99 56 267.98 56 269 C55.34 269 54.68 269 54 269 C54 269.66 54 270.32 54 271 C52.35 271 50.7 271 49 271 C49 271.66 49 272.32 49 273 C48.34 273 47.68 273 47 273 C47 273.66 47 274.32 47 275 C45.68 275 44.36 275 43 275 C43 275.66 43 276.32 43 277 C42.34 277 41.68 277 41 277 C41 277.66 41 278.32 41 279 C39.35 279 37.7 279 36 279 C36 279.66 36 280.32 36 281 C34.68 281 33.36 281 32 281 C32 281.99 32 282.98 32 284 C30.68 284 29.36 284 28 284 C28 284.66 28 285.32 28 286 C25.69 286 23.38 286 21 286 C21 286.66 21 287.32 21 288 C19.68 288 18.36 288 17 288 C17 288.66 17 289.32 17 290 C15.02 290 13.04 290 11 290 C11 290.66 11 291.32 11 292 C8.03 292 5.06 292 2 292 C2 292.66 2 293.32 2 294 C-1.63 294 -5.26 294 -9 294 C-9 294.66 -9 295.32 -9 296 C-25.17 296 -41.34 296 -58 296 C-58 295.34 -58 294.68 -58 294 C-61.63 294 -65.26 294 -69 294 C-69 293.34 -69 292.68 -69 292 C-71.64 292 -74.28 292 -77 292 C-77 291.34 -77 290.68 -77 290 C-79.31 290 -81.62 290 -84 290 C-84 289.34 -84 288.68 -84 288 C-85.98 288 -87.96 288 -90 288 C-90 287.34 -90 286.68 -90 286 C-91.65 286 -93.3 286 -95 286 C-95 285.34 -95 284.68 -95 284 C-96.32 284 -97.64 284 -99 284 C-99 283.01 -99 282.02 -99 281 C-99.66 281 -100.32 281 -101 281 C-101 280.34 -101 279.68 -101 279 C-102.32 279 -103.64 279 -105 279 C-105 278.34 -105 277.68 -105 277 C-105.66 277 -106.32 277 -107 277 C-107 276.34 -107 275.68 -107 275 C-108.65 275 -110.3 275 -112 275 C-112 274.34 -112 273.68 -112 273 C-112.66 273 -113.32 273 -114 273 C-114 272.34 -114 271.68 -114 271 C-114.66 271 -115.32 271 -116 271 C-116 270.34 -116 269.68 -116 269 C-116.66 269 -117.32 269 -118 269 C-118 268.01 -118 267.02 -118 266 C-118.66 266 -119.32 266 -120 266 C-120 265.34 -120 264.68 -120 264 C-120.66 264 -121.32 264 -122 264 C-122 263.34 -122 262.68 -122 262 C-122.99 262 -123.98 262 -125 262 C-125 261.34 -125 260.68 -125 260 C-125.66 260 -126.32 260 -127 260 C-127 258.68 -127 257.36 -127 256 C-127.66 256 -128.32 256 -129 256 C-129 255.34 -129 254.68 -129 254 C-129.66 254 -130.32 254 -131 254 C-131 253.01 -131 252.02 -131 251 C-131.66 251 -132.32 251 -133 251 C-133 249.68 -133 248.36 -133 247 C-133.66 247 -134.32 247 -135 247 C-135 246.34 -135 245.68 -135 245 C-135.66 245 -136.32 245 -137 245 C-137 243.68 -137 242.36 -137 241 C-137.99 241 -138.98 241 -140 241 C-140 239.35 -140 237.7 -140 236 C-140.66 236 -141.32 236 -142 236 C-142 234.68 -142 233.36 -142 232 C-142.66 232 -143.32 232 -144 232 C-144 230.02 -144 228.04 -144 226 C-144.66 226 -145.32 226 -146 226 C-146 223.69 -146 221.38 -146 219 C-146.66 219 -147.32 219 -148 219 C-148 217.02 -148 215.04 -148 213 C-148.66 213 -149.32 213 -150 213 C-150 210.03 -150 207.06 -150 204 C-150.66 204 -151.32 204 -152 204 C-152 199.05 -152 194.1 -152 189 C-152.99 189 -153.98 189 -155 189 C-155 179.76 -155 170.52 -155 161 C-154.01 161 -153.02 161 -152 161 C-152 155.39 -152 149.78 -152 144 C-151.34 144 -150.68 144 -150 144 C-150 140.37 -150 136.74 -150 133 C-149.34 133 -148.68 133 -148 133 C-148 130.36 -148 127.72 -148 125 C-147.34 125 -146.68 125 -146 125 C-146 122.69 -146 120.38 -146 118 C-145.34 118 -144.68 118 -144 118 C-144 116.02 -144 114.04 -144 112 C-143.34 112 -142.68 112 -142 112 C-142 109.69 -142 107.38 -142 105 C-141.34 105 -140.68 105 -140 105 C-140 103.68 -140 102.36 -140 101 C-139.01 101 -138.02 101 -137 101 C-137 99.68 -137 98.36 -137 97 C-136.34 97 -135.68 97 -135 97 C-135 95.68 -135 94.36 -135 93 C-134.34 93 -133.68 93 -133 93 C-133 91.35 -133 89.7 -133 88 C-132.34 88 -131.68 88 -131 88 C-131 86.68 -131 85.36 -131 84 C-130.34 84 -129.68 84 -129 84 C-129 82.68 -129 81.36 -129 80 C-128.34 80 -127.68 80 -127 80 C-127 79.01 -127 78.02 -127 77 C-126.34 77 -125.68 77 -125 77 C-125 75.68 -125 74.36 -125 73 C-124.01 73 -123.02 73 -122 73 C-122 72.34 -122 71.68 -122 71 C-121.34 71 -120.68 71 -120 71 C-120 69.68 -120 68.36 -120 67 C-119.34 67 -118.68 67 -118 67 C-118 66.34 -118 65.68 -118 65 C-117.34 65 -116.68 65 -116 65 C-116 64.01 -116 63.02 -116 62 C-115.34 62 -114.68 62 -114 62 C-114 61.34 -114 60.68 -114 60 C-113.34 60 -112.68 60 -112 60 C-112 58.68 -112 57.36 -112 56 C-111.34 56 -110.68 56 -110 56 C-110 55.34 -110 54.68 -110 54 C-109.01 54 -108.02 54 -107 54 C-107 53.34 -107 52.68 -107 52 C-106.34 52 -105.68 52 -105 52 C-105 51.34 -105 50.68 -105 50 C-104.34 50 -103.68 50 -103 50 C-103 49.01 -103 48.02 -103 47 C-102.34 47 -101.68 47 -101 47 C-101 46.34 -101 45.68 -101 45 C-100.34 45 -99.68 45 -99 45 C-99 44.34 -99 43.68 -99 43 C-98.34 43 -97.68 43 -97 43 C-97 42.34 -97 41.68 -97 41 C-96.34 41 -95.68 41 -95 41 C-95 40.34 -95 39.68 -95 39 C-93.35 39 -91.7 39 -90 39 C-90 38.34 -90 37.68 -90 37 C-89.34 37 -88.68 37 -88 37 C-88 36.34 -88 35.68 -88 35 C-87.34 35 -86.68 35 -86 35 C-86 34.01 -86 33.02 -86 32 C-85.34 32 -84.68 32 -84 32 C-84 31.34 -84 30.68 -84 30 C-82.35 30 -80.7 30 -79 30 C-79 29.34 -79 28.68 -79 28 C-78.34 28 -77.68 28 -77 28 C-77 27.34 -77 26.68 -77 26 C-75.68 26 -74.36 26 -73 26 C-73 25.34 -73 24.68 -73 24 C-71.68 24 -70.36 24 -69 24 C-69 23.34 -69 22.68 -69 22 C-68.34 22 -67.68 22 -67 22 C-67 21.34 -67 20.68 -67 20 C-65.35 20 -63.7 20 -62 20 C-62 19.01 -62 18.02 -62 17 C-60.68 17 -59.36 17 -58 17 C-58 16.34 -58 15.68 -58 15 C-56.68 15 -55.36 15 -54 15 C-54 14.34 -54 13.68 -54 13 C-51.69 13 -49.38 13 -47 13 C-47 12.34 -47 11.68 -47 11 C-45.68 11 -44.36 11 -43 11 C-43 10.34 -43 9.68 -43 9 C-41.02 9 -39.04 9 -37 9 C-37 8.34 -37 7.68 -37 7 C-34.03 7 -31.06 7 -28 7 C-28 6.01 -28 5.02 -28 4 C-24.37 4 -20.74 4 -17 4 C-17 3.34 -17 2.68 -17 2 C-11.39 2 -5.78 2 0 2 C0 1.34 0 0.68 0 0 Z M17 80 C17 80.66 17 81.32 17 82 C13.37 82 9.74 82 6 82 C6 82.66 6 83.32 6 84 C4.02 84 2.04 84 0 84 C0 84.66 0 85.32 0 86 C-1.32 86 -2.64 86 -4 86 C-4 86.66 -4 87.32 -4 88 C-5.65 88 -7.3 88 -9 88 C-9 88.66 -9 89.32 -9 90 C-10.32 90 -11.64 90 -13 90 C-13 90.99 -13 91.98 -13 93 C-14.32 93 -15.64 93 -17 93 C-17 93.66 -17 94.32 -17 95 C-17.66 95 -18.32 95 -19 95 C-19 95.66 -19 96.32 -19 97 C-19.99 97 -20.98 97 -22 97 C-22 97.66 -22 98.32 -22 99 C-23.32 99 -24.64 99 -26 99 C-26 99.66 -26 100.32 -26 101 C-26.66 101 -27.32 101 -28 101 C-28 101.66 -28 102.32 -28 103 C-28.66 103 -29.32 103 -30 103 C-30 103.66 -30 104.32 -30 105 C-30.66 105 -31.32 105 -32 105 C-32 105.99 -32 106.98 -32 108 C-32.66 108 -33.32 108 -34 108 C-34 109.32 -34 110.64 -34 112 C-34.99 112 -35.98 112 -37 112 C-37 112.66 -37 113.32 -37 114 C-37.66 114 -38.32 114 -39 114 C-39 114.66 -39 115.32 -39 116 C-39.66 116 -40.32 116 -41 116 C-41 117.32 -41 118.64 -41 120 C-41.66 120 -42.32 120 -43 120 C-43 121.65 -43 123.3 -43 125 C-43.66 125 -44.32 125 -45 125 C-45 126.32 -45 127.64 -45 129 C-45.66 129 -46.32 129 -47 129 C-47 130.98 -47 132.96 -47 135 C-47.66 135 -48.32 135 -49 135 C-49 137.31 -49 139.62 -49 142 C-49.99 142 -50.98 142 -52 142 C-52 146.29 -52 150.58 -52 155 C-52.66 155 -53.32 155 -54 155 C-54 159.95 -54 164.9 -54 170 C-53.34 170 -52.68 170 -52 170 C-52 173.63 -52 177.26 -52 181 C-51.01 181 -50.02 181 -49 181 C-49 182.98 -49 184.96 -49 187 C-48.34 187 -47.68 187 -47 187 C-47 188.32 -47 189.64 -47 191 C-46.34 191 -45.68 191 -45 191 C-45 191.66 -45 192.32 -45 193 C-44.34 193 -43.68 193 -43 193 C-43 194.65 -43 196.3 -43 198 C-42.34 198 -41.68 198 -41 198 C-41 198.66 -41 199.32 -41 200 C-40.34 200 -39.68 200 -39 200 C-39 200.66 -39 201.32 -39 202 C-38.34 202 -37.68 202 -37 202 C-37 202.66 -37 203.32 -37 204 C-36.01 204 -35.02 204 -34 204 C-34 204.66 -34 205.32 -34 206 C-32.68 206 -31.36 206 -30 206 C-30 206.66 -30 207.32 -30 208 C-29.34 208 -28.68 208 -28 208 C-28 208.99 -28 209.98 -28 211 C-26.68 211 -25.36 211 -24 211 C-24 211.66 -24 212.32 -24 213 C-22.35 213 -20.7 213 -19 213 C-19 213.66 -19 214.32 -19 215 C-16.36 215 -13.72 215 -11 215 C-11 215.66 -11 216.32 -11 217 C-6.05 217 -1.1 217 4 217 C4 217.66 4 218.32 4 219 C6.31 219 8.62 219 11 219 C11 218.34 11 217.68 11 217 C15.95 217 20.9 217 26 217 C26 216.34 26 215.68 26 215 C28.64 215 31.28 215 34 215 C34 214.34 34 213.68 34 213 C35.65 213 37.3 213 39 213 C39 212.34 39 211.68 39 211 C40.98 211 42.96 211 45 211 C45 210.01 45 209.02 45 208 C46.32 208 47.64 208 49 208 C49 207.34 49 206.68 49 206 C49.66 206 50.32 206 51 206 C51 205.34 51 204.68 51 204 C52.65 204 54.3 204 56 204 C56 203.34 56 202.68 56 202 C56.66 202 57.32 202 58 202 C58 201.34 58 200.68 58 200 C58.66 200 59.32 200 60 200 C60 199.34 60 198.68 60 198 C60.66 198 61.32 198 62 198 C62 197.34 62 196.68 62 196 C62.66 196 63.32 196 64 196 C64 195.01 64 194.02 64 193 C64.66 193 65.32 193 66 193 C66 192.34 66 191.68 66 191 C66.99 191 67.98 191 69 191 C69 190.34 69 189.68 69 189 C69.66 189 70.32 189 71 189 C71 188.34 71 187.68 71 187 C71.66 187 72.32 187 73 187 C73 186.34 73 185.68 73 185 C73.66 185 74.32 185 75 185 C75 183.68 75 182.36 75 181 C75.66 181 76.32 181 77 181 C77 179.35 77 177.7 77 176 C77.66 176 78.32 176 79 176 C79 174.68 79 173.36 79 172 C79.99 172 80.98 172 82 172 C82 170.68 82 169.36 82 168 C82.66 168 83.32 168 84 168 C84 165.69 84 163.38 84 161 C84.66 161 85.32 161 86 161 C86 159.02 86 157.04 86 155 C86.66 155 87.32 155 88 155 C88 144.44 88 133.88 88 123 C87.34 123 86.68 123 86 123 C86 120.69 86 118.38 86 116 C85.34 116 84.68 116 84 116 C84 114.02 84 112.04 84 110 C83.34 110 82.68 110 82 110 C82 108.35 82 106.7 82 105 C81.01 105 80.02 105 79 105 C79 104.34 79 103.68 79 103 C78.34 103 77.68 103 77 103 C77 102.34 77 101.68 77 101 C76.34 101 75.68 101 75 101 C75 100.34 75 99.68 75 99 C74.34 99 73.68 99 73 99 C73 97.68 73 96.36 73 95 C71.68 95 70.36 95 69 95 C69 94.34 69 93.68 69 93 C68.01 93 67.02 93 66 93 C66 92.01 66 91.02 66 90 C65.34 90 64.68 90 64 90 C64 89.34 64 88.68 64 88 C62.68 88 61.36 88 60 88 C60 87.34 60 86.68 60 86 C58.68 86 57.36 86 56 86 C56 85.34 56 84.68 56 84 C53.69 84 51.38 84 49 84 C49 83.34 49 82.68 49 82 C45.7 82 42.4 82 39 82 C39 81.34 39 80.68 39 80 C31.74 80 24.48 80 17 80 Z " fill="#1A9AD6" transform="translate(2494,982)"/>
<path d="M0 0 C8.58 0 17.16 0 26 0 C26 0.66 26 1.32 26 2 C32.27 2 38.54 2 45 2 C45 2.66 45 3.32 45 4 C48.63 4 52.26 4 56 4 C56 4.99 56 5.98 56 7 C58.64 7 61.28 7 64 7 C64 7.66 64 8.32 64 9 C65.65 9 67.3 9 69 9 C69 9.66 69 10.32 69 11 C70.98 11 72.96 11 75 11 C75 11.66 75 12.32 75 13 C76.32 13 77.64 13 79 13 C79 13.66 79 14.32 79 15 C79.99 15 80.98 15 82 15 C82 15.66 82 16.32 82 17 C83.32 17 84.64 17 86 17 C86 17.99 86 18.98 86 20 C86.66 20 87.32 20 88 20 C88 20.66 88 21.32 88 22 C88.66 22 89.32 22 90 22 C90 22.66 90 23.32 90 24 C91.32 24 92.64 24 94 24 C94 25.32 94 26.64 94 28 C94.99 28 95.98 28 97 28 C97 28.66 97 29.32 97 30 C97.66 30 98.32 30 99 30 C99 30.66 99 31.32 99 32 C99.66 32 100.32 32 101 32 C101 33.65 101 35.3 101 37 C101.66 37 102.32 37 103 37 C103 32.71 103 28.42 103 24 C103.66 24 104.32 24 105 24 C105 21.03 105 18.06 105 15 C105.66 15 106.32 15 107 15 C107 13.68 107 12.36 107 11 C108.65 11 110.3 11 112 11 C112 10.34 112 9.68 112 9 C141.04 9 170.08 9 200 9 C200 9.66 200 10.32 200 11 C200.66 11 201.32 11 202 11 C202 11.66 202 12.32 202 13 C202.66 13 203.32 13 204 13 C204 20.26 204 27.52 204 35 C203.34 35 202.68 35 202 35 C202 39.95 202 44.9 202 50 C201.34 50 200.68 50 200 50 C200 53.96 200 57.92 200 62 C199.01 62 198.02 62 197 62 C197 66.29 197 70.58 197 75 C196.34 75 195.68 75 195 75 C195 79.95 195 84.9 195 90 C194.34 90 193.68 90 193 90 C193 94.29 193 98.58 193 103 C192.34 103 191.68 103 191 103 C191 107.29 191 111.58 191 116 C190.34 116 189.68 116 189 116 C189 120.95 189 125.9 189 131 C188.34 131 187.68 131 187 131 C187 135.29 187 139.58 187 144 C186.34 144 185.68 144 185 144 C185 148.29 185 152.58 185 157 C184.01 157 183.02 157 182 157 C182 161.95 182 166.9 182 172 C181.34 172 180.68 172 180 172 C180 176.29 180 180.58 180 185 C179.34 185 178.68 185 178 185 C178 189.29 178 193.58 178 198 C177.34 198 176.68 198 176 198 C176 202.95 176 207.9 176 213 C175.34 213 174.68 213 174 213 C174 217.29 174 221.58 174 226 C173.34 226 172.68 226 172 226 C172 229.96 172 233.92 172 238 C171.34 238 170.68 238 170 238 C170 243.28 170 248.56 170 254 C169.01 254 168.02 254 167 254 C167 257.96 167 261.92 167 266 C166.34 266 165.68 266 165 266 C165 269.63 165 273.26 165 277 C164.34 277 163.68 277 163 277 C163 278.32 163 279.64 163 281 C162.34 281 161.68 281 161 281 C161 281.99 161 282.98 161 284 C160.34 284 159.68 284 159 284 C159 284.66 159 285.32 159 286 C158.34 286 157.68 286 157 286 C157 286.66 157 287.32 157 288 C155.35 288 153.7 288 152 288 C152 288.66 152 289.32 152 290 C125.27 290 98.54 290 71 290 C71 289.34 71 288.68 71 288 C70.34 288 69.68 288 69 288 C69 287.34 69 286.68 69 286 C68.34 286 67.68 286 67 286 C67 284.35 67 282.7 67 281 C66.01 281 65.02 281 64 281 C64 277.04 64 273.08 64 269 C64.99 269 65.98 269 67 269 C67 266.03 67 263.06 67 260 C66.01 260 65.02 260 64 260 C64 260.66 64 261.32 64 262 C63.34 262 62.68 262 62 262 C62 262.66 62 263.32 62 264 C61.34 264 60.68 264 60 264 C60 264.66 60 265.32 60 266 C58.68 266 57.36 266 56 266 C56 266.99 56 267.98 56 269 C55.34 269 54.68 269 54 269 C54 269.66 54 270.32 54 271 C53.34 271 52.68 271 52 271 C52 271.66 52 272.32 52 273 C50.35 273 48.7 273 47 273 C47 273.66 47 274.32 47 275 C46.34 275 45.68 275 45 275 C45 275.66 45 276.32 45 277 C43.68 277 42.36 277 41 277 C41 277.66 41 278.32 41 279 C39.35 279 37.7 279 36 279 C36 279.66 36 280.32 36 281 C34.68 281 33.36 281 32 281 C32 281.99 32 282.98 32 284 C30.68 284 29.36 284 28 284 C28 284.66 28 285.32 28 286 C26.68 286 25.36 286 24 286 C24 286.66 24 287.32 24 288 C21.69 288 19.38 288 17 288 C17 288.66 17 289.32 17 290 C15.02 290 13.04 290 11 290 C11 290.66 11 291.32 11 292 C8.69 292 6.38 292 4 292 C4 292.66 4 293.32 4 294 C0.7 294 -2.6 294 -6 294 C-6 294.66 -6 295.32 -6 296 C-23.16 296 -40.32 296 -58 296 C-58 295.34 -58 294.68 -58 294 C-61.63 294 -65.26 294 -69 294 C-69 293.34 -69 292.68 -69 292 C-71.64 292 -74.28 292 -77 292 C-77 291.34 -77 290.68 -77 290 C-79.31 290 -81.62 290 -84 290 C-84 289.34 -84 288.68 -84 288 C-85.32 288 -86.64 288 -88 288 C-88 287.34 -88 286.68 -88 286 C-89.32 286 -90.64 286 -92 286 C-92 285.34 -92 284.68 -92 284 C-93.65 284 -95.3 284 -97 284 C-97 283.01 -97 282.02 -97 281 C-98.32 281 -99.64 281 -101 281 C-101 280.34 -101 279.68 -101 279 C-101.66 279 -102.32 279 -103 279 C-103 278.34 -103 277.68 -103 277 C-104.32 277 -105.64 277 -107 277 C-107 276.34 -107 275.68 -107 275 C-107.99 275 -108.98 275 -110 275 C-110 274.34 -110 273.68 -110 273 C-110.66 273 -111.32 273 -112 273 C-112 272.34 -112 271.68 -112 271 C-113.32 271 -114.64 271 -116 271 C-116 270.34 -116 269.68 -116 269 C-116.66 269 -117.32 269 -118 269 C-118 268.01 -118 267.02 -118 266 C-118.66 266 -119.32 266 -120 266 C-120 265.34 -120 264.68 -120 264 C-120.66 264 -121.32 264 -122 264 C-122 262.68 -122 261.36 -122 260 C-122.99 260 -123.98 260 -125 260 C-125 259.34 -125 258.68 -125 258 C-125.66 258 -126.32 258 -127 258 C-127 257.34 -127 256.68 -127 256 C-127.66 256 -128.32 256 -129 256 C-129 255.34 -129 254.68 -129 254 C-129.66 254 -130.32 254 -131 254 C-131 252.35 -131 250.7 -131 249 C-131.66 249 -132.32 249 -133 249 C-133 248.34 -133 247.68 -133 247 C-133.66 247 -134.32 247 -135 247 C-135 245.68 -135 244.36 -135 243 C-135.66 243 -136.32 243 -137 243 C-137 241.35 -137 239.7 -137 238 C-137.99 238 -138.98 238 -140 238 C-140 236.68 -140 235.36 -140 234 C-140.66 234 -141.32 234 -142 234 C-142 232.68 -142 231.36 -142 230 C-142.66 230 -143.32 230 -144 230 C-144 227.69 -144 225.38 -144 223 C-144.66 223 -145.32 223 -146 223 C-146 221.02 -146 219.04 -146 217 C-146.66 217 -147.32 217 -148 217 C-148 214.03 -148 211.06 -148 208 C-148.66 208 -149.32 208 -150 208 C-150 204.7 -150 201.4 -150 198 C-150.66 198 -151.32 198 -152 198 C-152 182.16 -152 166.32 -152 150 C-151.34 150 -150.68 150 -150 150 C-150 146.04 -150 142.08 -150 138 C-149.34 138 -148.68 138 -148 138 C-148 135.03 -148 132.06 -148 129 C-147.34 129 -146.68 129 -146 129 C-146 126.03 -146 123.06 -146 120 C-145.34 120 -144.68 120 -144 120 C-144 118.02 -144 116.04 -144 114 C-143.34 114 -142.68 114 -142 114 C-142 112.02 -142 110.04 -142 108 C-141.34 108 -140.68 108 -140 108 C-140 106.35 -140 104.7 -140 103 C-139.01 103 -138.02 103 -137 103 C-137 101.68 -137 100.36 -137 99 C-136.34 99 -135.68 99 -135 99 C-135 97.68 -135 96.36 -135 95 C-134.34 95 -133.68 95 -133 95 C-133 93.35 -133 91.7 -133 90 C-132.34 90 -131.68 90 -131 90 C-131 88.68 -131 87.36 -131 86 C-130.34 86 -129.68 86 -129 86 C-129 84.68 -129 83.36 -129 82 C-128.34 82 -127.68 82 -127 82 C-127 80.35 -127 78.7 -127 77 C-126.34 77 -125.68 77 -125 77 C-125 76.34 -125 75.68 -125 75 C-124.01 75 -123.02 75 -122 75 C-122 73.68 -122 72.36 -122 71 C-121.34 71 -120.68 71 -120 71 C-120 70.34 -120 69.68 -120 69 C-119.34 69 -118.68 69 -118 69 C-118 68.34 -118 67.68 -118 67 C-117.34 67 -116.68 67 -116 67 C-116 65.35 -116 63.7 -116 62 C-115.34 62 -114.68 62 -114 62 C-114 61.34 -114 60.68 -114 60 C-113.34 60 -112.68 60 -112 60 C-112 59.34 -112 58.68 -112 58 C-111.34 58 -110.68 58 -110 58 C-110 57.34 -110 56.68 -110 56 C-109.01 56 -108.02 56 -107 56 C-107 55.34 -107 54.68 -107 54 C-106.34 54 -105.68 54 -105 54 C-105 53.34 -105 52.68 -105 52 C-104.34 52 -103.68 52 -103 52 C-103 51.34 -103 50.68 -103 50 C-102.34 50 -101.68 50 -101 50 C-101 49.01 -101 48.02 -101 47 C-100.34 47 -99.68 47 -99 47 C-99 46.34 -99 45.68 -99 45 C-98.34 45 -97.68 45 -97 45 C-97 44.34 -97 43.68 -97 43 C-96.01 43 -95.02 43 -94 43 C-94 42.34 -94 41.68 -94 41 C-93.34 41 -92.68 41 -92 41 C-92 40.34 -92 39.68 -92 39 C-91.34 39 -90.68 39 -90 39 C-90 38.34 -90 37.68 -90 37 C-89.34 37 -88.68 37 -88 37 C-88 36.34 -88 35.68 -88 35 C-86.68 35 -85.36 35 -84 35 C-84 34.01 -84 33.02 -84 32 C-83.34 32 -82.68 32 -82 32 C-82 31.34 -82 30.68 -82 30 C-81.01 30 -80.02 30 -79 30 C-79 29.34 -79 28.68 -79 28 C-77.68 28 -76.36 28 -75 28 C-75 27.34 -75 26.68 -75 26 C-74.34 26 -73.68 26 -73 26 C-73 25.34 -73 24.68 -73 24 C-71.68 24 -70.36 24 -69 24 C-69 23.34 -69 22.68 -69 22 C-67.35 22 -65.7 22 -64 22 C-64 21.34 -64 20.68 -64 20 C-62.68 20 -61.36 20 -60 20 C-60 19.01 -60 18.02 -60 17 C-58.68 17 -57.36 17 -56 17 C-56 16.34 -56 15.68 -56 15 C-54.68 15 -53.36 15 -52 15 C-52 14.34 -52 13.68 -52 13 C-50.35 13 -48.7 13 -47 13 C-47 12.34 -47 11.68 -47 11 C-45.02 11 -43.04 11 -41 11 C-41 10.34 -41 9.68 -41 9 C-38.69 9 -36.38 9 -34 9 C-34 8.34 -34 7.68 -34 7 C-32.02 7 -30.04 7 -28 7 C-28 6.01 -28 5.02 -28 4 C-24.37 4 -20.74 4 -17 4 C-17 3.34 -17 2.68 -17 2 C-11.39 2 -5.78 2 0 2 C0 1.34 0 0.68 0 0 Z M19 80 C19 80.66 19 81.32 19 82 C15.7 82 12.4 82 9 82 C9 82.66 9 83.32 9 84 C6.69 84 4.38 84 2 84 C2 84.66 2 85.32 2 86 C0.02 86 -1.96 86 -4 86 C-4 86.66 -4 87.32 -4 88 C-5.65 88 -7.3 88 -9 88 C-9 88.66 -9 89.32 -9 90 C-10.32 90 -11.64 90 -13 90 C-13 90.99 -13 91.98 -13 93 C-13.66 93 -14.32 93 -15 93 C-15 93.66 -15 94.32 -15 95 C-16.32 95 -17.64 95 -19 95 C-19 95.66 -19 96.32 -19 97 C-19.66 97 -20.32 97 -21 97 C-21 97.66 -21 98.32 -21 99 C-21.99 99 -22.98 99 -24 99 C-24 99.66 -24 100.32 -24 101 C-24.66 101 -25.32 101 -26 101 C-26 101.66 -26 102.32 -26 103 C-26.66 103 -27.32 103 -28 103 C-28 103.66 -28 104.32 -28 105 C-28.66 105 -29.32 105 -30 105 C-30 105.99 -30 106.98 -30 108 C-30.66 108 -31.32 108 -32 108 C-32 108.66 -32 109.32 -32 110 C-32.66 110 -33.32 110 -34 110 C-34 110.66 -34 111.32 -34 112 C-34.99 112 -35.98 112 -37 112 C-37 113.32 -37 114.64 -37 116 C-37.66 116 -38.32 116 -39 116 C-39 116.66 -39 117.32 -39 118 C-39.66 118 -40.32 118 -41 118 C-41 119.65 -41 121.3 -41 123 C-41.66 123 -42.32 123 -43 123 C-43 124.32 -43 125.64 -43 127 C-43.66 127 -44.32 127 -45 127 C-45 128.32 -45 129.64 -45 131 C-45.66 131 -46.32 131 -47 131 C-47 133.31 -47 135.62 -47 138 C-47.66 138 -48.32 138 -49 138 C-49 140.64 -49 143.28 -49 146 C-49.99 146 -50.98 146 -52 146 C-52 155.9 -52 165.8 -52 176 C-51.01 176 -50.02 176 -49 176 C-49 178.31 -49 180.62 -49 183 C-48.34 183 -47.68 183 -47 183 C-47 184.98 -47 186.96 -47 189 C-46.34 189 -45.68 189 -45 189 C-45 190.32 -45 191.64 -45 193 C-44.34 193 -43.68 193 -43 193 C-43 193.99 -43 194.98 -43 196 C-42.34 196 -41.68 196 -41 196 C-41 196.66 -41 197.32 -41 198 C-40.34 198 -39.68 198 -39 198 C-39 198.66 -39 199.32 -39 200 C-38.34 200 -37.68 200 -37 200 C-37 200.66 -37 201.32 -37 202 C-36.01 202 -35.02 202 -34 202 C-34 202.66 -34 203.32 -34 204 C-33.34 204 -32.68 204 -32 204 C-32 204.66 -32 205.32 -32 206 C-31.34 206 -30.68 206 -30 206 C-30 206.66 -30 207.32 -30 208 C-28.68 208 -27.36 208 -26 208 C-26 208.99 -26 209.98 -26 211 C-25.34 211 -24.68 211 -24 211 C-24 211.66 -24 212.32 -24 213 C-21.69 213 -19.38 213 -17 213 C-17 213.66 -17 214.32 -17 215 C-15.02 215 -13.04 215 -11 215 C-11 215.66 -11 216.32 -11 217 C-6.05 217 -1.1 217 4 217 C4 217.66 4 218.32 4 219 C6.31 219 8.62 219 11 219 C11 218.34 11 217.68 11 217 C16.61 217 22.22 217 28 217 C28 216.34 28 215.68 28 215 C29.98 215 31.96 215 34 215 C34 214.34 34 213.68 34 213 C36.31 213 38.62 213 41 213 C41 212.34 41 211.68 41 211 C42.32 211 43.64 211 45 211 C45 210.01 45 209.02 45 208 C46.32 208 47.64 208 49 208 C49 207.34 49 206.68 49 206 C50.65 206 52.3 206 54 206 C54 205.34 54 204.68 54 204 C54.66 204 55.32 204 56 204 C56 203.34 56 202.68 56 202 C56.66 202 57.32 202 58 202 C58 201.34 58 200.68 58 200 C59.32 200 60.64 200 62 200 C62 199.34 62 198.68 62 198 C62.66 198 63.32 198 64 198 C64 197.34 64 196.68 64 196 C64.99 196 65.98 196 67 196 C67 195.01 67 194.02 67 193 C67.66 193 68.32 193 69 193 C69 192.34 69 191.68 69 191 C69.66 191 70.32 191 71 191 C71 189.68 71 188.36 71 187 C71.66 187 72.32 187 73 187 C73 186.34 73 185.68 73 185 C73.66 185 74.32 185 75 185 C75 184.34 75 183.68 75 183 C75.66 183 76.32 183 77 183 C77 181.35 77 179.7 77 178 C77.66 178 78.32 178 79 178 C79 176.68 79 175.36 79 174 C79.99 174 80.98 174 82 174 C82 172.68 82 171.36 82 170 C82.66 170 83.32 170 84 170 C84 168.68 84 167.36 84 166 C84.66 166 85.32 166 86 166 C86 163.03 86 160.06 86 157 C86.66 157 87.32 157 88 157 C88 154.03 88 151.06 88 148 C88.66 148 89.32 148 90 148 C90 141.07 90 134.14 90 127 C89.34 127 88.68 127 88 127 C88 124.03 88 121.06 88 118 C87.34 118 86.68 118 86 118 C86 116.02 86 114.04 86 112 C85.34 112 84.68 112 84 112 C84 110.68 84 109.36 84 108 C83.34 108 82.68 108 82 108 C82 107.01 82 106.02 82 105 C81.01 105 80.02 105 79 105 C79 103.68 79 102.36 79 101 C78.34 101 77.68 101 77 101 C77 100.34 77 99.68 77 99 C76.34 99 75.68 99 75 99 C75 98.34 75 97.68 75 97 C74.34 97 73.68 97 73 97 C73 96.34 73 95.68 73 95 C72.34 95 71.68 95 71 95 C71 94.34 71 93.68 71 93 C70.34 93 69.68 93 69 93 C69 92.01 69 91.02 69 90 C67.35 90 65.7 90 64 90 C64 89.34 64 88.68 64 88 C62.68 88 61.36 88 60 88 C60 87.34 60 86.68 60 86 C58.68 86 57.36 86 56 86 C56 85.34 56 84.68 56 84 C53.69 84 51.38 84 49 84 C49 83.34 49 82.68 49 82 C46.36 82 43.72 82 41 82 C41 81.34 41 80.68 41 80 C33.74 80 26.48 80 19 80 Z " fill="#233C80" transform="translate(1412,982)"/>
<path d="M0 0 C29.7 0 59.4 0 90 0 C90 0.66 90 1.32 90 2 C90.66 2 91.32 2 92 2 C92 2.66 92 3.32 92 4 C92.66 4 93.32 4 94 4 C94 4.66 94 5.32 94 6 C94.66 6 95.32 6 96 6 C96 6.66 96 7.32 96 8 C96.66 8 97.32 8 98 8 C98 9.65 98 11.3 98 13 C98.99 13 99.98 13 101 13 C101 14.98 101 16.96 101 19 C101.66 19 102.32 19 103 19 C103 21.31 103 23.62 103 26 C103.66 26 104.32 26 105 26 C105 28.64 105 31.28 105 34 C105.66 34 106.32 34 107 34 C107 36.31 107 38.62 107 41 C107.66 41 108.32 41 109 41 C109 42.98 109 44.96 109 47 C109.66 47 110.32 47 111 47 C111 49.97 111 52.94 111 56 C111.66 56 112.32 56 113 56 C113 57.98 113 59.96 113 62 C113.99 62 114.98 62 116 62 C116 63.98 116 65.96 116 68 C116.66 68 117.32 68 118 68 C118 70.97 118 73.94 118 77 C118.66 77 119.32 77 120 77 C120 79.31 120 81.62 120 84 C120.66 84 121.32 84 122 84 C122 85.98 122 87.96 122 90 C122.66 90 123.32 90 124 90 C124 92.97 124 95.94 124 99 C124.66 99 125.32 99 126 99 C126 100.98 126 102.96 126 105 C126.99 105 127.98 105 129 105 C129 106.98 129 108.96 129 111 C129.66 111 130.32 111 131 111 C131 113.97 131 116.94 131 120 C131.66 120 132.32 120 133 120 C133 121.98 133 123.96 133 126 C133.66 126 134.32 126 135 126 C135 128.31 135 130.62 135 133 C135.66 133 136.32 133 137 133 C137 135.64 137 138.28 137 141 C137.66 141 138.32 141 139 141 C139 143.31 139 145.62 139 148 C139.66 148 140.32 148 141 148 C141 149.98 141 151.96 141 154 C141.99 154 142.98 154 144 154 C144 152.68 144 151.36 144 150 C144.66 150 145.32 150 146 150 C146 149.34 146 148.68 146 148 C146.66 148 147.32 148 148 148 C148 146.68 148 145.36 148 144 C148.66 144 149.32 144 150 144 C150 143.01 150 142.02 150 141 C150.66 141 151.32 141 152 141 C152 139.68 152 138.36 152 137 C152.66 137 153.32 137 154 137 C154 136.34 154 135.68 154 135 C154.66 135 155.32 135 156 135 C156 133.68 156 132.36 156 131 C156.99 131 157.98 131 159 131 C159 130.34 159 129.68 159 129 C159.66 129 160.32 129 161 129 C161 127.35 161 125.7 161 124 C161.66 124 162.32 124 163 124 C163 123.34 163 122.68 163 122 C163.66 122 164.32 122 165 122 C165 120.68 165 119.36 165 118 C165.66 118 166.32 118 167 118 C167 117.34 167 116.68 167 116 C167.66 116 168.32 116 169 116 C169 114.35 169 112.7 169 111 C169.66 111 170.32 111 171 111 C171 110.34 171 109.68 171 109 C171.99 109 172.98 109 174 109 C174 108.34 174 107.68 174 107 C174.66 107 175.32 107 176 107 C176 105.68 176 104.36 176 103 C176.66 103 177.32 103 178 103 C178 102.34 178 101.68 178 101 C178.66 101 179.32 101 180 101 C180 99.35 180 97.7 180 96 C180.66 96 181.32 96 182 96 C182 95.34 182 94.68 182 94 C182.66 94 183.32 94 184 94 C184 92.68 184 91.36 184 90 C184.66 90 185.32 90 186 90 C186 89.34 186 88.68 186 88 C186.99 88 187.98 88 189 88 C189 86.68 189 85.36 189 84 C189.66 84 190.32 84 191 84 C191 83.01 191 82.02 191 81 C191.66 81 192.32 81 193 81 C193 79.68 193 78.36 193 77 C193.66 77 194.32 77 195 77 C195 76.34 195 75.68 195 75 C195.66 75 196.32 75 197 75 C197 73.68 197 72.36 197 71 C197.66 71 198.32 71 199 71 C199 70.01 199 69.02 199 68 C199.99 68 200.98 68 202 68 C202 66.68 202 65.36 202 64 C202.66 64 203.32 64 204 64 C204 63.34 204 62.68 204 62 C204.66 62 205.32 62 206 62 C206 60.68 206 59.36 206 58 C206.66 58 207.32 58 208 58 C208 57.34 208 56.68 208 56 C208.66 56 209.32 56 210 56 C210 54.35 210 52.7 210 51 C210.66 51 211.32 51 212 51 C212 50.34 212 49.68 212 49 C212.66 49 213.32 49 214 49 C214 48.34 214 47.68 214 47 C214.99 47 215.98 47 217 47 C217 45.68 217 44.36 217 43 C217.66 43 218.32 43 219 43 C219 42.34 219 41.68 219 41 C219.66 41 220.32 41 221 41 C221 39.35 221 37.7 221 36 C221.66 36 222.32 36 223 36 C223 35.34 223 34.68 223 34 C223.66 34 224.32 34 225 34 C225 32.68 225 31.36 225 30 C225.66 30 226.32 30 227 30 C227 29.34 227 28.68 227 28 C227.66 28 228.32 28 229 28 C229 26.35 229 24.7 229 23 C229.99 23 230.98 23 232 23 C232 22.34 232 21.68 232 21 C232.66 21 233.32 21 234 21 C234 19.68 234 18.36 234 17 C234.66 17 235.32 17 236 17 C236 16.34 236 15.68 236 15 C236.66 15 237.32 15 238 15 C238 13.68 238 12.36 238 11 C238.66 11 239.32 11 240 11 C240 10.01 240 9.02 240 8 C240.66 8 241.32 8 242 8 C242 7.34 242 6.68 242 6 C242.66 6 243.32 6 244 6 C244 5.34 244 4.68 244 4 C244.99 4 245.98 4 247 4 C247 3.34 247 2.68 247 2 C247.66 2 248.32 2 249 2 C249 1.34 249 0.68 249 0 C279.36 0 309.72 0 341 0 C341 0.66 341 1.32 341 2 C341.66 2 342.32 2 343 2 C343 2.66 343 3.32 343 4 C343.66 4 344.32 4 345 4 C345 8.95 345 13.9 345 19 C344.34 19 343.68 19 343 19 C343 20.32 343 21.64 343 23 C342.34 23 341.68 23 341 23 C341 23.99 341 24.98 341 26 C340.34 26 339.68 26 339 26 C339 27.32 339 28.64 339 30 C338.34 30 337.68 30 337 30 C337 30.66 337 31.32 337 32 C336.34 32 335.68 32 335 32 C335 33.32 335 34.64 335 36 C334.01 36 333.02 36 332 36 C332 36.66 332 37.32 332 38 C331.34 38 330.68 38 330 38 C330 39.65 330 41.3 330 43 C329.34 43 328.68 43 328 43 C328 43.66 328 44.32 328 45 C327.34 45 326.68 45 326 45 C326 46.32 326 47.64 326 49 C325.34 49 324.68 49 324 49 C324 49.66 324 50.32 324 51 C323.34 51 322.68 51 322 51 C322 51.66 322 52.32 322 53 C321.34 53 320.68 53 320 53 C320 54.65 320 56.3 320 58 C319.01 58 318.02 58 317 58 C317 58.66 317 59.32 317 60 C316.34 60 315.68 60 315 60 C315 61.32 315 62.64 315 64 C314.34 64 313.68 64 313 64 C313 64.66 313 65.32 313 66 C312.34 66 311.68 66 311 66 C311 67.65 311 69.3 311 71 C310.34 71 309.68 71 309 71 C309 71.66 309 72.32 309 73 C308.34 73 307.68 73 307 73 C307 74.32 307 75.64 307 77 C306.34 77 305.68 77 305 77 C305 77.66 305 78.32 305 79 C304.01 79 303.02 79 302 79 C302 79.66 302 80.32 302 81 C301.34 81 300.68 81 300 81 C300 82.65 300 84.3 300 86 C299.34 86 298.68 86 298 86 C298 86.66 298 87.32 298 88 C297.34 88 296.68 88 296 88 C296 89.32 296 90.64 296 92 C295.34 92 294.68 92 294 92 C294 92.66 294 93.32 294 94 C293.34 94 292.68 94 292 94 C292 95.65 292 97.3 292 99 C291.34 99 290.68 99 290 99 C290 99.66 290 100.32 290 101 C289.01 101 288.02 101 287 101 C287 101.66 287 102.32 287 103 C286.34 103 285.68 103 285 103 C285 104.32 285 105.64 285 107 C284.34 107 283.68 107 283 107 C283 107.66 283 108.32 283 109 C282.34 109 281.68 109 281 109 C281 110.65 281 112.3 281 114 C280.34 114 279.68 114 279 114 C279 114.66 279 115.32 279 116 C278.34 116 277.68 116 277 116 C277 117.32 277 118.64 277 120 C276.01 120 275.02 120 274 120 C274 120.66 274 121.32 274 122 C273.34 122 272.68 122 272 122 C272 123.32 272 124.64 272 126 C271.34 126 270.68 126 270 126 C270 126.99 270 127.98 270 129 C269.34 129 268.68 129 268 129 C268 129.66 268 130.32 268 131 C267.34 131 266.68 131 266 131 C266 132.32 266 133.64 266 135 C265.34 135 264.68 135 264 135 C264 135.66 264 136.32 264 137 C263.34 137 262.68 137 262 137 C262 138.32 262 139.64 262 141 C261.01 141 260.02 141 259 141 C259 141.99 259 142.98 259 144 C258.34 144 257.68 144 257 144 C257 145.32 257 146.64 257 148 C256.34 148 255.68 148 255 148 C255 148.66 255 149.32 255 150 C254.34 150 253.68 150 253 150 C253 151.32 253 152.64 253 154 C252.34 154 251.68 154 251 154 C251 154.99 251 155.98 251 157 C250.34 157 249.68 157 249 157 C249 157.66 249 158.32 249 159 C248.34 159 247.68 159 247 159 C247 160.32 247 161.64 247 163 C246.01 163 245.02 163 244 163 C244 163.66 244 164.32 244 165 C243.34 165 242.68 165 242 165 C242 166.32 242 167.64 242 169 C241.34 169 240.68 169 240 169 C240 169.99 240 170.98 240 172 C239.34 172 238.68 172 238 172 C238 173.32 238 174.64 238 176 C237.34 176 236.68 176 236 176 C236 176.66 236 177.32 236 178 C235.34 178 234.68 178 234 178 C234 179.32 234 180.64 234 182 C233.34 182 232.68 182 232 182 C232 182.66 232 183.32 232 184 C231.01 184 230.02 184 229 184 C229 184.99 229 185.98 229 187 C228.34 187 227.68 187 227 187 C227 188.32 227 189.64 227 191 C226.34 191 225.68 191 225 191 C225 191.66 225 192.32 225 193 C224.34 193 223.68 193 223 193 C223 194.32 223 195.64 223 197 C222.34 197 221.68 197 221 197 C221 197.66 221 198.32 221 199 C220.34 199 219.68 199 219 199 C219 200.65 219 202.3 219 204 C218.34 204 217.68 204 217 204 C217 204.66 217 205.32 217 206 C216.01 206 215.02 206 214 206 C214 207.32 214 208.64 214 210 C213.34 210 212.68 210 212 210 C212 210.66 212 211.32 212 212 C211.34 212 210.68 212 210 212 C210 212.66 210 213.32 210 214 C209.34 214 208.68 214 208 214 C208 215.65 208 217.3 208 219 C207.34 219 206.68 219 206 219 C206 219.66 206 220.32 206 221 C205.34 221 204.68 221 204 221 C204 222.32 204 223.64 204 225 C203.34 225 202.68 225 202 225 C202 225.66 202 226.32 202 227 C201.01 227 200.02 227 199 227 C199 228.65 199 230.3 199 232 C198.34 232 197.68 232 197 232 C197 232.66 197 233.32 197 234 C196.34 234 195.68 234 195 234 C195 235.32 195 236.64 195 238 C194.34 238 193.68 238 193 238 C193 238.66 193 239.32 193 240 C192.34 240 191.68 240 191 240 C191 240.66 191 241.32 191 242 C190.34 242 189.68 242 189 242 C189 243.65 189 245.3 189 247 C188.01 247 187.02 247 186 247 C186 247.66 186 248.32 186 249 C185.34 249 184.68 249 184 249 C184 250.32 184 251.64 184 253 C183.34 253 182.68 253 182 253 C182 253.66 182 254.32 182 255 C181.34 255 180.68 255 180 255 C180 256.65 180 258.3 180 260 C179.34 260 178.68 260 178 260 C178 260.66 178 261.32 178 262 C177.34 262 176.68 262 176 262 C176 263.32 176 264.64 176 266 C175.34 266 174.68 266 174 266 C174 266.66 174 267.32 174 268 C173.01 268 172.02 268 171 268 C171 268.66 171 269.32 171 270 C170.34 270 169.68 270 169 270 C169 271.65 169 273.3 169 275 C168.34 275 167.68 275 167 275 C167 275.66 167 276.32 167 277 C166.34 277 165.68 277 165 277 C165 278.32 165 279.64 165 281 C164.34 281 163.68 281 163 281 C163 281.66 163 282.32 163 283 C162.34 283 161.68 283 161 283 C161 284.32 161 285.64 161 287 C160.34 287 159.68 287 159 287 C159 287.99 159 288.98 159 290 C158.01 290 157.02 290 156 290 C156 291.32 156 292.64 156 294 C155.34 294 154.68 294 154 294 C154 294.66 154 295.32 154 296 C153.34 296 152.68 296 152 296 C152 296.66 152 297.32 152 298 C151.34 298 150.68 298 150 298 C150 299.32 150 300.64 150 302 C149.34 302 148.68 302 148 302 C148 302.99 148 303.98 148 305 C147.34 305 146.68 305 146 305 C146 306.32 146 307.64 146 309 C145.34 309 144.68 309 144 309 C144 309.66 144 310.32 144 311 C143.01 311 142.02 311 141 311 C141 312.32 141 313.64 141 315 C140.34 315 139.68 315 139 315 C139 315.99 139 316.98 139 318 C138.34 318 137.68 318 137 318 C137 319.32 137 320.64 137 322 C136.34 322 135.68 322 135 322 C135 322.66 135 323.32 135 324 C134.34 324 133.68 324 133 324 C133 324.66 133 325.32 133 326 C132.34 326 131.68 326 131 326 C131 327.32 131 328.64 131 330 C130.34 330 129.68 330 129 330 C129 330.99 129 331.98 129 333 C128.01 333 127.02 333 126 333 C126 334.32 126 335.64 126 337 C125.34 337 124.68 337 124 337 C124 337.66 124 338.32 124 339 C123.34 339 122.68 339 122 339 C122 340.32 122 341.64 122 343 C121.34 343 120.68 343 120 343 C120 343.66 120 344.32 120 345 C119.34 345 118.68 345 118 345 C118 346.65 118 348.3 118 350 C117.34 350 116.68 350 116 350 C116 350.66 116 351.32 116 352 C115.01 352 114.02 352 113 352 C113 352.66 113 353.32 113 354 C112.34 354 111.68 354 111 354 C111 355.32 111 356.64 111 358 C110.34 358 109.68 358 109 358 C109 358.66 109 359.32 109 360 C108.34 360 107.68 360 107 360 C107 361.65 107 363.3 107 365 C106.34 365 105.68 365 105 365 C105 365.66 105 366.32 105 367 C104.34 367 103.68 367 103 367 C103 368.32 103 369.64 103 371 C102.34 371 101.68 371 101 371 C101 371.66 101 372.32 101 373 C100.01 373 99.02 373 98 373 C98 373.66 98 374.32 98 375 C96.68 375 95.36 375 94 375 C94 375.99 94 376.98 94 378 C92.68 378 91.36 378 90 378 C90 378.66 90 379.32 90 380 C61.62 380 33.24 380 4 380 C4 379.34 4 378.68 4 378 C3.34 378 2.68 378 2 378 C2 377.01 2 376.02 2 375 C1.34 375 0.68 375 0 375 C0 374.34 0 373.68 0 373 C-0.66 373 -1.32 373 -2 373 C-2 368.05 -2 363.1 -2 358 C-1.34 358 -0.68 358 0 358 C0 357.34 0 356.68 0 356 C0.66 356 1.32 356 2 356 C2 354.68 2 353.36 2 352 C2.66 352 3.32 352 4 352 C4 351.34 4 350.68 4 350 C4.66 350 5.32 350 6 350 C6 348.35 6 346.7 6 345 C6.66 345 7.32 345 8 345 C8 344.34 8 343.68 8 343 C8.66 343 9.32 343 10 343 C10 342.34 10 341.68 10 341 C10.99 341 11.98 341 13 341 C13 339.68 13 338.36 13 337 C13.66 337 14.32 337 15 337 C15 336.34 15 335.68 15 335 C15.66 335 16.32 335 17 335 C17 333.35 17 331.7 17 330 C17.66 330 18.32 330 19 330 C19 329.34 19 328.68 19 328 C19.66 328 20.32 328 21 328 C21 326.68 21 325.36 21 324 C21.66 324 22.32 324 23 324 C23 323.34 23 322.68 23 322 C23.66 322 24.32 322 25 322 C25 321.34 25 320.68 25 320 C25.99 320 26.98 320 28 320 C28 318.35 28 316.7 28 315 C28.66 315 29.32 315 30 315 C30 314.34 30 313.68 30 313 C30.66 313 31.32 313 32 313 C32 311.68 32 310.36 32 309 C32.66 309 33.32 309 34 309 C34 308.34 34 307.68 34 307 C34.66 307 35.32 307 36 307 C36 306.34 36 305.68 36 305 C36.66 305 37.32 305 38 305 C38 303.35 38 301.7 38 300 C38.66 300 39.32 300 40 300 C40 299.34 40 298.68 40 298 C40.99 298 41.98 298 43 298 C43 296.68 43 295.36 43 294 C43.66 294 44.32 294 45 294 C45 293.34 45 292.68 45 292 C45.66 292 46.32 292 47 292 C47 291.34 47 290.68 47 290 C47.66 290 48.32 290 49 290 C49 288.35 49 286.7 49 285 C49.66 285 50.32 285 51 285 C51 284.34 51 283.68 51 283 C51.66 283 52.32 283 53 283 C53 281.68 53 280.36 53 279 C53.99 279 54.98 279 56 279 C56 278.34 56 277.68 56 277 C56.66 277 57.32 277 58 277 C58 275.35 58 273.7 58 272 C58.66 272 59.32 272 60 272 C60 271.34 60 270.68 60 270 C60.66 270 61.32 270 62 270 C62 269.34 62 268.68 62 268 C62.66 268 63.32 268 64 268 C64 266.68 64 265.36 64 264 C64.66 264 65.32 264 66 264 C66 263.34 66 262.68 66 262 C66.66 262 67.32 262 68 262 C68 260.35 68 258.7 68 257 C68.99 257 69.98 257 71 257 C71 256.34 71 255.68 71 255 C71.66 255 72.32 255 73 255 C73 254.34 73 253.68 73 253 C73.66 253 74.32 253 75 253 C75 252.34 75 251.68 75 251 C74.34 251 73.68 251 73 251 C73 249.02 73 247.04 73 245 C72.34 245 71.68 245 71 245 C71 242.69 71 240.38 71 238 C70.01 238 69.02 238 68 238 C68 236.02 68 234.04 68 232 C67.34 232 66.68 232 66 232 C66 229.69 66 227.38 66 225 C65.34 225 64.68 225 64 225 C64 223.02 64 221.04 64 219 C63.34 219 62.68 219 62 219 C62 216.69 62 214.38 62 212 C61.34 212 60.68 212 60 212 C60 210.02 60 208.04 60 206 C59.34 206 58.68 206 58 206 C58 204.68 58 203.36 58 202 C57.34 202 56.68 202 56 202 C56 199.69 56 197.38 56 195 C55.01 195 54.02 195 53 195 C53 193.02 53 191.04 53 189 C52.34 189 51.68 189 51 189 C51 186.69 51 184.38 51 182 C50.34 182 49.68 182 49 182 C49 180.02 49 178.04 49 176 C48.34 176 47.68 176 47 176 C47 173.69 47 171.38 47 169 C46.34 169 45.68 169 45 169 C45 167.02 45 165.04 45 163 C44.34 163 43.68 163 43 163 C43 161.02 43 159.04 43 157 C42.01 157 41.02 157 40 157 C40 154.69 40 152.38 40 150 C39.34 150 38.68 150 38 150 C38 148.02 38 146.04 38 144 C37.34 144 36.68 144 36 144 C36 141.69 36 139.38 36 137 C35.34 137 34.68 137 34 137 C34 135.02 34 133.04 34 131 C33.34 131 32.68 131 32 131 C32 128.69 32 126.38 32 124 C31.34 124 30.68 124 30 124 C30 122.02 30 120.04 30 118 C29.34 118 28.68 118 28 118 C28 115.69 28 113.38 28 111 C27.01 111 26.02 111 25 111 C25 109.68 25 108.36 25 107 C24.34 107 23.68 107 23 107 C23 105.02 23 103.04 23 101 C22.34 101 21.68 101 21 101 C21 98.69 21 96.38 21 94 C20.34 94 19.68 94 19 94 C19 92.02 19 90.04 19 88 C18.34 88 17.68 88 17 88 C17 85.69 17 83.38 17 81 C16.34 81 15.68 81 15 81 C15 79.02 15 77.04 15 75 C14.34 75 13.68 75 13 75 C13 72.69 13 70.38 13 68 C12.01 68 11.02 68 10 68 C10 66.02 10 64.04 10 62 C9.34 62 8.68 62 8 62 C8 60.02 8 58.04 8 56 C7.34 56 6.68 56 6 56 C6 53.69 6 51.38 6 49 C5.34 49 4.68 49 4 49 C4 47.02 4 45.04 4 43 C3.34 43 2.68 43 2 43 C2 40.69 2 38.38 2 36 C1.34 36 0.68 36 0 36 C0 34.02 0 32.04 0 30 C-0.66 30 -1.32 30 -2 30 C-2 27.69 -2 25.38 -2 23 C-2.99 23 -3.98 23 -5 23 C-5 21.02 -5 19.04 -5 17 C-5.66 17 -6.32 17 -7 17 C-7 13.37 -7 9.74 -7 6 C-6.34 6 -5.68 6 -5 6 C-5 5.34 -5 4.68 -5 4 C-4.01 4 -3.02 4 -2 4 C-2 3.34 -2 2.68 -2 2 C-1.34 2 -0.68 2 0 2 C0 1.34 0 0.68 0 0 Z " fill="#233B80" transform="translate(1657,991)"/>
<path d="M0 0 C71.28 0 142.56 0 216 0 C216 0.66 216 1.32 216 2 C220.95 2 225.9 2 231 2 C231 2.99 231 3.98 231 5 C233.97 5 236.94 5 240 5 C240 5.66 240 6.32 240 7 C242.97 7 245.94 7 249 7 C249 7.66 249 8.32 249 9 C251.64 9 254.28 9 257 9 C257 9.66 257 10.32 257 11 C259.31 11 261.62 11 264 11 C264 11.66 264 12.32 264 13 C265.98 13 267.96 13 270 13 C270 13.66 270 14.32 270 15 C271.32 15 272.64 15 274 15 C274 15.66 274 16.32 274 17 C275.65 17 277.3 17 279 17 C279 17.99 279 18.98 279 20 C280.32 20 281.64 20 283 20 C283 22.64 283 25.28 283 28 C282.34 28 281.68 28 281 28 C281 30.97 281 33.94 281 37 C280.34 37 279.68 37 279 37 C279 39.64 279 42.28 279 45 C278.34 45 277.68 45 277 45 C277 47.97 277 50.94 277 54 C276.01 54 275.02 54 274 54 C274 57.63 274 61.26 274 65 C273.34 65 272.68 65 272 65 C272 66.98 272 68.96 272 71 C271.34 71 270.68 71 270 71 C270 73.31 270 75.62 270 78 C269.34 78 268.68 78 268 78 C268 79.32 268 80.64 268 82 C267.34 82 266.68 82 266 82 C266 83.98 266 85.96 266 88 C265.34 88 264.68 88 264 88 C264 89.65 264 91.3 264 93 C263.34 93 262.68 93 262 93 C262 94.98 262 96.96 262 99 C261.01 99 260.02 99 259 99 C259 100.32 259 101.64 259 103 C258.34 103 257.68 103 257 103 C257 104.65 257 106.3 257 108 C256.34 108 255.68 108 255 108 C255 109.32 255 110.64 255 112 C254.34 112 253.68 112 253 112 C253 113.32 253 114.64 253 116 C252.34 116 251.68 116 251 116 C251 116.66 251 117.32 251 118 C250.34 118 249.68 118 249 118 C249 119.65 249 121.3 249 123 C248.34 123 247.68 123 247 123 C247 124.32 247 125.64 247 127 C246.01 127 245.02 127 244 127 C244 127.66 244 128.32 244 129 C243.34 129 242.68 129 242 129 C242 130.32 242 131.64 242 133 C241.34 133 240.68 133 240 133 C240 133.66 240 134.32 240 135 C239.34 135 238.68 135 238 135 C238 135.99 238 136.98 238 138 C237.34 138 236.68 138 236 138 C236 139.32 236 140.64 236 142 C235.34 142 234.68 142 234 142 C234 142.66 234 143.32 234 144 C233.01 144 232.02 144 231 144 C231 144.66 231 145.32 231 146 C230.34 146 229.68 146 229 146 C229 146.66 229 147.32 229 148 C228.34 148 227.68 148 227 148 C227 149.65 227 151.3 227 153 C226.34 153 225.68 153 225 153 C225 153.66 225 154.32 225 155 C224.34 155 223.68 155 223 155 C223 155.66 223 156.32 223 157 C222.34 157 221.68 157 221 157 C221 157.66 221 158.32 221 159 C220.34 159 219.68 159 219 159 C219 159.66 219 160.32 219 161 C218.01 161 217.02 161 216 161 C216 161.66 216 162.32 216 163 C215.34 163 214.68 163 214 163 C214 163.99 214 164.98 214 166 C213.34 166 212.68 166 212 166 C212 166.66 212 167.32 212 168 C210.68 168 209.36 168 208 168 C208 168.66 208 169.32 208 170 C207.34 170 206.68 170 206 170 C206 170.66 206 171.32 206 172 C205.34 172 204.68 172 204 172 C204 172.66 204 173.32 204 174 C203.01 174 202.02 174 201 174 C201 174.66 201 175.32 201 176 C200.34 176 199.68 176 199 176 C199 176.66 199 177.32 199 178 C197.68 178 196.36 178 195 178 C195 178.99 195 179.98 195 181 C194.34 181 193.68 181 193 181 C193 181.66 193 182.32 193 183 C191.68 183 190.36 183 189 183 C189 183.66 189 184.32 189 185 C188.01 185 187.02 185 186 185 C186 185.66 186 186.32 186 187 C184.68 187 183.36 187 182 187 C182 187.66 182 188.32 182 189 C180.68 189 179.36 189 178 189 C178 189.66 178 190.32 178 191 C177.34 191 176.68 191 176 191 C176 191.66 176 192.32 176 193 C174.35 193 172.7 193 171 193 C171 193.99 171 194.98 171 196 C169.68 196 168.36 196 167 196 C167 196.66 167 197.32 167 198 C165.68 198 164.36 198 163 198 C163 198.66 163 199.32 163 200 C160.69 200 158.38 200 156 200 C156 200.66 156 201.32 156 202 C154.68 202 153.36 202 152 202 C152 202.66 152 203.32 152 204 C150.02 204 148.04 204 146 204 C146 204.66 146 205.32 146 206 C143.69 206 141.38 206 139 206 C139 206.66 139 207.32 139 208 C137.02 208 135.04 208 133 208 C133 208.99 133 209.98 133 211 C130.03 211 127.06 211 124 211 C124 211.66 124 212.32 124 213 C122.02 213 120.04 213 118 213 C118 213.66 118 214.32 118 215 C114.37 215 110.74 215 107 215 C107 215.66 107 216.32 107 217 C102.71 217 98.42 217 94 217 C94 217.66 94 218.32 94 219 C87.73 219 81.46 219 75 219 C75 219.66 75 220.32 75 221 C41.01 221 7.02 221 -28 221 C-28 221.99 -28 222.98 -28 224 C-29.65 224 -31.3 224 -33 224 C-33 224.66 -33 225.32 -33 226 C-34.32 226 -35.64 226 -37 226 C-37 226.66 -37 227.32 -37 228 C-38.32 228 -39.64 228 -41 228 C-41 228.66 -41 229.32 -41 230 C-41.66 230 -42.32 230 -43 230 C-43 230.66 -43 231.32 -43 232 C-43.66 232 -44.32 232 -45 232 C-45 232.66 -45 233.32 -45 234 C-45.99 234 -46.98 234 -48 234 C-48 231.36 -48 228.72 -48 226 C-47.01 226 -46.02 226 -45 226 C-45 220.06 -45 214.12 -45 208 C-44.34 208 -43.68 208 -43 208 C-43 205.36 -43 202.72 -43 200 C-42.34 200 -41.68 200 -41 200 C-41 195.05 -41 190.1 -41 185 C-40.34 185 -39.68 185 -39 185 C-39 180.05 -39 175.1 -39 170 C-38.34 170 -37.68 170 -37 170 C-37 164.39 -37 158.78 -37 153 C-36.34 153 -35.68 153 -35 153 C-35 150.03 -35 147.06 -35 144 C-34.34 144 -33.68 144 -33 144 C-33 139.05 -33 134.1 -33 129 C-32.01 129 -31.02 129 -30 129 C-30 123.39 -30 117.78 -30 112 C-29.34 112 -28.68 112 -28 112 C-28 109.03 -28 106.06 -28 103 C-27.34 103 -26.68 103 -26 103 C-26 98.05 -26 93.1 -26 88 C-25.34 88 -24.68 88 -24 88 C-24 82.39 -24 76.78 -24 71 C-23.34 71 -22.68 71 -22 71 C-22 68.36 -22 65.72 -22 63 C-21.34 63 -20.68 63 -20 63 C-20 57.72 -20 52.44 -20 47 C-19.34 47 -18.68 47 -18 47 C-18 41.39 -18 35.78 -18 30 C-17.01 30 -16.02 30 -15 30 C-15.01160156 29.36191406 -15.02320313 28.72382812 -15.03515625 28.06640625 C-15.04417969 27.24011719 -15.05320312 26.41382813 -15.0625 25.5625 C-15.07410156 24.73878906 -15.08570313 23.91507813 -15.09765625 23.06640625 C-15 21 -15 21 -14 20 C-13.63239269 17.67182036 -13.29758419 15.3381615 -13 13 C-12.34 13 -11.68 13 -11 13 C-11 11.68 -11 10.36 -11 9 C-10.34 9 -9.68 9 -9 9 C-9 8.34 -9 7.68 -9 7 C-8.34 7 -7.68 7 -7 7 C-7 6.34 -7 5.68 -7 5 C-5.68 5 -4.36 5 -3 5 C-3 4.01 -3 3.02 -3 2 C-2.01 2 -1.02 2 0 2 C0 1.34 0 0.68 0 0 Z " fill="#222D65" transform="translate(354,851)"/>
<path d="M0 0 C26.4 0 52.8 0 80 0 C80 0.66 80 1.32 80 2 C81.32 2 82.64 2 84 2 C84 2.66 84 3.32 84 4 C84.66 4 85.32 4 86 4 C86 4.99 86 5.98 86 7 C86.66 7 87.32 7 88 7 C88 13.27 88 19.54 88 26 C87.34 26 86.68 26 86 26 C86 30.29 86 34.58 86 39 C85.34 39 84.68 39 84 39 C84 43.95 84 48.9 84 54 C83.34 54 82.68 54 82 54 C82 58.29 82 62.58 82 67 C81.34 67 80.68 67 80 67 C80 71.29 80 75.58 80 80 C79.34 80 78.68 80 78 80 C78 84.95 78 89.9 78 95 C77.01 95 76.02 95 75 95 C75 98.96 75 102.92 75 107 C74.34 107 73.68 107 73 107 C73 111.29 73 115.58 73 120 C72.34 120 71.68 120 71 120 C71 124.95 71 129.9 71 135 C70.34 135 69.68 135 69 135 C69 139.29 69 143.58 69 148 C68.34 148 67.68 148 67 148 C67 152.29 67 156.58 67 161 C66.34 161 65.68 161 65 161 C65 165.95 65 170.9 65 176 C64.34 176 63.68 176 63 176 C63 180.29 63 184.58 63 189 C62.01 189 61.02 189 60 189 C60 193.29 60 197.58 60 202 C59.34 202 58.68 202 58 202 C58 206.95 58 211.9 58 217 C57.34 217 56.68 217 56 217 C56 221.29 56 225.58 56 230 C55.34 230 54.68 230 54 230 C54 234.29 54 238.58 54 243 C53.34 243 52.68 243 52 243 C52 247.95 52 252.9 52 258 C51.34 258 50.68 258 50 258 C50 262.29 50 266.58 50 271 C49.34 271 48.68 271 48 271 C48 274.96 48 278.92 48 283 C47.01 283 46.02 283 45 283 C45 288.28 45 293.56 45 299 C44.34 299 43.68 299 43 299 C43 302.96 43 306.92 43 311 C42.34 311 41.68 311 41 311 C41 315.29 41 319.58 41 324 C40.34 324 39.68 324 39 324 C39 328.95 39 333.9 39 339 C38.34 339 37.68 339 37 339 C37 343.29 37 347.58 37 352 C36.34 352 35.68 352 35 352 C35 356.29 35 360.58 35 365 C34.34 365 33.68 365 33 365 C33 369.95 33 374.9 33 380 C32.01 380 31.02 380 30 380 C30 384.29 30 388.58 30 393 C29.34 393 28.68 393 28 393 C28 397.29 28 401.58 28 406 C27.34 406 26.68 406 26 406 C26 407.98 26 409.96 26 412 C25.34 412 24.68 412 24 412 C24 413.65 24 415.3 24 417 C23.34 417 22.68 417 22 417 C22 417.66 22 418.32 22 419 C20.35 419 18.7 419 17 419 C17 419.66 17 420.32 17 421 C16.34 421 15.68 421 15 421 C15 421.66 15 422.32 15 423 C-11.07 423 -37.14 423 -64 423 C-64 422.34 -64 421.68 -64 421 C-64.66 421 -65.32 421 -66 421 C-66 420.34 -66 419.68 -66 419 C-66.66 419 -67.32 419 -68 419 C-68 418.34 -68 417.68 -68 417 C-68.99 417 -69.98 417 -71 417 C-71 411.06 -71 405.12 -71 399 C-70.01 399 -69.02 399 -68 399 C-68 395.04 -68 391.08 -68 387 C-67.34 387 -66.68 387 -66 387 C-66 381.72 -66 376.44 -66 371 C-65.34 371 -64.68 371 -64 371 C-64 367.04 -64 363.08 -64 359 C-63.34 359 -62.68 359 -62 359 C-62 354.71 -62 350.42 -62 346 C-61.34 346 -60.68 346 -60 346 C-60 341.05 -60 336.1 -60 331 C-59.34 331 -58.68 331 -58 331 C-58 326.71 -58 322.42 -58 318 C-57.01 318 -56.02 318 -55 318 C-55 313.71 -55 309.42 -55 305 C-54.34 305 -53.68 305 -53 305 C-53 300.05 -53 295.1 -53 290 C-52.34 290 -51.68 290 -51 290 C-51 285.71 -51 281.42 -51 277 C-50.34 277 -49.68 277 -49 277 C-49 272.71 -49 268.42 -49 264 C-48.34 264 -47.68 264 -47 264 C-47 259.05 -47 254.1 -47 249 C-46.34 249 -45.68 249 -45 249 C-45 244.71 -45 240.42 -45 236 C-44.34 236 -43.68 236 -43 236 C-43 231.05 -43 226.1 -43 221 C-42.01 221 -41.02 221 -40 221 C-40 216.71 -40 212.42 -40 208 C-39.34 208 -38.68 208 -38 208 C-38 203.71 -38 199.42 -38 195 C-37.34 195 -36.68 195 -36 195 C-36 190.05 -36 185.1 -36 180 C-35.34 180 -34.68 180 -34 180 C-34 176.04 -34 172.08 -34 168 C-33.34 168 -32.68 168 -32 168 C-32 163.71 -32 159.42 -32 155 C-31.34 155 -30.68 155 -30 155 C-30 150.05 -30 145.1 -30 140 C-29.34 140 -28.68 140 -28 140 C-28 135.71 -28 131.42 -28 127 C-27.01 127 -26.02 127 -25 127 C-25 122.71 -25 118.42 -25 114 C-24.34 114 -23.68 114 -23 114 C-23 109.05 -23 104.1 -23 99 C-22.34 99 -21.68 99 -21 99 C-21 94.71 -21 90.42 -21 86 C-20.34 86 -19.68 86 -19 86 C-19 81.71 -19 77.42 -19 73 C-18.34 73 -17.68 73 -17 73 C-17 68.05 -17 63.1 -17 58 C-16.34 58 -15.68 58 -15 58 C-15 53.71 -15 49.42 -15 45 C-14.34 45 -13.68 45 -13 45 C-13 40.05 -13 35.1 -13 30 C-12.01 30 -11.02 30 -10 30 C-10 25.71 -10 21.42 -10 17 C-9.34 17 -8.68 17 -8 17 C-8 14.36 -8 11.72 -8 9 C-7.34 9 -6.68 9 -6 9 C-6 7.35 -6 5.7 -6 4 C-5.34 4 -4.68 4 -4 4 C-4 3.34 -4 2.68 -4 2 C-2.68 2 -1.36 2 0 2 C0 1.34 0 0.68 0 0 Z " fill="#1A9AD6" transform="translate(2777,849)"/>
<path d="M0 0 C0.99 0 1.98 0 3 0 C3 2.97 3 5.94 3 9 C2.01 9 1.02 9 0 9 C0 6.03 0 3.06 0 0 Z " fill="#1A61A3" transform="translate(278,1246)"/>
<path d="M0 0 C0.99 0 1.98 0 3 0 C3 2.31 3 4.62 3 7 C2.01 7 1.02 7 0 7 C0 4.69 0 2.38 0 0 Z " fill="#253471" transform="translate(336,881)"/>
</svg>
