<?xml version="1.0" encoding="UTF-8"?>
<svg version="1.1" xmlns="http://www.w3.org/2000/svg" width="3000" height="2134">
<path d="M0 0 C222.75 0 445.5 0 675 0 C675 55.11 675 110.22 675 167 C526.83 167 378.66 167 226 167 C226 194.72 226 222.44 226 251 C374.17 251 522.34 251 675 251 C675 388.94 675 526.88 675 669 C452.25 669 229.5 669 0 669 C0 613.23 0 557.46 0 500 C148.17 500 296.34 500 449 500 C449 472.94 449 445.88 449 418 C300.83 418 152.66 418 0 418 C0 280.06 0 142.12 0 0 Z " fill="#040707" transform="translate(2035,729)"/>
<path d="M0 0 C225.72 0 451.44 0 684 0 C684 135.3 684 270.6 684 410 C543.42 410.495 543.42 410.495 400 411 C409.30361512 418.97915088 409.30361512 418.97915088 418.625 426.9375 C421.44702966 429.40826436 423.6550468 432.0688085 426 435 C430.18547069 438.9746916 434.69684655 442.56748344 439.1875 446.1875 C443.56118521 449.74875486 447.78286862 453.43830922 451.9375 457.25 C452.48108154 457.7452417 453.02466309 458.2404834 453.5847168 458.75073242 C456.70445293 461.64114049 459.37432437 464.66378212 462 468 C463.17396358 469.14064147 464.38240314 470.24703929 465.625 471.3125 C466.66333984 472.20388672 466.66333984 472.20388672 467.72265625 473.11328125 C470.13936692 475.11546179 472.59623381 477.05926999 475.0625 479 C478.79750541 481.95592452 482.18152079 485.05804961 485.484375 488.484375 C487.10147203 490.16328994 487.10147203 490.16328994 489.5625 492 C491.62995258 493.69637135 493.03008859 495.19443948 494.6875 497.25 C497.78124021 500.96405868 501.3346629 503.73643708 505.14453125 506.6875 C509.04965923 509.85006603 512.69903662 513.25800598 516.35766602 516.69995117 C518.90295044 519.08871272 521.46312485 521.40640982 524.171875 523.609375 C526.58840661 525.65207852 528.51693322 527.61768973 530.5 530.0625 C533.37119434 533.43631042 536.28004431 535.57064118 540 538 C542.02900411 539.91887028 543.96961021 541.90964279 545.91796875 543.91015625 C549.91545238 547.92263982 554.19560136 551.61522895 558.6875 555.0625 C561 557 561 557 563.125 559.6875 C566.30190045 563.66867904 570.33340395 566.60505978 574.29296875 569.76953125 C577.1613101 572.13291207 579.73834367 574.63933766 582.3125 577.3125 C584.1901929 579.1901929 586.16739578 580.90196993 588.1875 582.625 C590.46769578 584.5813292 592.24897163 586.31487589 594.125 588.6875 C595.90617025 591.13243651 595.90617025 591.13243651 598.6015625 592.6640625 C602.94664776 595.48567441 606.53010928 599.10612249 610.25 602.6875 C611.7529569 604.122089 613.25685952 605.55568789 614.76171875 606.98828125 C615.48536621 607.67744629 616.20901367 608.36661133 616.95458984 609.07666016 C620.35852787 612.27745077 623.87098277 615.34803506 627.41015625 618.3984375 C629 620 629 620 629 622 C629.59167969 622.27328125 630.18335938 622.5465625 630.79296875 622.828125 C632.94313271 623.96980498 634.50126292 625.1344598 636.3125 626.75 C637.00085937 627.36359375 637.68921875 627.9771875 638.3984375 628.609375 C640.45872472 630.5026119 642.50294011 632.40911994 644.5390625 634.328125 C645.83843437 635.55219724 647.13791614 636.77615283 648.4375 638 C649.08992676 638.61512451 649.74235352 639.23024902 650.41455078 639.86401367 C654.53331518 643.71753502 658.76426675 647.25633544 663.2890625 650.62890625 C665.58471363 652.46857188 667.20241741 654.68053859 669 657 C672.2489689 660.04051736 675.67085431 662.88111464 679.07421875 665.74609375 C680.73061018 667.14713884 682.3673144 668.5714001 684 670 C684 670.33 684 670.66 684 671 C652.86551523 671.27403444 621.73135074 671.48626024 590.59594546 671.61278395 C586.9161752 671.62779157 583.23640732 671.64332352 579.55664062 671.65917969 C578.82409712 671.66232741 578.09155361 671.66547514 577.33681181 671.66871825 C565.49140287 671.72086678 553.64669618 671.81544264 541.80170318 671.92583355 C529.6382356 672.03824303 517.47513456 672.10474504 505.31116891 672.12906194 C497.81108681 672.14548942 490.31298977 672.19727273 482.81351915 672.2949976 C477.05272657 672.36621997 471.29319208 672.37341547 465.53204727 672.35729218 C463.17617989 672.36058364 460.82023484 672.38432494 458.46481705 672.4304657 C438.81415767 672.7964055 438.81415767 672.7964055 432.38559365 666.85594296 C430.95596061 665.31108253 429.64729721 663.73682139 428.36914444 662.06538773 C425.81126862 658.75580431 423.25747568 656.59395423 420 654 C418.8396342 652.7186599 417.70958147 651.40859223 416.625 650.0625 C413.75218366 646.68678365 410.76615274 644.2456297 407.16796875 641.69140625 C403.62143322 638.92446952 400.58663265 635.6635065 397.44921875 632.44921875 C395.30817415 630.30817415 393.12317679 628.32812525 390.8125 626.375 C387.39475747 623.4671626 384.55173265 620.28750949 381.73828125 616.796875 C380.03869652 614.88166766 380.03869652 614.88166766 377.625 613.59375 C374.47498885 611.68124323 372.24480181 609.39982358 369.6875 606.75 C366.48436165 603.46435657 363.25926099 600.27450781 359.75 597.3125 C356.35169991 594.42846209 353.53279282 591.26401094 350.73828125 587.796875 C349.03869652 585.88166766 349.03869652 585.88166766 346.625 584.59375 C343.47498885 582.68124323 341.24480181 580.39982358 338.6875 577.75 C335.48436165 574.46435657 332.25926099 571.27450781 328.75 568.3125 C325.35169991 565.42846209 322.53279282 562.26401094 319.73828125 558.796875 C318.03869652 556.88166766 318.03869652 556.88166766 315.625 555.59375 C312.47498885 553.68124323 310.24480181 551.39982358 307.6875 548.75 C303.88570276 544.85603798 299.99450914 541.16198927 295.8515625 537.6328125 C293.25282609 535.3410998 290.84925031 532.87619916 288.4453125 530.3828125 C287.02890223 528.89145515 287.02890223 528.89145515 285 528 C285 527.34 285 526.68 285 526 C284.43796875 525.76667969 283.8759375 525.53335938 283.296875 525.29296875 C280.43265858 523.68062924 278.52747979 521.6806438 276.25 519.3125 C272.58824724 515.5700919 268.85197389 512.05241334 264.87109375 508.65625 C262.94573975 506.95197005 261.16321723 505.15941145 259.375 503.3125 C257.28187725 501.17202153 255.55011128 499.70944687 253 498.0625 C250.38173307 496.26244148 248.92989536 494.88402098 246.9375 492.5 C239.0631519 483.13827503 229.18284806 474.4309339 219.4375 467.0625 C217.28177603 465.23842587 215.62834608 463.45773212 213.8125 461.3125 C209.61530019 456.4051449 204.85362425 452.24319911 200 448 C198.45744218 446.62599982 196.91573905 445.25103935 195.375 443.875 C193.21132373 441.94833421 191.0412607 440.03515352 188.8359375 438.15625 C184.77464162 434.68817711 181.42711383 431.11253659 178 427 C176.05956451 425.22057937 174.06807204 423.51408967 172.0625 421.80859375 C169.38591579 419.46151328 166.91503769 416.94443444 164.4453125 414.3828125 C163.02890223 412.89145515 163.02890223 412.89145515 161 412 C161 497.47 161 582.94 161 671 C107.87 671 54.74 671 0 671 C0 533.72 0 396.44 0 255 C165.33 255 330.66 255 501 255 C501 222.33 501 189.66 501 156 C335.67 156 170.34 156 0 156 C0 104.52 0 53.04 0 0 Z " fill="#040707" transform="translate(1043,729)"/>
<path d="M0 0 C0 167.64 0 335.28 0 508 C83.82 508 167.64 508 254 508 C254 561.79 254 615.58 254 671 C203.72215476 671.06613453 153.44435054 671.12152775 103.16647426 671.15319599 C97.23093719 671.15694812 91.29540021 671.16083108 85.35986328 671.16479492 C84.17820294 671.16558185 82.99654259 671.16636878 81.77907436 671.16717956 C62.64489734 671.18023407 43.51074737 671.20388818 24.37658639 671.23145839 C4.74370435 671.2595113 -14.88916354 671.27617602 -34.52206481 671.28226548 C-46.63695315 671.28638215 -58.75176509 671.29938521 -70.86662991 671.3237494 C-79.17383629 671.33960516 -87.48100314 671.34440071 -95.78822355 671.34050413 C-100.5812955 671.33858235 -105.37423389 671.34153199 -110.1672821 671.35761642 C-114.55831303 671.37224402 -118.94912091 671.3729338 -123.34016223 671.36269668 C-124.92579849 671.36143194 -126.51144882 671.36521321 -128.09705751 671.37464955 C-142.71770603 671.45657692 -151.71262734 669.32372468 -162.6875 659.625 C-167.99178481 653.60391995 -172.67603267 646.18347727 -173.1875 638 C-173.125625 637.34 -173.06375 636.68 -173 636 C-173.66 636 -174.32 636 -175 636 C-175 565.38 -175 494.76 -175 422 C-174.34 422 -173.68 422 -173 422 C-173.00075944 421.19164457 -173.00151888 420.38328915 -173.00230134 419.55043811 C-173.04706285 371.63487252 -173.08137584 323.71930915 -173.10213066 275.80372683 C-173.10463206 270.04973387 -173.1072207 264.29574095 -173.10986328 258.54174805 C-173.1103879 257.39623739 -173.11091252 256.25072673 -173.11145304 255.07050363 C-173.12015434 236.52546386 -173.13592281 217.9804365 -173.15430559 199.43540408 C-173.17301228 180.40481291 -173.18411836 161.37422822 -173.18817699 142.34362823 C-173.19092044 130.60188081 -173.19958382 118.86016846 -173.21583293 107.11843184 C-173.22640929 99.06538911 -173.22959914 91.01236449 -173.22700275 82.95931532 C-173.22572249 78.3139923 -173.22767761 73.66873054 -173.23841095 69.02341843 C-173.24817548 64.76622084 -173.24861417 60.50912545 -173.24179779 56.25192306 C-173.24095587 54.71606923 -173.24346571 53.18020891 -173.24976636 51.64436778 C-173.30711846 36.79449426 -172.48122075 23.15807104 -161.91796875 11.8515625 C-124.6458817 -24.13004496 -9.0799388 0 0 0 Z " fill="#040707" transform="translate(463,729)"/>
<path d="M0 0 C49.81056015 -0.11028068 99.62100493 -0.20258094 149.43165228 -0.25532665 C155.31568181 -0.26157999 161.19971109 -0.26805162 167.08374023 -0.2746582 C168.84080566 -0.27662553 168.84080566 -0.27662553 170.63336735 -0.2786326 C189.58636307 -0.3003739 208.53928275 -0.33978842 227.4922334 -0.38576398 C246.94772459 -0.43256408 266.40317603 -0.46030292 285.8587212 -0.47044247 C297.85849491 -0.47729424 309.85805371 -0.49891488 321.85776126 -0.53958233 C330.09260034 -0.56606453 338.32732874 -0.57398859 346.56220729 -0.56750689 C351.30941251 -0.56431254 356.05624284 -0.56912014 360.80338097 -0.59602737 C365.15840891 -0.62053054 369.51281326 -0.62147819 373.86787116 -0.60449447 C375.43476213 -0.60239843 377.00169356 -0.60859597 378.56850607 -0.62441591 C392.31806638 -0.75505448 405.27840325 1.37262031 415.91796875 10.84765625 C426.88305516 22.18304577 428.60609004 35.96026633 428.48101807 51.14143372 C428.48276594 52.73657955 428.48627481 54.33172425 428.49137473 55.9268629 C428.50025613 60.27584563 428.48440609 64.62442919 428.46426249 68.97336113 C428.44690249 73.67597055 428.45284021 78.37855954 428.45587158 83.08119202 C428.45796356 91.21742346 428.44547043 99.35352607 428.42292023 107.48972511 C428.39033826 119.2531149 428.37998688 131.01644272 428.37496826 142.77987274 C428.36622532 161.86768805 428.33963693 180.95543479 428.30175781 200.04321289 C428.2650118 218.57934228 428.23675861 237.11545291 428.21972656 255.65161133 C428.21865457 256.80684852 428.21758258 257.96208572 428.21647811 259.1523301 C428.20815986 268.18776019 428.20033236 277.22319068 428.19265985 286.25862134 C428.1549615 330.50581052 428.07447974 374.75282791 428 419 C371.57 419 315.14 419 257 419 C257 336.17 257 253.34 257 168 C172.19 168 87.38 168 0 168 C0 112.56 0 57.12 0 0 Z " fill="#040707" transform="translate(546,729)"/>
<path d="M0 0 C55.77 0 111.54 0 169 0 C169 221.76 169 443.52 169 672 C113.23 672 57.46 672 0 672 C0 450.24 0 228.48 0 0 Z " fill="#040707" transform="translate(1796,728)"/>
<path d="M0 0 C56.43 0 112.86 0 171 0 C171 111.21 171 222.42 171 337 C114.57 337 58.14 337 0 337 C0 225.79 0 114.58 0 0 Z " fill="#040707" transform="translate(803,1231)"/>
<path d="M0 0 C13.53 0 27.06 0 41 0 C41.11311785 38.12430806 41.20259443 76.24857185 41.25532665 114.37301407 C41.26157991 118.87766396 41.26805155 123.38231351 41.2746582 127.88696289 C41.27596976 128.7837279 41.27728131 129.68049291 41.2786326 130.60443262 C41.3003676 145.10982169 41.33977859 159.61511131 41.38576398 174.12044146 C41.43258172 189.01293146 41.46030662 203.9053695 41.47044247 218.79793006 C41.47729063 227.98168049 41.49889121 237.16514978 41.53958233 246.34881363 C41.56608641 252.65310315 41.57398372 258.95724811 41.56750689 265.26158925 C41.56431584 268.89469542 41.5690808 272.52731159 41.59602737 276.16032982 C41.62510852 280.11025328 41.61487861 284.05954888 41.60127258 288.00956726 C41.61583679 289.14287576 41.630401 290.27618426 41.64540654 291.44383544 C41.53664389 303.18167517 37.86852346 313.38844622 29.58203125 321.83984375 C18.36761673 331.22194848 5.31867235 332.31245769 -8.74992371 332.24050903 C-9.98847164 332.24221788 -11.22701957 332.24392673 -12.50309926 332.24568737 C-15.91020755 332.24839507 -19.31708193 332.24220964 -22.72416174 332.23213124 C-26.40975579 332.22344429 -30.09534341 332.22642059 -33.78094482 332.22793579 C-40.15631484 332.22898134 -46.53164373 332.22273934 -52.9070034 332.21146011 C-62.12454579 332.19516319 -71.34206841 332.18999283 -80.55962364 332.18748413 C-95.51672975 332.18311359 -110.47381397 332.16982192 -125.4309082 332.15087891 C-139.95499564 332.13250349 -154.47907711 332.11835513 -169.00317383 332.10986328 C-169.89936954 332.10933783 -170.79556525 332.10881239 -171.71891841 332.10827102 C-176.21514684 332.10566083 -180.71137531 332.10313344 -185.20760381 332.10064721 C-222.47175195 332.07993468 -259.73587283 332.04417382 -297 332 C-297 318.14 -297 304.28 -297 290 C-292.11976799 289.99453156 -292.11976799 289.99453156 -287.14094543 289.98895264 C-257.27126845 289.95363849 -227.40169313 289.89856464 -197.53209447 289.82207905 C-193.61327494 289.81206219 -189.694455 289.80221796 -185.77563477 289.79248047 C-184.60543821 289.78956841 -184.60543821 289.78956841 -183.41160133 289.78659752 C-170.79772826 289.7556188 -158.18387337 289.73860842 -145.56996945 289.72680578 C-132.61652286 289.71437278 -119.66317127 289.68682305 -106.70978469 289.64538693 C-98.72378673 289.62031285 -90.73794644 289.60687825 -82.75190856 289.60857043 C-76.61703039 289.60860384 -70.48238516 289.58755407 -64.34757805 289.55883217 C-61.83907563 289.55034105 -59.33053961 289.54857784 -56.82202911 289.55419731 C-35.14821779 289.95264388 -35.14821779 289.95264388 -15.875 281.0625 C-15.00617187 280.41410156 -14.13734375 279.76570313 -13.2421875 279.09765625 C-10.91210519 276.91777088 -9.60562184 274.73145727 -8 272 C-7.34 272 -6.68 272 -6 272 C-5.32438252 270.3369416 -4.66066719 268.66905395 -4 267 C-3.23309735 265.26114784 -3.23309735 265.26114784 -2.45070171 263.48716736 C-0.56279419 258.40438172 -0.57482105 253.5771382 -0.60127258 248.20532227 C-0.59462576 247.14084681 -0.58797893 246.07637135 -0.58113068 244.97963905 C-0.56252971 241.42512996 -0.5651041 237.87095835 -0.56762695 234.31640625 C-0.55860806 231.76352972 -0.54828053 229.21065753 -0.53674316 226.65779114 C-0.51487161 221.16797944 -0.50207836 215.67826685 -0.49761391 210.18841553 C-0.49114336 202.25113577 -0.46819012 194.31397027 -0.44127061 186.37673664 C-0.39803601 173.49775588 -0.36805028 160.61877995 -0.34643555 147.73974609 C-0.32541588 135.23223502 -0.29813216 122.72476337 -0.26245117 110.21728516 C-0.26025235 109.44575509 -0.25805352 108.67422502 -0.25578807 107.87931526 C-0.24471817 104.00860558 -0.2335254 100.13789627 -0.22227156 96.26718712 C-0.12913357 64.17815594 -0.05833346 32.08911383 0 0 Z " fill="#040707" transform="translate(2781,1231)"/>
<path d="M0 0 C1.07388324 -0.00199105 2.14776648 -0.0039821 3.25419164 -0.00603348 C4.43317045 -0.00312064 5.61214926 -0.0002078 6.82685471 0.00279331 C8.07983943 0.00193889 9.33282415 0.00108446 10.6237781 0.00020415 C14.10363382 -0.00203446 17.58345882 0.00197183 21.06331062 0.00698221 C24.81514994 0.01129559 28.56698749 0.00983965 32.31882858 0.00907993 C38.81981187 0.00855526 45.32078513 0.01169614 51.8217659 0.01731777 C61.22112398 0.02544046 70.62047721 0.02804878 80.01983842 0.02930576 C95.26921362 0.03149507 110.51858348 0.03815188 125.76795578 0.04760838 C140.58240863 0.05678562 155.39686003 0.06386493 170.21131516 0.06811619 C171.58076978 0.06851027 171.58076978 0.06851027 172.97789016 0.06891232 C177.55793342 0.07021735 182.13797669 0.07148106 186.71801996 0.07272422 C224.72164833 0.08309306 262.72527004 0.10098307 300.72889328 0.12304783 C300.72889328 13.65304783 300.72889328 27.18304783 300.72889328 41.12304783 C295.82986916 41.12851627 295.82986916 41.12851627 290.83187485 41.13409519 C260.84745988 41.16940903 230.86314314 41.22448252 200.87880548 41.30096878 C196.94496467 41.31098564 193.01112346 41.32082987 189.07728195 41.33056736 C187.90259948 41.33347942 187.90259948 41.33347942 186.70418604 41.33645031 C174.04181402 41.36742937 161.37946009 41.38443951 148.71705732 41.39624205 C135.71389038 41.40867487 122.71081809 41.43622421 109.70771092 41.47766089 C101.69100365 41.50273548 93.67445344 41.51616954 85.6577064 41.5144774 C79.49932757 41.51444399 73.34118081 41.53549305 67.18287277 41.56421566 C64.66469496 41.57270708 62.14648367 41.57446979 59.62829781 41.56885052 C36.41977045 41.09869005 36.41977045 41.09869005 16.72889328 52.12304783 C14.99731008 54.07662887 13.37202462 56.09329735 11.72889328 58.12304783 C11.06889328 58.12304783 10.40889328 58.12304783 9.72889328 58.12304783 C9.24856148 59.70602809 8.76967716 61.28944761 8.29139328 62.87304783 C8.02455734 63.75476658 7.75772141 64.63648533 7.48279953 65.54492283 C6.36657605 69.36206011 5.6037524 72.66466653 5.59022808 76.66013813 C5.58475364 77.57030178 5.57927919 78.48046543 5.57363886 79.41820979 C5.57266075 80.41431403 5.57168264 81.41041828 5.5706749 82.4367075 C5.56573692 83.49776526 5.56079894 84.55882302 5.55571133 85.65203404 C5.54031395 89.21886776 5.5319696 92.78568345 5.52357101 96.35254002 C5.51399426 98.90482334 5.5039843 101.45710506 5.49357224 104.00938511 C5.4721093 109.51015535 5.45366926 115.0109226 5.4379673 120.51171207 C5.41525967 128.46493871 5.38711807 136.41813881 5.35764802 144.37134293 C5.30998308 157.27473154 5.26671592 170.178131 5.22620773 183.08154392 C5.18684722 195.61638324 5.14541966 208.15121292 5.10120773 220.68603611 C5.09848346 221.45861707 5.09575919 222.23119803 5.09295236 223.02719054 C5.07927279 226.90298257 5.06555254 230.77877447 5.05181205 234.65456629 C4.93786452 266.81070708 4.83132221 298.96686823 4.72889328 331.12304783 C-9.13110672 331.12304783 -22.99110672 331.12304783 -37.27110672 331.12304783 C-37.36157495 293.09207956 -37.43316824 255.06113963 -37.47536804 217.03008537 C-37.48037073 212.53787931 -37.48554803 208.04567348 -37.49083328 203.55346775 C-37.49188252 202.65916873 -37.49293177 201.76486972 -37.4940128 200.84347073 C-37.51140736 186.37231539 -37.54293981 171.90122376 -37.5797179 157.43010619 C-37.61715376 142.57604404 -37.63934816 127.72201521 -37.6474607 112.86790782 C-37.65294299 103.70569227 -37.67024425 94.54365681 -37.70277259 85.38149671 C-37.72395314 79.09451977 -37.73029877 72.80763562 -37.72511223 66.52062561 C-37.72255594 62.89593749 -37.7264121 59.27156358 -37.74792862 55.64693165 C-37.77113014 51.70950894 -37.76302598 47.77249109 -37.75212479 43.83500767 C-37.76377615 42.69976443 -37.77542752 41.5645212 -37.78743196 40.39487666 C-37.71485122 30.67162643 -35.41441731 21.84606685 -29.27110672 14.12304783 C-28.82509109 13.56101658 -28.37907547 12.99898533 -27.91954422 12.41992283 C-21.05560106 4.64304142 -10.32888286 -0.00422622 0 0 Z " fill="#040707" transform="translate(215.2711067199707,565.8769521713257)"/>
<path d="M0 0 C56.1 0 112.2 0 170 0 C170 56.43 170 112.86 170 171 C113.9 171 57.8 171 0 171 C0 114.57 0 58.14 0 0 Z M50 50 C50 72.11 50 94.22 50 117 C72.44 117 94.88 117 118 117 C118 94.89 118 72.78 118 50 C95.56 50 73.12 50 50 50 Z " fill="#040707" transform="translate(546,979)"/>
</svg>
