<?xml version="1.0" encoding="UTF-8"?>
<svg version="1.1" xmlns="http://www.w3.org/2000/svg" width="461" height="426">
<path d="M0 0 C4.26394595 3.30811584 8.5941404 6.52563191 12.92333984 9.74755859 C20.09158291 15.10198065 27.17853629 20.55084987 34.2265625 26.06225586 C39.69409975 30.33123835 45.22004444 34.51445849 50.77905273 38.66333008 C55.5178729 42.20210874 60.22847464 45.77568606 64.92333984 49.37255859 C65.62040039 49.90647217 66.31746094 50.44038574 67.03564453 50.99047852 C68.49662217 52.10964812 69.95755858 53.22887156 71.41845703 54.34814453 C82.54636982 62.86875875 93.6953804 71.35911719 104.92333984 79.74755859 C112.18719823 85.17565354 119.37152009 90.6964952 126.51660156 96.27978516 C131.42809881 100.11522296 136.38252812 103.88440227 141.38037109 107.60693359 C145.85876559 110.95207155 150.29324705 114.35512818 154.73583984 117.74755859 C161.01247087 122.53975231 167.30461182 127.30919164 173.63110352 132.03540039 C176.92156226 134.49415959 180.20593074 136.96093346 183.48779297 139.43115234 C184.93030365 140.51648184 186.37419561 141.59997931 187.81982422 142.68115234 C202.50323156 153.69736044 214.95999202 166.10455986 217.73583984 185.12255859 C218.69053904 196.3745553 218.10067136 206.57421576 213.73583984 217.12255859 C213.44708984 217.85474609 213.15833984 218.58693359 212.86083984 219.34130859 C206.06333881 234.63568592 191.4728487 243.7384136 178.25927734 252.95458984 C173.73846482 256.1101678 169.2634588 259.32631104 164.79833984 262.56005859 C163.67963501 263.36975098 163.67963501 263.36975098 162.53833008 264.19580078 C161.02601375 265.29075232 159.51388825 266.38596746 158.00195312 267.48144531 C154.2493919 270.19904028 150.49242734 272.91053346 146.73583984 275.62255859 C142.18804498 278.90644402 137.64074606 282.19100908 133.09521484 285.47802734 C125.76250151 290.7793809 118.42222141 296.06911297 111.05419922 301.32128906 C104.03019089 306.33241729 97.04205477 311.3932533 90.05029297 316.44921875 C85.53348214 319.71485392 81.01433485 322.97725477 76.49560547 326.24023438 C72.69468209 328.98507003 68.89436652 331.73073987 65.09521484 334.47802734 C57.76250151 339.7793809 50.42222141 345.06911297 43.05419922 350.32128906 C36.03019089 355.33241729 29.04205477 360.3932533 22.05029297 365.44921875 C19.77408361 367.09490851 17.49728631 368.73978069 15.22021484 370.38427734 C14.10960693 371.18671875 14.10960693 371.18671875 12.9765625 372.00537109 C11.48250843 373.08366856 9.98738945 374.16049205 8.49121094 375.23583984 C4.68868525 377.97187397 0.90996659 380.73321832 -2.83447266 383.54833984 C-9.92896516 388.84759355 -16.96036202 393.8269286 -24.88916016 397.81005859 C-25.82912842 398.28245972 -25.82912842 398.28245972 -26.78808594 398.7644043 C-40.11248783 405.10622155 -56.1903492 405.0719867 -70.05712891 400.43896484 C-86.95959298 393.50092539 -97.14067257 381.85401561 -104.42431641 365.52099609 C-109.26874921 351.32568138 -107.38910194 333.71514344 -100.97900391 320.46630859 C-93.21287592 306.44833942 -81.06683772 298.14756448 -68.26416016 289.12255859 C-66.8044304 288.08753538 -65.34479064 287.05238523 -63.88525391 286.01708984 C-61.09657083 284.04348558 -58.30271921 282.07743699 -55.50634766 280.11474609 C-48.79966138 275.39798992 -42.16973372 270.5743159 -35.53027344 265.76367188 C-31.77771216 263.04607686 -28.02072596 260.33461387 -24.26416016 257.62255859 C-22.76413869 256.53925498 -21.2641387 255.45592164 -19.76416016 254.37255859 C25.23583984 221.87255859 25.23583984 221.87255859 27.48828125 220.24584961 C28.98021198 219.16830807 30.47207456 218.09067217 31.96386719 217.01293945 C35.83675824 214.21519276 39.71101046 211.41935943 43.58740234 208.62646484 C44.38662109 208.05025391 45.18583984 207.47404297 46.00927734 206.88037109 C47.521853 205.78990957 49.03484043 204.70001888 50.54833984 203.61083984 C55.31966825 200.16980746 60.04161748 196.66802711 64.73583984 193.12255859 C55.36154441 185.78416112 45.95699302 178.49553583 36.41625977 171.37451172 C31.36961315 167.60594853 26.37091827 163.77886911 21.38427734 159.93115234 C9.83914367 151.03191474 -1.77392538 142.22190946 -13.45166016 133.49755859 C-20.71552236 128.06946858 -27.89984044 122.54862195 -35.04492188 116.96533203 C-39.94758045 113.13679643 -44.89321695 109.37449747 -49.88134766 105.65771484 C-56.35233439 100.82374576 -62.76006672 95.90518549 -69.17822266 91.00146484 C-72.18445854 88.70477186 -75.19687499 86.41751509 -78.22509766 84.14990234 C-91.87935587 73.89191021 -103.67621219 61.82314607 -106.26416016 44.12255859 C-107.51241629 24.9732241 -104.70280261 9.90605608 -92.07666016 -5.06494141 C-63.65363956 -35.49429287 -27.95471849 -21.85729528 0 0 Z " fill="#FFFFFF" transform="translate(106.26416015625,22.87744140625)"/>
<path d="M0 0 C2.02463923 -0.00294006 4.04927598 -0.00892133 6.07389832 -0.0177002 C11.5514608 -0.03247807 17.02800802 -0.00376526 22.50543022 0.03373289 C28.24892246 0.06644165 33.9923937 0.06164091 39.73596191 0.06167603 C49.37964925 0.06723455 59.02294916 0.09950812 68.66650391 0.14941406 C79.80125599 0.20686893 90.93563868 0.22972726 102.07053041 0.23229825 C113.94582459 0.23522734 125.82098363 0.26105761 137.69622612 0.29486513 C141.10891273 0.3032072 144.52158576 0.30756568 147.9342804 0.31113815 C153.30572861 0.31806762 158.67690186 0.34057175 164.04824257 0.37490845 C166.01457542 0.38522791 167.98094194 0.39057202 169.94730186 0.39046097 C184.83314098 0.39473314 195.63180701 1.086267 206.93164062 11.62353516 C213.65313257 18.58762872 216.19600728 26.24596037 216.52148438 35.84228516 C216.19545795 45.77522368 213.09144984 54.6939387 206.02148438 61.84228516 C196.7806257 69.38584326 188.31411271 71.29197982 176.63232422 71.20304871 C175.39633956 71.20561198 174.1603549 71.20817526 172.88691616 71.2108162 C169.47292274 71.21489083 166.05944977 71.2055631 162.6455195 71.19048202 C158.95782783 71.17749011 155.27015136 71.18191334 151.58244324 71.18418884 C145.19881407 71.18575959 138.81527712 71.17637121 132.43167114 71.15947533 C123.20213785 71.13506289 113.97264901 71.12727776 104.74308693 71.12351135 C89.76766421 71.11695039 74.7922906 71.09699886 59.81689453 71.06860352 C45.27230067 71.04105376 30.72772016 71.01982466 16.18310547 71.00708008 C15.28612159 71.00629191 14.38913771 71.00550374 13.4649725 71.00469168 C8.96493221 71.00077648 4.46489183 70.99698538 -0.03514862 70.99325597 C-37.34963896 70.96217112 -74.66407346 70.90934499 -111.97851562 70.84228516 C-109.12199382 67.95724142 -106.36807522 65.22944114 -103.07226562 62.85400391 C-102.33943359 62.32097656 -101.60660156 61.78794922 -100.8515625 61.23876953 C-100.06845703 60.67480469 -99.28535156 60.11083984 -98.47851562 59.52978516 C-91.41171416 54.38480227 -84.4163454 49.15989161 -77.47851562 43.84228516 C-70.03275433 38.14065011 -62.52073947 32.5423018 -54.95141602 27.00610352 C-48.63393091 22.36735355 -42.43628361 17.58609289 -36.2902832 12.72265625 C-34.94678254 11.66481422 -33.59161421 10.62156932 -32.22350311 9.59575462 C-29.9758922 7.90079968 -29.9758922 7.90079968 -28.07872772 6.02288246 C-19.74076059 -1.1901453 -10.40776986 -0.11656485 0 0 Z " fill="#FFFFFF" transform="translate(244.978515625,355.15771484375)"/>
</svg>
