<?xml version="1.0" encoding="UTF-8"?>
<svg version="1.1" xmlns="http://www.w3.org/2000/svg" width="463" height="142">
<path d="M0 0 C7.26 0 14.52 0 22 0 C22.04898437 2.17980469 22.09796875 4.35960937 22.1484375 6.60546875 C22.20251691 8.72703652 22.25979688 10.84849555 22.31738281 12.9699707 C22.35555952 14.43928862 22.39043182 15.90869639 22.421875 17.37817383 C22.46777289 19.49593114 22.52572372 21.6130759 22.5859375 23.73046875 C22.63306885 25.63928833 22.63306885 25.63928833 22.68115234 27.58666992 C23.10121858 32.08356581 23.73661349 34.94717791 27.25 37.875 C30.72682952 39.29733935 32.43764344 39.13692231 36 38 C38.81005071 35.72158051 39.84898818 34.45303547 41 31 C41.15179014 28.6444552 41.24899289 26.28524877 41.31640625 23.92578125 C41.33718735 23.2419487 41.35796844 22.55811615 41.37937927 21.8535614 C41.44466154 19.6733079 41.50366017 17.49293595 41.5625 15.3125 C41.60570553 13.83267014 41.64932047 12.35285217 41.69335938 10.87304688 C41.80109025 7.24881746 41.90032107 3.62449562 42 0 C49.59 0 57.18 0 65 0 C65.06819494 7.48535665 65.12305523 14.97059491 65.15543652 22.4561882 C65.17099005 25.93331334 65.19203537 29.41021211 65.22631836 32.88720703 C65.26561778 36.89878317 65.27979421 40.91012731 65.29296875 44.921875 C65.30845261 46.15049255 65.32393646 47.37911011 65.33988953 48.6449585 C65.34225013 60.94128432 63.51691868 71.72234683 55 81 C46.33196382 88.60664399 36.69644321 90.5751242 25.39453125 90.28125 C16.86306593 89.57438521 9.44102269 86.74171165 3 81 C0.73178617 78.13784152 -1.20065735 75.17531055 -3 72 C0.13301573 68.54446794 3.42606047 66.37687942 7.5 64.125 C9.18609375 63.16980469 9.18609375 63.16980469 10.90625 62.1953125 C14 61 14 61 16.2734375 61.67578125 C18.37217482 63.2854463 20.16221295 65.10095339 22 67 C25.70487832 68.85243916 29.95614188 68.4585162 34 68 C38.07570828 65.70741409 39.64367505 63.43888167 41 59 C40.32324219 59.32226562 39.64648438 59.64453125 38.94921875 59.9765625 C31.00387264 62.73375545 20.72380971 61.95979725 13.15234375 58.39453125 C6.34690795 53.9852017 2.44601121 47.56316993 0.43579102 39.8293457 C-0.15057568 36.02239686 -0.12295635 32.25872101 -0.09765625 28.41796875 C-0.0962413 27.60378983 -0.09482635 26.7896109 -0.09336853 25.95075989 C-0.08779317 23.36296844 -0.07524524 20.77526508 -0.0625 18.1875 C-0.05748181 16.42773563 -0.05291946 14.66796989 -0.04882812 12.90820312 C-0.03868481 8.60540791 -0.0191047 4.302802 0 0 Z " fill="#FFFFFF" transform="translate(382,41)"/>
<path d="M0 0 C1.9921875 1.1171875 1.9921875 1.1171875 3.875 2.375 C4.57882813 2.81070313 5.28265625 3.24640625 6.0078125 3.6953125 C13.22108864 8.56627019 17.09804024 14.87654416 18.875 23.375 C19.12455509 26.30582393 19.10955837 29.21267529 19.0703125 32.15234375 C19.0674826 32.96369278 19.06465271 33.77504181 19.06173706 34.61097717 C19.05062663 37.17830753 19.02553971 39.74527678 19 42.3125 C18.98995836 44.06314597 18.98083459 45.81379746 18.97265625 47.56445312 C18.95242683 51.83488327 18.91326194 56.10454194 18.875 60.375 C11.945 60.375 5.015 60.375 -2.125 60.375 C-2.455 59.715 -2.785 59.055 -3.125 58.375 C-4.15625 59.035 -5.1875 59.695 -6.25 60.375 C-13.02590682 63.73892537 -20.75773864 63.37644799 -28.00390625 61.71484375 C-37.23180809 58.46042341 -42.02744613 52.41165139 -46.1796875 43.8046875 C-49.66090945 34.85708399 -49.13496558 24.76933969 -45.5078125 15.98046875 C-37.22181963 0.36816015 -16.5490272 -7.02168232 0 0 Z M-24.125 24.375 C-25.74715174 27.61930347 -25.67792793 30.86878642 -25.125 34.375 C-23.19801027 37.79385274 -21.76379916 39.7845503 -18 41.140625 C-14.70774118 41.74123979 -12.25665066 41.97729224 -9.24609375 40.375 C-7.06779817 38.61136792 -5.38388716 36.89277432 -4.125 34.375 C-3.77791524 29.08195745 -3.61148106 25.64141586 -7.125 21.375 C-13.4796587 16.60900598 -19.2295415 19.4795415 -24.125 24.375 Z " fill="#FFFFFF" transform="translate(159.125,40.625)"/>
<path d="M0 0 C7.1426147 5.45574187 10.1800089 12.7362171 11.64624023 21.38647461 C12.40018133 28.03921181 12.22757532 34.71818445 12.1484375 41.40234375 C12.13838042 42.89387415 12.12925942 44.38541117 12.12109375 45.87695312 C12.10103305 49.48988564 12.06185062 53.10187625 12.0234375 56.71484375 C4.4334375 56.71484375 -3.1565625 56.71484375 -10.9765625 56.71484375 C-11.03263672 53.46253906 -11.03263672 53.46253906 -11.08984375 50.14453125 C-11.13614161 48.0295236 -11.18734486 45.91468715 -11.23901367 43.79980469 C-11.27213385 42.33734667 -11.30020555 40.8747648 -11.32299805 39.41210938 C-11.35678425 37.30154972 -11.4091063 35.19211189 -11.46484375 33.08203125 C-11.49102783 31.81472168 -11.51721191 30.54741211 -11.54418945 29.24169922 C-12.01295669 25.41797728 -12.95047572 22.9758246 -14.9765625 19.71484375 C-18.72703732 17.21452721 -20.53512516 17.17880821 -24.9765625 17.71484375 C-28.13610555 20.25621534 -29.69197136 21.86107034 -30.9765625 25.71484375 C-31.12835264 28.07038855 -31.22555539 30.42959498 -31.29296875 32.7890625 C-31.31374985 33.47289505 -31.33453094 34.1567276 -31.35594177 34.86128235 C-31.42122404 37.04153585 -31.48022267 39.2219078 -31.5390625 41.40234375 C-31.58226803 42.88217361 -31.62588297 44.36199158 -31.66992188 45.84179688 C-31.77765275 49.46602629 -31.87688357 53.09034813 -31.9765625 56.71484375 C-39.5665625 56.71484375 -47.1565625 56.71484375 -54.9765625 56.71484375 C-55.02302639 52.68022909 -55.06267803 48.64631495 -55.08642578 44.61157227 C-55.09634813 43.24532895 -55.10989036 41.87910606 -55.12744141 40.51293945 C-55.45778203 14.09540513 -55.45778203 14.09540513 -46.9765625 3.71484375 C-34.93221581 -8.25343338 -13.92467899 -9.05379326 0 0 Z " fill="#FFFFFF" transform="translate(274.9765625,44.28515625)"/>
<path d="M0 0 C22.77 0 45.54 0 69 0 C69 6.93 69 13.86 69 21 C61.41 21 53.82 21 46 21 C46 40.8 46 60.6 46 81 C38.41 81 30.82 81 23 81 C23 61.2 23 41.4 23 21 C15.41 21 7.82 21 0 21 C0 14.07 0 7.14 0 0 Z " fill="#FFFFFF" transform="translate(1,20)"/>
<path d="M0 0 C7.26 0 14.52 0 22 0 C22 4.95 22 9.9 22 15 C28.6 15 35.2 15 42 15 C42 21.27 42 27.54 42 34 C35.4 34 28.8 34 22 34 C22.12375 36.371875 22.2475 38.74375 22.375 41.1875 C22.40899902 41.92508545 22.44299805 42.6626709 22.47802734 43.42260742 C22.78035672 48.48765046 23.35034141 52.35034141 27 56 C29.00564446 56.28146809 29.00564446 56.28146809 31.25 56.1875 C31.99765625 56.18105469 32.7453125 56.17460938 33.515625 56.16796875 C36.36391903 55.97539541 39.18404603 55.46932566 42 55 C42 61.6 42 68.2 42 75 C34.70576818 78.64711591 24.79963276 77.93738192 16.83984375 76.3828125 C10.745456 74.25401554 6.38108777 70.48866237 3 65 C-0.23023549 58.23904201 -0.36853965 52.41798368 -0.1875 45 C-0.16719727 43.40865234 -0.16719727 43.40865234 -0.14648438 41.78515625 C-0.1114131 39.18988179 -0.0576164 36.59487184 0 34 C-3.3 34 -6.6 34 -10 34 C-10 27.73 -10 21.46 -10 15 C-6.7 15 -3.4 15 0 15 C0 10.05 0 5.1 0 0 Z " fill="#FFFFFF" transform="translate(334,26)"/>
<path d="M0 0 C0.74548096 -0.00555908 1.49096191 -0.01111816 2.2590332 -0.0168457 C6.36443422 0.03737395 8.49062842 0.43281421 12.25 2.3125 C12.25 9.2425 12.25 16.1725 12.25 23.3125 C8.99479167 23.01953125 5.73958333 22.7265625 2.484375 22.43359375 C-0.26871477 22.33051913 -2.169982 22.45036527 -4.75 23.3125 C-6.0147822 27.25537974 -5.97444395 31.26027814 -6.06640625 35.359375 C-6.08718735 36.13057678 -6.10796844 36.90177856 -6.12937927 37.6963501 C-6.19458572 40.15164572 -6.25362484 42.60704521 -6.3125 45.0625 C-6.35571274 46.73047935 -6.3993279 48.39844832 -6.44335938 50.06640625 C-6.55099226 54.14833273 -6.65027992 58.23034188 -6.75 62.3125 C-14.34 62.3125 -21.93 62.3125 -29.75 62.3125 C-29.79626582 57.52912818 -29.83598201 52.74655323 -29.85986328 47.96313477 C-29.86983357 46.34071196 -29.88341469 44.71830671 -29.90087891 43.09594727 C-30.17094029 17.33685676 -30.17094029 17.33685676 -22.75 8.3125 C-15.79669874 1.35919874 -9.37373947 0.06028446 0 0 Z " fill="#FFFFFF" transform="translate(97.75,38.6875)"/>
<path d="M0 0 C7.26 0 14.52 0 22 0 C22 19.8 22 39.6 22 60 C14.74 60 7.48 60 0 60 C0 40.2 0 20.4 0 0 Z " fill="#FFFFFF" transform="translate(296,41)"/>
<path d="M0 0 C7.26 0 14.52 0 22 0 C22 19.8 22 39.6 22 60 C14.74 60 7.48 60 0 60 C0 40.2 0 20.4 0 0 Z " fill="#FFFFFF" transform="translate(188,41)"/>
<path d="M0 0 C3.27890811 1.81001297 5.45091777 4.11669381 7.4375 7.3125 C8.44940194 12.14714259 7.74509263 16.32354159 5.75 20.8125 C3.18023391 24.02470761 1.01785794 25.73217522 -3.1484375 26.28515625 C-9.4300144 26.52515005 -12.61666649 25.12567583 -17.3125 20.9375 C-19.78240303 16.63803916 -19.7608897 12.84484872 -19 8 C-17.22128603 4.23733583 -15.66862969 2.48203536 -12.3125 0.0625 C-7.90265796 -1.35197764 -4.44127585 -1.30298612 0 0 Z " fill="#FFFFFF" transform="translate(313,9)"/>
<path d="M0 0 C3.27890811 1.81001297 5.45091777 4.11669381 7.4375 7.3125 C8.44940194 12.14714259 7.74509263 16.32354159 5.75 20.8125 C3.18023391 24.02470761 1.01785794 25.73217522 -3.1484375 26.28515625 C-9.4300144 26.52515005 -12.61666649 25.12567583 -17.3125 20.9375 C-19.78240303 16.63803916 -19.7608897 12.84484872 -19 8 C-17.22128603 4.23733583 -15.66862969 2.48203536 -12.3125 0.0625 C-7.90265796 -1.35197764 -4.44127585 -1.30298612 0 0 Z " fill="#FFFFFF" transform="translate(205,9)"/>
</svg>
