<?xml version="1.0" encoding="UTF-8"?>
<svg version="1.1" xmlns="http://www.w3.org/2000/svg" width="481" height="444">
<path d="M0 0 C3.88397083 2.9861274 7.70412934 6.04927843 11.51416016 9.12890625 C14.08052511 11.18647118 16.70203468 13.16147611 19.34375 15.12109375 C24.77110924 19.16354063 30.15269128 23.26397222 35.53125 27.37109375 C42.56618325 32.74194392 49.62750341 38.07485363 56.71875 43.37109375 C63.98269743 48.79906705 71.16693297 54.32003248 78.31201172 59.90332031 C83.22350897 63.73875812 88.17793827 67.50793743 93.17578125 71.23046875 C97.65417593 74.57560685 102.08864651 77.97867705 106.53125 81.37109375 C113.56618325 86.74194392 120.62750341 92.07485363 127.71875 97.37109375 C134.98269743 102.79906705 142.16693297 108.32003248 149.31201172 113.90332031 C154.22350897 117.73875812 159.17793827 121.50793743 164.17578125 125.23046875 C168.65417575 128.57560671 173.08865721 131.97866334 177.53125 135.37109375 C183.80797172 140.16335671 190.10024749 144.93280599 196.42675781 149.65917969 C200.46837975 152.67913923 204.50059298 155.71152366 208.53125 158.74609375 C209.22428223 159.26574707 209.91731445 159.78540039 210.63134766 160.32080078 C220.82838993 167.9955887 229.0207552 175.2532743 234.90625 186.74609375 C235.24060059 187.39860107 235.57495117 188.0511084 235.91943359 188.72338867 C242.13920782 201.58752244 242.72023831 218.29288151 238.62890625 231.91796875 C230.42743048 253.04917324 213.78084251 264.14922209 195.984375 276.61328125 C191.49220841 279.76411929 187.03860683 282.96646984 182.59375 286.18359375 C181.84778564 286.72346924 181.10182129 287.26334473 180.33325195 287.81958008 C178.82111573 288.91447419 177.30915301 290.00960797 175.79736328 291.10498047 C172.044802 293.82257548 168.28781581 296.53403848 164.53125 299.24609375 C163.03122854 300.32939737 161.53122854 301.41273071 160.03125 302.49609375 C157.03125 304.66276042 154.03125 306.82942708 151.03125 308.99609375 C149.9170166 309.8008313 149.9170166 309.8008313 148.78027344 310.62182617 C147.28356299 311.70276566 145.78681832 312.78365776 144.29003906 313.86450195 C140.48942363 316.60906915 136.68944702 319.35451341 132.890625 322.1015625 C125.55791167 327.40291606 118.21763156 332.69264812 110.84960938 337.94482422 C103.82560105 342.95595245 96.83746493 348.01678846 89.84570312 353.07275391 C85.32675388 356.33993514 80.80564153 359.60412295 76.28442383 362.86816406 C72.51963678 365.58642776 68.75636039 368.30673574 64.99609375 371.03125 C57.00768988 376.81595625 48.99009181 382.55406165 40.92333984 388.22900391 C35.78846735 391.84629691 30.68358344 395.50322723 25.59375 399.18359375 C24.8524585 399.71936035 24.11116699 400.25512695 23.34741211 400.80712891 C19.48619261 403.60045832 15.63095329 406.40175852 11.78125 409.2109375 C-8.12953849 423.71960602 -25.08480799 434.05514215 -50.59082031 430.44580078 C-65.51065653 427.46259359 -78.55628335 419.21493739 -87.16552734 406.67553711 C-96.88351172 391.7924823 -99.1916024 376.73439075 -97.04296875 359.2890625 C-92.02755185 336.30429915 -74.12253036 323.6097408 -56.02734375 310.94921875 C-51.49866785 307.77671868 -47.01003451 304.55102678 -42.53125 301.30859375 C-41.78552734 300.76887939 -41.03980469 300.22916504 -40.27148438 299.6730957 C-38.75909735 298.57804803 -37.24689043 297.48275156 -35.73486328 296.38720703 C-31.982302 293.66961202 -28.22531581 290.95814902 -24.46875 288.24609375 C-22.96872854 287.16279013 -21.46872854 286.07945679 -19.96875 284.99609375 C-16.96875 282.82942708 -13.96875 280.66276042 -10.96875 278.49609375 C-9.8545166 277.6913562 -9.8545166 277.6913562 -8.71777344 276.87036133 C-7.22106299 275.78942184 -5.72431832 274.70852974 -4.22753906 273.62768555 C-0.42692363 270.88311835 3.37305298 268.13767409 7.171875 265.390625 C14.50458833 260.08927144 21.84486844 254.79953938 29.21289062 249.54736328 C33.91460116 246.19302865 38.59988404 242.81625171 43.28125 239.43359375 C44.03341797 238.89009277 44.78558594 238.3465918 45.56054688 237.78662109 C49.48425136 234.95051949 53.40656346 232.11250128 57.328125 229.2734375 C58.89579432 228.139269 60.46350196 227.00515345 62.03125 225.87109375 C62.78172607 225.32759277 63.53220215 224.7840918 64.30541992 224.22412109 C69.11500976 220.74758039 73.96029326 217.33673975 78.87890625 214.015625 C80.67146093 212.82966162 80.67146093 212.82966162 81.53125 210.74609375 C80.95197754 210.47313477 80.37270508 210.20017578 79.77587891 209.91894531 C77.55227283 208.75707849 75.63503052 207.46812955 73.6171875 205.98046875 C72.86574463 205.4275415 72.11430176 204.87461426 71.34008789 204.30493164 C70.53692139 203.70801514 69.73375488 203.11109863 68.90625 202.49609375 C68.06376709 201.87275146 67.22128418 201.24940918 66.35327148 200.60717773 C59.95450496 195.8524599 53.64878001 190.98659527 47.37451172 186.06933594 C41.81491259 181.71981699 36.18927049 177.46659464 30.53125 173.24609375 C24.06008107 168.41785114 17.64148506 163.53210369 11.28125 158.55859375 C5.1615264 153.77363561 -1.00502032 149.06233391 -7.23071289 144.41625977 C-15.45427384 138.27499499 -23.60449577 132.03756906 -31.76318359 125.81054688 C-35.29313391 123.11705654 -38.8249509 120.42602328 -42.35742188 117.73583984 C-44.09520853 116.4117036 -45.83219123 115.08651158 -47.56835938 113.76025391 C-52.06351412 110.32827902 -56.57214886 106.916599 -61.10546875 103.53515625 C-77.64951371 91.15957597 -92.66475908 79.391007 -97.0234375 58.02734375 C-99.20404497 41.95970978 -97.13864185 26.67446349 -88.46875 12.74609375 C-85.69651862 9.15759424 -82.69518998 5.92826011 -79.46875 2.74609375 C-78.83066406 2.09769531 -78.19257812 1.44929687 -77.53515625 0.78125 C-55.89839309 -19.77592415 -22.60677644 -16.88262471 0 0 Z " fill="#040707" transform="translate(97.46875,13.25390625)"/>
<path d="M0 0 C2.10404803 -0.0020944 4.2080955 -0.00855953 6.31211853 -0.01902771 C11.98819752 -0.03462039 17.66222701 0.01154493 23.33796215 0.07012725 C29.29493091 0.12176471 35.25188943 0.11856051 41.20904541 0.12214661 C51.20563534 0.13594662 61.20145743 0.18698293 71.19775391 0.26367188 C84.01174974 0.36180908 96.82517761 0.39982612 109.63950729 0.41834545 C120.68395856 0.43463098 131.72828828 0.4768526 142.772645 0.5240767 C146.31059174 0.53830277 149.84853854 0.54931296 153.3864975 0.56001854 C158.95173625 0.57865699 164.51666001 0.61346339 170.08172798 0.66060448 C172.11900568 0.67570363 174.15632698 0.68587805 176.19365501 0.69066238 C191.13884553 0.7310501 203.36545257 1.31404475 214.80957031 12.03442383 C222.63100127 20.38837775 225.23244711 29.42787587 225.10644531 40.66723633 C224.36603256 50.1868288 220.73770621 58.54519546 213.83300781 65.18286133 C203.69202883 72.97901896 195.60794866 74.48417956 183.10853577 74.42337036 C181.18233647 74.42593364 181.18233647 74.42593364 179.21722406 74.42854869 C175.66430141 74.43300952 172.1114999 74.425036 168.55859268 74.41499257 C164.72296084 74.4063421 160.88733563 74.40927936 157.05169678 74.41079712 C150.40997262 74.41184496 143.76828782 74.4055789 137.12657356 74.39432144 C127.52381818 74.37805574 117.92108179 74.37285734 108.31831413 74.37034546 C92.7378334 74.36597004 77.15737364 74.35266508 61.5769043 74.33374023 C46.44344182 74.31537748 31.30998504 74.30122291 16.17651367 74.29272461 C15.24342312 74.29219916 14.31033257 74.29167372 13.34896655 74.29113235 C8.66784672 74.28852224 3.98672685 74.28599483 -0.69439304 74.28350854 C-39.51860743 74.2627808 -78.34279842 74.22755942 -117.16699219 74.18286133 C-114.31047038 71.29781759 -111.55655178 68.57001731 -108.26074219 66.19458008 C-107.52766846 65.6613916 -106.79459473 65.12820313 -106.03930664 64.57885742 C-104.86501099 63.73315186 -104.86501099 63.73315186 -103.66699219 62.87036133 C-96.54045046 57.68073439 -89.4810819 52.41492442 -82.47949219 47.05786133 C-75.76762538 41.9256524 -69.03796955 36.82059265 -62.26831055 31.76489258 C-58.49680905 28.94351478 -54.74330602 26.10009573 -51.00292969 23.23754883 C-50.09800781 22.54532227 -49.19308594 21.8530957 -48.26074219 21.13989258 C-46.52224293 19.80854186 -44.78512604 18.47538283 -43.04980469 17.13989258 C-41.40753758 15.88237043 -39.75326449 14.64035841 -38.08684158 13.41502666 C-35.11861902 11.20472384 -35.11861902 11.20472384 -32.32145309 8.64098072 C-22.16976808 -0.07587829 -12.95419728 -0.21425401 0 0 Z " fill="#040707" transform="translate(256.1669921875,369.817138671875)"/>
</svg>
