<?xml version="1.0" encoding="UTF-8"?>
<svg version="1.1" xmlns="http://www.w3.org/2000/svg" width="497" height="121">
<path d="M0 0 C2.18015737 1.24669028 4.01866794 2.48479812 6 4 C6.69955811 4.52360107 7.39911621 5.04720215 8.11987305 5.58666992 C10.63274805 7.48102312 13.12973657 9.39501436 15.625 11.3125 C22.88816122 16.87216153 30.17558526 22.39630116 37.5 27.875 C39.14460453 29.11057955 40.78913791 30.34625381 42.43359375 31.58203125 C45.28684658 33.72420416 48.1526445 35.84662141 51.03515625 37.94921875 C52.21105677 38.82015148 53.38684707 39.69123307 54.5625 40.5625 C55.55378906 41.28566406 56.54507813 42.00882813 57.56640625 42.75390625 C60.79813971 45.7366458 62.58409568 48.7818436 63.3984375 53.125 C63.33960403 57.83167741 62.79641871 61.05211476 60 65 C53.24011021 71.38434035 45.17963117 76.46526947 37.57421875 81.78515625 C32.95476619 85.02105254 28.38105703 88.31781185 23.8125 91.625 C23.06299072 92.16374756 22.31348145 92.70249512 21.54125977 93.25756836 C18.01409055 95.79600594 14.51456162 98.35771732 11.0703125 101.0078125 C0.15242045 109.32010208 0.15242045 109.32010208 -6.0390625 109.30859375 C-10.90040608 108.54356159 -14.04115787 107.03454019 -17.375 103.4375 C-19.67058217 99.99412674 -20.2497463 97.93739186 -20.4375 93.8125 C-20.52837891 92.42998047 -20.52837891 92.42998047 -20.62109375 91.01953125 C-19.04763479 83.36994774 -11.54973629 78.8805596 -5.5 74.6875 C-4.32328735 73.85545044 -4.32328735 73.85545044 -3.12280273 73.0065918 C-1.52431988 71.87681141 0.07665948 70.75055456 1.68017578 69.62792969 C5.11798371 67.21545828 8.52602885 64.76198377 11.9375 62.3125 C14.93333854 60.16809699 17.93400572 58.04399618 21 56 C19.6101473 52.70824361 18.14272075 51.06879094 15.24609375 49.00390625 C14.48167969 48.4514624 13.71726563 47.89901855 12.9296875 47.32983398 C12.10726562 46.74661377 11.28484375 46.16339355 10.4375 45.5625 C8.71666744 44.31618109 6.99663291 43.06875966 5.27734375 41.8203125 C3.96419189 40.87140137 3.96419189 40.87140137 2.62451172 39.90332031 C-1.44533377 36.9518305 -5.4828038 33.96016254 -9.5 30.9375 C-10.21099854 30.41422119 -10.92199707 29.89094238 -11.65454102 29.35180664 C-16.14324679 25.9613255 -19.49307431 23.137459 -20.43359375 17.31640625 C-20.44199545 11.39320556 -20.20914447 7.55042646 -16 3 C-11.61563548 -0.98578593 -5.6188074 -0.98972058 0 0 Z " fill="#040707" transform="translate(20,0)"/>
<path d="M0 0 C5.61 0 11.22 0 17 0 C17.04898437 1.67449219 17.09796875 3.34898438 17.1484375 5.07421875 C17.22348238 7.27866209 17.29902947 9.48308837 17.375 11.6875 C17.4059375 12.79029297 17.436875 13.89308594 17.46875 15.02929688 C17.50742187 16.09599609 17.54609375 17.16269531 17.5859375 18.26171875 C17.63306885 19.73064575 17.63306885 19.73064575 17.68115234 21.22924805 C18.02114747 24.18376921 18.6444925 26.35536442 20 29 C22.81598187 31.30260759 22.81598187 31.30260759 26 30.875 C29.54950956 29.83972638 30.18178128 29.14449157 32 26 C32.50184739 23.10439031 32.50184739 23.10439031 32.51171875 19.921875 C32.54716797 18.76171875 32.58261719 17.6015625 32.61914062 16.40625 C32.64169922 15.1996875 32.66425781 13.993125 32.6875 12.75 C32.72166016 11.52796875 32.75582031 10.3059375 32.79101562 9.046875 C32.8734653 6.03157254 32.93840971 3.01580064 33 0 C38.94 0 44.88 0 51 0 C51.09927225 7.09834772 51.17166048 14.19628651 51.21972656 21.29516602 C51.23977552 23.70734705 51.26702192 26.11947989 51.30175781 28.53149414 C51.35057051 32.00939873 51.37303683 35.48665772 51.390625 38.96484375 C51.41127014 40.03395493 51.43191528 41.1030661 51.45318604 42.20457458 C51.45592565 51.45720579 49.00438326 58.61163912 42.7109375 65.49609375 C36.10213073 71.30520473 28.59521406 72.30783994 20.1015625 72.21484375 C12.98777406 71.72207503 6.06274844 69.16767586 1 64 C-0.61336221 61.43198559 -1.87587398 58.81380612 -3 56 C-0.71070947 54.82845707 1.58118362 53.66261926 3.875 52.5 C4.52597656 52.16613281 5.17695313 51.83226562 5.84765625 51.48828125 C10.7734375 49 10.7734375 49 13 49 C13.680625 49.825 14.36125 50.65 15.0625 51.5 C18.62000332 54.5276624 20.38954571 54.62675567 24.90625 54.36328125 C27.65225898 53.8868282 29.18668323 53.12867621 31 51 C31 50.01 31 49.02 31 48 C30.13955078 48.23976563 30.13955078 48.23976563 29.26171875 48.484375 C22.42913663 50.04206211 15.1769485 49.38663296 9 46 C4.28743611 41.93373059 1.66393554 38.00467519 0 32 C-0.15839988 29.47548068 -0.21554772 26.94346536 -0.1953125 24.4140625 C-0.1924826 23.71227875 -0.18965271 23.010495 -0.18673706 22.28744507 C-0.17562512 20.06644972 -0.15053834 17.84587155 -0.125 15.625 C-0.11495854 14.11068295 -0.10583473 12.59635951 -0.09765625 11.08203125 C-0.07742461 7.38773444 -0.03826118 3.69432905 0 0 Z " fill="#040707" transform="translate(436,41)"/>
<path d="M0 0 C6.08124912 4.12535753 8.52541642 8.91999925 10.80078125 15.74609375 C10.88456753 18.02994545 10.9080804 20.31619475 10.8984375 22.6015625 C10.89702255 23.26319901 10.8956076 23.92483551 10.89414978 24.60652161 C10.88856121 26.71559203 10.8760109 28.82455552 10.86328125 30.93359375 C10.85826477 32.36523284 10.85370212 33.7968736 10.84960938 35.22851562 C10.83859555 38.73440963 10.8213388 42.24024125 10.80078125 45.74609375 C4.13411458 45.74609375 -2.53255208 45.74609375 -9.19921875 45.74609375 C-9.90046875 46.07609375 -10.60171875 46.40609375 -11.32421875 46.74609375 C-17.42383614 48.8676998 -23.47281049 48.25151439 -29.35546875 45.70703125 C-35.25003135 42.63486515 -38.52310086 38.74527877 -41.27734375 32.75390625 C-43.64308305 25.03518058 -43.48575116 16.59505968 -40.19921875 9.18359375 C-36.36683577 2.68473585 -30.44727722 -1.44461305 -23.328125 -3.78515625 C-15.04546172 -5.60886193 -7.30854426 -4.16703856 0 0 Z M-22.19921875 14.74609375 C-24.65540314 18.43037034 -24.8894159 21.46687143 -24.19921875 25.74609375 C-22.15616183 28.81067913 -20.75842073 29.56762503 -17.26171875 30.68359375 C-13.57041143 30.75892655 -12.08661065 29.99184301 -9.19921875 27.74609375 C-6.85753111 24.23356229 -6.70298198 22.88140019 -7.19921875 18.74609375 C-8.62772485 15.81458245 -8.62772485 15.81458245 -11.19921875 13.74609375 C-15.439423 12.61032475 -18.55384625 12.04581783 -22.19921875 14.74609375 Z " fill="#040707" transform="translate(261.19921875,43.25390625)"/>
<path d="M0 0 C5.05743802 4.04407382 8.02423168 8.27358039 9.73046875 14.55859375 C10.19720053 19.92709125 10.11070136 25.23916982 9.98046875 30.62109375 C9.96036565 32.07354298 9.94212163 33.52601919 9.92578125 34.97851562 C9.8855312 38.50643277 9.80721199 42.03053666 9.73046875 45.55859375 C3.79046875 45.55859375 -2.14953125 45.55859375 -8.26953125 45.55859375 C-8.31851563 43.728125 -8.3675 41.89765625 -8.41796875 40.01171875 C-8.49300178 37.61066179 -8.56854938 35.20962087 -8.64453125 32.80859375 C-8.67546875 31.60203125 -8.70640625 30.39546875 -8.73828125 29.15234375 C-8.79628906 27.41210938 -8.79628906 27.41210938 -8.85546875 25.63671875 C-8.88688965 24.5684082 -8.91831055 23.50009766 -8.95068359 22.39941406 C-9.26486895 19.60013318 -9.73830678 17.90270726 -11.26953125 15.55859375 C-14.35279475 14.016962 -16.87831224 14.2611184 -20.26953125 14.55859375 C-23.76831589 17.70749993 -24.11588093 21.62252665 -24.47485352 26.14575195 C-24.51151123 27.04124756 -24.54816895 27.93674316 -24.5859375 28.859375 C-24.62783203 29.83583984 -24.66972656 30.81230469 -24.71289062 31.81835938 C-24.75220703 32.82576172 -24.79152344 33.83316406 -24.83203125 34.87109375 C-24.87521484 35.89783203 -24.91839844 36.92457031 -24.96289062 37.98242188 C-25.06859863 40.50766864 -25.16953333 43.03311442 -25.26953125 45.55859375 C-31.20953125 45.55859375 -37.14953125 45.55859375 -43.26953125 45.55859375 C-43.32380631 41.41258198 -43.36334008 37.26729104 -43.39453125 33.12109375 C-43.41128906 31.95642578 -43.42804688 30.79175781 -43.4453125 29.59179688 C-43.50242548 19.45424369 -42.92086589 10.61761826 -36.26953125 2.55859375 C-26.71845238 -6.61976009 -10.96498267 -6.96399071 0 0 Z " fill="#040707" transform="translate(349.26953125,43.44140625)"/>
<path d="M0 0 C18.15 0 36.3 0 55 0 C55 5.61 55 11.22 55 17 C49.06 17 43.12 17 37 17 C37 32.84 37 48.68 37 65 C30.73 65 24.46 65 18 65 C18 49.16 18 33.32 18 17 C12.06 17 6.12 17 0 17 C0 11.39 0 5.78 0 0 Z " fill="#040707" transform="translate(131,24)"/>
<path d="M0 0 C5.94 0 11.88 0 18 0 C18 3.96 18 7.92 18 12 C22.95 12 27.9 12 33 12 C33 16.95 33 21.9 33 27 C28.05 27 23.1 27 18 27 C18.144375 29.43375 18.28875 31.8675 18.4375 34.375 C18.48060303 35.13989746 18.52370605 35.90479492 18.56811523 36.69287109 C18.76209704 40.47181316 18.76209704 40.47181316 20 44 C25.25189453 45.1554168 28.46420028 44.79082853 34 44 C33.67 49.28 33.34 54.56 33 60 C25.7234256 62.91062976 19.15093448 63.04793987 11.6875 60.5 C6.58322692 58.23233728 3.68641767 54.82762142 1 50 C0.03911617 47.11734851 -0.11670941 45.32337729 -0.09765625 42.33203125 C-0.09443359 41.43935547 -0.09121094 40.54667969 -0.08789062 39.62695312 C-0.07951172 38.69818359 -0.07113281 37.76941406 -0.0625 36.8125 C-0.05798828 35.87212891 -0.05347656 34.93175781 -0.04882812 33.96289062 C-0.03704626 31.64186288 -0.02059558 29.32096356 0 27 C-2.64 27 -5.28 27 -8 27 C-8 22.05 -8 17.1 -8 12 C-5.36 12 -2.72 12 0 12 C0 8.04 0 4.08 0 0 Z " fill="#040707" transform="translate(397,29)"/>
<path d="M0 0 C1.62716446 -0.01913956 1.62716446 -0.01913956 3.28720093 -0.03866577 C4.45908966 -0.04089142 5.63097839 -0.04311707 6.83837891 -0.04541016 C8.04305817 -0.05206696 9.24773743 -0.05872375 10.48892212 -0.06558228 C13.03931143 -0.0757154 15.5897273 -0.08039909 18.14013672 -0.08007812 C22.04259973 -0.08444764 25.94392886 -0.12075274 29.84619141 -0.15869141 C32.32275003 -0.16456008 34.79931404 -0.16852913 37.27587891 -0.17041016 C39.02763931 -0.19196671 39.02763931 -0.19196671 40.81478882 -0.21395874 C48.91359878 -0.16828468 48.91359878 -0.16828468 52.91503906 2.1965332 C55.64364552 5.4156883 55.97799182 8.15083145 55.68994141 12.29052734 C54.51181482 15.14283381 53.59385423 16.67515413 51.04681396 18.40914917 C47.7647887 19.63649828 44.62182432 19.55277899 41.16748047 19.51757812 C40.04006691 19.5180162 40.04006691 19.5180162 38.88987732 19.51846313 C36.41165524 19.51707254 33.9337358 19.50152418 31.45556641 19.48583984 C29.73492599 19.48210875 28.01428344 19.47926223 26.29364014 19.4772644 C21.76936964 19.46963552 17.24522797 19.44999342 12.7210083 19.42785645 C8.10259748 19.40738198 3.4841658 19.39825926 -1.13427734 19.38818359 C-10.19292763 19.36674683 -19.25148239 19.33261986 -28.31005859 19.29052734 C-27.12966203 15.74933766 -26.12974616 15.15197814 -23.16162109 13.00537109 C-22.32115234 12.39242187 -21.48068359 11.77947266 -20.61474609 11.14794922 C-19.73044922 10.514375 -18.84615234 9.88080078 -17.93505859 9.22802734 C-16.62021484 8.27186523 -16.62021484 8.27186523 -15.27880859 7.29638672 C-5.28032815 0.04213753 -5.28032815 0.04213753 0 0 Z " fill="#040707" transform="translate(62.31005859375,89.70947265625)"/>
<path d="M0 0 C0 5.94 0 11.88 0 18 C-2.50651042 17.67447917 -5.01302083 17.34895833 -7.51953125 17.0234375 C-10.25690391 16.76499257 -10.25690391 16.76499257 -13 19 C-14.24399325 22.25121161 -14.19801069 25.62774005 -14.31640625 29.078125 C-14.35830078 30.23828125 -14.40019531 31.3984375 -14.44335938 32.59375 C-14.48267578 33.8003125 -14.52199219 35.006875 -14.5625 36.25 C-14.60568359 37.47203125 -14.64886719 38.6940625 -14.69335938 39.953125 C-14.79937283 42.96861881 -14.9001844 45.98429468 -15 49 C-20.94 49 -26.88 49 -33 49 C-33.0462592 45.03455853 -33.08597719 41.06981683 -33.10986328 37.10424805 C-33.12470245 35.10263623 -33.15013361 33.10111188 -33.17578125 31.09960938 C-33.2752672 11.35164796 -33.2752672 11.35164796 -26 4 C-18.36837651 -1.74554721 -9.04678351 -2.26169588 0 0 Z " fill="#040707" transform="translate(218,40)"/>
<path d="M0 0 C5.94 0 11.88 0 18 0 C18 15.84 18 31.68 18 48 C12.06 48 6.12 48 0 48 C0 32.16 0 16.32 0 0 Z " fill="#040707" transform="translate(367,41)"/>
<path d="M0 0 C5.94 0 11.88 0 18 0 C18 15.84 18 31.68 18 48 C12.06 48 6.12 48 0 48 C0 32.16 0 16.32 0 0 Z " fill="#040707" transform="translate(280,41)"/>
<path d="M0 0 C2.87472735 1.24988145 4.44101438 2.25468584 6.3125 4.75 C7.31516165 8.03143813 7.35356638 10.58219169 7 14 C3.92307692 19.53846154 3.92307692 19.53846154 1 21 C-3.63213493 21.55512815 -6.98172127 21.6364242 -11 19.125 C-14.32530877 15.59185943 -14.33074386 12.95338737 -14.29296875 8.26171875 C-13.86344199 4.9457722 -12.39075646 3.25012373 -10 1 C-6.80621918 -0.59689041 -3.47478685 -0.37348957 0 0 Z " fill="#040707" transform="translate(380,15)"/>
<path d="M0 0 C2.87472735 1.24988145 4.44101438 2.25468584 6.3125 4.75 C7.31516165 8.03143813 7.35356638 10.58219169 7 14 C3.92307692 19.53846154 3.92307692 19.53846154 1 21 C-3.63213493 21.55512815 -6.98172127 21.6364242 -11 19.125 C-14.32530877 15.59185943 -14.33074386 12.95338737 -14.29296875 8.26171875 C-13.86344199 4.9457722 -12.39075646 3.25012373 -10 1 C-6.80621918 -0.59689041 -3.47478685 -0.37348957 0 0 Z " fill="#040707" transform="translate(293,15)"/>
</svg>
